G04 #@! TF.GenerationSoftware,KiCad,Pcbnew,(5.0.0)*
G04 #@! TF.CreationDate,2018-10-21T16:46:55+02:00*
G04 #@! TF.ProjectId,DispalyBoard,44697370616C79426F6172642E6B6963,0.2.1*
G04 #@! TF.SameCoordinates,Original*
G04 #@! TF.FileFunction,Legend,Bot*
G04 #@! TF.FilePolarity,Positive*
%FSLAX46Y46*%
G04 Gerber Fmt 4.6, Leading zero omitted, Abs format (unit mm)*
G04 Created by KiCad (PCBNEW (5.0.0)) date 10/21/18 16:46:55*
%MOMM*%
%LPD*%
G01*
G04 APERTURE LIST*
%ADD10C,0.300000*%
%ADD11C,0.002540*%
%ADD12C,0.120000*%
%ADD13C,0.150000*%
G04 APERTURE END LIST*
D10*
X104149471Y-90299885D02*
X105649471Y-90657028D01*
X104578042Y-90942742D01*
X105649471Y-91228457D01*
X104149471Y-91585600D01*
X105649471Y-92371314D02*
X105578042Y-92228457D01*
X105506614Y-92157028D01*
X105363757Y-92085600D01*
X104935185Y-92085600D01*
X104792328Y-92157028D01*
X104720900Y-92228457D01*
X104649471Y-92371314D01*
X104649471Y-92585600D01*
X104720900Y-92728457D01*
X104792328Y-92799885D01*
X104935185Y-92871314D01*
X105363757Y-92871314D01*
X105506614Y-92799885D01*
X105578042Y-92728457D01*
X105649471Y-92585600D01*
X105649471Y-92371314D01*
X105649471Y-93728457D02*
X105578042Y-93585600D01*
X105506614Y-93514171D01*
X105363757Y-93442742D01*
X104935185Y-93442742D01*
X104792328Y-93514171D01*
X104720900Y-93585600D01*
X104649471Y-93728457D01*
X104649471Y-93942742D01*
X104720900Y-94085600D01*
X104792328Y-94157028D01*
X104935185Y-94228457D01*
X105363757Y-94228457D01*
X105506614Y-94157028D01*
X105578042Y-94085600D01*
X105649471Y-93942742D01*
X105649471Y-93728457D01*
X105649471Y-95514171D02*
X104149471Y-95514171D01*
X105578042Y-95514171D02*
X105649471Y-95371314D01*
X105649471Y-95085600D01*
X105578042Y-94942742D01*
X105506614Y-94871314D01*
X105363757Y-94799885D01*
X104935185Y-94799885D01*
X104792328Y-94871314D01*
X104720900Y-94942742D01*
X104649471Y-95085600D01*
X104649471Y-95371314D01*
X104720900Y-95514171D01*
X105578042Y-96799885D02*
X105649471Y-96657028D01*
X105649471Y-96371314D01*
X105578042Y-96228457D01*
X105435185Y-96157028D01*
X104863757Y-96157028D01*
X104720900Y-96228457D01*
X104649471Y-96371314D01*
X104649471Y-96657028D01*
X104720900Y-96799885D01*
X104863757Y-96871314D01*
X105006614Y-96871314D01*
X105149471Y-96157028D01*
X104649471Y-97514171D02*
X105649471Y-97514171D01*
X104792328Y-97514171D02*
X104720900Y-97585600D01*
X104649471Y-97728457D01*
X104649471Y-97942742D01*
X104720900Y-98085600D01*
X104863757Y-98157028D01*
X105649471Y-98157028D01*
X105506614Y-100871314D02*
X105578042Y-100799885D01*
X105649471Y-100585600D01*
X105649471Y-100442742D01*
X105578042Y-100228457D01*
X105435185Y-100085600D01*
X105292328Y-100014171D01*
X105006614Y-99942742D01*
X104792328Y-99942742D01*
X104506614Y-100014171D01*
X104363757Y-100085600D01*
X104220900Y-100228457D01*
X104149471Y-100442742D01*
X104149471Y-100585600D01*
X104220900Y-100799885D01*
X104292328Y-100871314D01*
X105649471Y-101728457D02*
X105578042Y-101585600D01*
X105435185Y-101514171D01*
X104149471Y-101514171D01*
X105649471Y-102514171D02*
X105578042Y-102371314D01*
X105506614Y-102299885D01*
X105363757Y-102228457D01*
X104935185Y-102228457D01*
X104792328Y-102299885D01*
X104720900Y-102371314D01*
X104649471Y-102514171D01*
X104649471Y-102728457D01*
X104720900Y-102871314D01*
X104792328Y-102942742D01*
X104935185Y-103014171D01*
X105363757Y-103014171D01*
X105506614Y-102942742D01*
X105578042Y-102871314D01*
X105649471Y-102728457D01*
X105649471Y-102514171D01*
X105578042Y-104299885D02*
X105649471Y-104157028D01*
X105649471Y-103871314D01*
X105578042Y-103728457D01*
X105506614Y-103657028D01*
X105363757Y-103585600D01*
X104935185Y-103585600D01*
X104792328Y-103657028D01*
X104720900Y-103728457D01*
X104649471Y-103871314D01*
X104649471Y-104157028D01*
X104720900Y-104299885D01*
X105649471Y-104942742D02*
X104149471Y-104942742D01*
X105078042Y-105085600D02*
X105649471Y-105514171D01*
X104649471Y-105514171D02*
X105220900Y-104942742D01*
X107199471Y-91085600D02*
X108413757Y-91085600D01*
X108556614Y-91014171D01*
X108628042Y-90942742D01*
X108699471Y-90799885D01*
X108699471Y-90585600D01*
X108628042Y-90442742D01*
X108128042Y-91085600D02*
X108199471Y-90942742D01*
X108199471Y-90657028D01*
X108128042Y-90514171D01*
X108056614Y-90442742D01*
X107913757Y-90371314D01*
X107485185Y-90371314D01*
X107342328Y-90442742D01*
X107270900Y-90514171D01*
X107199471Y-90657028D01*
X107199471Y-90942742D01*
X107270900Y-91085600D01*
X108199471Y-91799885D02*
X107199471Y-91799885D01*
X106699471Y-91799885D02*
X106770900Y-91728457D01*
X106842328Y-91799885D01*
X106770900Y-91871314D01*
X106699471Y-91799885D01*
X106842328Y-91799885D01*
X107199471Y-92299885D02*
X107199471Y-92871314D01*
X106699471Y-92514171D02*
X107985185Y-92514171D01*
X108128042Y-92585600D01*
X108199471Y-92728457D01*
X108199471Y-92871314D01*
X108199471Y-93371314D02*
X106699471Y-93371314D01*
X108199471Y-94014171D02*
X107413757Y-94014171D01*
X107270900Y-93942742D01*
X107199471Y-93799885D01*
X107199471Y-93585600D01*
X107270900Y-93442742D01*
X107342328Y-93371314D01*
X107199471Y-95371314D02*
X108199471Y-95371314D01*
X107199471Y-94728457D02*
X107985185Y-94728457D01*
X108128042Y-94799885D01*
X108199471Y-94942742D01*
X108199471Y-95157028D01*
X108128042Y-95299885D01*
X108056614Y-95371314D01*
X108199471Y-96085600D02*
X106699471Y-96085600D01*
X107270900Y-96085600D02*
X107199471Y-96228457D01*
X107199471Y-96514171D01*
X107270900Y-96657028D01*
X107342328Y-96728457D01*
X107485185Y-96799885D01*
X107913757Y-96799885D01*
X108056614Y-96728457D01*
X108128042Y-96657028D01*
X108199471Y-96514171D01*
X108199471Y-96228457D01*
X108128042Y-96085600D01*
X108056614Y-97442742D02*
X108128042Y-97514171D01*
X108199471Y-97442742D01*
X108128042Y-97371314D01*
X108056614Y-97442742D01*
X108199471Y-97442742D01*
X108128042Y-98799885D02*
X108199471Y-98657028D01*
X108199471Y-98371314D01*
X108128042Y-98228457D01*
X108056614Y-98157028D01*
X107913757Y-98085600D01*
X107485185Y-98085600D01*
X107342328Y-98157028D01*
X107270900Y-98228457D01*
X107199471Y-98371314D01*
X107199471Y-98657028D01*
X107270900Y-98799885D01*
X108199471Y-99657028D02*
X108128042Y-99514171D01*
X108056614Y-99442742D01*
X107913757Y-99371314D01*
X107485185Y-99371314D01*
X107342328Y-99442742D01*
X107270900Y-99514171D01*
X107199471Y-99657028D01*
X107199471Y-99871314D01*
X107270900Y-100014171D01*
X107342328Y-100085600D01*
X107485185Y-100157028D01*
X107913757Y-100157028D01*
X108056614Y-100085600D01*
X108128042Y-100014171D01*
X108199471Y-99871314D01*
X108199471Y-99657028D01*
X108199471Y-100799885D02*
X107199471Y-100799885D01*
X107342328Y-100799885D02*
X107270900Y-100871314D01*
X107199471Y-101014171D01*
X107199471Y-101228457D01*
X107270900Y-101371314D01*
X107413757Y-101442742D01*
X108199471Y-101442742D01*
X107413757Y-101442742D02*
X107270900Y-101514171D01*
X107199471Y-101657028D01*
X107199471Y-101871314D01*
X107270900Y-102014171D01*
X107413757Y-102085600D01*
X108199471Y-102085600D01*
X106628042Y-103871314D02*
X108556614Y-102585600D01*
X108199471Y-104371314D02*
X106699471Y-104371314D01*
X106699471Y-104942742D01*
X106770900Y-105085600D01*
X106842328Y-105157028D01*
X106985185Y-105228457D01*
X107199471Y-105228457D01*
X107342328Y-105157028D01*
X107413757Y-105085600D01*
X107485185Y-104942742D01*
X107485185Y-104371314D01*
X108199471Y-105871314D02*
X107199471Y-105871314D01*
X107485185Y-105871314D02*
X107342328Y-105942742D01*
X107270900Y-106014171D01*
X107199471Y-106157028D01*
X107199471Y-106299885D01*
X108199471Y-107014171D02*
X108128042Y-106871314D01*
X108056614Y-106799885D01*
X107913757Y-106728457D01*
X107485185Y-106728457D01*
X107342328Y-106799885D01*
X107270900Y-106871314D01*
X107199471Y-107014171D01*
X107199471Y-107228457D01*
X107270900Y-107371314D01*
X107342328Y-107442742D01*
X107485185Y-107514171D01*
X107913757Y-107514171D01*
X108056614Y-107442742D01*
X108128042Y-107371314D01*
X108199471Y-107228457D01*
X108199471Y-107014171D01*
X108199471Y-108157028D02*
X107199471Y-108157028D01*
X107485185Y-108157028D02*
X107342328Y-108228457D01*
X107270900Y-108299885D01*
X107199471Y-108442742D01*
X107199471Y-108585600D01*
X108199471Y-109299885D02*
X108128042Y-109157028D01*
X108056614Y-109085600D01*
X107913757Y-109014171D01*
X107485185Y-109014171D01*
X107342328Y-109085600D01*
X107270900Y-109157028D01*
X107199471Y-109299885D01*
X107199471Y-109514171D01*
X107270900Y-109657028D01*
X107342328Y-109728457D01*
X107485185Y-109799885D01*
X107913757Y-109799885D01*
X108056614Y-109728457D01*
X108128042Y-109657028D01*
X108199471Y-109514171D01*
X108199471Y-109299885D01*
X108199471Y-110442742D02*
X106699471Y-110442742D01*
X107628042Y-110585600D02*
X108199471Y-111014171D01*
X107199471Y-111014171D02*
X107770900Y-110442742D01*
X106699471Y-111514171D02*
X108199471Y-111871314D01*
X107128042Y-112157028D01*
X108199471Y-112442742D01*
X106699471Y-112799885D01*
X108199471Y-113371314D02*
X107199471Y-113371314D01*
X106699471Y-113371314D02*
X106770900Y-113299885D01*
X106842328Y-113371314D01*
X106770900Y-113442742D01*
X106699471Y-113371314D01*
X106842328Y-113371314D01*
X108128042Y-114657028D02*
X108199471Y-114514171D01*
X108199471Y-114228457D01*
X108128042Y-114085600D01*
X107985185Y-114014171D01*
X107413757Y-114014171D01*
X107270900Y-114085600D01*
X107199471Y-114228457D01*
X107199471Y-114514171D01*
X107270900Y-114657028D01*
X107413757Y-114728457D01*
X107556614Y-114728457D01*
X107699471Y-114014171D01*
X108199471Y-115585600D02*
X108128042Y-115442742D01*
X107985185Y-115371314D01*
X106699471Y-115371314D01*
X108199471Y-116157028D02*
X106699471Y-116157028D01*
X107628042Y-116299885D02*
X108199471Y-116728457D01*
X107199471Y-116728457D02*
X107770900Y-116157028D01*
X108199471Y-117371314D02*
X107199471Y-117371314D01*
X106699471Y-117371314D02*
X106770900Y-117299885D01*
X106842328Y-117371314D01*
X106770900Y-117442742D01*
X106699471Y-117371314D01*
X106842328Y-117371314D01*
X106628042Y-119157028D02*
X108556614Y-117871314D01*
X106699471Y-119514171D02*
X108199471Y-119871314D01*
X107128042Y-120157028D01*
X108199471Y-120442742D01*
X106699471Y-120799885D01*
X108199471Y-121585600D02*
X108128042Y-121442742D01*
X108056614Y-121371314D01*
X107913757Y-121299885D01*
X107485185Y-121299885D01*
X107342328Y-121371314D01*
X107270900Y-121442742D01*
X107199471Y-121585600D01*
X107199471Y-121799885D01*
X107270900Y-121942742D01*
X107342328Y-122014171D01*
X107485185Y-122085600D01*
X107913757Y-122085600D01*
X108056614Y-122014171D01*
X108128042Y-121942742D01*
X108199471Y-121799885D01*
X108199471Y-121585600D01*
X108199471Y-122942742D02*
X108128042Y-122799885D01*
X108056614Y-122728457D01*
X107913757Y-122657028D01*
X107485185Y-122657028D01*
X107342328Y-122728457D01*
X107270900Y-122799885D01*
X107199471Y-122942742D01*
X107199471Y-123157028D01*
X107270900Y-123299885D01*
X107342328Y-123371314D01*
X107485185Y-123442742D01*
X107913757Y-123442742D01*
X108056614Y-123371314D01*
X108128042Y-123299885D01*
X108199471Y-123157028D01*
X108199471Y-122942742D01*
X108199471Y-124728457D02*
X106699471Y-124728457D01*
X108128042Y-124728457D02*
X108199471Y-124585600D01*
X108199471Y-124299885D01*
X108128042Y-124157028D01*
X108056614Y-124085600D01*
X107913757Y-124014171D01*
X107485185Y-124014171D01*
X107342328Y-124085600D01*
X107270900Y-124157028D01*
X107199471Y-124299885D01*
X107199471Y-124585600D01*
X107270900Y-124728457D01*
X108128042Y-126014171D02*
X108199471Y-125871314D01*
X108199471Y-125585600D01*
X108128042Y-125442742D01*
X107985185Y-125371314D01*
X107413757Y-125371314D01*
X107270900Y-125442742D01*
X107199471Y-125585600D01*
X107199471Y-125871314D01*
X107270900Y-126014171D01*
X107413757Y-126085600D01*
X107556614Y-126085600D01*
X107699471Y-125371314D01*
X107199471Y-126728457D02*
X108199471Y-126728457D01*
X107342328Y-126728457D02*
X107270900Y-126799885D01*
X107199471Y-126942742D01*
X107199471Y-127157028D01*
X107270900Y-127299885D01*
X107413757Y-127371314D01*
X108199471Y-127371314D01*
X107628042Y-128085600D02*
X107628042Y-129228457D01*
X108056614Y-130799885D02*
X108128042Y-130728457D01*
X108199471Y-130514171D01*
X108199471Y-130371314D01*
X108128042Y-130157028D01*
X107985185Y-130014171D01*
X107842328Y-129942742D01*
X107556614Y-129871314D01*
X107342328Y-129871314D01*
X107056614Y-129942742D01*
X106913757Y-130014171D01*
X106770900Y-130157028D01*
X106699471Y-130371314D01*
X106699471Y-130514171D01*
X106770900Y-130728457D01*
X106842328Y-130799885D01*
X108199471Y-131657028D02*
X108128042Y-131514171D01*
X107985185Y-131442742D01*
X106699471Y-131442742D01*
X108199471Y-132442742D02*
X108128042Y-132299885D01*
X108056614Y-132228457D01*
X107913757Y-132157028D01*
X107485185Y-132157028D01*
X107342328Y-132228457D01*
X107270900Y-132299885D01*
X107199471Y-132442742D01*
X107199471Y-132657028D01*
X107270900Y-132799885D01*
X107342328Y-132871314D01*
X107485185Y-132942742D01*
X107913757Y-132942742D01*
X108056614Y-132871314D01*
X108128042Y-132799885D01*
X108199471Y-132657028D01*
X108199471Y-132442742D01*
X108128042Y-134228457D02*
X108199471Y-134085600D01*
X108199471Y-133799885D01*
X108128042Y-133657028D01*
X108056614Y-133585600D01*
X107913757Y-133514171D01*
X107485185Y-133514171D01*
X107342328Y-133585600D01*
X107270900Y-133657028D01*
X107199471Y-133799885D01*
X107199471Y-134085600D01*
X107270900Y-134228457D01*
X108199471Y-134871314D02*
X106699471Y-134871314D01*
X107628042Y-135014171D02*
X108199471Y-135442742D01*
X107199471Y-135442742D02*
X107770900Y-134871314D01*
X110749471Y-90442742D02*
X109249471Y-90442742D01*
X109249471Y-90799885D01*
X109320900Y-91014171D01*
X109463757Y-91157028D01*
X109606614Y-91228457D01*
X109892328Y-91299885D01*
X110106614Y-91299885D01*
X110392328Y-91228457D01*
X110535185Y-91157028D01*
X110678042Y-91014171D01*
X110749471Y-90799885D01*
X110749471Y-90442742D01*
X110749471Y-91942742D02*
X109749471Y-91942742D01*
X109249471Y-91942742D02*
X109320900Y-91871314D01*
X109392328Y-91942742D01*
X109320900Y-92014171D01*
X109249471Y-91942742D01*
X109392328Y-91942742D01*
X110678042Y-92585600D02*
X110749471Y-92728457D01*
X110749471Y-93014171D01*
X110678042Y-93157028D01*
X110535185Y-93228457D01*
X110463757Y-93228457D01*
X110320900Y-93157028D01*
X110249471Y-93014171D01*
X110249471Y-92799885D01*
X110178042Y-92657028D01*
X110035185Y-92585600D01*
X109963757Y-92585600D01*
X109820900Y-92657028D01*
X109749471Y-92799885D01*
X109749471Y-93014171D01*
X109820900Y-93157028D01*
X109749471Y-93871314D02*
X111249471Y-93871314D01*
X109820900Y-93871314D02*
X109749471Y-94014171D01*
X109749471Y-94299885D01*
X109820900Y-94442742D01*
X109892328Y-94514171D01*
X110035185Y-94585600D01*
X110463757Y-94585600D01*
X110606614Y-94514171D01*
X110678042Y-94442742D01*
X110749471Y-94299885D01*
X110749471Y-94014171D01*
X110678042Y-93871314D01*
X110749471Y-95442742D02*
X110678042Y-95299885D01*
X110535185Y-95228457D01*
X109249471Y-95228457D01*
X110749471Y-96657028D02*
X109963757Y-96657028D01*
X109820900Y-96585600D01*
X109749471Y-96442742D01*
X109749471Y-96157028D01*
X109820900Y-96014171D01*
X110678042Y-96657028D02*
X110749471Y-96514171D01*
X110749471Y-96157028D01*
X110678042Y-96014171D01*
X110535185Y-95942742D01*
X110392328Y-95942742D01*
X110249471Y-96014171D01*
X110178042Y-96157028D01*
X110178042Y-96514171D01*
X110106614Y-96657028D01*
X109749471Y-97228457D02*
X110749471Y-97585600D01*
X109749471Y-97942742D02*
X110749471Y-97585600D01*
X111106614Y-97442742D01*
X111178042Y-97371314D01*
X111249471Y-97228457D01*
X110749471Y-99657028D02*
X109249471Y-99657028D01*
X109820900Y-99657028D02*
X109749471Y-99799885D01*
X109749471Y-100085600D01*
X109820900Y-100228457D01*
X109892328Y-100299885D01*
X110035185Y-100371314D01*
X110463757Y-100371314D01*
X110606614Y-100299885D01*
X110678042Y-100228457D01*
X110749471Y-100085600D01*
X110749471Y-99799885D01*
X110678042Y-99657028D01*
X110749471Y-101228457D02*
X110678042Y-101085600D01*
X110606614Y-101014171D01*
X110463757Y-100942742D01*
X110035185Y-100942742D01*
X109892328Y-101014171D01*
X109820900Y-101085600D01*
X109749471Y-101228457D01*
X109749471Y-101442742D01*
X109820900Y-101585600D01*
X109892328Y-101657028D01*
X110035185Y-101728457D01*
X110463757Y-101728457D01*
X110606614Y-101657028D01*
X110678042Y-101585600D01*
X110749471Y-101442742D01*
X110749471Y-101228457D01*
X110749471Y-103014171D02*
X109963757Y-103014171D01*
X109820900Y-102942742D01*
X109749471Y-102799885D01*
X109749471Y-102514171D01*
X109820900Y-102371314D01*
X110678042Y-103014171D02*
X110749471Y-102871314D01*
X110749471Y-102514171D01*
X110678042Y-102371314D01*
X110535185Y-102299885D01*
X110392328Y-102299885D01*
X110249471Y-102371314D01*
X110178042Y-102514171D01*
X110178042Y-102871314D01*
X110106614Y-103014171D01*
X110749471Y-103728457D02*
X109749471Y-103728457D01*
X110035185Y-103728457D02*
X109892328Y-103799885D01*
X109820900Y-103871314D01*
X109749471Y-104014171D01*
X109749471Y-104157028D01*
X110749471Y-105299885D02*
X109249471Y-105299885D01*
X110678042Y-105299885D02*
X110749471Y-105157028D01*
X110749471Y-104871314D01*
X110678042Y-104728457D01*
X110606614Y-104657028D01*
X110463757Y-104585600D01*
X110035185Y-104585600D01*
X109892328Y-104657028D01*
X109820900Y-104728457D01*
X109749471Y-104871314D01*
X109749471Y-105157028D01*
X109820900Y-105299885D01*
X109749471Y-107014171D02*
X110749471Y-107371314D01*
X109749471Y-107728457D01*
X110606614Y-108299885D02*
X110678042Y-108371314D01*
X110749471Y-108299885D01*
X110678042Y-108228457D01*
X110606614Y-108299885D01*
X110749471Y-108299885D01*
X110749471Y-109799885D02*
X110749471Y-108942742D01*
X110749471Y-109371314D02*
X109249471Y-109371314D01*
X109463757Y-109228457D01*
X109606614Y-109085600D01*
X109678042Y-108942742D01*
X110606614Y-110442742D02*
X110678042Y-110514171D01*
X110749471Y-110442742D01*
X110678042Y-110371314D01*
X110606614Y-110442742D01*
X110749471Y-110442742D01*
X109249471Y-111442742D02*
X109249471Y-111585600D01*
X109320900Y-111728457D01*
X109392328Y-111799885D01*
X109535185Y-111871314D01*
X109820900Y-111942742D01*
X110178042Y-111942742D01*
X110463757Y-111871314D01*
X110606614Y-111799885D01*
X110678042Y-111728457D01*
X110749471Y-111585600D01*
X110749471Y-111442742D01*
X110678042Y-111299885D01*
X110606614Y-111228457D01*
X110463757Y-111157028D01*
X110178042Y-111085600D01*
X109820900Y-111085600D01*
X109535185Y-111157028D01*
X109392328Y-111228457D01*
X109320900Y-111299885D01*
X109249471Y-111442742D01*
X110606614Y-112585600D02*
X110678042Y-112657028D01*
X110749471Y-112585600D01*
X110678042Y-112514171D01*
X110606614Y-112585600D01*
X110749471Y-112585600D01*
X109249471Y-113585600D02*
X109249471Y-113728457D01*
X109320900Y-113871314D01*
X109392328Y-113942742D01*
X109535185Y-114014171D01*
X109820900Y-114085600D01*
X110178042Y-114085600D01*
X110463757Y-114014171D01*
X110606614Y-113942742D01*
X110678042Y-113871314D01*
X110749471Y-113728457D01*
X110749471Y-113585600D01*
X110678042Y-113442742D01*
X110606614Y-113371314D01*
X110463757Y-113299885D01*
X110178042Y-113228457D01*
X109820900Y-113228457D01*
X109535185Y-113299885D01*
X109392328Y-113371314D01*
X109320900Y-113442742D01*
X109249471Y-113585600D01*
X113299471Y-90442742D02*
X111799471Y-90442742D01*
X111799471Y-91014171D01*
X111870900Y-91157028D01*
X111942328Y-91228457D01*
X112085185Y-91299885D01*
X112299471Y-91299885D01*
X112442328Y-91228457D01*
X112513757Y-91157028D01*
X112585185Y-91014171D01*
X112585185Y-90442742D01*
X113299471Y-92585600D02*
X112513757Y-92585600D01*
X112370900Y-92514171D01*
X112299471Y-92371314D01*
X112299471Y-92085600D01*
X112370900Y-91942742D01*
X113228042Y-92585600D02*
X113299471Y-92442742D01*
X113299471Y-92085600D01*
X113228042Y-91942742D01*
X113085185Y-91871314D01*
X112942328Y-91871314D01*
X112799471Y-91942742D01*
X112728042Y-92085600D01*
X112728042Y-92442742D01*
X112656614Y-92585600D01*
X112299471Y-93157028D02*
X113299471Y-93442742D01*
X112585185Y-93728457D01*
X113299471Y-94014171D01*
X112299471Y-94299885D01*
X113228042Y-95442742D02*
X113299471Y-95299885D01*
X113299471Y-95014171D01*
X113228042Y-94871314D01*
X113085185Y-94799885D01*
X112513757Y-94799885D01*
X112370900Y-94871314D01*
X112299471Y-95014171D01*
X112299471Y-95299885D01*
X112370900Y-95442742D01*
X112513757Y-95514171D01*
X112656614Y-95514171D01*
X112799471Y-94799885D01*
X113299471Y-96371314D02*
X113228042Y-96228457D01*
X113085185Y-96157028D01*
X111799471Y-96157028D01*
X112585185Y-95942742D02*
X112299471Y-96371314D01*
X111799471Y-97942742D02*
X113299471Y-98299885D01*
X112228042Y-98585600D01*
X113299471Y-98871314D01*
X111799471Y-99228457D01*
X113299471Y-100442742D02*
X112513757Y-100442742D01*
X112370900Y-100371314D01*
X112299471Y-100228457D01*
X112299471Y-99942742D01*
X112370900Y-99799885D01*
X113228042Y-100442742D02*
X113299471Y-100299885D01*
X113299471Y-99942742D01*
X113228042Y-99799885D01*
X113085185Y-99728457D01*
X112942328Y-99728457D01*
X112799471Y-99799885D01*
X112728042Y-99942742D01*
X112728042Y-100299885D01*
X112656614Y-100442742D01*
X113299471Y-101157028D02*
X112299471Y-101157028D01*
X112585185Y-101157028D02*
X112442328Y-101228457D01*
X112370900Y-101299885D01*
X112299471Y-101442742D01*
X112299471Y-101585600D01*
X112299471Y-101942742D02*
X112299471Y-102728457D01*
X113299471Y-101942742D01*
X113299471Y-102728457D01*
X113228042Y-103871314D02*
X113299471Y-103728457D01*
X113299471Y-103442742D01*
X113228042Y-103299885D01*
X113085185Y-103228457D01*
X112513757Y-103228457D01*
X112370900Y-103299885D01*
X112299471Y-103442742D01*
X112299471Y-103728457D01*
X112370900Y-103871314D01*
X112513757Y-103942742D01*
X112656614Y-103942742D01*
X112799471Y-103228457D01*
X113228042Y-105228457D02*
X113299471Y-105085600D01*
X113299471Y-104799885D01*
X113228042Y-104657028D01*
X113156614Y-104585600D01*
X113013757Y-104514171D01*
X112585185Y-104514171D01*
X112442328Y-104585600D01*
X112370900Y-104657028D01*
X112299471Y-104799885D01*
X112299471Y-105085600D01*
X112370900Y-105228457D01*
X113299471Y-105871314D02*
X111799471Y-105871314D01*
X113299471Y-106514171D02*
X112513757Y-106514171D01*
X112370900Y-106442742D01*
X112299471Y-106299885D01*
X112299471Y-106085600D01*
X112370900Y-105942742D01*
X112442328Y-105871314D01*
X113299471Y-107871314D02*
X112513757Y-107871314D01*
X112370900Y-107799885D01*
X112299471Y-107657028D01*
X112299471Y-107371314D01*
X112370900Y-107228457D01*
X113228042Y-107871314D02*
X113299471Y-107728457D01*
X113299471Y-107371314D01*
X113228042Y-107228457D01*
X113085185Y-107157028D01*
X112942328Y-107157028D01*
X112799471Y-107228457D01*
X112728042Y-107371314D01*
X112728042Y-107728457D01*
X112656614Y-107871314D01*
X114849471Y-90442742D02*
X116349471Y-90442742D01*
X114920900Y-90442742D02*
X114849471Y-90585600D01*
X114849471Y-90871314D01*
X114920900Y-91014171D01*
X114992328Y-91085600D01*
X115135185Y-91157028D01*
X115563757Y-91157028D01*
X115706614Y-91085600D01*
X115778042Y-91014171D01*
X115849471Y-90871314D01*
X115849471Y-90585600D01*
X115778042Y-90442742D01*
X115849471Y-92442742D02*
X115063757Y-92442742D01*
X114920900Y-92371314D01*
X114849471Y-92228457D01*
X114849471Y-91942742D01*
X114920900Y-91799885D01*
X115778042Y-92442742D02*
X115849471Y-92299885D01*
X115849471Y-91942742D01*
X115778042Y-91799885D01*
X115635185Y-91728457D01*
X115492328Y-91728457D01*
X115349471Y-91799885D01*
X115278042Y-91942742D01*
X115278042Y-92299885D01*
X115206614Y-92442742D01*
X114849471Y-93014171D02*
X115849471Y-93299885D01*
X115135185Y-93585600D01*
X115849471Y-93871314D01*
X114849471Y-94157028D01*
X115778042Y-95299885D02*
X115849471Y-95157028D01*
X115849471Y-94871314D01*
X115778042Y-94728457D01*
X115635185Y-94657028D01*
X115063757Y-94657028D01*
X114920900Y-94728457D01*
X114849471Y-94871314D01*
X114849471Y-95157028D01*
X114920900Y-95299885D01*
X115063757Y-95371314D01*
X115206614Y-95371314D01*
X115349471Y-94657028D01*
X115849471Y-96228457D02*
X115778042Y-96085600D01*
X115635185Y-96014171D01*
X114349471Y-96014171D01*
X115706614Y-96799885D02*
X115778042Y-96871314D01*
X115849471Y-96799885D01*
X115778042Y-96728457D01*
X115706614Y-96799885D01*
X115849471Y-96799885D01*
X114849471Y-97371314D02*
X115849471Y-97657028D01*
X115135185Y-97942742D01*
X115849471Y-98228457D01*
X114849471Y-98514171D01*
X115849471Y-99728457D02*
X115063757Y-99728457D01*
X114920900Y-99657028D01*
X114849471Y-99514171D01*
X114849471Y-99228457D01*
X114920900Y-99085600D01*
X115778042Y-99728457D02*
X115849471Y-99585600D01*
X115849471Y-99228457D01*
X115778042Y-99085600D01*
X115635185Y-99014171D01*
X115492328Y-99014171D01*
X115349471Y-99085600D01*
X115278042Y-99228457D01*
X115278042Y-99585600D01*
X115206614Y-99728457D01*
X115849471Y-100442742D02*
X114849471Y-100442742D01*
X115135185Y-100442742D02*
X114992328Y-100514171D01*
X114920900Y-100585600D01*
X114849471Y-100728457D01*
X114849471Y-100871314D01*
X114849471Y-101228457D02*
X114849471Y-102014171D01*
X115849471Y-101228457D01*
X115849471Y-102014171D01*
X115778042Y-103157028D02*
X115849471Y-103014171D01*
X115849471Y-102728457D01*
X115778042Y-102585600D01*
X115635185Y-102514171D01*
X115063757Y-102514171D01*
X114920900Y-102585600D01*
X114849471Y-102728457D01*
X114849471Y-103014171D01*
X114920900Y-103157028D01*
X115063757Y-103228457D01*
X115206614Y-103228457D01*
X115349471Y-102514171D01*
X115778042Y-104514171D02*
X115849471Y-104371314D01*
X115849471Y-104085600D01*
X115778042Y-103942742D01*
X115706614Y-103871314D01*
X115563757Y-103799885D01*
X115135185Y-103799885D01*
X114992328Y-103871314D01*
X114920900Y-103942742D01*
X114849471Y-104085600D01*
X114849471Y-104371314D01*
X114920900Y-104514171D01*
X115849471Y-105157028D02*
X114349471Y-105157028D01*
X115849471Y-105799885D02*
X115063757Y-105799885D01*
X114920900Y-105728457D01*
X114849471Y-105585600D01*
X114849471Y-105371314D01*
X114920900Y-105228457D01*
X114992328Y-105157028D01*
X115849471Y-107157028D02*
X115063757Y-107157028D01*
X114920900Y-107085600D01*
X114849471Y-106942742D01*
X114849471Y-106657028D01*
X114920900Y-106514171D01*
X115778042Y-107157028D02*
X115849471Y-107014171D01*
X115849471Y-106657028D01*
X115778042Y-106514171D01*
X115635185Y-106442742D01*
X115492328Y-106442742D01*
X115349471Y-106514171D01*
X115278042Y-106657028D01*
X115278042Y-107014171D01*
X115206614Y-107157028D01*
X115135185Y-108799885D02*
X115063757Y-108728457D01*
X114992328Y-108585600D01*
X114992328Y-108442742D01*
X115063757Y-108299885D01*
X115135185Y-108228457D01*
X115278042Y-108157028D01*
X115420900Y-108157028D01*
X115563757Y-108228457D01*
X115635185Y-108299885D01*
X115706614Y-108442742D01*
X115706614Y-108585600D01*
X115635185Y-108728457D01*
X115563757Y-108799885D01*
X114992328Y-108799885D02*
X115563757Y-108799885D01*
X115635185Y-108871314D01*
X115635185Y-108942742D01*
X115563757Y-109085600D01*
X115420900Y-109157028D01*
X115063757Y-109157028D01*
X114849471Y-109014171D01*
X114706614Y-108799885D01*
X114635185Y-108514171D01*
X114706614Y-108228457D01*
X114849471Y-108014171D01*
X115063757Y-107871314D01*
X115349471Y-107799885D01*
X115635185Y-107871314D01*
X115849471Y-108014171D01*
X115992328Y-108228457D01*
X116063757Y-108514171D01*
X115992328Y-108799885D01*
X115849471Y-109014171D01*
X114849471Y-109657028D02*
X115849471Y-110014171D01*
X114849471Y-110371314D02*
X115849471Y-110014171D01*
X116206614Y-109871314D01*
X116278042Y-109799885D01*
X116349471Y-109657028D01*
X115849471Y-111585600D02*
X115063757Y-111585600D01*
X114920900Y-111514171D01*
X114849471Y-111371314D01*
X114849471Y-111085600D01*
X114920900Y-110942742D01*
X115778042Y-111585600D02*
X115849471Y-111442742D01*
X115849471Y-111085600D01*
X115778042Y-110942742D01*
X115635185Y-110871314D01*
X115492328Y-110871314D01*
X115349471Y-110942742D01*
X115278042Y-111085600D01*
X115278042Y-111442742D01*
X115206614Y-111585600D01*
X115849471Y-112299885D02*
X114349471Y-112299885D01*
X115849471Y-112942742D02*
X115063757Y-112942742D01*
X114920900Y-112871314D01*
X114849471Y-112728457D01*
X114849471Y-112514171D01*
X114920900Y-112371314D01*
X114992328Y-112299885D01*
X115849471Y-113871314D02*
X115778042Y-113728457D01*
X115706614Y-113657028D01*
X115563757Y-113585600D01*
X115135185Y-113585600D01*
X114992328Y-113657028D01*
X114920900Y-113728457D01*
X114849471Y-113871314D01*
X114849471Y-114085600D01*
X114920900Y-114228457D01*
X114992328Y-114299885D01*
X115135185Y-114371314D01*
X115563757Y-114371314D01*
X115706614Y-114299885D01*
X115778042Y-114228457D01*
X115849471Y-114085600D01*
X115849471Y-113871314D01*
X115849471Y-115228457D02*
X115778042Y-115085600D01*
X115706614Y-115014171D01*
X115563757Y-114942742D01*
X115135185Y-114942742D01*
X114992328Y-115014171D01*
X114920900Y-115085600D01*
X114849471Y-115228457D01*
X114849471Y-115442742D01*
X114920900Y-115585600D01*
X114992328Y-115657028D01*
X115135185Y-115728457D01*
X115563757Y-115728457D01*
X115706614Y-115657028D01*
X115778042Y-115585600D01*
X115849471Y-115442742D01*
X115849471Y-115228457D01*
X115706614Y-116371314D02*
X115778042Y-116442742D01*
X115849471Y-116371314D01*
X115778042Y-116299885D01*
X115706614Y-116371314D01*
X115849471Y-116371314D01*
X115778042Y-117728457D02*
X115849471Y-117585600D01*
X115849471Y-117299885D01*
X115778042Y-117157028D01*
X115706614Y-117085600D01*
X115563757Y-117014171D01*
X115135185Y-117014171D01*
X114992328Y-117085600D01*
X114920900Y-117157028D01*
X114849471Y-117299885D01*
X114849471Y-117585600D01*
X114920900Y-117728457D01*
X115849471Y-118585600D02*
X115778042Y-118442742D01*
X115706614Y-118371314D01*
X115563757Y-118299885D01*
X115135185Y-118299885D01*
X114992328Y-118371314D01*
X114920900Y-118442742D01*
X114849471Y-118585600D01*
X114849471Y-118799885D01*
X114920900Y-118942742D01*
X114992328Y-119014171D01*
X115135185Y-119085600D01*
X115563757Y-119085600D01*
X115706614Y-119014171D01*
X115778042Y-118942742D01*
X115849471Y-118799885D01*
X115849471Y-118585600D01*
X115849471Y-119728457D02*
X114849471Y-119728457D01*
X114992328Y-119728457D02*
X114920900Y-119799885D01*
X114849471Y-119942742D01*
X114849471Y-120157028D01*
X114920900Y-120299885D01*
X115063757Y-120371314D01*
X115849471Y-120371314D01*
X115063757Y-120371314D02*
X114920900Y-120442742D01*
X114849471Y-120585600D01*
X114849471Y-120799885D01*
X114920900Y-120942742D01*
X115063757Y-121014171D01*
X115849471Y-121014171D01*
X183946657Y-75373800D02*
X184089514Y-75302371D01*
X184303800Y-75302371D01*
X184518085Y-75373800D01*
X184660942Y-75516657D01*
X184732371Y-75659514D01*
X184803800Y-75945228D01*
X184803800Y-76159514D01*
X184732371Y-76445228D01*
X184660942Y-76588085D01*
X184518085Y-76730942D01*
X184303800Y-76802371D01*
X184160942Y-76802371D01*
X183946657Y-76730942D01*
X183875228Y-76659514D01*
X183875228Y-76159514D01*
X184160942Y-76159514D01*
X183232371Y-76802371D02*
X183232371Y-75302371D01*
X182375228Y-76802371D01*
X182375228Y-75302371D01*
X181660942Y-76802371D02*
X181660942Y-75302371D01*
X181303800Y-75302371D01*
X181089514Y-75373800D01*
X180946657Y-75516657D01*
X180875228Y-75659514D01*
X180803800Y-75945228D01*
X180803800Y-76159514D01*
X180875228Y-76445228D01*
X180946657Y-76588085D01*
X181089514Y-76730942D01*
X181303800Y-76802371D01*
X181660942Y-76802371D01*
X184741914Y-93082371D02*
X184241914Y-94582371D01*
X183741914Y-93082371D01*
X182599057Y-94510942D02*
X182741914Y-94582371D01*
X183027628Y-94582371D01*
X183170485Y-94510942D01*
X183241914Y-94439514D01*
X183313342Y-94296657D01*
X183313342Y-93868085D01*
X183241914Y-93725228D01*
X183170485Y-93653800D01*
X183027628Y-93582371D01*
X182741914Y-93582371D01*
X182599057Y-93653800D01*
X181313342Y-94510942D02*
X181456200Y-94582371D01*
X181741914Y-94582371D01*
X181884771Y-94510942D01*
X181956200Y-94439514D01*
X182027628Y-94296657D01*
X182027628Y-93868085D01*
X181956200Y-93725228D01*
X181884771Y-93653800D01*
X181741914Y-93582371D01*
X181456200Y-93582371D01*
X181313342Y-93653800D01*
D11*
G04 #@! TO.C,U8*
X170383200Y-63063120D02*
X168602660Y-63063120D01*
X168602660Y-63063120D02*
X168602660Y-62641480D01*
X170383200Y-63063120D02*
X170383200Y-62641480D01*
X174665640Y-63078360D02*
X170266360Y-63078360D01*
X170266360Y-58094880D02*
X170266360Y-58079640D01*
X170266360Y-63078360D02*
X170266360Y-63063120D01*
X174665640Y-58079640D02*
X170266360Y-58079640D01*
X174665640Y-58094880D02*
X174665640Y-58079640D01*
X174665640Y-63078360D02*
X174665640Y-63063120D01*
G04 #@! TO.C,U7*
X126669800Y-79811880D02*
X128450340Y-79811880D01*
X128450340Y-79811880D02*
X128450340Y-80233520D01*
X126669800Y-79811880D02*
X126669800Y-80233520D01*
X122387360Y-79796640D02*
X126786640Y-79796640D01*
X126786640Y-84780120D02*
X126786640Y-84795360D01*
X126786640Y-79796640D02*
X126786640Y-79811880D01*
X122387360Y-84795360D02*
X126786640Y-84795360D01*
X122387360Y-84780120D02*
X122387360Y-84795360D01*
X122387360Y-79796640D02*
X122387360Y-79811880D01*
G04 #@! TO.C,U6*
X126669800Y-120070880D02*
X128450340Y-120070880D01*
X128450340Y-120070880D02*
X128450340Y-120492520D01*
X126669800Y-120070880D02*
X126669800Y-120492520D01*
X122387360Y-120055640D02*
X126786640Y-120055640D01*
X126786640Y-125039120D02*
X126786640Y-125054360D01*
X126786640Y-120055640D02*
X126786640Y-120070880D01*
X122387360Y-125054360D02*
X126786640Y-125054360D01*
X122387360Y-125039120D02*
X122387360Y-125054360D01*
X122387360Y-120055640D02*
X122387360Y-120070880D01*
G04 #@! TO.C,U5*
X170383200Y-103322120D02*
X168602660Y-103322120D01*
X168602660Y-103322120D02*
X168602660Y-102900480D01*
X170383200Y-103322120D02*
X170383200Y-102900480D01*
X174665640Y-103337360D02*
X170266360Y-103337360D01*
X170266360Y-98353880D02*
X170266360Y-98338640D01*
X170266360Y-103337360D02*
X170266360Y-103322120D01*
X174665640Y-98338640D02*
X170266360Y-98338640D01*
X174665640Y-98353880D02*
X174665640Y-98338640D01*
X174665640Y-103337360D02*
X174665640Y-103322120D01*
G04 #@! TO.C,U4*
X175336200Y-114498120D02*
X173555660Y-114498120D01*
X173555660Y-114498120D02*
X173555660Y-114076480D01*
X175336200Y-114498120D02*
X175336200Y-114076480D01*
X179618640Y-114513360D02*
X175219360Y-114513360D01*
X175219360Y-109529880D02*
X175219360Y-109514640D01*
X175219360Y-114513360D02*
X175219360Y-114498120D01*
X179618640Y-109514640D02*
X175219360Y-109514640D01*
X179618640Y-109529880D02*
X179618640Y-109514640D01*
X179618640Y-114513360D02*
X179618640Y-114498120D01*
G04 #@! TO.C,U3*
X157556200Y-139136120D02*
X155775660Y-139136120D01*
X155775660Y-139136120D02*
X155775660Y-138714480D01*
X157556200Y-139136120D02*
X157556200Y-138714480D01*
X161838640Y-139151360D02*
X157439360Y-139151360D01*
X157439360Y-134167880D02*
X157439360Y-134152640D01*
X157439360Y-139151360D02*
X157439360Y-139136120D01*
X161838640Y-134152640D02*
X157439360Y-134152640D01*
X161838640Y-134167880D02*
X161838640Y-134152640D01*
X161838640Y-139151360D02*
X161838640Y-139136120D01*
G04 #@! TO.C,U2*
X135140700Y-114498120D02*
X133360160Y-114498120D01*
X133360160Y-114498120D02*
X133360160Y-114076480D01*
X135140700Y-114498120D02*
X135140700Y-114076480D01*
X139423140Y-114513360D02*
X135023860Y-114513360D01*
X135023860Y-109529880D02*
X135023860Y-109514640D01*
X135023860Y-114513360D02*
X135023860Y-114498120D01*
X139423140Y-109514640D02*
X135023860Y-109514640D01*
X139423140Y-109529880D02*
X139423140Y-109514640D01*
X139423140Y-114513360D02*
X139423140Y-114498120D01*
G04 #@! TO.C,U1*
X117297200Y-139136120D02*
X115516660Y-139136120D01*
X115516660Y-139136120D02*
X115516660Y-138714480D01*
X117297200Y-139136120D02*
X117297200Y-138714480D01*
X121579640Y-139151360D02*
X117180360Y-139151360D01*
X117180360Y-134167880D02*
X117180360Y-134152640D01*
X117180360Y-139151360D02*
X117180360Y-139136120D01*
X121579640Y-134152640D02*
X117180360Y-134152640D01*
X121579640Y-134167880D02*
X121579640Y-134152640D01*
X121579640Y-139151360D02*
X121579640Y-139136120D01*
D12*
G04 #@! TO.C,P1*
X192338000Y-74793800D02*
X187138000Y-74793800D01*
X192338000Y-95233800D02*
X187138000Y-95233800D01*
X193778000Y-75363800D02*
X192338000Y-75363800D01*
X192338000Y-74793800D02*
X192338000Y-75363800D01*
X187138000Y-74793800D02*
X187138000Y-75363800D01*
X192338000Y-94663800D02*
X192338000Y-95233800D01*
X187138000Y-94663800D02*
X187138000Y-95233800D01*
X192338000Y-76883800D02*
X192338000Y-77903800D01*
X187138000Y-76883800D02*
X187138000Y-77903800D01*
X192338000Y-79423800D02*
X192338000Y-80443800D01*
X187138000Y-79423800D02*
X187138000Y-80443800D01*
X192338000Y-81963800D02*
X192338000Y-82983800D01*
X187138000Y-81963800D02*
X187138000Y-82983800D01*
X192338000Y-84503800D02*
X192338000Y-85523800D01*
X187138000Y-84503800D02*
X187138000Y-85523800D01*
X192338000Y-87043800D02*
X192338000Y-88063800D01*
X187138000Y-87043800D02*
X187138000Y-88063800D01*
X192338000Y-89583800D02*
X192338000Y-90603800D01*
X187138000Y-89583800D02*
X187138000Y-90603800D01*
X192338000Y-92123800D02*
X192338000Y-93143800D01*
X187138000Y-92123800D02*
X187138000Y-93143800D01*
G04 #@! TO.C,R65*
X134143200Y-133569600D02*
X135343200Y-133569600D01*
X135343200Y-131809600D02*
X134143200Y-131809600D01*
G04 #@! TO.C,R79*
X134270200Y-88256000D02*
X135470200Y-88256000D01*
X135470200Y-86496000D02*
X134270200Y-86496000D01*
G04 #@! TO.C,R45*
X162986000Y-103895000D02*
X161786000Y-103895000D01*
X161786000Y-105655000D02*
X162986000Y-105655000D01*
G04 #@! TO.C,R47*
X162986000Y-108975000D02*
X161786000Y-108975000D01*
X161786000Y-110735000D02*
X162986000Y-110735000D01*
G04 #@! TO.C,R98*
X162749800Y-76310600D02*
X161549800Y-76310600D01*
X161549800Y-78070600D02*
X162749800Y-78070600D01*
G04 #@! TO.C,R97*
X162775200Y-73770600D02*
X161575200Y-73770600D01*
X161575200Y-75530600D02*
X162775200Y-75530600D01*
G04 #@! TO.C,R96*
X162775200Y-71205200D02*
X161575200Y-71205200D01*
X161575200Y-72965200D02*
X162775200Y-72965200D01*
G04 #@! TO.C,R95*
X162775200Y-68716000D02*
X161575200Y-68716000D01*
X161575200Y-70476000D02*
X162775200Y-70476000D01*
G04 #@! TO.C,R94*
X162775200Y-66150600D02*
X161575200Y-66150600D01*
X161575200Y-67910600D02*
X162775200Y-67910600D01*
G04 #@! TO.C,R93*
X162775200Y-63636000D02*
X161575200Y-63636000D01*
X161575200Y-65396000D02*
X162775200Y-65396000D01*
G04 #@! TO.C,R92*
X162775200Y-61096000D02*
X161575200Y-61096000D01*
X161575200Y-62856000D02*
X162775200Y-62856000D01*
G04 #@! TO.C,R91*
X162775200Y-58530600D02*
X161575200Y-58530600D01*
X161575200Y-60290600D02*
X162775200Y-60290600D01*
G04 #@! TO.C,R90*
X155159000Y-74558000D02*
X153959000Y-74558000D01*
X153959000Y-76318000D02*
X155159000Y-76318000D01*
G04 #@! TO.C,R89*
X155159000Y-72018000D02*
X153959000Y-72018000D01*
X153959000Y-73778000D02*
X155159000Y-73778000D01*
G04 #@! TO.C,R88*
X155159000Y-69478000D02*
X153959000Y-69478000D01*
X153959000Y-71238000D02*
X155159000Y-71238000D01*
G04 #@! TO.C,R86*
X155159000Y-64398000D02*
X153959000Y-64398000D01*
X153959000Y-66158000D02*
X155159000Y-66158000D01*
G04 #@! TO.C,R85*
X155159000Y-61858000D02*
X153959000Y-61858000D01*
X153959000Y-63618000D02*
X155159000Y-63618000D01*
G04 #@! TO.C,R84*
X155159000Y-59318000D02*
X153959000Y-59318000D01*
X153959000Y-61078000D02*
X155159000Y-61078000D01*
G04 #@! TO.C,R83*
X155159000Y-56778000D02*
X153959000Y-56778000D01*
X153959000Y-58538000D02*
X155159000Y-58538000D01*
G04 #@! TO.C,R82*
X134274000Y-95850600D02*
X135474000Y-95850600D01*
X135474000Y-94090600D02*
X134274000Y-94090600D01*
G04 #@! TO.C,R81*
X134270200Y-93336000D02*
X135470200Y-93336000D01*
X135470200Y-91576000D02*
X134270200Y-91576000D01*
G04 #@! TO.C,R80*
X134274000Y-90796000D02*
X135474000Y-90796000D01*
X135474000Y-89036000D02*
X134274000Y-89036000D01*
G04 #@! TO.C,R78*
X134277800Y-85716000D02*
X135477800Y-85716000D01*
X135477800Y-83956000D02*
X134277800Y-83956000D01*
G04 #@! TO.C,R77*
X134270200Y-83176000D02*
X135470200Y-83176000D01*
X135470200Y-81416000D02*
X134270200Y-81416000D01*
G04 #@! TO.C,R76*
X134277800Y-80636000D02*
X135477800Y-80636000D01*
X135477800Y-78876000D02*
X134277800Y-78876000D01*
G04 #@! TO.C,R75*
X134277800Y-78096000D02*
X135477800Y-78096000D01*
X135477800Y-76336000D02*
X134277800Y-76336000D01*
G04 #@! TO.C,R74*
X141386000Y-97654000D02*
X142586000Y-97654000D01*
X142586000Y-95894000D02*
X141386000Y-95894000D01*
G04 #@! TO.C,R73*
X141386000Y-95114000D02*
X142586000Y-95114000D01*
X142586000Y-93354000D02*
X141386000Y-93354000D01*
G04 #@! TO.C,R72*
X141386000Y-92574000D02*
X142586000Y-92574000D01*
X142586000Y-90814000D02*
X141386000Y-90814000D01*
G04 #@! TO.C,R71*
X141386000Y-90034000D02*
X142586000Y-90034000D01*
X142586000Y-88274000D02*
X141386000Y-88274000D01*
G04 #@! TO.C,R70*
X141386000Y-87494000D02*
X142586000Y-87494000D01*
X142586000Y-85734000D02*
X141386000Y-85734000D01*
G04 #@! TO.C,R69*
X141386000Y-84954000D02*
X142586000Y-84954000D01*
X142586000Y-83194000D02*
X141386000Y-83194000D01*
G04 #@! TO.C,R68*
X141386000Y-82414000D02*
X142586000Y-82414000D01*
X142586000Y-80654000D02*
X141386000Y-80654000D01*
G04 #@! TO.C,R67*
X141386000Y-79874000D02*
X142586000Y-79874000D01*
X142586000Y-78114000D02*
X141386000Y-78114000D01*
G04 #@! TO.C,R66*
X134147000Y-136135000D02*
X135347000Y-136135000D01*
X135347000Y-134375000D02*
X134147000Y-134375000D01*
G04 #@! TO.C,R64*
X134147000Y-131055000D02*
X135347000Y-131055000D01*
X135347000Y-129295000D02*
X134147000Y-129295000D01*
G04 #@! TO.C,R63*
X134143200Y-128515000D02*
X135343200Y-128515000D01*
X135343200Y-126755000D02*
X134143200Y-126755000D01*
G04 #@! TO.C,R62*
X134147000Y-125975000D02*
X135347000Y-125975000D01*
X135347000Y-124215000D02*
X134147000Y-124215000D01*
G04 #@! TO.C,R61*
X134143200Y-123435000D02*
X135343200Y-123435000D01*
X135343200Y-121675000D02*
X134143200Y-121675000D01*
G04 #@! TO.C,R60*
X134147000Y-120895000D02*
X135347000Y-120895000D01*
X135347000Y-119135000D02*
X134147000Y-119135000D01*
G04 #@! TO.C,R59*
X134143200Y-118355000D02*
X135343200Y-118355000D01*
X135343200Y-116595000D02*
X134143200Y-116595000D01*
G04 #@! TO.C,R58*
X141640000Y-137913000D02*
X142840000Y-137913000D01*
X142840000Y-136153000D02*
X141640000Y-136153000D01*
G04 #@! TO.C,R57*
X141640000Y-135373000D02*
X142840000Y-135373000D01*
X142840000Y-133613000D02*
X141640000Y-133613000D01*
G04 #@! TO.C,R56*
X141640000Y-132833000D02*
X142840000Y-132833000D01*
X142840000Y-131073000D02*
X141640000Y-131073000D01*
G04 #@! TO.C,R55*
X141640000Y-130293000D02*
X142840000Y-130293000D01*
X142840000Y-128533000D02*
X141640000Y-128533000D01*
G04 #@! TO.C,R54*
X141640000Y-127753000D02*
X142840000Y-127753000D01*
X142840000Y-125993000D02*
X141640000Y-125993000D01*
G04 #@! TO.C,R53*
X141640000Y-125213000D02*
X142840000Y-125213000D01*
X142840000Y-123453000D02*
X141640000Y-123453000D01*
G04 #@! TO.C,R52*
X141640000Y-122673000D02*
X142840000Y-122673000D01*
X142840000Y-120913000D02*
X141640000Y-120913000D01*
G04 #@! TO.C,R51*
X141640000Y-120133000D02*
X142840000Y-120133000D01*
X142840000Y-118373000D02*
X141640000Y-118373000D01*
G04 #@! TO.C,R50*
X162953000Y-116595000D02*
X161753000Y-116595000D01*
X161753000Y-118355000D02*
X162953000Y-118355000D01*
G04 #@! TO.C,R49*
X162935200Y-114055000D02*
X161735200Y-114055000D01*
X161735200Y-115815000D02*
X162935200Y-115815000D01*
G04 #@! TO.C,R48*
X162953000Y-111515000D02*
X161753000Y-111515000D01*
X161753000Y-113275000D02*
X162953000Y-113275000D01*
G04 #@! TO.C,R46*
X163033000Y-106435000D02*
X161833000Y-106435000D01*
X161833000Y-108195000D02*
X163033000Y-108195000D01*
G04 #@! TO.C,R44*
X163033000Y-101355000D02*
X161833000Y-101355000D01*
X161833000Y-103115000D02*
X163033000Y-103115000D01*
G04 #@! TO.C,R43*
X162986000Y-98815000D02*
X161786000Y-98815000D01*
X161786000Y-100575000D02*
X162986000Y-100575000D01*
G04 #@! TO.C,R42*
X155159000Y-114817000D02*
X153959000Y-114817000D01*
X153959000Y-116577000D02*
X155159000Y-116577000D01*
G04 #@! TO.C,R41*
X155159000Y-112277000D02*
X153959000Y-112277000D01*
X153959000Y-114037000D02*
X155159000Y-114037000D01*
G04 #@! TO.C,R40*
X155159000Y-109737000D02*
X153959000Y-109737000D01*
X153959000Y-111497000D02*
X155159000Y-111497000D01*
G04 #@! TO.C,R39*
X155159000Y-107197000D02*
X153959000Y-107197000D01*
X153959000Y-108957000D02*
X155159000Y-108957000D01*
G04 #@! TO.C,R38*
X155159000Y-104657000D02*
X153959000Y-104657000D01*
X153959000Y-106417000D02*
X155159000Y-106417000D01*
G04 #@! TO.C,R37*
X155159000Y-102117000D02*
X153959000Y-102117000D01*
X153959000Y-103877000D02*
X155159000Y-103877000D01*
G04 #@! TO.C,R36*
X155159000Y-99577000D02*
X153959000Y-99577000D01*
X153959000Y-101337000D02*
X155159000Y-101337000D01*
G04 #@! TO.C,R35*
X155159000Y-97037000D02*
X153959000Y-97037000D01*
X153959000Y-98797000D02*
X155159000Y-98797000D01*
G04 #@! TO.C,R87*
X155159000Y-66938000D02*
X153959000Y-66938000D01*
X153959000Y-68698000D02*
X155159000Y-68698000D01*
G04 #@! TO.C,P1*
D13*
X190476095Y-74246180D02*
X190476095Y-73246180D01*
X190095142Y-73246180D01*
X189999904Y-73293800D01*
X189952285Y-73341419D01*
X189904666Y-73436657D01*
X189904666Y-73579514D01*
X189952285Y-73674752D01*
X189999904Y-73722371D01*
X190095142Y-73769990D01*
X190476095Y-73769990D01*
X188952285Y-74246180D02*
X189523714Y-74246180D01*
X189238000Y-74246180D02*
X189238000Y-73246180D01*
X189333238Y-73389038D01*
X189428476Y-73484276D01*
X189523714Y-73531895D01*
G04 #@! TO.C,R65*
X131630657Y-133141980D02*
X131963990Y-132665790D01*
X132202085Y-133141980D02*
X132202085Y-132141980D01*
X131821133Y-132141980D01*
X131725895Y-132189600D01*
X131678276Y-132237219D01*
X131630657Y-132332457D01*
X131630657Y-132475314D01*
X131678276Y-132570552D01*
X131725895Y-132618171D01*
X131821133Y-132665790D01*
X132202085Y-132665790D01*
X130773514Y-132141980D02*
X130963990Y-132141980D01*
X131059228Y-132189600D01*
X131106847Y-132237219D01*
X131202085Y-132380076D01*
X131249704Y-132570552D01*
X131249704Y-132951504D01*
X131202085Y-133046742D01*
X131154466Y-133094361D01*
X131059228Y-133141980D01*
X130868752Y-133141980D01*
X130773514Y-133094361D01*
X130725895Y-133046742D01*
X130678276Y-132951504D01*
X130678276Y-132713409D01*
X130725895Y-132618171D01*
X130773514Y-132570552D01*
X130868752Y-132522933D01*
X131059228Y-132522933D01*
X131154466Y-132570552D01*
X131202085Y-132618171D01*
X131249704Y-132713409D01*
X129773514Y-132141980D02*
X130249704Y-132141980D01*
X130297323Y-132618171D01*
X130249704Y-132570552D01*
X130154466Y-132522933D01*
X129916371Y-132522933D01*
X129821133Y-132570552D01*
X129773514Y-132618171D01*
X129725895Y-132713409D01*
X129725895Y-132951504D01*
X129773514Y-133046742D01*
X129821133Y-133094361D01*
X129916371Y-133141980D01*
X130154466Y-133141980D01*
X130249704Y-133094361D01*
X130297323Y-133046742D01*
G04 #@! TO.C,R79*
X131757657Y-87828380D02*
X132090990Y-87352190D01*
X132329085Y-87828380D02*
X132329085Y-86828380D01*
X131948133Y-86828380D01*
X131852895Y-86876000D01*
X131805276Y-86923619D01*
X131757657Y-87018857D01*
X131757657Y-87161714D01*
X131805276Y-87256952D01*
X131852895Y-87304571D01*
X131948133Y-87352190D01*
X132329085Y-87352190D01*
X131424323Y-86828380D02*
X130757657Y-86828380D01*
X131186228Y-87828380D01*
X130329085Y-87828380D02*
X130138609Y-87828380D01*
X130043371Y-87780761D01*
X129995752Y-87733142D01*
X129900514Y-87590285D01*
X129852895Y-87399809D01*
X129852895Y-87018857D01*
X129900514Y-86923619D01*
X129948133Y-86876000D01*
X130043371Y-86828380D01*
X130233847Y-86828380D01*
X130329085Y-86876000D01*
X130376704Y-86923619D01*
X130424323Y-87018857D01*
X130424323Y-87256952D01*
X130376704Y-87352190D01*
X130329085Y-87399809D01*
X130233847Y-87447428D01*
X130043371Y-87447428D01*
X129948133Y-87399809D01*
X129900514Y-87352190D01*
X129852895Y-87256952D01*
G04 #@! TO.C,R45*
X166708057Y-105227380D02*
X167041390Y-104751190D01*
X167279485Y-105227380D02*
X167279485Y-104227380D01*
X166898533Y-104227380D01*
X166803295Y-104275000D01*
X166755676Y-104322619D01*
X166708057Y-104417857D01*
X166708057Y-104560714D01*
X166755676Y-104655952D01*
X166803295Y-104703571D01*
X166898533Y-104751190D01*
X167279485Y-104751190D01*
X165850914Y-104560714D02*
X165850914Y-105227380D01*
X166089009Y-104179761D02*
X166327104Y-104894047D01*
X165708057Y-104894047D01*
X164850914Y-104227380D02*
X165327104Y-104227380D01*
X165374723Y-104703571D01*
X165327104Y-104655952D01*
X165231866Y-104608333D01*
X164993771Y-104608333D01*
X164898533Y-104655952D01*
X164850914Y-104703571D01*
X164803295Y-104798809D01*
X164803295Y-105036904D01*
X164850914Y-105132142D01*
X164898533Y-105179761D01*
X164993771Y-105227380D01*
X165231866Y-105227380D01*
X165327104Y-105179761D01*
X165374723Y-105132142D01*
G04 #@! TO.C,R47*
X166758857Y-110307380D02*
X167092190Y-109831190D01*
X167330285Y-110307380D02*
X167330285Y-109307380D01*
X166949333Y-109307380D01*
X166854095Y-109355000D01*
X166806476Y-109402619D01*
X166758857Y-109497857D01*
X166758857Y-109640714D01*
X166806476Y-109735952D01*
X166854095Y-109783571D01*
X166949333Y-109831190D01*
X167330285Y-109831190D01*
X165901714Y-109640714D02*
X165901714Y-110307380D01*
X166139809Y-109259761D02*
X166377904Y-109974047D01*
X165758857Y-109974047D01*
X165473142Y-109307380D02*
X164806476Y-109307380D01*
X165235047Y-110307380D01*
G04 #@! TO.C,R98*
X166860457Y-77642980D02*
X167193790Y-77166790D01*
X167431885Y-77642980D02*
X167431885Y-76642980D01*
X167050933Y-76642980D01*
X166955695Y-76690600D01*
X166908076Y-76738219D01*
X166860457Y-76833457D01*
X166860457Y-76976314D01*
X166908076Y-77071552D01*
X166955695Y-77119171D01*
X167050933Y-77166790D01*
X167431885Y-77166790D01*
X166384266Y-77642980D02*
X166193790Y-77642980D01*
X166098552Y-77595361D01*
X166050933Y-77547742D01*
X165955695Y-77404885D01*
X165908076Y-77214409D01*
X165908076Y-76833457D01*
X165955695Y-76738219D01*
X166003314Y-76690600D01*
X166098552Y-76642980D01*
X166289028Y-76642980D01*
X166384266Y-76690600D01*
X166431885Y-76738219D01*
X166479504Y-76833457D01*
X166479504Y-77071552D01*
X166431885Y-77166790D01*
X166384266Y-77214409D01*
X166289028Y-77262028D01*
X166098552Y-77262028D01*
X166003314Y-77214409D01*
X165955695Y-77166790D01*
X165908076Y-77071552D01*
X165336647Y-77071552D02*
X165431885Y-77023933D01*
X165479504Y-76976314D01*
X165527123Y-76881076D01*
X165527123Y-76833457D01*
X165479504Y-76738219D01*
X165431885Y-76690600D01*
X165336647Y-76642980D01*
X165146171Y-76642980D01*
X165050933Y-76690600D01*
X165003314Y-76738219D01*
X164955695Y-76833457D01*
X164955695Y-76881076D01*
X165003314Y-76976314D01*
X165050933Y-77023933D01*
X165146171Y-77071552D01*
X165336647Y-77071552D01*
X165431885Y-77119171D01*
X165479504Y-77166790D01*
X165527123Y-77262028D01*
X165527123Y-77452504D01*
X165479504Y-77547742D01*
X165431885Y-77595361D01*
X165336647Y-77642980D01*
X165146171Y-77642980D01*
X165050933Y-77595361D01*
X165003314Y-77547742D01*
X164955695Y-77452504D01*
X164955695Y-77262028D01*
X165003314Y-77166790D01*
X165050933Y-77119171D01*
X165146171Y-77071552D01*
G04 #@! TO.C,R97*
X166860457Y-75102980D02*
X167193790Y-74626790D01*
X167431885Y-75102980D02*
X167431885Y-74102980D01*
X167050933Y-74102980D01*
X166955695Y-74150600D01*
X166908076Y-74198219D01*
X166860457Y-74293457D01*
X166860457Y-74436314D01*
X166908076Y-74531552D01*
X166955695Y-74579171D01*
X167050933Y-74626790D01*
X167431885Y-74626790D01*
X166384266Y-75102980D02*
X166193790Y-75102980D01*
X166098552Y-75055361D01*
X166050933Y-75007742D01*
X165955695Y-74864885D01*
X165908076Y-74674409D01*
X165908076Y-74293457D01*
X165955695Y-74198219D01*
X166003314Y-74150600D01*
X166098552Y-74102980D01*
X166289028Y-74102980D01*
X166384266Y-74150600D01*
X166431885Y-74198219D01*
X166479504Y-74293457D01*
X166479504Y-74531552D01*
X166431885Y-74626790D01*
X166384266Y-74674409D01*
X166289028Y-74722028D01*
X166098552Y-74722028D01*
X166003314Y-74674409D01*
X165955695Y-74626790D01*
X165908076Y-74531552D01*
X165574742Y-74102980D02*
X164908076Y-74102980D01*
X165336647Y-75102980D01*
G04 #@! TO.C,R96*
X166911257Y-72537580D02*
X167244590Y-72061390D01*
X167482685Y-72537580D02*
X167482685Y-71537580D01*
X167101733Y-71537580D01*
X167006495Y-71585200D01*
X166958876Y-71632819D01*
X166911257Y-71728057D01*
X166911257Y-71870914D01*
X166958876Y-71966152D01*
X167006495Y-72013771D01*
X167101733Y-72061390D01*
X167482685Y-72061390D01*
X166435066Y-72537580D02*
X166244590Y-72537580D01*
X166149352Y-72489961D01*
X166101733Y-72442342D01*
X166006495Y-72299485D01*
X165958876Y-72109009D01*
X165958876Y-71728057D01*
X166006495Y-71632819D01*
X166054114Y-71585200D01*
X166149352Y-71537580D01*
X166339828Y-71537580D01*
X166435066Y-71585200D01*
X166482685Y-71632819D01*
X166530304Y-71728057D01*
X166530304Y-71966152D01*
X166482685Y-72061390D01*
X166435066Y-72109009D01*
X166339828Y-72156628D01*
X166149352Y-72156628D01*
X166054114Y-72109009D01*
X166006495Y-72061390D01*
X165958876Y-71966152D01*
X165101733Y-71537580D02*
X165292209Y-71537580D01*
X165387447Y-71585200D01*
X165435066Y-71632819D01*
X165530304Y-71775676D01*
X165577923Y-71966152D01*
X165577923Y-72347104D01*
X165530304Y-72442342D01*
X165482685Y-72489961D01*
X165387447Y-72537580D01*
X165196971Y-72537580D01*
X165101733Y-72489961D01*
X165054114Y-72442342D01*
X165006495Y-72347104D01*
X165006495Y-72109009D01*
X165054114Y-72013771D01*
X165101733Y-71966152D01*
X165196971Y-71918533D01*
X165387447Y-71918533D01*
X165482685Y-71966152D01*
X165530304Y-72013771D01*
X165577923Y-72109009D01*
G04 #@! TO.C,R95*
X166860457Y-70048380D02*
X167193790Y-69572190D01*
X167431885Y-70048380D02*
X167431885Y-69048380D01*
X167050933Y-69048380D01*
X166955695Y-69096000D01*
X166908076Y-69143619D01*
X166860457Y-69238857D01*
X166860457Y-69381714D01*
X166908076Y-69476952D01*
X166955695Y-69524571D01*
X167050933Y-69572190D01*
X167431885Y-69572190D01*
X166384266Y-70048380D02*
X166193790Y-70048380D01*
X166098552Y-70000761D01*
X166050933Y-69953142D01*
X165955695Y-69810285D01*
X165908076Y-69619809D01*
X165908076Y-69238857D01*
X165955695Y-69143619D01*
X166003314Y-69096000D01*
X166098552Y-69048380D01*
X166289028Y-69048380D01*
X166384266Y-69096000D01*
X166431885Y-69143619D01*
X166479504Y-69238857D01*
X166479504Y-69476952D01*
X166431885Y-69572190D01*
X166384266Y-69619809D01*
X166289028Y-69667428D01*
X166098552Y-69667428D01*
X166003314Y-69619809D01*
X165955695Y-69572190D01*
X165908076Y-69476952D01*
X165003314Y-69048380D02*
X165479504Y-69048380D01*
X165527123Y-69524571D01*
X165479504Y-69476952D01*
X165384266Y-69429333D01*
X165146171Y-69429333D01*
X165050933Y-69476952D01*
X165003314Y-69524571D01*
X164955695Y-69619809D01*
X164955695Y-69857904D01*
X165003314Y-69953142D01*
X165050933Y-70000761D01*
X165146171Y-70048380D01*
X165384266Y-70048380D01*
X165479504Y-70000761D01*
X165527123Y-69953142D01*
G04 #@! TO.C,R94*
X166758857Y-67482980D02*
X167092190Y-67006790D01*
X167330285Y-67482980D02*
X167330285Y-66482980D01*
X166949333Y-66482980D01*
X166854095Y-66530600D01*
X166806476Y-66578219D01*
X166758857Y-66673457D01*
X166758857Y-66816314D01*
X166806476Y-66911552D01*
X166854095Y-66959171D01*
X166949333Y-67006790D01*
X167330285Y-67006790D01*
X166282666Y-67482980D02*
X166092190Y-67482980D01*
X165996952Y-67435361D01*
X165949333Y-67387742D01*
X165854095Y-67244885D01*
X165806476Y-67054409D01*
X165806476Y-66673457D01*
X165854095Y-66578219D01*
X165901714Y-66530600D01*
X165996952Y-66482980D01*
X166187428Y-66482980D01*
X166282666Y-66530600D01*
X166330285Y-66578219D01*
X166377904Y-66673457D01*
X166377904Y-66911552D01*
X166330285Y-67006790D01*
X166282666Y-67054409D01*
X166187428Y-67102028D01*
X165996952Y-67102028D01*
X165901714Y-67054409D01*
X165854095Y-67006790D01*
X165806476Y-66911552D01*
X164949333Y-66816314D02*
X164949333Y-67482980D01*
X165187428Y-66435361D02*
X165425523Y-67149647D01*
X164806476Y-67149647D01*
G04 #@! TO.C,R93*
X166758857Y-64993780D02*
X167092190Y-64517590D01*
X167330285Y-64993780D02*
X167330285Y-63993780D01*
X166949333Y-63993780D01*
X166854095Y-64041400D01*
X166806476Y-64089019D01*
X166758857Y-64184257D01*
X166758857Y-64327114D01*
X166806476Y-64422352D01*
X166854095Y-64469971D01*
X166949333Y-64517590D01*
X167330285Y-64517590D01*
X166282666Y-64993780D02*
X166092190Y-64993780D01*
X165996952Y-64946161D01*
X165949333Y-64898542D01*
X165854095Y-64755685D01*
X165806476Y-64565209D01*
X165806476Y-64184257D01*
X165854095Y-64089019D01*
X165901714Y-64041400D01*
X165996952Y-63993780D01*
X166187428Y-63993780D01*
X166282666Y-64041400D01*
X166330285Y-64089019D01*
X166377904Y-64184257D01*
X166377904Y-64422352D01*
X166330285Y-64517590D01*
X166282666Y-64565209D01*
X166187428Y-64612828D01*
X165996952Y-64612828D01*
X165901714Y-64565209D01*
X165854095Y-64517590D01*
X165806476Y-64422352D01*
X165473142Y-63993780D02*
X164854095Y-63993780D01*
X165187428Y-64374733D01*
X165044571Y-64374733D01*
X164949333Y-64422352D01*
X164901714Y-64469971D01*
X164854095Y-64565209D01*
X164854095Y-64803304D01*
X164901714Y-64898542D01*
X164949333Y-64946161D01*
X165044571Y-64993780D01*
X165330285Y-64993780D01*
X165425523Y-64946161D01*
X165473142Y-64898542D01*
G04 #@! TO.C,R92*
X166758857Y-62428380D02*
X167092190Y-61952190D01*
X167330285Y-62428380D02*
X167330285Y-61428380D01*
X166949333Y-61428380D01*
X166854095Y-61476000D01*
X166806476Y-61523619D01*
X166758857Y-61618857D01*
X166758857Y-61761714D01*
X166806476Y-61856952D01*
X166854095Y-61904571D01*
X166949333Y-61952190D01*
X167330285Y-61952190D01*
X166282666Y-62428380D02*
X166092190Y-62428380D01*
X165996952Y-62380761D01*
X165949333Y-62333142D01*
X165854095Y-62190285D01*
X165806476Y-61999809D01*
X165806476Y-61618857D01*
X165854095Y-61523619D01*
X165901714Y-61476000D01*
X165996952Y-61428380D01*
X166187428Y-61428380D01*
X166282666Y-61476000D01*
X166330285Y-61523619D01*
X166377904Y-61618857D01*
X166377904Y-61856952D01*
X166330285Y-61952190D01*
X166282666Y-61999809D01*
X166187428Y-62047428D01*
X165996952Y-62047428D01*
X165901714Y-61999809D01*
X165854095Y-61952190D01*
X165806476Y-61856952D01*
X165425523Y-61523619D02*
X165377904Y-61476000D01*
X165282666Y-61428380D01*
X165044571Y-61428380D01*
X164949333Y-61476000D01*
X164901714Y-61523619D01*
X164854095Y-61618857D01*
X164854095Y-61714095D01*
X164901714Y-61856952D01*
X165473142Y-62428380D01*
X164854095Y-62428380D01*
G04 #@! TO.C,R91*
X166784257Y-59888380D02*
X167117590Y-59412190D01*
X167355685Y-59888380D02*
X167355685Y-58888380D01*
X166974733Y-58888380D01*
X166879495Y-58936000D01*
X166831876Y-58983619D01*
X166784257Y-59078857D01*
X166784257Y-59221714D01*
X166831876Y-59316952D01*
X166879495Y-59364571D01*
X166974733Y-59412190D01*
X167355685Y-59412190D01*
X166308066Y-59888380D02*
X166117590Y-59888380D01*
X166022352Y-59840761D01*
X165974733Y-59793142D01*
X165879495Y-59650285D01*
X165831876Y-59459809D01*
X165831876Y-59078857D01*
X165879495Y-58983619D01*
X165927114Y-58936000D01*
X166022352Y-58888380D01*
X166212828Y-58888380D01*
X166308066Y-58936000D01*
X166355685Y-58983619D01*
X166403304Y-59078857D01*
X166403304Y-59316952D01*
X166355685Y-59412190D01*
X166308066Y-59459809D01*
X166212828Y-59507428D01*
X166022352Y-59507428D01*
X165927114Y-59459809D01*
X165879495Y-59412190D01*
X165831876Y-59316952D01*
X164879495Y-59888380D02*
X165450923Y-59888380D01*
X165165209Y-59888380D02*
X165165209Y-58888380D01*
X165260447Y-59031238D01*
X165355685Y-59126476D01*
X165450923Y-59174095D01*
G04 #@! TO.C,R90*
X151366457Y-75890380D02*
X151699790Y-75414190D01*
X151937885Y-75890380D02*
X151937885Y-74890380D01*
X151556933Y-74890380D01*
X151461695Y-74938000D01*
X151414076Y-74985619D01*
X151366457Y-75080857D01*
X151366457Y-75223714D01*
X151414076Y-75318952D01*
X151461695Y-75366571D01*
X151556933Y-75414190D01*
X151937885Y-75414190D01*
X150890266Y-75890380D02*
X150699790Y-75890380D01*
X150604552Y-75842761D01*
X150556933Y-75795142D01*
X150461695Y-75652285D01*
X150414076Y-75461809D01*
X150414076Y-75080857D01*
X150461695Y-74985619D01*
X150509314Y-74938000D01*
X150604552Y-74890380D01*
X150795028Y-74890380D01*
X150890266Y-74938000D01*
X150937885Y-74985619D01*
X150985504Y-75080857D01*
X150985504Y-75318952D01*
X150937885Y-75414190D01*
X150890266Y-75461809D01*
X150795028Y-75509428D01*
X150604552Y-75509428D01*
X150509314Y-75461809D01*
X150461695Y-75414190D01*
X150414076Y-75318952D01*
X149795028Y-74890380D02*
X149699790Y-74890380D01*
X149604552Y-74938000D01*
X149556933Y-74985619D01*
X149509314Y-75080857D01*
X149461695Y-75271333D01*
X149461695Y-75509428D01*
X149509314Y-75699904D01*
X149556933Y-75795142D01*
X149604552Y-75842761D01*
X149699790Y-75890380D01*
X149795028Y-75890380D01*
X149890266Y-75842761D01*
X149937885Y-75795142D01*
X149985504Y-75699904D01*
X150033123Y-75509428D01*
X150033123Y-75271333D01*
X149985504Y-75080857D01*
X149937885Y-74985619D01*
X149890266Y-74938000D01*
X149795028Y-74890380D01*
G04 #@! TO.C,R89*
X151366457Y-73350380D02*
X151699790Y-72874190D01*
X151937885Y-73350380D02*
X151937885Y-72350380D01*
X151556933Y-72350380D01*
X151461695Y-72398000D01*
X151414076Y-72445619D01*
X151366457Y-72540857D01*
X151366457Y-72683714D01*
X151414076Y-72778952D01*
X151461695Y-72826571D01*
X151556933Y-72874190D01*
X151937885Y-72874190D01*
X150795028Y-72778952D02*
X150890266Y-72731333D01*
X150937885Y-72683714D01*
X150985504Y-72588476D01*
X150985504Y-72540857D01*
X150937885Y-72445619D01*
X150890266Y-72398000D01*
X150795028Y-72350380D01*
X150604552Y-72350380D01*
X150509314Y-72398000D01*
X150461695Y-72445619D01*
X150414076Y-72540857D01*
X150414076Y-72588476D01*
X150461695Y-72683714D01*
X150509314Y-72731333D01*
X150604552Y-72778952D01*
X150795028Y-72778952D01*
X150890266Y-72826571D01*
X150937885Y-72874190D01*
X150985504Y-72969428D01*
X150985504Y-73159904D01*
X150937885Y-73255142D01*
X150890266Y-73302761D01*
X150795028Y-73350380D01*
X150604552Y-73350380D01*
X150509314Y-73302761D01*
X150461695Y-73255142D01*
X150414076Y-73159904D01*
X150414076Y-72969428D01*
X150461695Y-72874190D01*
X150509314Y-72826571D01*
X150604552Y-72778952D01*
X149937885Y-73350380D02*
X149747409Y-73350380D01*
X149652171Y-73302761D01*
X149604552Y-73255142D01*
X149509314Y-73112285D01*
X149461695Y-72921809D01*
X149461695Y-72540857D01*
X149509314Y-72445619D01*
X149556933Y-72398000D01*
X149652171Y-72350380D01*
X149842647Y-72350380D01*
X149937885Y-72398000D01*
X149985504Y-72445619D01*
X150033123Y-72540857D01*
X150033123Y-72778952D01*
X149985504Y-72874190D01*
X149937885Y-72921809D01*
X149842647Y-72969428D01*
X149652171Y-72969428D01*
X149556933Y-72921809D01*
X149509314Y-72874190D01*
X149461695Y-72778952D01*
G04 #@! TO.C,R88*
X151341057Y-70810380D02*
X151674390Y-70334190D01*
X151912485Y-70810380D02*
X151912485Y-69810380D01*
X151531533Y-69810380D01*
X151436295Y-69858000D01*
X151388676Y-69905619D01*
X151341057Y-70000857D01*
X151341057Y-70143714D01*
X151388676Y-70238952D01*
X151436295Y-70286571D01*
X151531533Y-70334190D01*
X151912485Y-70334190D01*
X150769628Y-70238952D02*
X150864866Y-70191333D01*
X150912485Y-70143714D01*
X150960104Y-70048476D01*
X150960104Y-70000857D01*
X150912485Y-69905619D01*
X150864866Y-69858000D01*
X150769628Y-69810380D01*
X150579152Y-69810380D01*
X150483914Y-69858000D01*
X150436295Y-69905619D01*
X150388676Y-70000857D01*
X150388676Y-70048476D01*
X150436295Y-70143714D01*
X150483914Y-70191333D01*
X150579152Y-70238952D01*
X150769628Y-70238952D01*
X150864866Y-70286571D01*
X150912485Y-70334190D01*
X150960104Y-70429428D01*
X150960104Y-70619904D01*
X150912485Y-70715142D01*
X150864866Y-70762761D01*
X150769628Y-70810380D01*
X150579152Y-70810380D01*
X150483914Y-70762761D01*
X150436295Y-70715142D01*
X150388676Y-70619904D01*
X150388676Y-70429428D01*
X150436295Y-70334190D01*
X150483914Y-70286571D01*
X150579152Y-70238952D01*
X149817247Y-70238952D02*
X149912485Y-70191333D01*
X149960104Y-70143714D01*
X150007723Y-70048476D01*
X150007723Y-70000857D01*
X149960104Y-69905619D01*
X149912485Y-69858000D01*
X149817247Y-69810380D01*
X149626771Y-69810380D01*
X149531533Y-69858000D01*
X149483914Y-69905619D01*
X149436295Y-70000857D01*
X149436295Y-70048476D01*
X149483914Y-70143714D01*
X149531533Y-70191333D01*
X149626771Y-70238952D01*
X149817247Y-70238952D01*
X149912485Y-70286571D01*
X149960104Y-70334190D01*
X150007723Y-70429428D01*
X150007723Y-70619904D01*
X149960104Y-70715142D01*
X149912485Y-70762761D01*
X149817247Y-70810380D01*
X149626771Y-70810380D01*
X149531533Y-70762761D01*
X149483914Y-70715142D01*
X149436295Y-70619904D01*
X149436295Y-70429428D01*
X149483914Y-70334190D01*
X149531533Y-70286571D01*
X149626771Y-70238952D01*
G04 #@! TO.C,R86*
X151239457Y-65730380D02*
X151572790Y-65254190D01*
X151810885Y-65730380D02*
X151810885Y-64730380D01*
X151429933Y-64730380D01*
X151334695Y-64778000D01*
X151287076Y-64825619D01*
X151239457Y-64920857D01*
X151239457Y-65063714D01*
X151287076Y-65158952D01*
X151334695Y-65206571D01*
X151429933Y-65254190D01*
X151810885Y-65254190D01*
X150668028Y-65158952D02*
X150763266Y-65111333D01*
X150810885Y-65063714D01*
X150858504Y-64968476D01*
X150858504Y-64920857D01*
X150810885Y-64825619D01*
X150763266Y-64778000D01*
X150668028Y-64730380D01*
X150477552Y-64730380D01*
X150382314Y-64778000D01*
X150334695Y-64825619D01*
X150287076Y-64920857D01*
X150287076Y-64968476D01*
X150334695Y-65063714D01*
X150382314Y-65111333D01*
X150477552Y-65158952D01*
X150668028Y-65158952D01*
X150763266Y-65206571D01*
X150810885Y-65254190D01*
X150858504Y-65349428D01*
X150858504Y-65539904D01*
X150810885Y-65635142D01*
X150763266Y-65682761D01*
X150668028Y-65730380D01*
X150477552Y-65730380D01*
X150382314Y-65682761D01*
X150334695Y-65635142D01*
X150287076Y-65539904D01*
X150287076Y-65349428D01*
X150334695Y-65254190D01*
X150382314Y-65206571D01*
X150477552Y-65158952D01*
X149429933Y-64730380D02*
X149620409Y-64730380D01*
X149715647Y-64778000D01*
X149763266Y-64825619D01*
X149858504Y-64968476D01*
X149906123Y-65158952D01*
X149906123Y-65539904D01*
X149858504Y-65635142D01*
X149810885Y-65682761D01*
X149715647Y-65730380D01*
X149525171Y-65730380D01*
X149429933Y-65682761D01*
X149382314Y-65635142D01*
X149334695Y-65539904D01*
X149334695Y-65301809D01*
X149382314Y-65206571D01*
X149429933Y-65158952D01*
X149525171Y-65111333D01*
X149715647Y-65111333D01*
X149810885Y-65158952D01*
X149858504Y-65206571D01*
X149906123Y-65301809D01*
G04 #@! TO.C,R85*
X151366457Y-63190380D02*
X151699790Y-62714190D01*
X151937885Y-63190380D02*
X151937885Y-62190380D01*
X151556933Y-62190380D01*
X151461695Y-62238000D01*
X151414076Y-62285619D01*
X151366457Y-62380857D01*
X151366457Y-62523714D01*
X151414076Y-62618952D01*
X151461695Y-62666571D01*
X151556933Y-62714190D01*
X151937885Y-62714190D01*
X150795028Y-62618952D02*
X150890266Y-62571333D01*
X150937885Y-62523714D01*
X150985504Y-62428476D01*
X150985504Y-62380857D01*
X150937885Y-62285619D01*
X150890266Y-62238000D01*
X150795028Y-62190380D01*
X150604552Y-62190380D01*
X150509314Y-62238000D01*
X150461695Y-62285619D01*
X150414076Y-62380857D01*
X150414076Y-62428476D01*
X150461695Y-62523714D01*
X150509314Y-62571333D01*
X150604552Y-62618952D01*
X150795028Y-62618952D01*
X150890266Y-62666571D01*
X150937885Y-62714190D01*
X150985504Y-62809428D01*
X150985504Y-62999904D01*
X150937885Y-63095142D01*
X150890266Y-63142761D01*
X150795028Y-63190380D01*
X150604552Y-63190380D01*
X150509314Y-63142761D01*
X150461695Y-63095142D01*
X150414076Y-62999904D01*
X150414076Y-62809428D01*
X150461695Y-62714190D01*
X150509314Y-62666571D01*
X150604552Y-62618952D01*
X149509314Y-62190380D02*
X149985504Y-62190380D01*
X150033123Y-62666571D01*
X149985504Y-62618952D01*
X149890266Y-62571333D01*
X149652171Y-62571333D01*
X149556933Y-62618952D01*
X149509314Y-62666571D01*
X149461695Y-62761809D01*
X149461695Y-62999904D01*
X149509314Y-63095142D01*
X149556933Y-63142761D01*
X149652171Y-63190380D01*
X149890266Y-63190380D01*
X149985504Y-63142761D01*
X150033123Y-63095142D01*
G04 #@! TO.C,R84*
X151290257Y-60624980D02*
X151623590Y-60148790D01*
X151861685Y-60624980D02*
X151861685Y-59624980D01*
X151480733Y-59624980D01*
X151385495Y-59672600D01*
X151337876Y-59720219D01*
X151290257Y-59815457D01*
X151290257Y-59958314D01*
X151337876Y-60053552D01*
X151385495Y-60101171D01*
X151480733Y-60148790D01*
X151861685Y-60148790D01*
X150718828Y-60053552D02*
X150814066Y-60005933D01*
X150861685Y-59958314D01*
X150909304Y-59863076D01*
X150909304Y-59815457D01*
X150861685Y-59720219D01*
X150814066Y-59672600D01*
X150718828Y-59624980D01*
X150528352Y-59624980D01*
X150433114Y-59672600D01*
X150385495Y-59720219D01*
X150337876Y-59815457D01*
X150337876Y-59863076D01*
X150385495Y-59958314D01*
X150433114Y-60005933D01*
X150528352Y-60053552D01*
X150718828Y-60053552D01*
X150814066Y-60101171D01*
X150861685Y-60148790D01*
X150909304Y-60244028D01*
X150909304Y-60434504D01*
X150861685Y-60529742D01*
X150814066Y-60577361D01*
X150718828Y-60624980D01*
X150528352Y-60624980D01*
X150433114Y-60577361D01*
X150385495Y-60529742D01*
X150337876Y-60434504D01*
X150337876Y-60244028D01*
X150385495Y-60148790D01*
X150433114Y-60101171D01*
X150528352Y-60053552D01*
X149480733Y-59958314D02*
X149480733Y-60624980D01*
X149718828Y-59577361D02*
X149956923Y-60291647D01*
X149337876Y-60291647D01*
G04 #@! TO.C,R83*
X151341057Y-58110380D02*
X151674390Y-57634190D01*
X151912485Y-58110380D02*
X151912485Y-57110380D01*
X151531533Y-57110380D01*
X151436295Y-57158000D01*
X151388676Y-57205619D01*
X151341057Y-57300857D01*
X151341057Y-57443714D01*
X151388676Y-57538952D01*
X151436295Y-57586571D01*
X151531533Y-57634190D01*
X151912485Y-57634190D01*
X150769628Y-57538952D02*
X150864866Y-57491333D01*
X150912485Y-57443714D01*
X150960104Y-57348476D01*
X150960104Y-57300857D01*
X150912485Y-57205619D01*
X150864866Y-57158000D01*
X150769628Y-57110380D01*
X150579152Y-57110380D01*
X150483914Y-57158000D01*
X150436295Y-57205619D01*
X150388676Y-57300857D01*
X150388676Y-57348476D01*
X150436295Y-57443714D01*
X150483914Y-57491333D01*
X150579152Y-57538952D01*
X150769628Y-57538952D01*
X150864866Y-57586571D01*
X150912485Y-57634190D01*
X150960104Y-57729428D01*
X150960104Y-57919904D01*
X150912485Y-58015142D01*
X150864866Y-58062761D01*
X150769628Y-58110380D01*
X150579152Y-58110380D01*
X150483914Y-58062761D01*
X150436295Y-58015142D01*
X150388676Y-57919904D01*
X150388676Y-57729428D01*
X150436295Y-57634190D01*
X150483914Y-57586571D01*
X150579152Y-57538952D01*
X150055342Y-57110380D02*
X149436295Y-57110380D01*
X149769628Y-57491333D01*
X149626771Y-57491333D01*
X149531533Y-57538952D01*
X149483914Y-57586571D01*
X149436295Y-57681809D01*
X149436295Y-57919904D01*
X149483914Y-58015142D01*
X149531533Y-58062761D01*
X149626771Y-58110380D01*
X149912485Y-58110380D01*
X150007723Y-58062761D01*
X150055342Y-58015142D01*
G04 #@! TO.C,R82*
X131783057Y-95422980D02*
X132116390Y-94946790D01*
X132354485Y-95422980D02*
X132354485Y-94422980D01*
X131973533Y-94422980D01*
X131878295Y-94470600D01*
X131830676Y-94518219D01*
X131783057Y-94613457D01*
X131783057Y-94756314D01*
X131830676Y-94851552D01*
X131878295Y-94899171D01*
X131973533Y-94946790D01*
X132354485Y-94946790D01*
X131211628Y-94851552D02*
X131306866Y-94803933D01*
X131354485Y-94756314D01*
X131402104Y-94661076D01*
X131402104Y-94613457D01*
X131354485Y-94518219D01*
X131306866Y-94470600D01*
X131211628Y-94422980D01*
X131021152Y-94422980D01*
X130925914Y-94470600D01*
X130878295Y-94518219D01*
X130830676Y-94613457D01*
X130830676Y-94661076D01*
X130878295Y-94756314D01*
X130925914Y-94803933D01*
X131021152Y-94851552D01*
X131211628Y-94851552D01*
X131306866Y-94899171D01*
X131354485Y-94946790D01*
X131402104Y-95042028D01*
X131402104Y-95232504D01*
X131354485Y-95327742D01*
X131306866Y-95375361D01*
X131211628Y-95422980D01*
X131021152Y-95422980D01*
X130925914Y-95375361D01*
X130878295Y-95327742D01*
X130830676Y-95232504D01*
X130830676Y-95042028D01*
X130878295Y-94946790D01*
X130925914Y-94899171D01*
X131021152Y-94851552D01*
X130449723Y-94518219D02*
X130402104Y-94470600D01*
X130306866Y-94422980D01*
X130068771Y-94422980D01*
X129973533Y-94470600D01*
X129925914Y-94518219D01*
X129878295Y-94613457D01*
X129878295Y-94708695D01*
X129925914Y-94851552D01*
X130497342Y-95422980D01*
X129878295Y-95422980D01*
G04 #@! TO.C,R81*
X131757657Y-92908380D02*
X132090990Y-92432190D01*
X132329085Y-92908380D02*
X132329085Y-91908380D01*
X131948133Y-91908380D01*
X131852895Y-91956000D01*
X131805276Y-92003619D01*
X131757657Y-92098857D01*
X131757657Y-92241714D01*
X131805276Y-92336952D01*
X131852895Y-92384571D01*
X131948133Y-92432190D01*
X132329085Y-92432190D01*
X131186228Y-92336952D02*
X131281466Y-92289333D01*
X131329085Y-92241714D01*
X131376704Y-92146476D01*
X131376704Y-92098857D01*
X131329085Y-92003619D01*
X131281466Y-91956000D01*
X131186228Y-91908380D01*
X130995752Y-91908380D01*
X130900514Y-91956000D01*
X130852895Y-92003619D01*
X130805276Y-92098857D01*
X130805276Y-92146476D01*
X130852895Y-92241714D01*
X130900514Y-92289333D01*
X130995752Y-92336952D01*
X131186228Y-92336952D01*
X131281466Y-92384571D01*
X131329085Y-92432190D01*
X131376704Y-92527428D01*
X131376704Y-92717904D01*
X131329085Y-92813142D01*
X131281466Y-92860761D01*
X131186228Y-92908380D01*
X130995752Y-92908380D01*
X130900514Y-92860761D01*
X130852895Y-92813142D01*
X130805276Y-92717904D01*
X130805276Y-92527428D01*
X130852895Y-92432190D01*
X130900514Y-92384571D01*
X130995752Y-92336952D01*
X129852895Y-92908380D02*
X130424323Y-92908380D01*
X130138609Y-92908380D02*
X130138609Y-91908380D01*
X130233847Y-92051238D01*
X130329085Y-92146476D01*
X130424323Y-92194095D01*
G04 #@! TO.C,R80*
X131808457Y-90368380D02*
X132141790Y-89892190D01*
X132379885Y-90368380D02*
X132379885Y-89368380D01*
X131998933Y-89368380D01*
X131903695Y-89416000D01*
X131856076Y-89463619D01*
X131808457Y-89558857D01*
X131808457Y-89701714D01*
X131856076Y-89796952D01*
X131903695Y-89844571D01*
X131998933Y-89892190D01*
X132379885Y-89892190D01*
X131237028Y-89796952D02*
X131332266Y-89749333D01*
X131379885Y-89701714D01*
X131427504Y-89606476D01*
X131427504Y-89558857D01*
X131379885Y-89463619D01*
X131332266Y-89416000D01*
X131237028Y-89368380D01*
X131046552Y-89368380D01*
X130951314Y-89416000D01*
X130903695Y-89463619D01*
X130856076Y-89558857D01*
X130856076Y-89606476D01*
X130903695Y-89701714D01*
X130951314Y-89749333D01*
X131046552Y-89796952D01*
X131237028Y-89796952D01*
X131332266Y-89844571D01*
X131379885Y-89892190D01*
X131427504Y-89987428D01*
X131427504Y-90177904D01*
X131379885Y-90273142D01*
X131332266Y-90320761D01*
X131237028Y-90368380D01*
X131046552Y-90368380D01*
X130951314Y-90320761D01*
X130903695Y-90273142D01*
X130856076Y-90177904D01*
X130856076Y-89987428D01*
X130903695Y-89892190D01*
X130951314Y-89844571D01*
X131046552Y-89796952D01*
X130237028Y-89368380D02*
X130141790Y-89368380D01*
X130046552Y-89416000D01*
X129998933Y-89463619D01*
X129951314Y-89558857D01*
X129903695Y-89749333D01*
X129903695Y-89987428D01*
X129951314Y-90177904D01*
X129998933Y-90273142D01*
X130046552Y-90320761D01*
X130141790Y-90368380D01*
X130237028Y-90368380D01*
X130332266Y-90320761D01*
X130379885Y-90273142D01*
X130427504Y-90177904D01*
X130475123Y-89987428D01*
X130475123Y-89749333D01*
X130427504Y-89558857D01*
X130379885Y-89463619D01*
X130332266Y-89416000D01*
X130237028Y-89368380D01*
G04 #@! TO.C,R78*
X131757657Y-85288380D02*
X132090990Y-84812190D01*
X132329085Y-85288380D02*
X132329085Y-84288380D01*
X131948133Y-84288380D01*
X131852895Y-84336000D01*
X131805276Y-84383619D01*
X131757657Y-84478857D01*
X131757657Y-84621714D01*
X131805276Y-84716952D01*
X131852895Y-84764571D01*
X131948133Y-84812190D01*
X132329085Y-84812190D01*
X131424323Y-84288380D02*
X130757657Y-84288380D01*
X131186228Y-85288380D01*
X130233847Y-84716952D02*
X130329085Y-84669333D01*
X130376704Y-84621714D01*
X130424323Y-84526476D01*
X130424323Y-84478857D01*
X130376704Y-84383619D01*
X130329085Y-84336000D01*
X130233847Y-84288380D01*
X130043371Y-84288380D01*
X129948133Y-84336000D01*
X129900514Y-84383619D01*
X129852895Y-84478857D01*
X129852895Y-84526476D01*
X129900514Y-84621714D01*
X129948133Y-84669333D01*
X130043371Y-84716952D01*
X130233847Y-84716952D01*
X130329085Y-84764571D01*
X130376704Y-84812190D01*
X130424323Y-84907428D01*
X130424323Y-85097904D01*
X130376704Y-85193142D01*
X130329085Y-85240761D01*
X130233847Y-85288380D01*
X130043371Y-85288380D01*
X129948133Y-85240761D01*
X129900514Y-85193142D01*
X129852895Y-85097904D01*
X129852895Y-84907428D01*
X129900514Y-84812190D01*
X129948133Y-84764571D01*
X130043371Y-84716952D01*
G04 #@! TO.C,R77*
X131706857Y-82748380D02*
X132040190Y-82272190D01*
X132278285Y-82748380D02*
X132278285Y-81748380D01*
X131897333Y-81748380D01*
X131802095Y-81796000D01*
X131754476Y-81843619D01*
X131706857Y-81938857D01*
X131706857Y-82081714D01*
X131754476Y-82176952D01*
X131802095Y-82224571D01*
X131897333Y-82272190D01*
X132278285Y-82272190D01*
X131373523Y-81748380D02*
X130706857Y-81748380D01*
X131135428Y-82748380D01*
X130421142Y-81748380D02*
X129754476Y-81748380D01*
X130183047Y-82748380D01*
G04 #@! TO.C,R76*
X131757657Y-80208380D02*
X132090990Y-79732190D01*
X132329085Y-80208380D02*
X132329085Y-79208380D01*
X131948133Y-79208380D01*
X131852895Y-79256000D01*
X131805276Y-79303619D01*
X131757657Y-79398857D01*
X131757657Y-79541714D01*
X131805276Y-79636952D01*
X131852895Y-79684571D01*
X131948133Y-79732190D01*
X132329085Y-79732190D01*
X131424323Y-79208380D02*
X130757657Y-79208380D01*
X131186228Y-80208380D01*
X129948133Y-79208380D02*
X130138609Y-79208380D01*
X130233847Y-79256000D01*
X130281466Y-79303619D01*
X130376704Y-79446476D01*
X130424323Y-79636952D01*
X130424323Y-80017904D01*
X130376704Y-80113142D01*
X130329085Y-80160761D01*
X130233847Y-80208380D01*
X130043371Y-80208380D01*
X129948133Y-80160761D01*
X129900514Y-80113142D01*
X129852895Y-80017904D01*
X129852895Y-79779809D01*
X129900514Y-79684571D01*
X129948133Y-79636952D01*
X130043371Y-79589333D01*
X130233847Y-79589333D01*
X130329085Y-79636952D01*
X130376704Y-79684571D01*
X130424323Y-79779809D01*
G04 #@! TO.C,R75*
X131757657Y-77668380D02*
X132090990Y-77192190D01*
X132329085Y-77668380D02*
X132329085Y-76668380D01*
X131948133Y-76668380D01*
X131852895Y-76716000D01*
X131805276Y-76763619D01*
X131757657Y-76858857D01*
X131757657Y-77001714D01*
X131805276Y-77096952D01*
X131852895Y-77144571D01*
X131948133Y-77192190D01*
X132329085Y-77192190D01*
X131424323Y-76668380D02*
X130757657Y-76668380D01*
X131186228Y-77668380D01*
X129900514Y-76668380D02*
X130376704Y-76668380D01*
X130424323Y-77144571D01*
X130376704Y-77096952D01*
X130281466Y-77049333D01*
X130043371Y-77049333D01*
X129948133Y-77096952D01*
X129900514Y-77144571D01*
X129852895Y-77239809D01*
X129852895Y-77477904D01*
X129900514Y-77573142D01*
X129948133Y-77620761D01*
X130043371Y-77668380D01*
X130281466Y-77668380D01*
X130376704Y-77620761D01*
X130424323Y-77573142D01*
G04 #@! TO.C,R74*
X146819857Y-97226380D02*
X147153190Y-96750190D01*
X147391285Y-97226380D02*
X147391285Y-96226380D01*
X147010333Y-96226380D01*
X146915095Y-96274000D01*
X146867476Y-96321619D01*
X146819857Y-96416857D01*
X146819857Y-96559714D01*
X146867476Y-96654952D01*
X146915095Y-96702571D01*
X147010333Y-96750190D01*
X147391285Y-96750190D01*
X146486523Y-96226380D02*
X145819857Y-96226380D01*
X146248428Y-97226380D01*
X145010333Y-96559714D02*
X145010333Y-97226380D01*
X145248428Y-96178761D02*
X145486523Y-96893047D01*
X144867476Y-96893047D01*
G04 #@! TO.C,R73*
X146769057Y-94686380D02*
X147102390Y-94210190D01*
X147340485Y-94686380D02*
X147340485Y-93686380D01*
X146959533Y-93686380D01*
X146864295Y-93734000D01*
X146816676Y-93781619D01*
X146769057Y-93876857D01*
X146769057Y-94019714D01*
X146816676Y-94114952D01*
X146864295Y-94162571D01*
X146959533Y-94210190D01*
X147340485Y-94210190D01*
X146435723Y-93686380D02*
X145769057Y-93686380D01*
X146197628Y-94686380D01*
X145483342Y-93686380D02*
X144864295Y-93686380D01*
X145197628Y-94067333D01*
X145054771Y-94067333D01*
X144959533Y-94114952D01*
X144911914Y-94162571D01*
X144864295Y-94257809D01*
X144864295Y-94495904D01*
X144911914Y-94591142D01*
X144959533Y-94638761D01*
X145054771Y-94686380D01*
X145340485Y-94686380D01*
X145435723Y-94638761D01*
X145483342Y-94591142D01*
G04 #@! TO.C,R72*
X146718257Y-92146380D02*
X147051590Y-91670190D01*
X147289685Y-92146380D02*
X147289685Y-91146380D01*
X146908733Y-91146380D01*
X146813495Y-91194000D01*
X146765876Y-91241619D01*
X146718257Y-91336857D01*
X146718257Y-91479714D01*
X146765876Y-91574952D01*
X146813495Y-91622571D01*
X146908733Y-91670190D01*
X147289685Y-91670190D01*
X146384923Y-91146380D02*
X145718257Y-91146380D01*
X146146828Y-92146380D01*
X145384923Y-91241619D02*
X145337304Y-91194000D01*
X145242066Y-91146380D01*
X145003971Y-91146380D01*
X144908733Y-91194000D01*
X144861114Y-91241619D01*
X144813495Y-91336857D01*
X144813495Y-91432095D01*
X144861114Y-91574952D01*
X145432542Y-92146380D01*
X144813495Y-92146380D01*
G04 #@! TO.C,R71*
X146692857Y-89606380D02*
X147026190Y-89130190D01*
X147264285Y-89606380D02*
X147264285Y-88606380D01*
X146883333Y-88606380D01*
X146788095Y-88654000D01*
X146740476Y-88701619D01*
X146692857Y-88796857D01*
X146692857Y-88939714D01*
X146740476Y-89034952D01*
X146788095Y-89082571D01*
X146883333Y-89130190D01*
X147264285Y-89130190D01*
X146359523Y-88606380D02*
X145692857Y-88606380D01*
X146121428Y-89606380D01*
X144788095Y-89606380D02*
X145359523Y-89606380D01*
X145073809Y-89606380D02*
X145073809Y-88606380D01*
X145169047Y-88749238D01*
X145264285Y-88844476D01*
X145359523Y-88892095D01*
G04 #@! TO.C,R70*
X146718257Y-87091780D02*
X147051590Y-86615590D01*
X147289685Y-87091780D02*
X147289685Y-86091780D01*
X146908733Y-86091780D01*
X146813495Y-86139400D01*
X146765876Y-86187019D01*
X146718257Y-86282257D01*
X146718257Y-86425114D01*
X146765876Y-86520352D01*
X146813495Y-86567971D01*
X146908733Y-86615590D01*
X147289685Y-86615590D01*
X146384923Y-86091780D02*
X145718257Y-86091780D01*
X146146828Y-87091780D01*
X145146828Y-86091780D02*
X145051590Y-86091780D01*
X144956352Y-86139400D01*
X144908733Y-86187019D01*
X144861114Y-86282257D01*
X144813495Y-86472733D01*
X144813495Y-86710828D01*
X144861114Y-86901304D01*
X144908733Y-86996542D01*
X144956352Y-87044161D01*
X145051590Y-87091780D01*
X145146828Y-87091780D01*
X145242066Y-87044161D01*
X145289685Y-86996542D01*
X145337304Y-86901304D01*
X145384923Y-86710828D01*
X145384923Y-86472733D01*
X145337304Y-86282257D01*
X145289685Y-86187019D01*
X145242066Y-86139400D01*
X145146828Y-86091780D01*
G04 #@! TO.C,R69*
X146642057Y-84526380D02*
X146975390Y-84050190D01*
X147213485Y-84526380D02*
X147213485Y-83526380D01*
X146832533Y-83526380D01*
X146737295Y-83574000D01*
X146689676Y-83621619D01*
X146642057Y-83716857D01*
X146642057Y-83859714D01*
X146689676Y-83954952D01*
X146737295Y-84002571D01*
X146832533Y-84050190D01*
X147213485Y-84050190D01*
X145784914Y-83526380D02*
X145975390Y-83526380D01*
X146070628Y-83574000D01*
X146118247Y-83621619D01*
X146213485Y-83764476D01*
X146261104Y-83954952D01*
X146261104Y-84335904D01*
X146213485Y-84431142D01*
X146165866Y-84478761D01*
X146070628Y-84526380D01*
X145880152Y-84526380D01*
X145784914Y-84478761D01*
X145737295Y-84431142D01*
X145689676Y-84335904D01*
X145689676Y-84097809D01*
X145737295Y-84002571D01*
X145784914Y-83954952D01*
X145880152Y-83907333D01*
X146070628Y-83907333D01*
X146165866Y-83954952D01*
X146213485Y-84002571D01*
X146261104Y-84097809D01*
X145213485Y-84526380D02*
X145023009Y-84526380D01*
X144927771Y-84478761D01*
X144880152Y-84431142D01*
X144784914Y-84288285D01*
X144737295Y-84097809D01*
X144737295Y-83716857D01*
X144784914Y-83621619D01*
X144832533Y-83574000D01*
X144927771Y-83526380D01*
X145118247Y-83526380D01*
X145213485Y-83574000D01*
X145261104Y-83621619D01*
X145308723Y-83716857D01*
X145308723Y-83954952D01*
X145261104Y-84050190D01*
X145213485Y-84097809D01*
X145118247Y-84145428D01*
X144927771Y-84145428D01*
X144832533Y-84097809D01*
X144784914Y-84050190D01*
X144737295Y-83954952D01*
G04 #@! TO.C,R68*
X146616657Y-81986380D02*
X146949990Y-81510190D01*
X147188085Y-81986380D02*
X147188085Y-80986380D01*
X146807133Y-80986380D01*
X146711895Y-81034000D01*
X146664276Y-81081619D01*
X146616657Y-81176857D01*
X146616657Y-81319714D01*
X146664276Y-81414952D01*
X146711895Y-81462571D01*
X146807133Y-81510190D01*
X147188085Y-81510190D01*
X145759514Y-80986380D02*
X145949990Y-80986380D01*
X146045228Y-81034000D01*
X146092847Y-81081619D01*
X146188085Y-81224476D01*
X146235704Y-81414952D01*
X146235704Y-81795904D01*
X146188085Y-81891142D01*
X146140466Y-81938761D01*
X146045228Y-81986380D01*
X145854752Y-81986380D01*
X145759514Y-81938761D01*
X145711895Y-81891142D01*
X145664276Y-81795904D01*
X145664276Y-81557809D01*
X145711895Y-81462571D01*
X145759514Y-81414952D01*
X145854752Y-81367333D01*
X146045228Y-81367333D01*
X146140466Y-81414952D01*
X146188085Y-81462571D01*
X146235704Y-81557809D01*
X145092847Y-81414952D02*
X145188085Y-81367333D01*
X145235704Y-81319714D01*
X145283323Y-81224476D01*
X145283323Y-81176857D01*
X145235704Y-81081619D01*
X145188085Y-81034000D01*
X145092847Y-80986380D01*
X144902371Y-80986380D01*
X144807133Y-81034000D01*
X144759514Y-81081619D01*
X144711895Y-81176857D01*
X144711895Y-81224476D01*
X144759514Y-81319714D01*
X144807133Y-81367333D01*
X144902371Y-81414952D01*
X145092847Y-81414952D01*
X145188085Y-81462571D01*
X145235704Y-81510190D01*
X145283323Y-81605428D01*
X145283323Y-81795904D01*
X145235704Y-81891142D01*
X145188085Y-81938761D01*
X145092847Y-81986380D01*
X144902371Y-81986380D01*
X144807133Y-81938761D01*
X144759514Y-81891142D01*
X144711895Y-81795904D01*
X144711895Y-81605428D01*
X144759514Y-81510190D01*
X144807133Y-81462571D01*
X144902371Y-81414952D01*
G04 #@! TO.C,R67*
X146565857Y-79446380D02*
X146899190Y-78970190D01*
X147137285Y-79446380D02*
X147137285Y-78446380D01*
X146756333Y-78446380D01*
X146661095Y-78494000D01*
X146613476Y-78541619D01*
X146565857Y-78636857D01*
X146565857Y-78779714D01*
X146613476Y-78874952D01*
X146661095Y-78922571D01*
X146756333Y-78970190D01*
X147137285Y-78970190D01*
X145708714Y-78446380D02*
X145899190Y-78446380D01*
X145994428Y-78494000D01*
X146042047Y-78541619D01*
X146137285Y-78684476D01*
X146184904Y-78874952D01*
X146184904Y-79255904D01*
X146137285Y-79351142D01*
X146089666Y-79398761D01*
X145994428Y-79446380D01*
X145803952Y-79446380D01*
X145708714Y-79398761D01*
X145661095Y-79351142D01*
X145613476Y-79255904D01*
X145613476Y-79017809D01*
X145661095Y-78922571D01*
X145708714Y-78874952D01*
X145803952Y-78827333D01*
X145994428Y-78827333D01*
X146089666Y-78874952D01*
X146137285Y-78922571D01*
X146184904Y-79017809D01*
X145280142Y-78446380D02*
X144613476Y-78446380D01*
X145042047Y-79446380D01*
G04 #@! TO.C,R66*
X131579857Y-135707380D02*
X131913190Y-135231190D01*
X132151285Y-135707380D02*
X132151285Y-134707380D01*
X131770333Y-134707380D01*
X131675095Y-134755000D01*
X131627476Y-134802619D01*
X131579857Y-134897857D01*
X131579857Y-135040714D01*
X131627476Y-135135952D01*
X131675095Y-135183571D01*
X131770333Y-135231190D01*
X132151285Y-135231190D01*
X130722714Y-134707380D02*
X130913190Y-134707380D01*
X131008428Y-134755000D01*
X131056047Y-134802619D01*
X131151285Y-134945476D01*
X131198904Y-135135952D01*
X131198904Y-135516904D01*
X131151285Y-135612142D01*
X131103666Y-135659761D01*
X131008428Y-135707380D01*
X130817952Y-135707380D01*
X130722714Y-135659761D01*
X130675095Y-135612142D01*
X130627476Y-135516904D01*
X130627476Y-135278809D01*
X130675095Y-135183571D01*
X130722714Y-135135952D01*
X130817952Y-135088333D01*
X131008428Y-135088333D01*
X131103666Y-135135952D01*
X131151285Y-135183571D01*
X131198904Y-135278809D01*
X129770333Y-134707380D02*
X129960809Y-134707380D01*
X130056047Y-134755000D01*
X130103666Y-134802619D01*
X130198904Y-134945476D01*
X130246523Y-135135952D01*
X130246523Y-135516904D01*
X130198904Y-135612142D01*
X130151285Y-135659761D01*
X130056047Y-135707380D01*
X129865571Y-135707380D01*
X129770333Y-135659761D01*
X129722714Y-135612142D01*
X129675095Y-135516904D01*
X129675095Y-135278809D01*
X129722714Y-135183571D01*
X129770333Y-135135952D01*
X129865571Y-135088333D01*
X130056047Y-135088333D01*
X130151285Y-135135952D01*
X130198904Y-135183571D01*
X130246523Y-135278809D01*
G04 #@! TO.C,R64*
X131656057Y-130627380D02*
X131989390Y-130151190D01*
X132227485Y-130627380D02*
X132227485Y-129627380D01*
X131846533Y-129627380D01*
X131751295Y-129675000D01*
X131703676Y-129722619D01*
X131656057Y-129817857D01*
X131656057Y-129960714D01*
X131703676Y-130055952D01*
X131751295Y-130103571D01*
X131846533Y-130151190D01*
X132227485Y-130151190D01*
X130798914Y-129627380D02*
X130989390Y-129627380D01*
X131084628Y-129675000D01*
X131132247Y-129722619D01*
X131227485Y-129865476D01*
X131275104Y-130055952D01*
X131275104Y-130436904D01*
X131227485Y-130532142D01*
X131179866Y-130579761D01*
X131084628Y-130627380D01*
X130894152Y-130627380D01*
X130798914Y-130579761D01*
X130751295Y-130532142D01*
X130703676Y-130436904D01*
X130703676Y-130198809D01*
X130751295Y-130103571D01*
X130798914Y-130055952D01*
X130894152Y-130008333D01*
X131084628Y-130008333D01*
X131179866Y-130055952D01*
X131227485Y-130103571D01*
X131275104Y-130198809D01*
X129846533Y-129960714D02*
X129846533Y-130627380D01*
X130084628Y-129579761D02*
X130322723Y-130294047D01*
X129703676Y-130294047D01*
G04 #@! TO.C,R63*
X131630657Y-128087380D02*
X131963990Y-127611190D01*
X132202085Y-128087380D02*
X132202085Y-127087380D01*
X131821133Y-127087380D01*
X131725895Y-127135000D01*
X131678276Y-127182619D01*
X131630657Y-127277857D01*
X131630657Y-127420714D01*
X131678276Y-127515952D01*
X131725895Y-127563571D01*
X131821133Y-127611190D01*
X132202085Y-127611190D01*
X130773514Y-127087380D02*
X130963990Y-127087380D01*
X131059228Y-127135000D01*
X131106847Y-127182619D01*
X131202085Y-127325476D01*
X131249704Y-127515952D01*
X131249704Y-127896904D01*
X131202085Y-127992142D01*
X131154466Y-128039761D01*
X131059228Y-128087380D01*
X130868752Y-128087380D01*
X130773514Y-128039761D01*
X130725895Y-127992142D01*
X130678276Y-127896904D01*
X130678276Y-127658809D01*
X130725895Y-127563571D01*
X130773514Y-127515952D01*
X130868752Y-127468333D01*
X131059228Y-127468333D01*
X131154466Y-127515952D01*
X131202085Y-127563571D01*
X131249704Y-127658809D01*
X130344942Y-127087380D02*
X129725895Y-127087380D01*
X130059228Y-127468333D01*
X129916371Y-127468333D01*
X129821133Y-127515952D01*
X129773514Y-127563571D01*
X129725895Y-127658809D01*
X129725895Y-127896904D01*
X129773514Y-127992142D01*
X129821133Y-128039761D01*
X129916371Y-128087380D01*
X130202085Y-128087380D01*
X130297323Y-128039761D01*
X130344942Y-127992142D01*
G04 #@! TO.C,R62*
X131605257Y-125547380D02*
X131938590Y-125071190D01*
X132176685Y-125547380D02*
X132176685Y-124547380D01*
X131795733Y-124547380D01*
X131700495Y-124595000D01*
X131652876Y-124642619D01*
X131605257Y-124737857D01*
X131605257Y-124880714D01*
X131652876Y-124975952D01*
X131700495Y-125023571D01*
X131795733Y-125071190D01*
X132176685Y-125071190D01*
X130748114Y-124547380D02*
X130938590Y-124547380D01*
X131033828Y-124595000D01*
X131081447Y-124642619D01*
X131176685Y-124785476D01*
X131224304Y-124975952D01*
X131224304Y-125356904D01*
X131176685Y-125452142D01*
X131129066Y-125499761D01*
X131033828Y-125547380D01*
X130843352Y-125547380D01*
X130748114Y-125499761D01*
X130700495Y-125452142D01*
X130652876Y-125356904D01*
X130652876Y-125118809D01*
X130700495Y-125023571D01*
X130748114Y-124975952D01*
X130843352Y-124928333D01*
X131033828Y-124928333D01*
X131129066Y-124975952D01*
X131176685Y-125023571D01*
X131224304Y-125118809D01*
X130271923Y-124642619D02*
X130224304Y-124595000D01*
X130129066Y-124547380D01*
X129890971Y-124547380D01*
X129795733Y-124595000D01*
X129748114Y-124642619D01*
X129700495Y-124737857D01*
X129700495Y-124833095D01*
X129748114Y-124975952D01*
X130319542Y-125547380D01*
X129700495Y-125547380D01*
G04 #@! TO.C,R61*
X131630657Y-123007380D02*
X131963990Y-122531190D01*
X132202085Y-123007380D02*
X132202085Y-122007380D01*
X131821133Y-122007380D01*
X131725895Y-122055000D01*
X131678276Y-122102619D01*
X131630657Y-122197857D01*
X131630657Y-122340714D01*
X131678276Y-122435952D01*
X131725895Y-122483571D01*
X131821133Y-122531190D01*
X132202085Y-122531190D01*
X130773514Y-122007380D02*
X130963990Y-122007380D01*
X131059228Y-122055000D01*
X131106847Y-122102619D01*
X131202085Y-122245476D01*
X131249704Y-122435952D01*
X131249704Y-122816904D01*
X131202085Y-122912142D01*
X131154466Y-122959761D01*
X131059228Y-123007380D01*
X130868752Y-123007380D01*
X130773514Y-122959761D01*
X130725895Y-122912142D01*
X130678276Y-122816904D01*
X130678276Y-122578809D01*
X130725895Y-122483571D01*
X130773514Y-122435952D01*
X130868752Y-122388333D01*
X131059228Y-122388333D01*
X131154466Y-122435952D01*
X131202085Y-122483571D01*
X131249704Y-122578809D01*
X129725895Y-123007380D02*
X130297323Y-123007380D01*
X130011609Y-123007380D02*
X130011609Y-122007380D01*
X130106847Y-122150238D01*
X130202085Y-122245476D01*
X130297323Y-122293095D01*
G04 #@! TO.C,R60*
X131605257Y-120467380D02*
X131938590Y-119991190D01*
X132176685Y-120467380D02*
X132176685Y-119467380D01*
X131795733Y-119467380D01*
X131700495Y-119515000D01*
X131652876Y-119562619D01*
X131605257Y-119657857D01*
X131605257Y-119800714D01*
X131652876Y-119895952D01*
X131700495Y-119943571D01*
X131795733Y-119991190D01*
X132176685Y-119991190D01*
X130748114Y-119467380D02*
X130938590Y-119467380D01*
X131033828Y-119515000D01*
X131081447Y-119562619D01*
X131176685Y-119705476D01*
X131224304Y-119895952D01*
X131224304Y-120276904D01*
X131176685Y-120372142D01*
X131129066Y-120419761D01*
X131033828Y-120467380D01*
X130843352Y-120467380D01*
X130748114Y-120419761D01*
X130700495Y-120372142D01*
X130652876Y-120276904D01*
X130652876Y-120038809D01*
X130700495Y-119943571D01*
X130748114Y-119895952D01*
X130843352Y-119848333D01*
X131033828Y-119848333D01*
X131129066Y-119895952D01*
X131176685Y-119943571D01*
X131224304Y-120038809D01*
X130033828Y-119467380D02*
X129938590Y-119467380D01*
X129843352Y-119515000D01*
X129795733Y-119562619D01*
X129748114Y-119657857D01*
X129700495Y-119848333D01*
X129700495Y-120086428D01*
X129748114Y-120276904D01*
X129795733Y-120372142D01*
X129843352Y-120419761D01*
X129938590Y-120467380D01*
X130033828Y-120467380D01*
X130129066Y-120419761D01*
X130176685Y-120372142D01*
X130224304Y-120276904D01*
X130271923Y-120086428D01*
X130271923Y-119848333D01*
X130224304Y-119657857D01*
X130176685Y-119562619D01*
X130129066Y-119515000D01*
X130033828Y-119467380D01*
G04 #@! TO.C,R59*
X131630657Y-117927380D02*
X131963990Y-117451190D01*
X132202085Y-117927380D02*
X132202085Y-116927380D01*
X131821133Y-116927380D01*
X131725895Y-116975000D01*
X131678276Y-117022619D01*
X131630657Y-117117857D01*
X131630657Y-117260714D01*
X131678276Y-117355952D01*
X131725895Y-117403571D01*
X131821133Y-117451190D01*
X132202085Y-117451190D01*
X130725895Y-116927380D02*
X131202085Y-116927380D01*
X131249704Y-117403571D01*
X131202085Y-117355952D01*
X131106847Y-117308333D01*
X130868752Y-117308333D01*
X130773514Y-117355952D01*
X130725895Y-117403571D01*
X130678276Y-117498809D01*
X130678276Y-117736904D01*
X130725895Y-117832142D01*
X130773514Y-117879761D01*
X130868752Y-117927380D01*
X131106847Y-117927380D01*
X131202085Y-117879761D01*
X131249704Y-117832142D01*
X130202085Y-117927380D02*
X130011609Y-117927380D01*
X129916371Y-117879761D01*
X129868752Y-117832142D01*
X129773514Y-117689285D01*
X129725895Y-117498809D01*
X129725895Y-117117857D01*
X129773514Y-117022619D01*
X129821133Y-116975000D01*
X129916371Y-116927380D01*
X130106847Y-116927380D01*
X130202085Y-116975000D01*
X130249704Y-117022619D01*
X130297323Y-117117857D01*
X130297323Y-117355952D01*
X130249704Y-117451190D01*
X130202085Y-117498809D01*
X130106847Y-117546428D01*
X129916371Y-117546428D01*
X129821133Y-117498809D01*
X129773514Y-117451190D01*
X129725895Y-117355952D01*
G04 #@! TO.C,R58*
X146769057Y-137510780D02*
X147102390Y-137034590D01*
X147340485Y-137510780D02*
X147340485Y-136510780D01*
X146959533Y-136510780D01*
X146864295Y-136558400D01*
X146816676Y-136606019D01*
X146769057Y-136701257D01*
X146769057Y-136844114D01*
X146816676Y-136939352D01*
X146864295Y-136986971D01*
X146959533Y-137034590D01*
X147340485Y-137034590D01*
X145864295Y-136510780D02*
X146340485Y-136510780D01*
X146388104Y-136986971D01*
X146340485Y-136939352D01*
X146245247Y-136891733D01*
X146007152Y-136891733D01*
X145911914Y-136939352D01*
X145864295Y-136986971D01*
X145816676Y-137082209D01*
X145816676Y-137320304D01*
X145864295Y-137415542D01*
X145911914Y-137463161D01*
X146007152Y-137510780D01*
X146245247Y-137510780D01*
X146340485Y-137463161D01*
X146388104Y-137415542D01*
X145245247Y-136939352D02*
X145340485Y-136891733D01*
X145388104Y-136844114D01*
X145435723Y-136748876D01*
X145435723Y-136701257D01*
X145388104Y-136606019D01*
X145340485Y-136558400D01*
X145245247Y-136510780D01*
X145054771Y-136510780D01*
X144959533Y-136558400D01*
X144911914Y-136606019D01*
X144864295Y-136701257D01*
X144864295Y-136748876D01*
X144911914Y-136844114D01*
X144959533Y-136891733D01*
X145054771Y-136939352D01*
X145245247Y-136939352D01*
X145340485Y-136986971D01*
X145388104Y-137034590D01*
X145435723Y-137129828D01*
X145435723Y-137320304D01*
X145388104Y-137415542D01*
X145340485Y-137463161D01*
X145245247Y-137510780D01*
X145054771Y-137510780D01*
X144959533Y-137463161D01*
X144911914Y-137415542D01*
X144864295Y-137320304D01*
X144864295Y-137129828D01*
X144911914Y-137034590D01*
X144959533Y-136986971D01*
X145054771Y-136939352D01*
G04 #@! TO.C,R57*
X146743657Y-134945380D02*
X147076990Y-134469190D01*
X147315085Y-134945380D02*
X147315085Y-133945380D01*
X146934133Y-133945380D01*
X146838895Y-133993000D01*
X146791276Y-134040619D01*
X146743657Y-134135857D01*
X146743657Y-134278714D01*
X146791276Y-134373952D01*
X146838895Y-134421571D01*
X146934133Y-134469190D01*
X147315085Y-134469190D01*
X145838895Y-133945380D02*
X146315085Y-133945380D01*
X146362704Y-134421571D01*
X146315085Y-134373952D01*
X146219847Y-134326333D01*
X145981752Y-134326333D01*
X145886514Y-134373952D01*
X145838895Y-134421571D01*
X145791276Y-134516809D01*
X145791276Y-134754904D01*
X145838895Y-134850142D01*
X145886514Y-134897761D01*
X145981752Y-134945380D01*
X146219847Y-134945380D01*
X146315085Y-134897761D01*
X146362704Y-134850142D01*
X145457942Y-133945380D02*
X144791276Y-133945380D01*
X145219847Y-134945380D01*
G04 #@! TO.C,R56*
X146692857Y-132405380D02*
X147026190Y-131929190D01*
X147264285Y-132405380D02*
X147264285Y-131405380D01*
X146883333Y-131405380D01*
X146788095Y-131453000D01*
X146740476Y-131500619D01*
X146692857Y-131595857D01*
X146692857Y-131738714D01*
X146740476Y-131833952D01*
X146788095Y-131881571D01*
X146883333Y-131929190D01*
X147264285Y-131929190D01*
X145788095Y-131405380D02*
X146264285Y-131405380D01*
X146311904Y-131881571D01*
X146264285Y-131833952D01*
X146169047Y-131786333D01*
X145930952Y-131786333D01*
X145835714Y-131833952D01*
X145788095Y-131881571D01*
X145740476Y-131976809D01*
X145740476Y-132214904D01*
X145788095Y-132310142D01*
X145835714Y-132357761D01*
X145930952Y-132405380D01*
X146169047Y-132405380D01*
X146264285Y-132357761D01*
X146311904Y-132310142D01*
X144883333Y-131405380D02*
X145073809Y-131405380D01*
X145169047Y-131453000D01*
X145216666Y-131500619D01*
X145311904Y-131643476D01*
X145359523Y-131833952D01*
X145359523Y-132214904D01*
X145311904Y-132310142D01*
X145264285Y-132357761D01*
X145169047Y-132405380D01*
X144978571Y-132405380D01*
X144883333Y-132357761D01*
X144835714Y-132310142D01*
X144788095Y-132214904D01*
X144788095Y-131976809D01*
X144835714Y-131881571D01*
X144883333Y-131833952D01*
X144978571Y-131786333D01*
X145169047Y-131786333D01*
X145264285Y-131833952D01*
X145311904Y-131881571D01*
X145359523Y-131976809D01*
G04 #@! TO.C,R55*
X146692857Y-129865380D02*
X147026190Y-129389190D01*
X147264285Y-129865380D02*
X147264285Y-128865380D01*
X146883333Y-128865380D01*
X146788095Y-128913000D01*
X146740476Y-128960619D01*
X146692857Y-129055857D01*
X146692857Y-129198714D01*
X146740476Y-129293952D01*
X146788095Y-129341571D01*
X146883333Y-129389190D01*
X147264285Y-129389190D01*
X145788095Y-128865380D02*
X146264285Y-128865380D01*
X146311904Y-129341571D01*
X146264285Y-129293952D01*
X146169047Y-129246333D01*
X145930952Y-129246333D01*
X145835714Y-129293952D01*
X145788095Y-129341571D01*
X145740476Y-129436809D01*
X145740476Y-129674904D01*
X145788095Y-129770142D01*
X145835714Y-129817761D01*
X145930952Y-129865380D01*
X146169047Y-129865380D01*
X146264285Y-129817761D01*
X146311904Y-129770142D01*
X144835714Y-128865380D02*
X145311904Y-128865380D01*
X145359523Y-129341571D01*
X145311904Y-129293952D01*
X145216666Y-129246333D01*
X144978571Y-129246333D01*
X144883333Y-129293952D01*
X144835714Y-129341571D01*
X144788095Y-129436809D01*
X144788095Y-129674904D01*
X144835714Y-129770142D01*
X144883333Y-129817761D01*
X144978571Y-129865380D01*
X145216666Y-129865380D01*
X145311904Y-129817761D01*
X145359523Y-129770142D01*
G04 #@! TO.C,R54*
X146743657Y-127325380D02*
X147076990Y-126849190D01*
X147315085Y-127325380D02*
X147315085Y-126325380D01*
X146934133Y-126325380D01*
X146838895Y-126373000D01*
X146791276Y-126420619D01*
X146743657Y-126515857D01*
X146743657Y-126658714D01*
X146791276Y-126753952D01*
X146838895Y-126801571D01*
X146934133Y-126849190D01*
X147315085Y-126849190D01*
X145838895Y-126325380D02*
X146315085Y-126325380D01*
X146362704Y-126801571D01*
X146315085Y-126753952D01*
X146219847Y-126706333D01*
X145981752Y-126706333D01*
X145886514Y-126753952D01*
X145838895Y-126801571D01*
X145791276Y-126896809D01*
X145791276Y-127134904D01*
X145838895Y-127230142D01*
X145886514Y-127277761D01*
X145981752Y-127325380D01*
X146219847Y-127325380D01*
X146315085Y-127277761D01*
X146362704Y-127230142D01*
X144934133Y-126658714D02*
X144934133Y-127325380D01*
X145172228Y-126277761D02*
X145410323Y-126992047D01*
X144791276Y-126992047D01*
G04 #@! TO.C,R53*
X146743657Y-124785380D02*
X147076990Y-124309190D01*
X147315085Y-124785380D02*
X147315085Y-123785380D01*
X146934133Y-123785380D01*
X146838895Y-123833000D01*
X146791276Y-123880619D01*
X146743657Y-123975857D01*
X146743657Y-124118714D01*
X146791276Y-124213952D01*
X146838895Y-124261571D01*
X146934133Y-124309190D01*
X147315085Y-124309190D01*
X145838895Y-123785380D02*
X146315085Y-123785380D01*
X146362704Y-124261571D01*
X146315085Y-124213952D01*
X146219847Y-124166333D01*
X145981752Y-124166333D01*
X145886514Y-124213952D01*
X145838895Y-124261571D01*
X145791276Y-124356809D01*
X145791276Y-124594904D01*
X145838895Y-124690142D01*
X145886514Y-124737761D01*
X145981752Y-124785380D01*
X146219847Y-124785380D01*
X146315085Y-124737761D01*
X146362704Y-124690142D01*
X145457942Y-123785380D02*
X144838895Y-123785380D01*
X145172228Y-124166333D01*
X145029371Y-124166333D01*
X144934133Y-124213952D01*
X144886514Y-124261571D01*
X144838895Y-124356809D01*
X144838895Y-124594904D01*
X144886514Y-124690142D01*
X144934133Y-124737761D01*
X145029371Y-124785380D01*
X145315085Y-124785380D01*
X145410323Y-124737761D01*
X145457942Y-124690142D01*
G04 #@! TO.C,R52*
X146743657Y-122245380D02*
X147076990Y-121769190D01*
X147315085Y-122245380D02*
X147315085Y-121245380D01*
X146934133Y-121245380D01*
X146838895Y-121293000D01*
X146791276Y-121340619D01*
X146743657Y-121435857D01*
X146743657Y-121578714D01*
X146791276Y-121673952D01*
X146838895Y-121721571D01*
X146934133Y-121769190D01*
X147315085Y-121769190D01*
X145838895Y-121245380D02*
X146315085Y-121245380D01*
X146362704Y-121721571D01*
X146315085Y-121673952D01*
X146219847Y-121626333D01*
X145981752Y-121626333D01*
X145886514Y-121673952D01*
X145838895Y-121721571D01*
X145791276Y-121816809D01*
X145791276Y-122054904D01*
X145838895Y-122150142D01*
X145886514Y-122197761D01*
X145981752Y-122245380D01*
X146219847Y-122245380D01*
X146315085Y-122197761D01*
X146362704Y-122150142D01*
X145410323Y-121340619D02*
X145362704Y-121293000D01*
X145267466Y-121245380D01*
X145029371Y-121245380D01*
X144934133Y-121293000D01*
X144886514Y-121340619D01*
X144838895Y-121435857D01*
X144838895Y-121531095D01*
X144886514Y-121673952D01*
X145457942Y-122245380D01*
X144838895Y-122245380D01*
G04 #@! TO.C,R51*
X146743657Y-119705380D02*
X147076990Y-119229190D01*
X147315085Y-119705380D02*
X147315085Y-118705380D01*
X146934133Y-118705380D01*
X146838895Y-118753000D01*
X146791276Y-118800619D01*
X146743657Y-118895857D01*
X146743657Y-119038714D01*
X146791276Y-119133952D01*
X146838895Y-119181571D01*
X146934133Y-119229190D01*
X147315085Y-119229190D01*
X145838895Y-118705380D02*
X146315085Y-118705380D01*
X146362704Y-119181571D01*
X146315085Y-119133952D01*
X146219847Y-119086333D01*
X145981752Y-119086333D01*
X145886514Y-119133952D01*
X145838895Y-119181571D01*
X145791276Y-119276809D01*
X145791276Y-119514904D01*
X145838895Y-119610142D01*
X145886514Y-119657761D01*
X145981752Y-119705380D01*
X146219847Y-119705380D01*
X146315085Y-119657761D01*
X146362704Y-119610142D01*
X144838895Y-119705380D02*
X145410323Y-119705380D01*
X145124609Y-119705380D02*
X145124609Y-118705380D01*
X145219847Y-118848238D01*
X145315085Y-118943476D01*
X145410323Y-118991095D01*
G04 #@! TO.C,R50*
X166835057Y-117927380D02*
X167168390Y-117451190D01*
X167406485Y-117927380D02*
X167406485Y-116927380D01*
X167025533Y-116927380D01*
X166930295Y-116975000D01*
X166882676Y-117022619D01*
X166835057Y-117117857D01*
X166835057Y-117260714D01*
X166882676Y-117355952D01*
X166930295Y-117403571D01*
X167025533Y-117451190D01*
X167406485Y-117451190D01*
X165930295Y-116927380D02*
X166406485Y-116927380D01*
X166454104Y-117403571D01*
X166406485Y-117355952D01*
X166311247Y-117308333D01*
X166073152Y-117308333D01*
X165977914Y-117355952D01*
X165930295Y-117403571D01*
X165882676Y-117498809D01*
X165882676Y-117736904D01*
X165930295Y-117832142D01*
X165977914Y-117879761D01*
X166073152Y-117927380D01*
X166311247Y-117927380D01*
X166406485Y-117879761D01*
X166454104Y-117832142D01*
X165263628Y-116927380D02*
X165168390Y-116927380D01*
X165073152Y-116975000D01*
X165025533Y-117022619D01*
X164977914Y-117117857D01*
X164930295Y-117308333D01*
X164930295Y-117546428D01*
X164977914Y-117736904D01*
X165025533Y-117832142D01*
X165073152Y-117879761D01*
X165168390Y-117927380D01*
X165263628Y-117927380D01*
X165358866Y-117879761D01*
X165406485Y-117832142D01*
X165454104Y-117736904D01*
X165501723Y-117546428D01*
X165501723Y-117308333D01*
X165454104Y-117117857D01*
X165406485Y-117022619D01*
X165358866Y-116975000D01*
X165263628Y-116927380D01*
G04 #@! TO.C,R49*
X166835057Y-115387380D02*
X167168390Y-114911190D01*
X167406485Y-115387380D02*
X167406485Y-114387380D01*
X167025533Y-114387380D01*
X166930295Y-114435000D01*
X166882676Y-114482619D01*
X166835057Y-114577857D01*
X166835057Y-114720714D01*
X166882676Y-114815952D01*
X166930295Y-114863571D01*
X167025533Y-114911190D01*
X167406485Y-114911190D01*
X165977914Y-114720714D02*
X165977914Y-115387380D01*
X166216009Y-114339761D02*
X166454104Y-115054047D01*
X165835057Y-115054047D01*
X165406485Y-115387380D02*
X165216009Y-115387380D01*
X165120771Y-115339761D01*
X165073152Y-115292142D01*
X164977914Y-115149285D01*
X164930295Y-114958809D01*
X164930295Y-114577857D01*
X164977914Y-114482619D01*
X165025533Y-114435000D01*
X165120771Y-114387380D01*
X165311247Y-114387380D01*
X165406485Y-114435000D01*
X165454104Y-114482619D01*
X165501723Y-114577857D01*
X165501723Y-114815952D01*
X165454104Y-114911190D01*
X165406485Y-114958809D01*
X165311247Y-115006428D01*
X165120771Y-115006428D01*
X165025533Y-114958809D01*
X164977914Y-114911190D01*
X164930295Y-114815952D01*
G04 #@! TO.C,R48*
X166784257Y-112847380D02*
X167117590Y-112371190D01*
X167355685Y-112847380D02*
X167355685Y-111847380D01*
X166974733Y-111847380D01*
X166879495Y-111895000D01*
X166831876Y-111942619D01*
X166784257Y-112037857D01*
X166784257Y-112180714D01*
X166831876Y-112275952D01*
X166879495Y-112323571D01*
X166974733Y-112371190D01*
X167355685Y-112371190D01*
X165927114Y-112180714D02*
X165927114Y-112847380D01*
X166165209Y-111799761D02*
X166403304Y-112514047D01*
X165784257Y-112514047D01*
X165260447Y-112275952D02*
X165355685Y-112228333D01*
X165403304Y-112180714D01*
X165450923Y-112085476D01*
X165450923Y-112037857D01*
X165403304Y-111942619D01*
X165355685Y-111895000D01*
X165260447Y-111847380D01*
X165069971Y-111847380D01*
X164974733Y-111895000D01*
X164927114Y-111942619D01*
X164879495Y-112037857D01*
X164879495Y-112085476D01*
X164927114Y-112180714D01*
X164974733Y-112228333D01*
X165069971Y-112275952D01*
X165260447Y-112275952D01*
X165355685Y-112323571D01*
X165403304Y-112371190D01*
X165450923Y-112466428D01*
X165450923Y-112656904D01*
X165403304Y-112752142D01*
X165355685Y-112799761D01*
X165260447Y-112847380D01*
X165069971Y-112847380D01*
X164974733Y-112799761D01*
X164927114Y-112752142D01*
X164879495Y-112656904D01*
X164879495Y-112466428D01*
X164927114Y-112371190D01*
X164974733Y-112323571D01*
X165069971Y-112275952D01*
G04 #@! TO.C,R46*
X166758857Y-107767380D02*
X167092190Y-107291190D01*
X167330285Y-107767380D02*
X167330285Y-106767380D01*
X166949333Y-106767380D01*
X166854095Y-106815000D01*
X166806476Y-106862619D01*
X166758857Y-106957857D01*
X166758857Y-107100714D01*
X166806476Y-107195952D01*
X166854095Y-107243571D01*
X166949333Y-107291190D01*
X167330285Y-107291190D01*
X165901714Y-107100714D02*
X165901714Y-107767380D01*
X166139809Y-106719761D02*
X166377904Y-107434047D01*
X165758857Y-107434047D01*
X164949333Y-106767380D02*
X165139809Y-106767380D01*
X165235047Y-106815000D01*
X165282666Y-106862619D01*
X165377904Y-107005476D01*
X165425523Y-107195952D01*
X165425523Y-107576904D01*
X165377904Y-107672142D01*
X165330285Y-107719761D01*
X165235047Y-107767380D01*
X165044571Y-107767380D01*
X164949333Y-107719761D01*
X164901714Y-107672142D01*
X164854095Y-107576904D01*
X164854095Y-107338809D01*
X164901714Y-107243571D01*
X164949333Y-107195952D01*
X165044571Y-107148333D01*
X165235047Y-107148333D01*
X165330285Y-107195952D01*
X165377904Y-107243571D01*
X165425523Y-107338809D01*
G04 #@! TO.C,R44*
X166809657Y-102687380D02*
X167142990Y-102211190D01*
X167381085Y-102687380D02*
X167381085Y-101687380D01*
X167000133Y-101687380D01*
X166904895Y-101735000D01*
X166857276Y-101782619D01*
X166809657Y-101877857D01*
X166809657Y-102020714D01*
X166857276Y-102115952D01*
X166904895Y-102163571D01*
X167000133Y-102211190D01*
X167381085Y-102211190D01*
X165952514Y-102020714D02*
X165952514Y-102687380D01*
X166190609Y-101639761D02*
X166428704Y-102354047D01*
X165809657Y-102354047D01*
X165000133Y-102020714D02*
X165000133Y-102687380D01*
X165238228Y-101639761D02*
X165476323Y-102354047D01*
X164857276Y-102354047D01*
G04 #@! TO.C,R43*
X166784257Y-100147380D02*
X167117590Y-99671190D01*
X167355685Y-100147380D02*
X167355685Y-99147380D01*
X166974733Y-99147380D01*
X166879495Y-99195000D01*
X166831876Y-99242619D01*
X166784257Y-99337857D01*
X166784257Y-99480714D01*
X166831876Y-99575952D01*
X166879495Y-99623571D01*
X166974733Y-99671190D01*
X167355685Y-99671190D01*
X165927114Y-99480714D02*
X165927114Y-100147380D01*
X166165209Y-99099761D02*
X166403304Y-99814047D01*
X165784257Y-99814047D01*
X165498542Y-99147380D02*
X164879495Y-99147380D01*
X165212828Y-99528333D01*
X165069971Y-99528333D01*
X164974733Y-99575952D01*
X164927114Y-99623571D01*
X164879495Y-99718809D01*
X164879495Y-99956904D01*
X164927114Y-100052142D01*
X164974733Y-100099761D01*
X165069971Y-100147380D01*
X165355685Y-100147380D01*
X165450923Y-100099761D01*
X165498542Y-100052142D01*
G04 #@! TO.C,R42*
X151391857Y-116123980D02*
X151725190Y-115647790D01*
X151963285Y-116123980D02*
X151963285Y-115123980D01*
X151582333Y-115123980D01*
X151487095Y-115171600D01*
X151439476Y-115219219D01*
X151391857Y-115314457D01*
X151391857Y-115457314D01*
X151439476Y-115552552D01*
X151487095Y-115600171D01*
X151582333Y-115647790D01*
X151963285Y-115647790D01*
X150534714Y-115457314D02*
X150534714Y-116123980D01*
X150772809Y-115076361D02*
X151010904Y-115790647D01*
X150391857Y-115790647D01*
X150058523Y-115219219D02*
X150010904Y-115171600D01*
X149915666Y-115123980D01*
X149677571Y-115123980D01*
X149582333Y-115171600D01*
X149534714Y-115219219D01*
X149487095Y-115314457D01*
X149487095Y-115409695D01*
X149534714Y-115552552D01*
X150106142Y-116123980D01*
X149487095Y-116123980D01*
G04 #@! TO.C,R41*
X151391857Y-113609380D02*
X151725190Y-113133190D01*
X151963285Y-113609380D02*
X151963285Y-112609380D01*
X151582333Y-112609380D01*
X151487095Y-112657000D01*
X151439476Y-112704619D01*
X151391857Y-112799857D01*
X151391857Y-112942714D01*
X151439476Y-113037952D01*
X151487095Y-113085571D01*
X151582333Y-113133190D01*
X151963285Y-113133190D01*
X150534714Y-112942714D02*
X150534714Y-113609380D01*
X150772809Y-112561761D02*
X151010904Y-113276047D01*
X150391857Y-113276047D01*
X149487095Y-113609380D02*
X150058523Y-113609380D01*
X149772809Y-113609380D02*
X149772809Y-112609380D01*
X149868047Y-112752238D01*
X149963285Y-112847476D01*
X150058523Y-112895095D01*
G04 #@! TO.C,R40*
X151391857Y-111069380D02*
X151725190Y-110593190D01*
X151963285Y-111069380D02*
X151963285Y-110069380D01*
X151582333Y-110069380D01*
X151487095Y-110117000D01*
X151439476Y-110164619D01*
X151391857Y-110259857D01*
X151391857Y-110402714D01*
X151439476Y-110497952D01*
X151487095Y-110545571D01*
X151582333Y-110593190D01*
X151963285Y-110593190D01*
X150534714Y-110402714D02*
X150534714Y-111069380D01*
X150772809Y-110021761D02*
X151010904Y-110736047D01*
X150391857Y-110736047D01*
X149820428Y-110069380D02*
X149725190Y-110069380D01*
X149629952Y-110117000D01*
X149582333Y-110164619D01*
X149534714Y-110259857D01*
X149487095Y-110450333D01*
X149487095Y-110688428D01*
X149534714Y-110878904D01*
X149582333Y-110974142D01*
X149629952Y-111021761D01*
X149725190Y-111069380D01*
X149820428Y-111069380D01*
X149915666Y-111021761D01*
X149963285Y-110974142D01*
X150010904Y-110878904D01*
X150058523Y-110688428D01*
X150058523Y-110450333D01*
X150010904Y-110259857D01*
X149963285Y-110164619D01*
X149915666Y-110117000D01*
X149820428Y-110069380D01*
G04 #@! TO.C,R39*
X151391857Y-108529380D02*
X151725190Y-108053190D01*
X151963285Y-108529380D02*
X151963285Y-107529380D01*
X151582333Y-107529380D01*
X151487095Y-107577000D01*
X151439476Y-107624619D01*
X151391857Y-107719857D01*
X151391857Y-107862714D01*
X151439476Y-107957952D01*
X151487095Y-108005571D01*
X151582333Y-108053190D01*
X151963285Y-108053190D01*
X151058523Y-107529380D02*
X150439476Y-107529380D01*
X150772809Y-107910333D01*
X150629952Y-107910333D01*
X150534714Y-107957952D01*
X150487095Y-108005571D01*
X150439476Y-108100809D01*
X150439476Y-108338904D01*
X150487095Y-108434142D01*
X150534714Y-108481761D01*
X150629952Y-108529380D01*
X150915666Y-108529380D01*
X151010904Y-108481761D01*
X151058523Y-108434142D01*
X149963285Y-108529380D02*
X149772809Y-108529380D01*
X149677571Y-108481761D01*
X149629952Y-108434142D01*
X149534714Y-108291285D01*
X149487095Y-108100809D01*
X149487095Y-107719857D01*
X149534714Y-107624619D01*
X149582333Y-107577000D01*
X149677571Y-107529380D01*
X149868047Y-107529380D01*
X149963285Y-107577000D01*
X150010904Y-107624619D01*
X150058523Y-107719857D01*
X150058523Y-107957952D01*
X150010904Y-108053190D01*
X149963285Y-108100809D01*
X149868047Y-108148428D01*
X149677571Y-108148428D01*
X149582333Y-108100809D01*
X149534714Y-108053190D01*
X149487095Y-107957952D01*
G04 #@! TO.C,R38*
X151442657Y-105989380D02*
X151775990Y-105513190D01*
X152014085Y-105989380D02*
X152014085Y-104989380D01*
X151633133Y-104989380D01*
X151537895Y-105037000D01*
X151490276Y-105084619D01*
X151442657Y-105179857D01*
X151442657Y-105322714D01*
X151490276Y-105417952D01*
X151537895Y-105465571D01*
X151633133Y-105513190D01*
X152014085Y-105513190D01*
X151109323Y-104989380D02*
X150490276Y-104989380D01*
X150823609Y-105370333D01*
X150680752Y-105370333D01*
X150585514Y-105417952D01*
X150537895Y-105465571D01*
X150490276Y-105560809D01*
X150490276Y-105798904D01*
X150537895Y-105894142D01*
X150585514Y-105941761D01*
X150680752Y-105989380D01*
X150966466Y-105989380D01*
X151061704Y-105941761D01*
X151109323Y-105894142D01*
X149918847Y-105417952D02*
X150014085Y-105370333D01*
X150061704Y-105322714D01*
X150109323Y-105227476D01*
X150109323Y-105179857D01*
X150061704Y-105084619D01*
X150014085Y-105037000D01*
X149918847Y-104989380D01*
X149728371Y-104989380D01*
X149633133Y-105037000D01*
X149585514Y-105084619D01*
X149537895Y-105179857D01*
X149537895Y-105227476D01*
X149585514Y-105322714D01*
X149633133Y-105370333D01*
X149728371Y-105417952D01*
X149918847Y-105417952D01*
X150014085Y-105465571D01*
X150061704Y-105513190D01*
X150109323Y-105608428D01*
X150109323Y-105798904D01*
X150061704Y-105894142D01*
X150014085Y-105941761D01*
X149918847Y-105989380D01*
X149728371Y-105989380D01*
X149633133Y-105941761D01*
X149585514Y-105894142D01*
X149537895Y-105798904D01*
X149537895Y-105608428D01*
X149585514Y-105513190D01*
X149633133Y-105465571D01*
X149728371Y-105417952D01*
G04 #@! TO.C,R37*
X151417257Y-103449380D02*
X151750590Y-102973190D01*
X151988685Y-103449380D02*
X151988685Y-102449380D01*
X151607733Y-102449380D01*
X151512495Y-102497000D01*
X151464876Y-102544619D01*
X151417257Y-102639857D01*
X151417257Y-102782714D01*
X151464876Y-102877952D01*
X151512495Y-102925571D01*
X151607733Y-102973190D01*
X151988685Y-102973190D01*
X151083923Y-102449380D02*
X150464876Y-102449380D01*
X150798209Y-102830333D01*
X150655352Y-102830333D01*
X150560114Y-102877952D01*
X150512495Y-102925571D01*
X150464876Y-103020809D01*
X150464876Y-103258904D01*
X150512495Y-103354142D01*
X150560114Y-103401761D01*
X150655352Y-103449380D01*
X150941066Y-103449380D01*
X151036304Y-103401761D01*
X151083923Y-103354142D01*
X150131542Y-102449380D02*
X149464876Y-102449380D01*
X149893447Y-103449380D01*
G04 #@! TO.C,R36*
X151341057Y-100909380D02*
X151674390Y-100433190D01*
X151912485Y-100909380D02*
X151912485Y-99909380D01*
X151531533Y-99909380D01*
X151436295Y-99957000D01*
X151388676Y-100004619D01*
X151341057Y-100099857D01*
X151341057Y-100242714D01*
X151388676Y-100337952D01*
X151436295Y-100385571D01*
X151531533Y-100433190D01*
X151912485Y-100433190D01*
X151007723Y-99909380D02*
X150388676Y-99909380D01*
X150722009Y-100290333D01*
X150579152Y-100290333D01*
X150483914Y-100337952D01*
X150436295Y-100385571D01*
X150388676Y-100480809D01*
X150388676Y-100718904D01*
X150436295Y-100814142D01*
X150483914Y-100861761D01*
X150579152Y-100909380D01*
X150864866Y-100909380D01*
X150960104Y-100861761D01*
X151007723Y-100814142D01*
X149531533Y-99909380D02*
X149722009Y-99909380D01*
X149817247Y-99957000D01*
X149864866Y-100004619D01*
X149960104Y-100147476D01*
X150007723Y-100337952D01*
X150007723Y-100718904D01*
X149960104Y-100814142D01*
X149912485Y-100861761D01*
X149817247Y-100909380D01*
X149626771Y-100909380D01*
X149531533Y-100861761D01*
X149483914Y-100814142D01*
X149436295Y-100718904D01*
X149436295Y-100480809D01*
X149483914Y-100385571D01*
X149531533Y-100337952D01*
X149626771Y-100290333D01*
X149817247Y-100290333D01*
X149912485Y-100337952D01*
X149960104Y-100385571D01*
X150007723Y-100480809D01*
G04 #@! TO.C,R35*
X151341057Y-98369380D02*
X151674390Y-97893190D01*
X151912485Y-98369380D02*
X151912485Y-97369380D01*
X151531533Y-97369380D01*
X151436295Y-97417000D01*
X151388676Y-97464619D01*
X151341057Y-97559857D01*
X151341057Y-97702714D01*
X151388676Y-97797952D01*
X151436295Y-97845571D01*
X151531533Y-97893190D01*
X151912485Y-97893190D01*
X151007723Y-97369380D02*
X150388676Y-97369380D01*
X150722009Y-97750333D01*
X150579152Y-97750333D01*
X150483914Y-97797952D01*
X150436295Y-97845571D01*
X150388676Y-97940809D01*
X150388676Y-98178904D01*
X150436295Y-98274142D01*
X150483914Y-98321761D01*
X150579152Y-98369380D01*
X150864866Y-98369380D01*
X150960104Y-98321761D01*
X151007723Y-98274142D01*
X149483914Y-97369380D02*
X149960104Y-97369380D01*
X150007723Y-97845571D01*
X149960104Y-97797952D01*
X149864866Y-97750333D01*
X149626771Y-97750333D01*
X149531533Y-97797952D01*
X149483914Y-97845571D01*
X149436295Y-97940809D01*
X149436295Y-98178904D01*
X149483914Y-98274142D01*
X149531533Y-98321761D01*
X149626771Y-98369380D01*
X149864866Y-98369380D01*
X149960104Y-98321761D01*
X150007723Y-98274142D01*
G04 #@! TO.C,R87*
X151341057Y-68270380D02*
X151674390Y-67794190D01*
X151912485Y-68270380D02*
X151912485Y-67270380D01*
X151531533Y-67270380D01*
X151436295Y-67318000D01*
X151388676Y-67365619D01*
X151341057Y-67460857D01*
X151341057Y-67603714D01*
X151388676Y-67698952D01*
X151436295Y-67746571D01*
X151531533Y-67794190D01*
X151912485Y-67794190D01*
X150769628Y-67698952D02*
X150864866Y-67651333D01*
X150912485Y-67603714D01*
X150960104Y-67508476D01*
X150960104Y-67460857D01*
X150912485Y-67365619D01*
X150864866Y-67318000D01*
X150769628Y-67270380D01*
X150579152Y-67270380D01*
X150483914Y-67318000D01*
X150436295Y-67365619D01*
X150388676Y-67460857D01*
X150388676Y-67508476D01*
X150436295Y-67603714D01*
X150483914Y-67651333D01*
X150579152Y-67698952D01*
X150769628Y-67698952D01*
X150864866Y-67746571D01*
X150912485Y-67794190D01*
X150960104Y-67889428D01*
X150960104Y-68079904D01*
X150912485Y-68175142D01*
X150864866Y-68222761D01*
X150769628Y-68270380D01*
X150579152Y-68270380D01*
X150483914Y-68222761D01*
X150436295Y-68175142D01*
X150388676Y-68079904D01*
X150388676Y-67889428D01*
X150436295Y-67794190D01*
X150483914Y-67746571D01*
X150579152Y-67698952D01*
X150055342Y-67270380D02*
X149388676Y-67270380D01*
X149817247Y-68270380D01*
G04 #@! TD*
M02*
