M48
;DRILL file {KiCad (5.0.0)} date 10/21/18 16:48:10
;FORMAT={-:-/ absolute / inch / decimal}
FMAT,2
INCH,TZ
T1C0.0157
T2C0.0300
%
G90
G05
M72
T1
X4.225Y-3.305
X4.25Y-3.28
X4.275Y-3.255
X4.35Y-5.2075
X4.45Y-5.2075
X4.55Y-5.2081
X4.5625Y-3.255
X4.5825Y-3.28
X4.5825Y-5.51
X4.6025Y-3.305
X4.6025Y-5.2625
X4.65Y-5.21
X4.675Y-3.37
X4.75Y-5.21
X4.8465Y-4.7355
X4.85Y-5.2081
X4.9025Y-3.27
X4.9384Y-5.444
X4.95Y-5.21
X4.955Y-3.0375
X4.963Y-5.418
X4.992Y-5.393
X4.992Y-5.498
X5.05Y-4.41
X5.05Y-5.21
X5.15Y-4.4075
X5.16Y-4.6575
X5.161Y-3.075
X5.2Y-4.3725
X5.3025Y-4.1525
X5.35Y-4.4075
X5.357Y-5.223
X5.358Y-4.825
X5.359Y-4.625
X5.359Y-5.025
X5.3591Y-5.3252
X5.3605Y-4.9254
X5.3614Y-4.7255
X5.3614Y-5.1255
X5.363Y-3.441
X5.364Y-3.04
X5.364Y-3.24
X5.364Y-3.64
X5.3656Y-3.5402
X5.3664Y-3.1405
X5.3664Y-3.3405
X5.3666Y-3.7393
X5.4025Y-4.46
X5.4025Y-4.54
X5.45Y-4.4075
X5.59Y-3.0025
X5.59Y-3.11
X5.59Y-3.21
X5.59Y-3.31
X5.59Y-3.41
X5.59Y-3.51
X5.59Y-3.61
X5.59Y-3.71
X5.59Y-3.81
X5.597Y-4.4444
X5.597Y-5.498
X5.6Y-4.3475
X5.635Y-4.4936
X5.65Y-4.38
X5.66Y-4.469
X5.6875Y-4.5825
X5.6875Y-4.65
X5.7025Y-4.795
X5.7025Y-4.895
X5.7025Y-4.995
X5.7025Y-5.095
X5.7025Y-5.195
X5.7025Y-5.295
X5.7025Y-5.395
X5.75Y-4.4075
X5.9Y-4.5825
X5.935Y-5.21
X6.035Y-5.21
X6.085Y-3.7575
X6.085Y-3.855
X6.085Y-3.955
X6.085Y-4.055
X6.085Y-4.155
X6.085Y-4.255
X6.085Y-4.355
X6.085Y-4.455
X6.085Y-4.555
X6.135Y-5.2081
X6.185Y-5.26
X6.235Y-5.2125
X6.255Y-5.469
X6.295Y-5.3675
X6.326Y-5.393
X6.326Y-5.499
X6.3288Y-2.6384
X6.3296Y-2.4396
X6.33Y-2.8375
X6.3307Y-3.039
X6.331Y-2.74
X6.332Y-2.34
X6.332Y-2.5404
X6.332Y-2.94
X6.335Y-5.2075
X6.3387Y-4.425
X6.3387Y-4.625
X6.3387Y-4.625
X6.3405Y-4.0248
X6.3405Y-4.2248
X6.342Y-3.925
X6.343Y-4.125
X6.343Y-4.325
X6.343Y-4.525
X6.3888Y-2.34
X6.435Y-5.2081
X6.477Y-5.444
X6.502Y-5.418
X6.535Y-5.2075
X6.585Y-3.89
X6.635Y-4.4075
X6.635Y-5.21
X6.735Y-4.4075
X6.765Y-2.295
X6.785Y-4.3725
X6.852Y-2.475
X6.88Y-4.16
X6.935Y-4.405
X6.97Y-2.12
X6.97Y-2.32
X6.974Y-4.5
X6.99Y-2.525
X7.0025Y-2.145
X7.0025Y-2.345
X7.0275Y-3.8325
X7.035Y-2.17
X7.035Y-2.37
X7.035Y-4.405
X7.0675Y-2.195
X7.0675Y-2.3975
X7.0879Y-3.497
X7.0879Y-3.906
X7.1125Y-3.3975
X7.1125Y-3.9325
X7.12Y-2.996
X7.1373Y-3.9581
X7.1379Y-3.298
X7.1625Y-3.1975
X7.1625Y-3.9825
X7.1829Y-4.459
X7.1829Y-4.491
X7.185Y-2.895
X7.185Y-4.3475
X7.1875Y-3.7875
X7.1875Y-4.005
X7.216Y-2.996
X7.2325Y-4.3775
X7.3325Y-4.4075
X7.569Y-2.994
X7.5694Y-3.097
X7.5694Y-3.197
X7.5694Y-3.297
X7.5694Y-3.397
X7.5694Y-3.497
X7.5694Y-3.497
X7.5694Y-3.597
X7.5694Y-3.697
T2
X4.35Y-5.025
X4.45Y-5.025
X4.55Y-5.025
X4.65Y-3.925
X4.65Y-4.025
X4.65Y-4.125
X4.65Y-4.225
X4.65Y-4.325
X4.65Y-4.425
X4.65Y-4.525
X4.65Y-4.625
X4.65Y-5.025
X4.75Y-5.025
X4.85Y-5.025
X4.95Y-5.025
X5.05Y-4.225
X5.05Y-5.025
X5.15Y-4.225
X5.25Y-4.225
X5.35Y-4.225
X5.45Y-4.225
X5.45Y-4.625
X5.45Y-4.725
X5.45Y-4.825
X5.45Y-4.925
X5.45Y-5.025
X5.45Y-5.125
X5.45Y-5.225
X5.45Y-5.325
X5.55Y-4.225
X5.65Y-4.225
X5.75Y-4.225
X4.35Y-3.44
X4.45Y-3.44
X4.55Y-3.44
X4.65Y-2.34
X4.65Y-2.44
X4.65Y-2.54
X4.65Y-2.64
X4.65Y-2.74
X4.65Y-2.84
X4.65Y-2.94
X4.65Y-3.04
X4.65Y-3.44
X4.75Y-3.44
X4.85Y-3.44
X4.95Y-3.44
X5.05Y-2.64
X5.05Y-3.44
X5.15Y-2.64
X5.25Y-2.64
X5.35Y-2.64
X5.45Y-2.64
X5.45Y-3.04
X5.45Y-3.14
X5.45Y-3.24
X5.45Y-3.34
X5.45Y-3.44
X5.45Y-3.54
X5.45Y-3.64
X5.45Y-3.74
X5.55Y-2.64
X5.65Y-2.64
X5.75Y-2.64
X5.935Y-3.44
X6.035Y-3.44
X6.135Y-3.44
X6.235Y-2.34
X6.235Y-2.44
X6.235Y-2.54
X6.235Y-2.64
X6.235Y-2.74
X6.235Y-2.84
X6.235Y-2.94
X6.235Y-3.04
X6.235Y-3.44
X6.335Y-3.44
X6.435Y-3.44
X6.535Y-3.44
X6.635Y-2.64
X6.635Y-3.44
X6.735Y-2.64
X6.835Y-2.64
X6.935Y-2.64
X7.035Y-2.64
X7.035Y-3.04
X7.035Y-3.14
X7.035Y-3.24
X7.035Y-3.34
X7.035Y-3.44
X7.035Y-3.54
X7.035Y-3.64
X7.035Y-3.74
X7.135Y-2.64
X7.235Y-2.64
X7.335Y-2.64
X5.935Y-5.025
X6.035Y-5.025
X6.135Y-5.025
X6.235Y-3.925
X6.235Y-4.025
X6.235Y-4.125
X6.235Y-4.225
X6.235Y-4.325
X6.235Y-4.425
X6.235Y-4.525
X6.235Y-4.625
X6.235Y-5.025
X6.335Y-5.025
X6.435Y-5.025
X6.535Y-5.025
X6.635Y-4.225
X6.635Y-5.025
X6.735Y-4.225
X6.835Y-4.225
X6.935Y-4.225
X7.035Y-4.225
X7.035Y-4.625
X7.035Y-4.725
X7.035Y-4.825
X7.035Y-4.925
X7.035Y-5.025
X7.035Y-5.125
X7.035Y-5.225
X7.035Y-5.325
X7.135Y-4.225
X7.235Y-4.225
X7.335Y-4.225
T0
M30
