G04 #@! TF.GenerationSoftware,KiCad,Pcbnew,(5.0.0)*
G04 #@! TF.CreationDate,2018-10-21T16:46:55+02:00*
G04 #@! TF.ProjectId,DispalyBoard,44697370616C79426F6172642E6B6963,0.2.1*
G04 #@! TF.SameCoordinates,Original*
G04 #@! TF.FileFunction,Soldermask,Top*
G04 #@! TF.FilePolarity,Negative*
%FSLAX46Y46*%
G04 Gerber Fmt 4.6, Leading zero omitted, Abs format (unit mm)*
G04 Created by KiCad (PCBNEW (5.0.0)) date 10/21/18 16:46:55*
%MOMM*%
%LPD*%
G01*
G04 APERTURE LIST*
%ADD10C,1.924000*%
%ADD11R,1.700000X1.900000*%
%ADD12R,1.314400X1.314400*%
%ADD13C,3.400000*%
G04 APERTURE END LIST*
D10*
G04 #@! TO.C,DS4*
X168529000Y-127635000D03*
X165989000Y-127635000D03*
X158369000Y-127635000D03*
X160909000Y-127635000D03*
X163449000Y-127635000D03*
X155829000Y-127635000D03*
X153289000Y-127635000D03*
X150749000Y-127635000D03*
X178689000Y-132715000D03*
X178689000Y-130175000D03*
X178689000Y-135255000D03*
X178689000Y-125095000D03*
X178689000Y-122555000D03*
X178689000Y-120015000D03*
X178689000Y-117475000D03*
X186309000Y-107315000D03*
X183769000Y-107315000D03*
X181229000Y-107315000D03*
X178689000Y-107315000D03*
X176149000Y-107315000D03*
X173609000Y-107315000D03*
X171069000Y-107315000D03*
X168529000Y-107315000D03*
X158369000Y-99695000D03*
X158369000Y-102235000D03*
X158369000Y-104775000D03*
X158369000Y-107315000D03*
X158369000Y-109855000D03*
X158369000Y-112395000D03*
X158369000Y-114935000D03*
X158369000Y-117475000D03*
X178689000Y-127635000D03*
G04 #@! TD*
G04 #@! TO.C,DS1*
X128270000Y-87376000D03*
X125730000Y-87376000D03*
X118110000Y-87376000D03*
X120650000Y-87376000D03*
X123190000Y-87376000D03*
X115570000Y-87376000D03*
X113030000Y-87376000D03*
X110490000Y-87376000D03*
X138430000Y-92456000D03*
X138430000Y-89916000D03*
X138430000Y-94996000D03*
X138430000Y-84836000D03*
X138430000Y-82296000D03*
X138430000Y-79756000D03*
X138430000Y-77216000D03*
X146050000Y-67056000D03*
X143510000Y-67056000D03*
X140970000Y-67056000D03*
X138430000Y-67056000D03*
X135890000Y-67056000D03*
X133350000Y-67056000D03*
X130810000Y-67056000D03*
X128270000Y-67056000D03*
X118110000Y-59436000D03*
X118110000Y-61976000D03*
X118110000Y-64516000D03*
X118110000Y-67056000D03*
X118110000Y-69596000D03*
X118110000Y-72136000D03*
X118110000Y-74676000D03*
X118110000Y-77216000D03*
X138430000Y-87376000D03*
G04 #@! TD*
G04 #@! TO.C,DS3*
X168529000Y-87376000D03*
X165989000Y-87376000D03*
X158369000Y-87376000D03*
X160909000Y-87376000D03*
X163449000Y-87376000D03*
X155829000Y-87376000D03*
X153289000Y-87376000D03*
X150749000Y-87376000D03*
X178689000Y-92456000D03*
X178689000Y-89916000D03*
X178689000Y-94996000D03*
X178689000Y-84836000D03*
X178689000Y-82296000D03*
X178689000Y-79756000D03*
X178689000Y-77216000D03*
X186309000Y-67056000D03*
X183769000Y-67056000D03*
X181229000Y-67056000D03*
X178689000Y-67056000D03*
X176149000Y-67056000D03*
X173609000Y-67056000D03*
X171069000Y-67056000D03*
X168529000Y-67056000D03*
X158369000Y-59436000D03*
X158369000Y-61976000D03*
X158369000Y-64516000D03*
X158369000Y-67056000D03*
X158369000Y-69596000D03*
X158369000Y-72136000D03*
X158369000Y-74676000D03*
X158369000Y-77216000D03*
X178689000Y-87376000D03*
G04 #@! TD*
G04 #@! TO.C,DS2*
X128270000Y-127635000D03*
X125730000Y-127635000D03*
X118110000Y-127635000D03*
X120650000Y-127635000D03*
X123190000Y-127635000D03*
X115570000Y-127635000D03*
X113030000Y-127635000D03*
X110490000Y-127635000D03*
X138430000Y-132715000D03*
X138430000Y-130175000D03*
X138430000Y-135255000D03*
X138430000Y-125095000D03*
X138430000Y-122555000D03*
X138430000Y-120015000D03*
X138430000Y-117475000D03*
X146050000Y-107315000D03*
X143510000Y-107315000D03*
X140970000Y-107315000D03*
X138430000Y-107315000D03*
X135890000Y-107315000D03*
X133350000Y-107315000D03*
X130810000Y-107315000D03*
X128270000Y-107315000D03*
X118110000Y-99695000D03*
X118110000Y-102235000D03*
X118110000Y-104775000D03*
X118110000Y-107315000D03*
X118110000Y-109855000D03*
X118110000Y-112395000D03*
X118110000Y-114935000D03*
X118110000Y-117475000D03*
X138430000Y-127635000D03*
G04 #@! TD*
D11*
G04 #@! TO.C,R32*
X186309000Y-111967000D03*
X186309000Y-109267000D03*
G04 #@! TD*
G04 #@! TO.C,R31*
X183769000Y-111967000D03*
X183769000Y-109267000D03*
G04 #@! TD*
G04 #@! TO.C,R30*
X181229000Y-111967000D03*
X181229000Y-109267000D03*
G04 #@! TD*
G04 #@! TO.C,R29*
X178689000Y-111967000D03*
X178689000Y-109267000D03*
G04 #@! TD*
G04 #@! TO.C,R28*
X176149000Y-111967000D03*
X176149000Y-109267000D03*
G04 #@! TD*
G04 #@! TO.C,R27*
X173609000Y-111967000D03*
X173609000Y-109267000D03*
G04 #@! TD*
G04 #@! TO.C,R26*
X171069000Y-111967000D03*
X171069000Y-109267000D03*
G04 #@! TD*
G04 #@! TO.C,R25*
X168529000Y-111967000D03*
X168529000Y-109267000D03*
G04 #@! TD*
G04 #@! TO.C,R24*
X168529000Y-132287000D03*
X168529000Y-129587000D03*
G04 #@! TD*
G04 #@! TO.C,R23*
X165989000Y-132287000D03*
X165989000Y-129587000D03*
G04 #@! TD*
G04 #@! TO.C,R22*
X163449000Y-132287000D03*
X163449000Y-129587000D03*
G04 #@! TD*
G04 #@! TO.C,R21*
X160909000Y-132287000D03*
X160909000Y-129587000D03*
G04 #@! TD*
G04 #@! TO.C,R20*
X158369000Y-132287000D03*
X158369000Y-129587000D03*
G04 #@! TD*
G04 #@! TO.C,R19*
X155829000Y-132287000D03*
X155829000Y-129587000D03*
G04 #@! TD*
G04 #@! TO.C,R18*
X153289000Y-132287000D03*
X153289000Y-129587000D03*
G04 #@! TD*
G04 #@! TO.C,R17*
X150749000Y-132287000D03*
X150749000Y-129587000D03*
G04 #@! TD*
G04 #@! TO.C,R16*
X146050000Y-111967000D03*
X146050000Y-109267000D03*
G04 #@! TD*
G04 #@! TO.C,R15*
X143510000Y-111967000D03*
X143510000Y-109267000D03*
G04 #@! TD*
G04 #@! TO.C,R14*
X140970000Y-111967000D03*
X140970000Y-109267000D03*
G04 #@! TD*
G04 #@! TO.C,R13*
X138430000Y-111967000D03*
X138430000Y-109267000D03*
G04 #@! TD*
G04 #@! TO.C,R12*
X135890000Y-111967000D03*
X135890000Y-109267000D03*
G04 #@! TD*
G04 #@! TO.C,R11*
X133350000Y-111967000D03*
X133350000Y-109267000D03*
G04 #@! TD*
G04 #@! TO.C,R10*
X130810000Y-111967000D03*
X130810000Y-109267000D03*
G04 #@! TD*
G04 #@! TO.C,R9*
X128270000Y-111967000D03*
X128270000Y-109267000D03*
G04 #@! TD*
G04 #@! TO.C,R8*
X128270000Y-132287000D03*
X128270000Y-129587000D03*
G04 #@! TD*
G04 #@! TO.C,R7*
X125730000Y-132287000D03*
X125730000Y-129587000D03*
G04 #@! TD*
G04 #@! TO.C,R6*
X123190000Y-132287000D03*
X123190000Y-129587000D03*
G04 #@! TD*
G04 #@! TO.C,R5*
X120650000Y-132287000D03*
X120650000Y-129587000D03*
G04 #@! TD*
G04 #@! TO.C,R4*
X118110000Y-132287000D03*
X118110000Y-129587000D03*
G04 #@! TD*
G04 #@! TO.C,R3*
X115570000Y-132287000D03*
X115570000Y-129587000D03*
G04 #@! TD*
G04 #@! TO.C,R2*
X113030000Y-132287000D03*
X113030000Y-129587000D03*
G04 #@! TD*
G04 #@! TO.C,R1*
X110490000Y-132287000D03*
X110490000Y-129587000D03*
G04 #@! TD*
D12*
G04 #@! TO.C,Q12*
X133121400Y-125095000D03*
X131343400Y-125095000D03*
X132232400Y-127111760D03*
G04 #@! TD*
G04 #@! TO.C,Q22*
X133197600Y-89916000D03*
X131419600Y-89916000D03*
X132308600Y-91932760D03*
G04 #@! TD*
G04 #@! TO.C,Q32*
X163830000Y-77200760D03*
X165608000Y-77200760D03*
X164719000Y-75184000D03*
G04 #@! TD*
G04 #@! TO.C,Q31*
X160832800Y-74676000D03*
X162610800Y-74676000D03*
X161721800Y-72659240D03*
G04 #@! TD*
G04 #@! TO.C,Q30*
X163830000Y-72085200D03*
X165608000Y-72085200D03*
X164719000Y-70068440D03*
G04 #@! TD*
G04 #@! TO.C,Q28*
X163830000Y-67030600D03*
X165608000Y-67030600D03*
X164719000Y-65013840D03*
G04 #@! TD*
G04 #@! TO.C,Q27*
X160832800Y-64526160D03*
X162610800Y-64526160D03*
X161721800Y-62509400D03*
G04 #@! TD*
G04 #@! TO.C,Q26*
X163830000Y-61986160D03*
X165608000Y-61986160D03*
X164719000Y-59969400D03*
G04 #@! TD*
G04 #@! TO.C,Q25*
X160832800Y-59436000D03*
X162610800Y-59436000D03*
X161721800Y-57419240D03*
G04 #@! TD*
G04 #@! TO.C,Q24*
X133197600Y-94996000D03*
X131419600Y-94996000D03*
X132308600Y-97012760D03*
G04 #@! TD*
G04 #@! TO.C,Q23*
X136245600Y-92456000D03*
X134467600Y-92456000D03*
X135356600Y-94472760D03*
G04 #@! TD*
G04 #@! TO.C,Q21*
X136220200Y-87401400D03*
X134442200Y-87401400D03*
X135331200Y-89418160D03*
G04 #@! TD*
G04 #@! TO.C,Q20*
X133248400Y-84836000D03*
X131470400Y-84836000D03*
X132359400Y-86852760D03*
G04 #@! TD*
G04 #@! TO.C,Q19*
X136245600Y-82296000D03*
X134467600Y-82296000D03*
X135356600Y-84312760D03*
G04 #@! TD*
G04 #@! TO.C,Q18*
X133248400Y-79745840D03*
X131470400Y-79745840D03*
X132359400Y-81762600D03*
G04 #@! TD*
G04 #@! TO.C,Q17*
X136245600Y-77216000D03*
X134467600Y-77216000D03*
X135356600Y-79232760D03*
G04 #@! TD*
G04 #@! TO.C,Q16*
X133121400Y-135255000D03*
X131343400Y-135255000D03*
X132232400Y-137271760D03*
G04 #@! TD*
G04 #@! TO.C,Q15*
X136067800Y-132664200D03*
X134289800Y-132664200D03*
X135178800Y-134680960D03*
G04 #@! TD*
G04 #@! TO.C,Q14*
X133121400Y-130164840D03*
X131343400Y-130164840D03*
X132232400Y-132181600D03*
G04 #@! TD*
G04 #@! TO.C,Q13*
X136118600Y-127635000D03*
X134340600Y-127635000D03*
X135229600Y-129651760D03*
G04 #@! TD*
G04 #@! TO.C,Q11*
X136093200Y-122555000D03*
X134315200Y-122555000D03*
X135204200Y-124571760D03*
G04 #@! TD*
G04 #@! TO.C,Q10*
X133121400Y-120015000D03*
X131343400Y-120015000D03*
X132232400Y-122031760D03*
G04 #@! TD*
G04 #@! TO.C,Q9*
X136118600Y-117475000D03*
X134340600Y-117475000D03*
X135229600Y-119491760D03*
G04 #@! TD*
G04 #@! TO.C,Q8*
X164109400Y-117485160D03*
X165887400Y-117485160D03*
X164998400Y-115468400D03*
G04 #@! TD*
G04 #@! TO.C,Q7*
X161112200Y-114935000D03*
X162890200Y-114935000D03*
X162001200Y-112918240D03*
G04 #@! TD*
G04 #@! TO.C,Q6*
X164109400Y-112405160D03*
X165887400Y-112405160D03*
X164998400Y-110388400D03*
G04 #@! TD*
G04 #@! TO.C,Q5*
X161112200Y-109855000D03*
X162890200Y-109855000D03*
X162001200Y-107838240D03*
G04 #@! TD*
G04 #@! TO.C,Q4*
X164084000Y-107299760D03*
X165862000Y-107299760D03*
X164973000Y-105283000D03*
G04 #@! TD*
G04 #@! TO.C,Q3*
X161112200Y-104775000D03*
X162890200Y-104775000D03*
X162001200Y-102758240D03*
G04 #@! TD*
G04 #@! TO.C,Q2*
X164084000Y-102235000D03*
X165862000Y-102235000D03*
X164973000Y-100218240D03*
G04 #@! TD*
G04 #@! TO.C,Q1*
X161086800Y-99695000D03*
X162864800Y-99695000D03*
X161975800Y-97678240D03*
G04 #@! TD*
G04 #@! TO.C,Q29*
X160807400Y-69596000D03*
X162585400Y-69596000D03*
X161696400Y-67579240D03*
G04 #@! TD*
D13*
G04 #@! TO.C,REF\002A\002A*
X190944500Y-54864000D03*
G04 #@! TD*
G04 #@! TO.C,REF\002A\002A*
X105918000Y-54864000D03*
G04 #@! TD*
G04 #@! TO.C,REF\002A\002A*
X105918000Y-139827000D03*
G04 #@! TD*
G04 #@! TO.C,REF\002A\002A*
X190881000Y-139827000D03*
G04 #@! TD*
M02*
