G04 #@! TF.GenerationSoftware,KiCad,Pcbnew,(5.0.0)*
G04 #@! TF.CreationDate,2018-10-21T16:46:55+02:00*
G04 #@! TF.ProjectId,DispalyBoard,44697370616C79426F6172642E6B6963,0.2.1*
G04 #@! TF.SameCoordinates,Original*
G04 #@! TF.FileFunction,Legend,Top*
G04 #@! TF.FilePolarity,Positive*
%FSLAX46Y46*%
G04 Gerber Fmt 4.6, Leading zero omitted, Abs format (unit mm)*
G04 Created by KiCad (PCBNEW (5.0.0)) date 10/21/18 16:46:55*
%MOMM*%
%LPD*%
G01*
G04 APERTURE LIST*
%ADD10C,0.150000*%
%ADD11C,0.120000*%
G04 APERTURE END LIST*
D10*
G04 #@! TO.C,DS4*
X188529000Y-97475000D02*
X188529000Y-137475000D01*
X188529000Y-137475000D02*
X148529000Y-137475000D01*
X148529000Y-137475000D02*
X148529000Y-97475000D01*
X148529000Y-97475000D02*
X188529000Y-97475000D01*
G04 #@! TO.C,DS1*
X148270000Y-57216000D02*
X148270000Y-97216000D01*
X148270000Y-97216000D02*
X108270000Y-97216000D01*
X108270000Y-97216000D02*
X108270000Y-57216000D01*
X108270000Y-57216000D02*
X148270000Y-57216000D01*
G04 #@! TO.C,DS3*
X188529000Y-57216000D02*
X188529000Y-97216000D01*
X188529000Y-97216000D02*
X148529000Y-97216000D01*
X148529000Y-97216000D02*
X148529000Y-57216000D01*
X148529000Y-57216000D02*
X188529000Y-57216000D01*
G04 #@! TO.C,DS2*
X148270000Y-97475000D02*
X148270000Y-137475000D01*
X148270000Y-137475000D02*
X108270000Y-137475000D01*
X108270000Y-137475000D02*
X108270000Y-97475000D01*
X108270000Y-97475000D02*
X148270000Y-97475000D01*
D11*
G04 #@! TO.C,R32*
X187189000Y-110017000D02*
X187189000Y-111217000D01*
X185429000Y-111217000D02*
X185429000Y-110017000D01*
G04 #@! TO.C,R31*
X184649000Y-110017000D02*
X184649000Y-111217000D01*
X182889000Y-111217000D02*
X182889000Y-110017000D01*
G04 #@! TO.C,R30*
X182109000Y-110017000D02*
X182109000Y-111217000D01*
X180349000Y-111217000D02*
X180349000Y-110017000D01*
G04 #@! TO.C,R29*
X179569000Y-110017000D02*
X179569000Y-111217000D01*
X177809000Y-111217000D02*
X177809000Y-110017000D01*
G04 #@! TO.C,R28*
X177029000Y-110017000D02*
X177029000Y-111217000D01*
X175269000Y-111217000D02*
X175269000Y-110017000D01*
G04 #@! TO.C,R27*
X174489000Y-110017000D02*
X174489000Y-111217000D01*
X172729000Y-111217000D02*
X172729000Y-110017000D01*
G04 #@! TO.C,R26*
X171949000Y-110017000D02*
X171949000Y-111217000D01*
X170189000Y-111217000D02*
X170189000Y-110017000D01*
G04 #@! TO.C,R25*
X169409000Y-110017000D02*
X169409000Y-111217000D01*
X167649000Y-111217000D02*
X167649000Y-110017000D01*
G04 #@! TO.C,R24*
X169409000Y-130337000D02*
X169409000Y-131537000D01*
X167649000Y-131537000D02*
X167649000Y-130337000D01*
G04 #@! TO.C,R23*
X166869000Y-130337000D02*
X166869000Y-131537000D01*
X165109000Y-131537000D02*
X165109000Y-130337000D01*
G04 #@! TO.C,R22*
X164329000Y-130337000D02*
X164329000Y-131537000D01*
X162569000Y-131537000D02*
X162569000Y-130337000D01*
G04 #@! TO.C,R21*
X161789000Y-130337000D02*
X161789000Y-131537000D01*
X160029000Y-131537000D02*
X160029000Y-130337000D01*
G04 #@! TO.C,R20*
X159249000Y-130337000D02*
X159249000Y-131537000D01*
X157489000Y-131537000D02*
X157489000Y-130337000D01*
G04 #@! TO.C,R19*
X156709000Y-130337000D02*
X156709000Y-131537000D01*
X154949000Y-131537000D02*
X154949000Y-130337000D01*
G04 #@! TO.C,R18*
X154169000Y-130337000D02*
X154169000Y-131537000D01*
X152409000Y-131537000D02*
X152409000Y-130337000D01*
G04 #@! TO.C,R17*
X151629000Y-130337000D02*
X151629000Y-131537000D01*
X149869000Y-131537000D02*
X149869000Y-130337000D01*
G04 #@! TO.C,R16*
X146930000Y-110017000D02*
X146930000Y-111217000D01*
X145170000Y-111217000D02*
X145170000Y-110017000D01*
G04 #@! TO.C,R15*
X144390000Y-110017000D02*
X144390000Y-111217000D01*
X142630000Y-111217000D02*
X142630000Y-110017000D01*
G04 #@! TO.C,R14*
X141850000Y-110017000D02*
X141850000Y-111217000D01*
X140090000Y-111217000D02*
X140090000Y-110017000D01*
G04 #@! TO.C,R13*
X139310000Y-110017000D02*
X139310000Y-111217000D01*
X137550000Y-111217000D02*
X137550000Y-110017000D01*
G04 #@! TO.C,R12*
X136770000Y-110017000D02*
X136770000Y-111217000D01*
X135010000Y-111217000D02*
X135010000Y-110017000D01*
G04 #@! TO.C,R11*
X134230000Y-110017000D02*
X134230000Y-111217000D01*
X132470000Y-111217000D02*
X132470000Y-110017000D01*
G04 #@! TO.C,R10*
X131690000Y-110017000D02*
X131690000Y-111217000D01*
X129930000Y-111217000D02*
X129930000Y-110017000D01*
G04 #@! TO.C,R9*
X129150000Y-110017000D02*
X129150000Y-111217000D01*
X127390000Y-111217000D02*
X127390000Y-110017000D01*
G04 #@! TO.C,R8*
X129150000Y-130337000D02*
X129150000Y-131537000D01*
X127390000Y-131537000D02*
X127390000Y-130337000D01*
G04 #@! TO.C,R7*
X126610000Y-130337000D02*
X126610000Y-131537000D01*
X124850000Y-131537000D02*
X124850000Y-130337000D01*
G04 #@! TO.C,R6*
X124070000Y-130337000D02*
X124070000Y-131537000D01*
X122310000Y-131537000D02*
X122310000Y-130337000D01*
G04 #@! TO.C,R5*
X121530000Y-130337000D02*
X121530000Y-131537000D01*
X119770000Y-131537000D02*
X119770000Y-130337000D01*
G04 #@! TO.C,R4*
X118990000Y-130337000D02*
X118990000Y-131537000D01*
X117230000Y-131537000D02*
X117230000Y-130337000D01*
G04 #@! TO.C,R3*
X116450000Y-130337000D02*
X116450000Y-131537000D01*
X114690000Y-131537000D02*
X114690000Y-130337000D01*
G04 #@! TO.C,R2*
X113910000Y-130337000D02*
X113910000Y-131537000D01*
X112150000Y-131537000D02*
X112150000Y-130337000D01*
G04 #@! TO.C,R1*
X111370000Y-130337000D02*
X111370000Y-131537000D01*
X109610000Y-131537000D02*
X109610000Y-130337000D01*
G04 #@! TO.C,DS4*
D10*
X185729714Y-137205980D02*
X185729714Y-136205980D01*
X185967809Y-136205980D01*
X186110666Y-136253600D01*
X186205904Y-136348838D01*
X186253523Y-136444076D01*
X186301142Y-136634552D01*
X186301142Y-136777409D01*
X186253523Y-136967885D01*
X186205904Y-137063123D01*
X186110666Y-137158361D01*
X185967809Y-137205980D01*
X185729714Y-137205980D01*
X186682095Y-137158361D02*
X186824952Y-137205980D01*
X187063047Y-137205980D01*
X187158285Y-137158361D01*
X187205904Y-137110742D01*
X187253523Y-137015504D01*
X187253523Y-136920266D01*
X187205904Y-136825028D01*
X187158285Y-136777409D01*
X187063047Y-136729790D01*
X186872571Y-136682171D01*
X186777333Y-136634552D01*
X186729714Y-136586933D01*
X186682095Y-136491695D01*
X186682095Y-136396457D01*
X186729714Y-136301219D01*
X186777333Y-136253600D01*
X186872571Y-136205980D01*
X187110666Y-136205980D01*
X187253523Y-136253600D01*
X188110666Y-136539314D02*
X188110666Y-137205980D01*
X187872571Y-136158361D02*
X187634476Y-136872647D01*
X188253523Y-136872647D01*
G04 #@! TO.C,DS1*
X145572314Y-96946980D02*
X145572314Y-95946980D01*
X145810409Y-95946980D01*
X145953266Y-95994600D01*
X146048504Y-96089838D01*
X146096123Y-96185076D01*
X146143742Y-96375552D01*
X146143742Y-96518409D01*
X146096123Y-96708885D01*
X146048504Y-96804123D01*
X145953266Y-96899361D01*
X145810409Y-96946980D01*
X145572314Y-96946980D01*
X146524695Y-96899361D02*
X146667552Y-96946980D01*
X146905647Y-96946980D01*
X147000885Y-96899361D01*
X147048504Y-96851742D01*
X147096123Y-96756504D01*
X147096123Y-96661266D01*
X147048504Y-96566028D01*
X147000885Y-96518409D01*
X146905647Y-96470790D01*
X146715171Y-96423171D01*
X146619933Y-96375552D01*
X146572314Y-96327933D01*
X146524695Y-96232695D01*
X146524695Y-96137457D01*
X146572314Y-96042219D01*
X146619933Y-95994600D01*
X146715171Y-95946980D01*
X146953266Y-95946980D01*
X147096123Y-95994600D01*
X148048504Y-96946980D02*
X147477076Y-96946980D01*
X147762790Y-96946980D02*
X147762790Y-95946980D01*
X147667552Y-96089838D01*
X147572314Y-96185076D01*
X147477076Y-96232695D01*
G04 #@! TO.C,DS3*
X185755114Y-96997780D02*
X185755114Y-95997780D01*
X185993209Y-95997780D01*
X186136066Y-96045400D01*
X186231304Y-96140638D01*
X186278923Y-96235876D01*
X186326542Y-96426352D01*
X186326542Y-96569209D01*
X186278923Y-96759685D01*
X186231304Y-96854923D01*
X186136066Y-96950161D01*
X185993209Y-96997780D01*
X185755114Y-96997780D01*
X186707495Y-96950161D02*
X186850352Y-96997780D01*
X187088447Y-96997780D01*
X187183685Y-96950161D01*
X187231304Y-96902542D01*
X187278923Y-96807304D01*
X187278923Y-96712066D01*
X187231304Y-96616828D01*
X187183685Y-96569209D01*
X187088447Y-96521590D01*
X186897971Y-96473971D01*
X186802733Y-96426352D01*
X186755114Y-96378733D01*
X186707495Y-96283495D01*
X186707495Y-96188257D01*
X186755114Y-96093019D01*
X186802733Y-96045400D01*
X186897971Y-95997780D01*
X187136066Y-95997780D01*
X187278923Y-96045400D01*
X187612257Y-95997780D02*
X188231304Y-95997780D01*
X187897971Y-96378733D01*
X188040828Y-96378733D01*
X188136066Y-96426352D01*
X188183685Y-96473971D01*
X188231304Y-96569209D01*
X188231304Y-96807304D01*
X188183685Y-96902542D01*
X188136066Y-96950161D01*
X188040828Y-96997780D01*
X187755114Y-96997780D01*
X187659876Y-96950161D01*
X187612257Y-96902542D01*
G04 #@! TO.C,DS2*
X145521514Y-137205980D02*
X145521514Y-136205980D01*
X145759609Y-136205980D01*
X145902466Y-136253600D01*
X145997704Y-136348838D01*
X146045323Y-136444076D01*
X146092942Y-136634552D01*
X146092942Y-136777409D01*
X146045323Y-136967885D01*
X145997704Y-137063123D01*
X145902466Y-137158361D01*
X145759609Y-137205980D01*
X145521514Y-137205980D01*
X146473895Y-137158361D02*
X146616752Y-137205980D01*
X146854847Y-137205980D01*
X146950085Y-137158361D01*
X146997704Y-137110742D01*
X147045323Y-137015504D01*
X147045323Y-136920266D01*
X146997704Y-136825028D01*
X146950085Y-136777409D01*
X146854847Y-136729790D01*
X146664371Y-136682171D01*
X146569133Y-136634552D01*
X146521514Y-136586933D01*
X146473895Y-136491695D01*
X146473895Y-136396457D01*
X146521514Y-136301219D01*
X146569133Y-136253600D01*
X146664371Y-136205980D01*
X146902466Y-136205980D01*
X147045323Y-136253600D01*
X147426276Y-136301219D02*
X147473895Y-136253600D01*
X147569133Y-136205980D01*
X147807228Y-136205980D01*
X147902466Y-136253600D01*
X147950085Y-136301219D01*
X147997704Y-136396457D01*
X147997704Y-136491695D01*
X147950085Y-136634552D01*
X147378657Y-137205980D01*
X147997704Y-137205980D01*
G04 #@! TO.C,R32*
X186761380Y-114993657D02*
X186285190Y-115326990D01*
X186761380Y-115565085D02*
X185761380Y-115565085D01*
X185761380Y-115184133D01*
X185809000Y-115088895D01*
X185856619Y-115041276D01*
X185951857Y-114993657D01*
X186094714Y-114993657D01*
X186189952Y-115041276D01*
X186237571Y-115088895D01*
X186285190Y-115184133D01*
X186285190Y-115565085D01*
X185761380Y-114660323D02*
X185761380Y-114041276D01*
X186142333Y-114374609D01*
X186142333Y-114231752D01*
X186189952Y-114136514D01*
X186237571Y-114088895D01*
X186332809Y-114041276D01*
X186570904Y-114041276D01*
X186666142Y-114088895D01*
X186713761Y-114136514D01*
X186761380Y-114231752D01*
X186761380Y-114517466D01*
X186713761Y-114612704D01*
X186666142Y-114660323D01*
X185856619Y-113660323D02*
X185809000Y-113612704D01*
X185761380Y-113517466D01*
X185761380Y-113279371D01*
X185809000Y-113184133D01*
X185856619Y-113136514D01*
X185951857Y-113088895D01*
X186047095Y-113088895D01*
X186189952Y-113136514D01*
X186761380Y-113707942D01*
X186761380Y-113088895D01*
G04 #@! TO.C,R31*
X184195980Y-115019057D02*
X183719790Y-115352390D01*
X184195980Y-115590485D02*
X183195980Y-115590485D01*
X183195980Y-115209533D01*
X183243600Y-115114295D01*
X183291219Y-115066676D01*
X183386457Y-115019057D01*
X183529314Y-115019057D01*
X183624552Y-115066676D01*
X183672171Y-115114295D01*
X183719790Y-115209533D01*
X183719790Y-115590485D01*
X183195980Y-114685723D02*
X183195980Y-114066676D01*
X183576933Y-114400009D01*
X183576933Y-114257152D01*
X183624552Y-114161914D01*
X183672171Y-114114295D01*
X183767409Y-114066676D01*
X184005504Y-114066676D01*
X184100742Y-114114295D01*
X184148361Y-114161914D01*
X184195980Y-114257152D01*
X184195980Y-114542866D01*
X184148361Y-114638104D01*
X184100742Y-114685723D01*
X184195980Y-113114295D02*
X184195980Y-113685723D01*
X184195980Y-113400009D02*
X183195980Y-113400009D01*
X183338838Y-113495247D01*
X183434076Y-113590485D01*
X183481695Y-113685723D01*
G04 #@! TO.C,R30*
X181681380Y-115044457D02*
X181205190Y-115377790D01*
X181681380Y-115615885D02*
X180681380Y-115615885D01*
X180681380Y-115234933D01*
X180729000Y-115139695D01*
X180776619Y-115092076D01*
X180871857Y-115044457D01*
X181014714Y-115044457D01*
X181109952Y-115092076D01*
X181157571Y-115139695D01*
X181205190Y-115234933D01*
X181205190Y-115615885D01*
X180681380Y-114711123D02*
X180681380Y-114092076D01*
X181062333Y-114425409D01*
X181062333Y-114282552D01*
X181109952Y-114187314D01*
X181157571Y-114139695D01*
X181252809Y-114092076D01*
X181490904Y-114092076D01*
X181586142Y-114139695D01*
X181633761Y-114187314D01*
X181681380Y-114282552D01*
X181681380Y-114568266D01*
X181633761Y-114663504D01*
X181586142Y-114711123D01*
X180681380Y-113473028D02*
X180681380Y-113377790D01*
X180729000Y-113282552D01*
X180776619Y-113234933D01*
X180871857Y-113187314D01*
X181062333Y-113139695D01*
X181300428Y-113139695D01*
X181490904Y-113187314D01*
X181586142Y-113234933D01*
X181633761Y-113282552D01*
X181681380Y-113377790D01*
X181681380Y-113473028D01*
X181633761Y-113568266D01*
X181586142Y-113615885D01*
X181490904Y-113663504D01*
X181300428Y-113711123D01*
X181062333Y-113711123D01*
X180871857Y-113663504D01*
X180776619Y-113615885D01*
X180729000Y-113568266D01*
X180681380Y-113473028D01*
G04 #@! TO.C,R29*
X179166780Y-115044457D02*
X178690590Y-115377790D01*
X179166780Y-115615885D02*
X178166780Y-115615885D01*
X178166780Y-115234933D01*
X178214400Y-115139695D01*
X178262019Y-115092076D01*
X178357257Y-115044457D01*
X178500114Y-115044457D01*
X178595352Y-115092076D01*
X178642971Y-115139695D01*
X178690590Y-115234933D01*
X178690590Y-115615885D01*
X178262019Y-114663504D02*
X178214400Y-114615885D01*
X178166780Y-114520647D01*
X178166780Y-114282552D01*
X178214400Y-114187314D01*
X178262019Y-114139695D01*
X178357257Y-114092076D01*
X178452495Y-114092076D01*
X178595352Y-114139695D01*
X179166780Y-114711123D01*
X179166780Y-114092076D01*
X179166780Y-113615885D02*
X179166780Y-113425409D01*
X179119161Y-113330171D01*
X179071542Y-113282552D01*
X178928685Y-113187314D01*
X178738209Y-113139695D01*
X178357257Y-113139695D01*
X178262019Y-113187314D01*
X178214400Y-113234933D01*
X178166780Y-113330171D01*
X178166780Y-113520647D01*
X178214400Y-113615885D01*
X178262019Y-113663504D01*
X178357257Y-113711123D01*
X178595352Y-113711123D01*
X178690590Y-113663504D01*
X178738209Y-113615885D01*
X178785828Y-113520647D01*
X178785828Y-113330171D01*
X178738209Y-113234933D01*
X178690590Y-113187314D01*
X178595352Y-113139695D01*
G04 #@! TO.C,R28*
X176601380Y-115095257D02*
X176125190Y-115428590D01*
X176601380Y-115666685D02*
X175601380Y-115666685D01*
X175601380Y-115285733D01*
X175649000Y-115190495D01*
X175696619Y-115142876D01*
X175791857Y-115095257D01*
X175934714Y-115095257D01*
X176029952Y-115142876D01*
X176077571Y-115190495D01*
X176125190Y-115285733D01*
X176125190Y-115666685D01*
X175696619Y-114714304D02*
X175649000Y-114666685D01*
X175601380Y-114571447D01*
X175601380Y-114333352D01*
X175649000Y-114238114D01*
X175696619Y-114190495D01*
X175791857Y-114142876D01*
X175887095Y-114142876D01*
X176029952Y-114190495D01*
X176601380Y-114761923D01*
X176601380Y-114142876D01*
X176029952Y-113571447D02*
X175982333Y-113666685D01*
X175934714Y-113714304D01*
X175839476Y-113761923D01*
X175791857Y-113761923D01*
X175696619Y-113714304D01*
X175649000Y-113666685D01*
X175601380Y-113571447D01*
X175601380Y-113380971D01*
X175649000Y-113285733D01*
X175696619Y-113238114D01*
X175791857Y-113190495D01*
X175839476Y-113190495D01*
X175934714Y-113238114D01*
X175982333Y-113285733D01*
X176029952Y-113380971D01*
X176029952Y-113571447D01*
X176077571Y-113666685D01*
X176125190Y-113714304D01*
X176220428Y-113761923D01*
X176410904Y-113761923D01*
X176506142Y-113714304D01*
X176553761Y-113666685D01*
X176601380Y-113571447D01*
X176601380Y-113380971D01*
X176553761Y-113285733D01*
X176506142Y-113238114D01*
X176410904Y-113190495D01*
X176220428Y-113190495D01*
X176125190Y-113238114D01*
X176077571Y-113285733D01*
X176029952Y-113380971D01*
G04 #@! TO.C,R27*
X174086780Y-115095257D02*
X173610590Y-115428590D01*
X174086780Y-115666685D02*
X173086780Y-115666685D01*
X173086780Y-115285733D01*
X173134400Y-115190495D01*
X173182019Y-115142876D01*
X173277257Y-115095257D01*
X173420114Y-115095257D01*
X173515352Y-115142876D01*
X173562971Y-115190495D01*
X173610590Y-115285733D01*
X173610590Y-115666685D01*
X173182019Y-114714304D02*
X173134400Y-114666685D01*
X173086780Y-114571447D01*
X173086780Y-114333352D01*
X173134400Y-114238114D01*
X173182019Y-114190495D01*
X173277257Y-114142876D01*
X173372495Y-114142876D01*
X173515352Y-114190495D01*
X174086780Y-114761923D01*
X174086780Y-114142876D01*
X173086780Y-113809542D02*
X173086780Y-113142876D01*
X174086780Y-113571447D01*
G04 #@! TO.C,R26*
X171521380Y-115069857D02*
X171045190Y-115403190D01*
X171521380Y-115641285D02*
X170521380Y-115641285D01*
X170521380Y-115260333D01*
X170569000Y-115165095D01*
X170616619Y-115117476D01*
X170711857Y-115069857D01*
X170854714Y-115069857D01*
X170949952Y-115117476D01*
X170997571Y-115165095D01*
X171045190Y-115260333D01*
X171045190Y-115641285D01*
X170616619Y-114688904D02*
X170569000Y-114641285D01*
X170521380Y-114546047D01*
X170521380Y-114307952D01*
X170569000Y-114212714D01*
X170616619Y-114165095D01*
X170711857Y-114117476D01*
X170807095Y-114117476D01*
X170949952Y-114165095D01*
X171521380Y-114736523D01*
X171521380Y-114117476D01*
X170521380Y-113260333D02*
X170521380Y-113450809D01*
X170569000Y-113546047D01*
X170616619Y-113593666D01*
X170759476Y-113688904D01*
X170949952Y-113736523D01*
X171330904Y-113736523D01*
X171426142Y-113688904D01*
X171473761Y-113641285D01*
X171521380Y-113546047D01*
X171521380Y-113355571D01*
X171473761Y-113260333D01*
X171426142Y-113212714D01*
X171330904Y-113165095D01*
X171092809Y-113165095D01*
X170997571Y-113212714D01*
X170949952Y-113260333D01*
X170902333Y-113355571D01*
X170902333Y-113546047D01*
X170949952Y-113641285D01*
X170997571Y-113688904D01*
X171092809Y-113736523D01*
G04 #@! TO.C,R25*
X168981380Y-115044457D02*
X168505190Y-115377790D01*
X168981380Y-115615885D02*
X167981380Y-115615885D01*
X167981380Y-115234933D01*
X168029000Y-115139695D01*
X168076619Y-115092076D01*
X168171857Y-115044457D01*
X168314714Y-115044457D01*
X168409952Y-115092076D01*
X168457571Y-115139695D01*
X168505190Y-115234933D01*
X168505190Y-115615885D01*
X168076619Y-114663504D02*
X168029000Y-114615885D01*
X167981380Y-114520647D01*
X167981380Y-114282552D01*
X168029000Y-114187314D01*
X168076619Y-114139695D01*
X168171857Y-114092076D01*
X168267095Y-114092076D01*
X168409952Y-114139695D01*
X168981380Y-114711123D01*
X168981380Y-114092076D01*
X167981380Y-113187314D02*
X167981380Y-113663504D01*
X168457571Y-113711123D01*
X168409952Y-113663504D01*
X168362333Y-113568266D01*
X168362333Y-113330171D01*
X168409952Y-113234933D01*
X168457571Y-113187314D01*
X168552809Y-113139695D01*
X168790904Y-113139695D01*
X168886142Y-113187314D01*
X168933761Y-113234933D01*
X168981380Y-113330171D01*
X168981380Y-113568266D01*
X168933761Y-113663504D01*
X168886142Y-113711123D01*
G04 #@! TO.C,R24*
X168981380Y-135516857D02*
X168505190Y-135850190D01*
X168981380Y-136088285D02*
X167981380Y-136088285D01*
X167981380Y-135707333D01*
X168029000Y-135612095D01*
X168076619Y-135564476D01*
X168171857Y-135516857D01*
X168314714Y-135516857D01*
X168409952Y-135564476D01*
X168457571Y-135612095D01*
X168505190Y-135707333D01*
X168505190Y-136088285D01*
X168076619Y-135135904D02*
X168029000Y-135088285D01*
X167981380Y-134993047D01*
X167981380Y-134754952D01*
X168029000Y-134659714D01*
X168076619Y-134612095D01*
X168171857Y-134564476D01*
X168267095Y-134564476D01*
X168409952Y-134612095D01*
X168981380Y-135183523D01*
X168981380Y-134564476D01*
X168314714Y-133707333D02*
X168981380Y-133707333D01*
X167933761Y-133945428D02*
X168648047Y-134183523D01*
X168648047Y-133564476D01*
G04 #@! TO.C,R23*
X166466780Y-135542257D02*
X165990590Y-135875590D01*
X166466780Y-136113685D02*
X165466780Y-136113685D01*
X165466780Y-135732733D01*
X165514400Y-135637495D01*
X165562019Y-135589876D01*
X165657257Y-135542257D01*
X165800114Y-135542257D01*
X165895352Y-135589876D01*
X165942971Y-135637495D01*
X165990590Y-135732733D01*
X165990590Y-136113685D01*
X165562019Y-135161304D02*
X165514400Y-135113685D01*
X165466780Y-135018447D01*
X165466780Y-134780352D01*
X165514400Y-134685114D01*
X165562019Y-134637495D01*
X165657257Y-134589876D01*
X165752495Y-134589876D01*
X165895352Y-134637495D01*
X166466780Y-135208923D01*
X166466780Y-134589876D01*
X165466780Y-134256542D02*
X165466780Y-133637495D01*
X165847733Y-133970828D01*
X165847733Y-133827971D01*
X165895352Y-133732733D01*
X165942971Y-133685114D01*
X166038209Y-133637495D01*
X166276304Y-133637495D01*
X166371542Y-133685114D01*
X166419161Y-133732733D01*
X166466780Y-133827971D01*
X166466780Y-134113685D01*
X166419161Y-134208923D01*
X166371542Y-134256542D01*
G04 #@! TO.C,R22*
X163799780Y-135542257D02*
X163323590Y-135875590D01*
X163799780Y-136113685D02*
X162799780Y-136113685D01*
X162799780Y-135732733D01*
X162847400Y-135637495D01*
X162895019Y-135589876D01*
X162990257Y-135542257D01*
X163133114Y-135542257D01*
X163228352Y-135589876D01*
X163275971Y-135637495D01*
X163323590Y-135732733D01*
X163323590Y-136113685D01*
X162895019Y-135161304D02*
X162847400Y-135113685D01*
X162799780Y-135018447D01*
X162799780Y-134780352D01*
X162847400Y-134685114D01*
X162895019Y-134637495D01*
X162990257Y-134589876D01*
X163085495Y-134589876D01*
X163228352Y-134637495D01*
X163799780Y-135208923D01*
X163799780Y-134589876D01*
X162895019Y-134208923D02*
X162847400Y-134161304D01*
X162799780Y-134066066D01*
X162799780Y-133827971D01*
X162847400Y-133732733D01*
X162895019Y-133685114D01*
X162990257Y-133637495D01*
X163085495Y-133637495D01*
X163228352Y-133685114D01*
X163799780Y-134256542D01*
X163799780Y-133637495D01*
G04 #@! TO.C,R21*
X161361380Y-135516857D02*
X160885190Y-135850190D01*
X161361380Y-136088285D02*
X160361380Y-136088285D01*
X160361380Y-135707333D01*
X160409000Y-135612095D01*
X160456619Y-135564476D01*
X160551857Y-135516857D01*
X160694714Y-135516857D01*
X160789952Y-135564476D01*
X160837571Y-135612095D01*
X160885190Y-135707333D01*
X160885190Y-136088285D01*
X160456619Y-135135904D02*
X160409000Y-135088285D01*
X160361380Y-134993047D01*
X160361380Y-134754952D01*
X160409000Y-134659714D01*
X160456619Y-134612095D01*
X160551857Y-134564476D01*
X160647095Y-134564476D01*
X160789952Y-134612095D01*
X161361380Y-135183523D01*
X161361380Y-134564476D01*
X161361380Y-133612095D02*
X161361380Y-134183523D01*
X161361380Y-133897809D02*
X160361380Y-133897809D01*
X160504238Y-133993047D01*
X160599476Y-134088285D01*
X160647095Y-134183523D01*
G04 #@! TO.C,R20*
X158821380Y-135516857D02*
X158345190Y-135850190D01*
X158821380Y-136088285D02*
X157821380Y-136088285D01*
X157821380Y-135707333D01*
X157869000Y-135612095D01*
X157916619Y-135564476D01*
X158011857Y-135516857D01*
X158154714Y-135516857D01*
X158249952Y-135564476D01*
X158297571Y-135612095D01*
X158345190Y-135707333D01*
X158345190Y-136088285D01*
X157916619Y-135135904D02*
X157869000Y-135088285D01*
X157821380Y-134993047D01*
X157821380Y-134754952D01*
X157869000Y-134659714D01*
X157916619Y-134612095D01*
X158011857Y-134564476D01*
X158107095Y-134564476D01*
X158249952Y-134612095D01*
X158821380Y-135183523D01*
X158821380Y-134564476D01*
X157821380Y-133945428D02*
X157821380Y-133850190D01*
X157869000Y-133754952D01*
X157916619Y-133707333D01*
X158011857Y-133659714D01*
X158202333Y-133612095D01*
X158440428Y-133612095D01*
X158630904Y-133659714D01*
X158726142Y-133707333D01*
X158773761Y-133754952D01*
X158821380Y-133850190D01*
X158821380Y-133945428D01*
X158773761Y-134040666D01*
X158726142Y-134088285D01*
X158630904Y-134135904D01*
X158440428Y-134183523D01*
X158202333Y-134183523D01*
X158011857Y-134135904D01*
X157916619Y-134088285D01*
X157869000Y-134040666D01*
X157821380Y-133945428D01*
G04 #@! TO.C,R19*
X156281380Y-135542257D02*
X155805190Y-135875590D01*
X156281380Y-136113685D02*
X155281380Y-136113685D01*
X155281380Y-135732733D01*
X155329000Y-135637495D01*
X155376619Y-135589876D01*
X155471857Y-135542257D01*
X155614714Y-135542257D01*
X155709952Y-135589876D01*
X155757571Y-135637495D01*
X155805190Y-135732733D01*
X155805190Y-136113685D01*
X156281380Y-134589876D02*
X156281380Y-135161304D01*
X156281380Y-134875590D02*
X155281380Y-134875590D01*
X155424238Y-134970828D01*
X155519476Y-135066066D01*
X155567095Y-135161304D01*
X156281380Y-134113685D02*
X156281380Y-133923209D01*
X156233761Y-133827971D01*
X156186142Y-133780352D01*
X156043285Y-133685114D01*
X155852809Y-133637495D01*
X155471857Y-133637495D01*
X155376619Y-133685114D01*
X155329000Y-133732733D01*
X155281380Y-133827971D01*
X155281380Y-134018447D01*
X155329000Y-134113685D01*
X155376619Y-134161304D01*
X155471857Y-134208923D01*
X155709952Y-134208923D01*
X155805190Y-134161304D01*
X155852809Y-134113685D01*
X155900428Y-134018447D01*
X155900428Y-133827971D01*
X155852809Y-133732733D01*
X155805190Y-133685114D01*
X155709952Y-133637495D01*
G04 #@! TO.C,R18*
X153741380Y-135567657D02*
X153265190Y-135900990D01*
X153741380Y-136139085D02*
X152741380Y-136139085D01*
X152741380Y-135758133D01*
X152789000Y-135662895D01*
X152836619Y-135615276D01*
X152931857Y-135567657D01*
X153074714Y-135567657D01*
X153169952Y-135615276D01*
X153217571Y-135662895D01*
X153265190Y-135758133D01*
X153265190Y-136139085D01*
X153741380Y-134615276D02*
X153741380Y-135186704D01*
X153741380Y-134900990D02*
X152741380Y-134900990D01*
X152884238Y-134996228D01*
X152979476Y-135091466D01*
X153027095Y-135186704D01*
X153169952Y-134043847D02*
X153122333Y-134139085D01*
X153074714Y-134186704D01*
X152979476Y-134234323D01*
X152931857Y-134234323D01*
X152836619Y-134186704D01*
X152789000Y-134139085D01*
X152741380Y-134043847D01*
X152741380Y-133853371D01*
X152789000Y-133758133D01*
X152836619Y-133710514D01*
X152931857Y-133662895D01*
X152979476Y-133662895D01*
X153074714Y-133710514D01*
X153122333Y-133758133D01*
X153169952Y-133853371D01*
X153169952Y-134043847D01*
X153217571Y-134139085D01*
X153265190Y-134186704D01*
X153360428Y-134234323D01*
X153550904Y-134234323D01*
X153646142Y-134186704D01*
X153693761Y-134139085D01*
X153741380Y-134043847D01*
X153741380Y-133853371D01*
X153693761Y-133758133D01*
X153646142Y-133710514D01*
X153550904Y-133662895D01*
X153360428Y-133662895D01*
X153265190Y-133710514D01*
X153217571Y-133758133D01*
X153169952Y-133853371D01*
G04 #@! TO.C,R17*
X151201380Y-135593057D02*
X150725190Y-135926390D01*
X151201380Y-136164485D02*
X150201380Y-136164485D01*
X150201380Y-135783533D01*
X150249000Y-135688295D01*
X150296619Y-135640676D01*
X150391857Y-135593057D01*
X150534714Y-135593057D01*
X150629952Y-135640676D01*
X150677571Y-135688295D01*
X150725190Y-135783533D01*
X150725190Y-136164485D01*
X151201380Y-134640676D02*
X151201380Y-135212104D01*
X151201380Y-134926390D02*
X150201380Y-134926390D01*
X150344238Y-135021628D01*
X150439476Y-135116866D01*
X150487095Y-135212104D01*
X150201380Y-134307342D02*
X150201380Y-133640676D01*
X151201380Y-134069247D01*
G04 #@! TO.C,R16*
X146502380Y-114942857D02*
X146026190Y-115276190D01*
X146502380Y-115514285D02*
X145502380Y-115514285D01*
X145502380Y-115133333D01*
X145550000Y-115038095D01*
X145597619Y-114990476D01*
X145692857Y-114942857D01*
X145835714Y-114942857D01*
X145930952Y-114990476D01*
X145978571Y-115038095D01*
X146026190Y-115133333D01*
X146026190Y-115514285D01*
X146502380Y-113990476D02*
X146502380Y-114561904D01*
X146502380Y-114276190D02*
X145502380Y-114276190D01*
X145645238Y-114371428D01*
X145740476Y-114466666D01*
X145788095Y-114561904D01*
X145502380Y-113133333D02*
X145502380Y-113323809D01*
X145550000Y-113419047D01*
X145597619Y-113466666D01*
X145740476Y-113561904D01*
X145930952Y-113609523D01*
X146311904Y-113609523D01*
X146407142Y-113561904D01*
X146454761Y-113514285D01*
X146502380Y-113419047D01*
X146502380Y-113228571D01*
X146454761Y-113133333D01*
X146407142Y-113085714D01*
X146311904Y-113038095D01*
X146073809Y-113038095D01*
X145978571Y-113085714D01*
X145930952Y-113133333D01*
X145883333Y-113228571D01*
X145883333Y-113419047D01*
X145930952Y-113514285D01*
X145978571Y-113561904D01*
X146073809Y-113609523D01*
G04 #@! TO.C,R15*
X143987780Y-114968257D02*
X143511590Y-115301590D01*
X143987780Y-115539685D02*
X142987780Y-115539685D01*
X142987780Y-115158733D01*
X143035400Y-115063495D01*
X143083019Y-115015876D01*
X143178257Y-114968257D01*
X143321114Y-114968257D01*
X143416352Y-115015876D01*
X143463971Y-115063495D01*
X143511590Y-115158733D01*
X143511590Y-115539685D01*
X143987780Y-114015876D02*
X143987780Y-114587304D01*
X143987780Y-114301590D02*
X142987780Y-114301590D01*
X143130638Y-114396828D01*
X143225876Y-114492066D01*
X143273495Y-114587304D01*
X142987780Y-113111114D02*
X142987780Y-113587304D01*
X143463971Y-113634923D01*
X143416352Y-113587304D01*
X143368733Y-113492066D01*
X143368733Y-113253971D01*
X143416352Y-113158733D01*
X143463971Y-113111114D01*
X143559209Y-113063495D01*
X143797304Y-113063495D01*
X143892542Y-113111114D01*
X143940161Y-113158733D01*
X143987780Y-113253971D01*
X143987780Y-113492066D01*
X143940161Y-113587304D01*
X143892542Y-113634923D01*
G04 #@! TO.C,R14*
X141422380Y-114993657D02*
X140946190Y-115326990D01*
X141422380Y-115565085D02*
X140422380Y-115565085D01*
X140422380Y-115184133D01*
X140470000Y-115088895D01*
X140517619Y-115041276D01*
X140612857Y-114993657D01*
X140755714Y-114993657D01*
X140850952Y-115041276D01*
X140898571Y-115088895D01*
X140946190Y-115184133D01*
X140946190Y-115565085D01*
X141422380Y-114041276D02*
X141422380Y-114612704D01*
X141422380Y-114326990D02*
X140422380Y-114326990D01*
X140565238Y-114422228D01*
X140660476Y-114517466D01*
X140708095Y-114612704D01*
X140755714Y-113184133D02*
X141422380Y-113184133D01*
X140374761Y-113422228D02*
X141089047Y-113660323D01*
X141089047Y-113041276D01*
G04 #@! TO.C,R13*
X138882380Y-114993657D02*
X138406190Y-115326990D01*
X138882380Y-115565085D02*
X137882380Y-115565085D01*
X137882380Y-115184133D01*
X137930000Y-115088895D01*
X137977619Y-115041276D01*
X138072857Y-114993657D01*
X138215714Y-114993657D01*
X138310952Y-115041276D01*
X138358571Y-115088895D01*
X138406190Y-115184133D01*
X138406190Y-115565085D01*
X138882380Y-114041276D02*
X138882380Y-114612704D01*
X138882380Y-114326990D02*
X137882380Y-114326990D01*
X138025238Y-114422228D01*
X138120476Y-114517466D01*
X138168095Y-114612704D01*
X137882380Y-113707942D02*
X137882380Y-113088895D01*
X138263333Y-113422228D01*
X138263333Y-113279371D01*
X138310952Y-113184133D01*
X138358571Y-113136514D01*
X138453809Y-113088895D01*
X138691904Y-113088895D01*
X138787142Y-113136514D01*
X138834761Y-113184133D01*
X138882380Y-113279371D01*
X138882380Y-113565085D01*
X138834761Y-113660323D01*
X138787142Y-113707942D01*
G04 #@! TO.C,R12*
X136342380Y-114968257D02*
X135866190Y-115301590D01*
X136342380Y-115539685D02*
X135342380Y-115539685D01*
X135342380Y-115158733D01*
X135390000Y-115063495D01*
X135437619Y-115015876D01*
X135532857Y-114968257D01*
X135675714Y-114968257D01*
X135770952Y-115015876D01*
X135818571Y-115063495D01*
X135866190Y-115158733D01*
X135866190Y-115539685D01*
X136342380Y-114015876D02*
X136342380Y-114587304D01*
X136342380Y-114301590D02*
X135342380Y-114301590D01*
X135485238Y-114396828D01*
X135580476Y-114492066D01*
X135628095Y-114587304D01*
X135437619Y-113634923D02*
X135390000Y-113587304D01*
X135342380Y-113492066D01*
X135342380Y-113253971D01*
X135390000Y-113158733D01*
X135437619Y-113111114D01*
X135532857Y-113063495D01*
X135628095Y-113063495D01*
X135770952Y-113111114D01*
X136342380Y-113682542D01*
X136342380Y-113063495D01*
G04 #@! TO.C,R11*
X133827780Y-114993657D02*
X133351590Y-115326990D01*
X133827780Y-115565085D02*
X132827780Y-115565085D01*
X132827780Y-115184133D01*
X132875400Y-115088895D01*
X132923019Y-115041276D01*
X133018257Y-114993657D01*
X133161114Y-114993657D01*
X133256352Y-115041276D01*
X133303971Y-115088895D01*
X133351590Y-115184133D01*
X133351590Y-115565085D01*
X133827780Y-114041276D02*
X133827780Y-114612704D01*
X133827780Y-114326990D02*
X132827780Y-114326990D01*
X132970638Y-114422228D01*
X133065876Y-114517466D01*
X133113495Y-114612704D01*
X133827780Y-113088895D02*
X133827780Y-113660323D01*
X133827780Y-113374609D02*
X132827780Y-113374609D01*
X132970638Y-113469847D01*
X133065876Y-113565085D01*
X133113495Y-113660323D01*
G04 #@! TO.C,R10*
X131363980Y-114993657D02*
X130887790Y-115326990D01*
X131363980Y-115565085D02*
X130363980Y-115565085D01*
X130363980Y-115184133D01*
X130411600Y-115088895D01*
X130459219Y-115041276D01*
X130554457Y-114993657D01*
X130697314Y-114993657D01*
X130792552Y-115041276D01*
X130840171Y-115088895D01*
X130887790Y-115184133D01*
X130887790Y-115565085D01*
X131363980Y-114041276D02*
X131363980Y-114612704D01*
X131363980Y-114326990D02*
X130363980Y-114326990D01*
X130506838Y-114422228D01*
X130602076Y-114517466D01*
X130649695Y-114612704D01*
X130363980Y-113422228D02*
X130363980Y-113326990D01*
X130411600Y-113231752D01*
X130459219Y-113184133D01*
X130554457Y-113136514D01*
X130744933Y-113088895D01*
X130983028Y-113088895D01*
X131173504Y-113136514D01*
X131268742Y-113184133D01*
X131316361Y-113231752D01*
X131363980Y-113326990D01*
X131363980Y-113422228D01*
X131316361Y-113517466D01*
X131268742Y-113565085D01*
X131173504Y-113612704D01*
X130983028Y-113660323D01*
X130744933Y-113660323D01*
X130554457Y-113612704D01*
X130459219Y-113565085D01*
X130411600Y-113517466D01*
X130363980Y-113422228D01*
G04 #@! TO.C,R9*
X128849380Y-114517466D02*
X128373190Y-114850800D01*
X128849380Y-115088895D02*
X127849380Y-115088895D01*
X127849380Y-114707942D01*
X127897000Y-114612704D01*
X127944619Y-114565085D01*
X128039857Y-114517466D01*
X128182714Y-114517466D01*
X128277952Y-114565085D01*
X128325571Y-114612704D01*
X128373190Y-114707942D01*
X128373190Y-115088895D01*
X128849380Y-114041276D02*
X128849380Y-113850800D01*
X128801761Y-113755561D01*
X128754142Y-113707942D01*
X128611285Y-113612704D01*
X128420809Y-113565085D01*
X128039857Y-113565085D01*
X127944619Y-113612704D01*
X127897000Y-113660323D01*
X127849380Y-113755561D01*
X127849380Y-113946038D01*
X127897000Y-114041276D01*
X127944619Y-114088895D01*
X128039857Y-114136514D01*
X128277952Y-114136514D01*
X128373190Y-114088895D01*
X128420809Y-114041276D01*
X128468428Y-113946038D01*
X128468428Y-113755561D01*
X128420809Y-113660323D01*
X128373190Y-113612704D01*
X128277952Y-113565085D01*
G04 #@! TO.C,R8*
X128747780Y-134913666D02*
X128271590Y-135247000D01*
X128747780Y-135485095D02*
X127747780Y-135485095D01*
X127747780Y-135104142D01*
X127795400Y-135008904D01*
X127843019Y-134961285D01*
X127938257Y-134913666D01*
X128081114Y-134913666D01*
X128176352Y-134961285D01*
X128223971Y-135008904D01*
X128271590Y-135104142D01*
X128271590Y-135485095D01*
X128176352Y-134342238D02*
X128128733Y-134437476D01*
X128081114Y-134485095D01*
X127985876Y-134532714D01*
X127938257Y-134532714D01*
X127843019Y-134485095D01*
X127795400Y-134437476D01*
X127747780Y-134342238D01*
X127747780Y-134151761D01*
X127795400Y-134056523D01*
X127843019Y-134008904D01*
X127938257Y-133961285D01*
X127985876Y-133961285D01*
X128081114Y-134008904D01*
X128128733Y-134056523D01*
X128176352Y-134151761D01*
X128176352Y-134342238D01*
X128223971Y-134437476D01*
X128271590Y-134485095D01*
X128366828Y-134532714D01*
X128557304Y-134532714D01*
X128652542Y-134485095D01*
X128700161Y-134437476D01*
X128747780Y-134342238D01*
X128747780Y-134151761D01*
X128700161Y-134056523D01*
X128652542Y-134008904D01*
X128557304Y-133961285D01*
X128366828Y-133961285D01*
X128271590Y-134008904D01*
X128223971Y-134056523D01*
X128176352Y-134151761D01*
G04 #@! TO.C,R7*
X126156980Y-134913666D02*
X125680790Y-135247000D01*
X126156980Y-135485095D02*
X125156980Y-135485095D01*
X125156980Y-135104142D01*
X125204600Y-135008904D01*
X125252219Y-134961285D01*
X125347457Y-134913666D01*
X125490314Y-134913666D01*
X125585552Y-134961285D01*
X125633171Y-135008904D01*
X125680790Y-135104142D01*
X125680790Y-135485095D01*
X125156980Y-134580333D02*
X125156980Y-133913666D01*
X126156980Y-134342238D01*
G04 #@! TO.C,R6*
X123667780Y-134888266D02*
X123191590Y-135221600D01*
X123667780Y-135459695D02*
X122667780Y-135459695D01*
X122667780Y-135078742D01*
X122715400Y-134983504D01*
X122763019Y-134935885D01*
X122858257Y-134888266D01*
X123001114Y-134888266D01*
X123096352Y-134935885D01*
X123143971Y-134983504D01*
X123191590Y-135078742D01*
X123191590Y-135459695D01*
X122667780Y-134031123D02*
X122667780Y-134221600D01*
X122715400Y-134316838D01*
X122763019Y-134364457D01*
X122905876Y-134459695D01*
X123096352Y-134507314D01*
X123477304Y-134507314D01*
X123572542Y-134459695D01*
X123620161Y-134412076D01*
X123667780Y-134316838D01*
X123667780Y-134126361D01*
X123620161Y-134031123D01*
X123572542Y-133983504D01*
X123477304Y-133935885D01*
X123239209Y-133935885D01*
X123143971Y-133983504D01*
X123096352Y-134031123D01*
X123048733Y-134126361D01*
X123048733Y-134316838D01*
X123096352Y-134412076D01*
X123143971Y-134459695D01*
X123239209Y-134507314D01*
G04 #@! TO.C,R5*
X121102380Y-134862866D02*
X120626190Y-135196200D01*
X121102380Y-135434295D02*
X120102380Y-135434295D01*
X120102380Y-135053342D01*
X120150000Y-134958104D01*
X120197619Y-134910485D01*
X120292857Y-134862866D01*
X120435714Y-134862866D01*
X120530952Y-134910485D01*
X120578571Y-134958104D01*
X120626190Y-135053342D01*
X120626190Y-135434295D01*
X120102380Y-133958104D02*
X120102380Y-134434295D01*
X120578571Y-134481914D01*
X120530952Y-134434295D01*
X120483333Y-134339057D01*
X120483333Y-134100961D01*
X120530952Y-134005723D01*
X120578571Y-133958104D01*
X120673809Y-133910485D01*
X120911904Y-133910485D01*
X121007142Y-133958104D01*
X121054761Y-134005723D01*
X121102380Y-134100961D01*
X121102380Y-134339057D01*
X121054761Y-134434295D01*
X121007142Y-134481914D01*
G04 #@! TO.C,R4*
X118536980Y-134862866D02*
X118060790Y-135196200D01*
X118536980Y-135434295D02*
X117536980Y-135434295D01*
X117536980Y-135053342D01*
X117584600Y-134958104D01*
X117632219Y-134910485D01*
X117727457Y-134862866D01*
X117870314Y-134862866D01*
X117965552Y-134910485D01*
X118013171Y-134958104D01*
X118060790Y-135053342D01*
X118060790Y-135434295D01*
X117870314Y-134005723D02*
X118536980Y-134005723D01*
X117489361Y-134243819D02*
X118203647Y-134481914D01*
X118203647Y-133862866D01*
G04 #@! TO.C,R3*
X115996980Y-134837466D02*
X115520790Y-135170800D01*
X115996980Y-135408895D02*
X114996980Y-135408895D01*
X114996980Y-135027942D01*
X115044600Y-134932704D01*
X115092219Y-134885085D01*
X115187457Y-134837466D01*
X115330314Y-134837466D01*
X115425552Y-134885085D01*
X115473171Y-134932704D01*
X115520790Y-135027942D01*
X115520790Y-135408895D01*
X114996980Y-134504133D02*
X114996980Y-133885085D01*
X115377933Y-134218419D01*
X115377933Y-134075561D01*
X115425552Y-133980323D01*
X115473171Y-133932704D01*
X115568409Y-133885085D01*
X115806504Y-133885085D01*
X115901742Y-133932704D01*
X115949361Y-133980323D01*
X115996980Y-134075561D01*
X115996980Y-134361276D01*
X115949361Y-134456514D01*
X115901742Y-134504133D01*
G04 #@! TO.C,R2*
X113507780Y-134812066D02*
X113031590Y-135145400D01*
X113507780Y-135383495D02*
X112507780Y-135383495D01*
X112507780Y-135002542D01*
X112555400Y-134907304D01*
X112603019Y-134859685D01*
X112698257Y-134812066D01*
X112841114Y-134812066D01*
X112936352Y-134859685D01*
X112983971Y-134907304D01*
X113031590Y-135002542D01*
X113031590Y-135383495D01*
X112603019Y-134431114D02*
X112555400Y-134383495D01*
X112507780Y-134288257D01*
X112507780Y-134050161D01*
X112555400Y-133954923D01*
X112603019Y-133907304D01*
X112698257Y-133859685D01*
X112793495Y-133859685D01*
X112936352Y-133907304D01*
X113507780Y-134478733D01*
X113507780Y-133859685D01*
G04 #@! TO.C,R1*
X110942380Y-134761266D02*
X110466190Y-135094600D01*
X110942380Y-135332695D02*
X109942380Y-135332695D01*
X109942380Y-134951742D01*
X109990000Y-134856504D01*
X110037619Y-134808885D01*
X110132857Y-134761266D01*
X110275714Y-134761266D01*
X110370952Y-134808885D01*
X110418571Y-134856504D01*
X110466190Y-134951742D01*
X110466190Y-135332695D01*
X110942380Y-133808885D02*
X110942380Y-134380314D01*
X110942380Y-134094600D02*
X109942380Y-134094600D01*
X110085238Y-134189838D01*
X110180476Y-134285076D01*
X110228095Y-134380314D01*
G04 #@! TD*
M02*
