G04 #@! TF.GenerationSoftware,KiCad,Pcbnew,(5.0.0)*
G04 #@! TF.CreationDate,2020-04-06T18:27:32+02:00*
G04 #@! TF.ProjectId,MainBoard,4D61696E426F6172642E6B696361645F,rev?*
G04 #@! TF.SameCoordinates,Original*
G04 #@! TF.FileFunction,Copper,L1,Top,Signal*
G04 #@! TF.FilePolarity,Positive*
%FSLAX46Y46*%
G04 Gerber Fmt 4.6, Leading zero omitted, Abs format (unit mm)*
G04 Created by KiCad (PCBNEW (5.0.0)) date 04/06/20 18:27:32*
%MOMM*%
%LPD*%
G01*
G04 APERTURE LIST*
G04 #@! TA.AperFunction,SMDPad,CuDef*
%ADD10R,3.150000X1.000000*%
G04 #@! TD*
G04 #@! TA.AperFunction,SMDPad,CuDef*
%ADD11R,1.000760X0.269240*%
G04 #@! TD*
G04 #@! TA.AperFunction,ComponentPad*
%ADD12C,2.000000*%
G04 #@! TD*
G04 #@! TA.AperFunction,SMDPad,CuDef*
%ADD13R,0.600000X0.500000*%
G04 #@! TD*
G04 #@! TA.AperFunction,SMDPad,CuDef*
%ADD14R,0.500000X0.600000*%
G04 #@! TD*
G04 #@! TA.AperFunction,SMDPad,CuDef*
%ADD15C,0.500000*%
G04 #@! TD*
G04 #@! TA.AperFunction,Conductor*
%ADD16C,0.100000*%
G04 #@! TD*
G04 #@! TA.AperFunction,SMDPad,CuDef*
%ADD17R,1.500000X1.000000*%
G04 #@! TD*
G04 #@! TA.AperFunction,SMDPad,CuDef*
%ADD18C,1.150000*%
G04 #@! TD*
G04 #@! TA.AperFunction,ViaPad*
%ADD19C,0.800000*%
G04 #@! TD*
G04 #@! TA.AperFunction,Conductor*
%ADD20C,0.250000*%
G04 #@! TD*
G04 #@! TA.AperFunction,Conductor*
%ADD21C,0.200000*%
G04 #@! TD*
G04 #@! TA.AperFunction,Conductor*
%ADD22C,0.500000*%
G04 #@! TD*
G04 #@! TA.AperFunction,Conductor*
%ADD23C,0.260000*%
G04 #@! TD*
G04 APERTURE END LIST*
D10*
G04 #@! TO.P,P2,1*
G04 #@! TO.N,GND*
X187213000Y-76123800D03*
G04 #@! TO.P,P2,2*
G04 #@! TO.N,/DisplayBoard/SCL2*
X192263000Y-76123800D03*
G04 #@! TO.P,P2,3*
G04 #@! TO.N,/DisplayBoard/DATA_IN*
X187213000Y-78663800D03*
G04 #@! TO.P,P2,4*
G04 #@! TO.N,/DisplayBoard/SDA2*
X192263000Y-78663800D03*
G04 #@! TO.P,P2,5*
G04 #@! TO.N,/MainBoard/OE*
X187213000Y-81203800D03*
G04 #@! TO.P,P2,6*
G04 #@! TO.N,/DisplayBoard/SCL3*
X192263000Y-81203800D03*
G04 #@! TO.P,P2,7*
G04 #@! TO.N,/DisplayBoard/LATCH*
X187213000Y-83743800D03*
G04 #@! TO.P,P2,8*
G04 #@! TO.N,/DisplayBoard/SDA3*
X192263000Y-83743800D03*
G04 #@! TO.P,P2,9*
G04 #@! TO.N,/MainBoard/CLOCK*
X187213000Y-86283800D03*
G04 #@! TO.P,P2,10*
G04 #@! TO.N,/DisplayBoard/SCL1*
X192263000Y-86283800D03*
G04 #@! TO.P,P2,11*
G04 #@! TO.N,/MainBoard/RESET*
X187213000Y-88823800D03*
G04 #@! TO.P,P2,12*
G04 #@! TO.N,/DisplayBoard/SDA1*
X192263000Y-88823800D03*
G04 #@! TO.P,P2,13*
G04 #@! TO.N,/MainBoard/RST*
X187213000Y-91363800D03*
G04 #@! TO.P,P2,14*
G04 #@! TO.N,/DisplayBoard/SCL4*
X192263000Y-91363800D03*
G04 #@! TO.P,P2,15*
G04 #@! TO.N,+3V3*
X187213000Y-93903800D03*
G04 #@! TO.P,P2,16*
G04 #@! TO.N,/DisplayBoard/SDA4*
X192263000Y-93903800D03*
G04 #@! TD*
D11*
G04 #@! TO.P,U11,1*
G04 #@! TO.N,+3V3*
X150997500Y-79591000D03*
G04 #@! TO.P,U11,2*
G04 #@! TO.N,Net-(C12-Pad1)*
X150997500Y-79083000D03*
G04 #@! TO.P,U11,3*
G04 #@! TO.N,Net-(C13-Pad2)*
X150997500Y-78575000D03*
G04 #@! TO.P,U11,4*
G04 #@! TO.N,GND*
X150997500Y-78067000D03*
G04 #@! TO.P,U11,5*
G04 #@! TO.N,+3V3*
X150997500Y-77559000D03*
G04 #@! TO.P,U11,6*
G04 #@! TO.N,Net-(U11-Pad6)*
X146552500Y-77559000D03*
G04 #@! TO.P,U11,7*
G04 #@! TO.N,GND*
X146552500Y-78067000D03*
G04 #@! TO.P,U11,8*
G04 #@! TO.N,Net-(LS1-Pad1)*
X146552500Y-78575000D03*
G04 #@! TO.P,U11,9*
G04 #@! TO.N,Net-(LS1-Pad2)*
X146552500Y-79083000D03*
G04 #@! TO.P,U11,10*
G04 #@! TO.N,+3V3*
X146552500Y-79591000D03*
G04 #@! TD*
D12*
G04 #@! TO.P,LS1,1*
G04 #@! TO.N,Net-(LS1-Pad1)*
X121375000Y-63750000D03*
G04 #@! TO.P,LS1,2*
G04 #@! TO.N,Net-(LS1-Pad2)*
X121375000Y-78750000D03*
G04 #@! TD*
D13*
G04 #@! TO.P,C12,2*
G04 #@! TO.N,Net-(C12-Pad2)*
X154300000Y-79075000D03*
G04 #@! TO.P,C12,1*
G04 #@! TO.N,Net-(C12-Pad1)*
X153200000Y-79075000D03*
G04 #@! TD*
D14*
G04 #@! TO.P,C13,1*
G04 #@! TO.N,GND*
X152750000Y-76600000D03*
G04 #@! TO.P,C13,2*
G04 #@! TO.N,Net-(C13-Pad2)*
X152750000Y-77700000D03*
G04 #@! TD*
D13*
G04 #@! TO.P,C21,2*
G04 #@! TO.N,+3V3*
X146550000Y-80700000D03*
G04 #@! TO.P,C21,1*
G04 #@! TO.N,GND*
X147650000Y-80700000D03*
G04 #@! TD*
D14*
G04 #@! TO.P,C29,1*
G04 #@! TO.N,GND*
X148430000Y-96400000D03*
G04 #@! TO.P,C29,2*
G04 #@! TO.N,+3V3*
X148430000Y-97500000D03*
G04 #@! TD*
G04 #@! TO.P,C30,2*
G04 #@! TO.N,+3V3*
X147530000Y-97500000D03*
G04 #@! TO.P,C30,1*
G04 #@! TO.N,GND*
X147530000Y-96400000D03*
G04 #@! TD*
G04 #@! TO.P,C31,1*
G04 #@! TO.N,GND*
X149330000Y-96400000D03*
G04 #@! TO.P,C31,2*
G04 #@! TO.N,+3V3*
X149330000Y-97500000D03*
G04 #@! TD*
D15*
G04 #@! TO.P,JP1,1*
G04 #@! TO.N,GND*
X159950000Y-99075000D03*
D16*
G04 #@! TD*
G04 #@! TO.N,GND*
G04 #@! TO.C,JP1*
G36*
X160700000Y-98525000D02*
X160700000Y-99075000D01*
X160699398Y-99075000D01*
X160699398Y-99099534D01*
X160694588Y-99148365D01*
X160685016Y-99196490D01*
X160670772Y-99243445D01*
X160651995Y-99288778D01*
X160628864Y-99332051D01*
X160601604Y-99372850D01*
X160570476Y-99410779D01*
X160535779Y-99445476D01*
X160497850Y-99476604D01*
X160457051Y-99503864D01*
X160413778Y-99526995D01*
X160368445Y-99545772D01*
X160321490Y-99560016D01*
X160273365Y-99569588D01*
X160224534Y-99574398D01*
X160200000Y-99574398D01*
X160200000Y-99575000D01*
X159700000Y-99575000D01*
X159700000Y-99574398D01*
X159675466Y-99574398D01*
X159626635Y-99569588D01*
X159578510Y-99560016D01*
X159531555Y-99545772D01*
X159486222Y-99526995D01*
X159442949Y-99503864D01*
X159402150Y-99476604D01*
X159364221Y-99445476D01*
X159329524Y-99410779D01*
X159298396Y-99372850D01*
X159271136Y-99332051D01*
X159248005Y-99288778D01*
X159229228Y-99243445D01*
X159214984Y-99196490D01*
X159205412Y-99148365D01*
X159200602Y-99099534D01*
X159200602Y-99075000D01*
X159200000Y-99075000D01*
X159200000Y-98525000D01*
X160700000Y-98525000D01*
X160700000Y-98525000D01*
G37*
D15*
G04 #@! TO.P,JP1,3*
G04 #@! TO.N,+3V3*
X159950000Y-96475000D03*
D16*
G04 #@! TD*
G04 #@! TO.N,+3V3*
G04 #@! TO.C,JP1*
G36*
X159200602Y-96475000D02*
X159200602Y-96450466D01*
X159205412Y-96401635D01*
X159214984Y-96353510D01*
X159229228Y-96306555D01*
X159248005Y-96261222D01*
X159271136Y-96217949D01*
X159298396Y-96177150D01*
X159329524Y-96139221D01*
X159364221Y-96104524D01*
X159402150Y-96073396D01*
X159442949Y-96046136D01*
X159486222Y-96023005D01*
X159531555Y-96004228D01*
X159578510Y-95989984D01*
X159626635Y-95980412D01*
X159675466Y-95975602D01*
X159700000Y-95975602D01*
X159700000Y-95975000D01*
X160200000Y-95975000D01*
X160200000Y-95975602D01*
X160224534Y-95975602D01*
X160273365Y-95980412D01*
X160321490Y-95989984D01*
X160368445Y-96004228D01*
X160413778Y-96023005D01*
X160457051Y-96046136D01*
X160497850Y-96073396D01*
X160535779Y-96104524D01*
X160570476Y-96139221D01*
X160601604Y-96177150D01*
X160628864Y-96217949D01*
X160651995Y-96261222D01*
X160670772Y-96306555D01*
X160685016Y-96353510D01*
X160694588Y-96401635D01*
X160699398Y-96450466D01*
X160699398Y-96475000D01*
X160700000Y-96475000D01*
X160700000Y-97025000D01*
X159200000Y-97025000D01*
X159200000Y-96475000D01*
X159200602Y-96475000D01*
X159200602Y-96475000D01*
G37*
D17*
G04 #@! TO.P,JP1,2*
G04 #@! TO.N,Net-(JP1-Pad2)*
X159950000Y-97775000D03*
G04 #@! TD*
D16*
G04 #@! TO.N,NRST*
G04 #@! TO.C,R105*
G36*
X139374505Y-73926204D02*
X139398773Y-73929804D01*
X139422572Y-73935765D01*
X139445671Y-73944030D01*
X139467850Y-73954520D01*
X139488893Y-73967132D01*
X139508599Y-73981747D01*
X139526777Y-73998223D01*
X139543253Y-74016401D01*
X139557868Y-74036107D01*
X139570480Y-74057150D01*
X139580970Y-74079329D01*
X139589235Y-74102428D01*
X139595196Y-74126227D01*
X139598796Y-74150495D01*
X139600000Y-74174999D01*
X139600000Y-75075001D01*
X139598796Y-75099505D01*
X139595196Y-75123773D01*
X139589235Y-75147572D01*
X139580970Y-75170671D01*
X139570480Y-75192850D01*
X139557868Y-75213893D01*
X139543253Y-75233599D01*
X139526777Y-75251777D01*
X139508599Y-75268253D01*
X139488893Y-75282868D01*
X139467850Y-75295480D01*
X139445671Y-75305970D01*
X139422572Y-75314235D01*
X139398773Y-75320196D01*
X139374505Y-75323796D01*
X139350001Y-75325000D01*
X138699999Y-75325000D01*
X138675495Y-75323796D01*
X138651227Y-75320196D01*
X138627428Y-75314235D01*
X138604329Y-75305970D01*
X138582150Y-75295480D01*
X138561107Y-75282868D01*
X138541401Y-75268253D01*
X138523223Y-75251777D01*
X138506747Y-75233599D01*
X138492132Y-75213893D01*
X138479520Y-75192850D01*
X138469030Y-75170671D01*
X138460765Y-75147572D01*
X138454804Y-75123773D01*
X138451204Y-75099505D01*
X138450000Y-75075001D01*
X138450000Y-74174999D01*
X138451204Y-74150495D01*
X138454804Y-74126227D01*
X138460765Y-74102428D01*
X138469030Y-74079329D01*
X138479520Y-74057150D01*
X138492132Y-74036107D01*
X138506747Y-74016401D01*
X138523223Y-73998223D01*
X138541401Y-73981747D01*
X138561107Y-73967132D01*
X138582150Y-73954520D01*
X138604329Y-73944030D01*
X138627428Y-73935765D01*
X138651227Y-73929804D01*
X138675495Y-73926204D01*
X138699999Y-73925000D01*
X139350001Y-73925000D01*
X139374505Y-73926204D01*
X139374505Y-73926204D01*
G37*
D18*
G04 #@! TD*
G04 #@! TO.P,R105,2*
G04 #@! TO.N,NRST*
X139025000Y-74625000D03*
D16*
G04 #@! TO.N,+3V3*
G04 #@! TO.C,R105*
G36*
X141424505Y-73926204D02*
X141448773Y-73929804D01*
X141472572Y-73935765D01*
X141495671Y-73944030D01*
X141517850Y-73954520D01*
X141538893Y-73967132D01*
X141558599Y-73981747D01*
X141576777Y-73998223D01*
X141593253Y-74016401D01*
X141607868Y-74036107D01*
X141620480Y-74057150D01*
X141630970Y-74079329D01*
X141639235Y-74102428D01*
X141645196Y-74126227D01*
X141648796Y-74150495D01*
X141650000Y-74174999D01*
X141650000Y-75075001D01*
X141648796Y-75099505D01*
X141645196Y-75123773D01*
X141639235Y-75147572D01*
X141630970Y-75170671D01*
X141620480Y-75192850D01*
X141607868Y-75213893D01*
X141593253Y-75233599D01*
X141576777Y-75251777D01*
X141558599Y-75268253D01*
X141538893Y-75282868D01*
X141517850Y-75295480D01*
X141495671Y-75305970D01*
X141472572Y-75314235D01*
X141448773Y-75320196D01*
X141424505Y-75323796D01*
X141400001Y-75325000D01*
X140749999Y-75325000D01*
X140725495Y-75323796D01*
X140701227Y-75320196D01*
X140677428Y-75314235D01*
X140654329Y-75305970D01*
X140632150Y-75295480D01*
X140611107Y-75282868D01*
X140591401Y-75268253D01*
X140573223Y-75251777D01*
X140556747Y-75233599D01*
X140542132Y-75213893D01*
X140529520Y-75192850D01*
X140519030Y-75170671D01*
X140510765Y-75147572D01*
X140504804Y-75123773D01*
X140501204Y-75099505D01*
X140500000Y-75075001D01*
X140500000Y-74174999D01*
X140501204Y-74150495D01*
X140504804Y-74126227D01*
X140510765Y-74102428D01*
X140519030Y-74079329D01*
X140529520Y-74057150D01*
X140542132Y-74036107D01*
X140556747Y-74016401D01*
X140573223Y-73998223D01*
X140591401Y-73981747D01*
X140611107Y-73967132D01*
X140632150Y-73954520D01*
X140654329Y-73944030D01*
X140677428Y-73935765D01*
X140701227Y-73929804D01*
X140725495Y-73926204D01*
X140749999Y-73925000D01*
X141400001Y-73925000D01*
X141424505Y-73926204D01*
X141424505Y-73926204D01*
G37*
D18*
G04 #@! TD*
G04 #@! TO.P,R105,1*
G04 #@! TO.N,+3V3*
X141075000Y-74625000D03*
D19*
G04 #@! TO.N,GND*
X148150000Y-70125000D03*
G04 #@! TO.N,+3V3*
X188214000Y-93903800D03*
X186182000Y-93903800D03*
X148430000Y-97500000D03*
X146550000Y-80700000D03*
X149050000Y-86225000D03*
X149275000Y-88475000D03*
X149275000Y-92870000D03*
X141810000Y-96350000D03*
X146304000Y-99568000D03*
X187213000Y-93903800D03*
X142494000Y-93472000D03*
X142748000Y-70612000D03*
X148844000Y-76962000D03*
X153416000Y-73660000D03*
X153416000Y-68326000D03*
G04 #@! TO.N,/DisplayBoard/SDA1*
X170403209Y-88278514D03*
X179375000Y-93078799D03*
G04 #@! TO.N,/DisplayBoard/SCL1*
X172200000Y-89050000D03*
X177425000Y-92175000D03*
G04 #@! TO.N,/DisplayBoard/SDA2*
X164950000Y-79200000D03*
X173550000Y-77838799D03*
G04 #@! TO.N,/DisplayBoard/SCL2*
X163550000Y-79200000D03*
X177225000Y-76948801D03*
G04 #@! TO.N,/DisplayBoard/SDA3*
X155375000Y-83475000D03*
X174150000Y-82900000D03*
G04 #@! TO.N,/DisplayBoard/SCL3*
X154552806Y-84200000D03*
X178050000Y-82025000D03*
G04 #@! TO.N,/DisplayBoard/SDA4*
X171300000Y-96000000D03*
X156800000Y-90726115D03*
G04 #@! TO.N,GND*
X138938000Y-70104000D03*
X157110000Y-86850000D03*
X183490000Y-121630000D03*
X183480000Y-122940000D03*
X182186178Y-121640000D03*
X182181586Y-122930000D03*
X179716382Y-108882704D03*
X181853882Y-129307704D03*
X182278882Y-132082704D03*
X182910000Y-135400000D03*
X184830000Y-120290000D03*
X180830000Y-120270000D03*
X180820000Y-124290000D03*
X162490000Y-84050000D03*
X162530000Y-80510000D03*
X149720000Y-81810000D03*
X162122460Y-70974740D03*
X162480000Y-74640000D03*
X157030000Y-99980000D03*
X159950000Y-99075000D03*
X168910000Y-91694000D03*
X169825000Y-93475000D03*
X169672000Y-96012000D03*
X157734000Y-94996000D03*
X155448000Y-90678000D03*
X159258000Y-91225000D03*
X159004000Y-67564000D03*
X155702000Y-68326000D03*
X127508000Y-130810000D03*
X156972000Y-104140000D03*
X167894000Y-76708000D03*
X172720000Y-79756000D03*
X153425000Y-75605000D03*
X145250000Y-99550000D03*
X146558000Y-82296000D03*
X152400000Y-70612000D03*
X151700000Y-75400000D03*
X152575000Y-96450000D03*
X153950000Y-96450000D03*
X152575000Y-98575000D03*
X153950000Y-98575000D03*
X149850000Y-70125000D03*
X148150000Y-71675000D03*
X149850000Y-71675000D03*
X146400000Y-70075000D03*
X146400000Y-71650000D03*
X145000000Y-71650000D03*
X145000000Y-70050000D03*
X168925000Y-90700000D03*
X169850000Y-91675000D03*
X173240000Y-70475000D03*
X179175000Y-96127250D03*
X146175000Y-66725000D03*
X149681250Y-128050000D03*
X117675000Y-98627250D03*
X187213000Y-76123800D03*
G04 #@! TO.N,/DisplayBoard/SCL4*
X173250000Y-94453811D03*
X157525000Y-89950000D03*
G04 #@! TO.N,NRST*
X139025000Y-74625000D03*
X155070000Y-108194000D03*
X161750000Y-91125010D03*
G04 #@! TO.N,Net-(C12-Pad2)*
X154300000Y-79075000D03*
G04 #@! TO.N,/MainBoard/SPI1_SCK*
X155525000Y-79075000D03*
X142920000Y-99710000D03*
G04 #@! TO.N,/MainBoard/IO3*
X154550000Y-73200000D03*
X154505000Y-61675000D03*
G04 #@! TO.N,/MainBoard/IO2*
X163392460Y-70974740D03*
X157477347Y-74575000D03*
G04 #@! TO.N,/MainBoard/IO1*
X157358826Y-75718826D03*
X163392460Y-64975260D03*
X163395000Y-61675000D03*
G04 #@! TO.N,/MainBoard/OE*
X171125000Y-81175000D03*
G04 #@! TO.N,/MainBoard/RESET*
X172575000Y-86925000D03*
G04 #@! TO.N,/MainBoard/RST*
X172175000Y-87950000D03*
G04 #@! TO.N,/DisplayBoard/DATA_IN*
X170675000Y-79725000D03*
G04 #@! TO.N,/MainBoard/CLOCK*
X172425000Y-85475000D03*
G04 #@! TO.N,/DisplayBoard/LATCH*
X172425000Y-83725000D03*
G04 #@! TO.N,/MainBoard/SPI1_CS3*
X143660000Y-97380000D03*
X146700010Y-94369990D03*
G04 #@! TO.N,/MainBoard/SPI1_MISO*
X165525000Y-88249997D03*
X145370000Y-95094990D03*
G04 #@! TO.N,/MainBoard/SPI1_MOSI*
X145940000Y-97160000D03*
X165525000Y-89250000D03*
G04 #@! TO.N,/MainBoard/TDO*
X160150000Y-104200000D03*
X160150000Y-108194000D03*
G04 #@! TO.N,AUX_1*
X164300000Y-96224360D03*
G04 #@! TO.N,AUX_2*
X164300000Y-97224363D03*
G04 #@! TO.N,AUX_3*
X164300000Y-98224366D03*
G04 #@! TO.N,Net-(JP1-Pad2)*
X156525000Y-97775000D03*
G04 #@! TO.N,ESP_RX*
X164075000Y-95250000D03*
X163400000Y-101500000D03*
G04 #@! TO.N,ESP_TX*
X162550000Y-102275000D03*
X163381890Y-94529166D03*
G04 #@! TO.N,Net-(P9-Pad2)*
X160650000Y-74320000D03*
X160650000Y-80490000D03*
G04 #@! TO.N,Net-(P9-Pad3)*
X159580000Y-74320000D03*
X159580000Y-79780000D03*
G04 #@! TO.N,BUTTON1*
X163500000Y-91290000D03*
X179175000Y-97377250D03*
G04 #@! TO.N,BUTTON2*
X148431250Y-128050000D03*
X148431250Y-108849990D03*
G04 #@! TO.N,BUTTON3*
X147425000Y-66725000D03*
X156230000Y-81230001D03*
G04 #@! TO.N,BUTTON4*
X151050000Y-92080000D03*
X117675000Y-97377250D03*
G04 #@! TO.N,AUX_1*
X173100000Y-132175000D03*
G04 #@! TO.N,AUX_2*
X171850000Y-132175000D03*
G04 #@! TO.N,AUX_3*
X170600000Y-132175000D03*
G04 #@! TD*
D20*
G04 #@! TO.N,+3V3*
X146550000Y-79593500D02*
X146552500Y-79591000D01*
X146550000Y-80700000D02*
X146550000Y-79593500D01*
X147530000Y-97500000D02*
X148430000Y-97500000D01*
X148430000Y-97500000D02*
X149330000Y-97500000D01*
X146550000Y-81200000D02*
X146800000Y-81450000D01*
X146550000Y-80700000D02*
X146550000Y-81200000D01*
X148900000Y-81450000D02*
X149380000Y-80970000D01*
X149380000Y-80970000D02*
X149380000Y-80160000D01*
X149949000Y-79591000D02*
X150997500Y-79591000D01*
X149380000Y-80160000D02*
X149949000Y-79591000D01*
X150997500Y-75927500D02*
X150997500Y-77559000D01*
X149050000Y-88250000D02*
X149275000Y-88475000D01*
X149050000Y-86225000D02*
X149050000Y-88250000D01*
X149275000Y-92870000D02*
X151478000Y-92870000D01*
X151478000Y-92870000D02*
X152146000Y-92202000D01*
X152146000Y-92202000D02*
X152146000Y-89154000D01*
X151467000Y-88475000D02*
X149275000Y-88475000D01*
X152146000Y-89154000D02*
X151467000Y-88475000D01*
X148709315Y-92870000D02*
X149275000Y-92870000D01*
X144588395Y-92870000D02*
X148709315Y-92870000D01*
X141810000Y-96350000D02*
X141810000Y-95648395D01*
X141810000Y-96350000D02*
X141810000Y-99673002D01*
X141810000Y-99673002D02*
X142571999Y-100435001D01*
X148430000Y-99728000D02*
X148430000Y-97500000D01*
X147722999Y-100435001D02*
X148430000Y-99728000D01*
D21*
X145288000Y-100435001D02*
X145944999Y-100435001D01*
D20*
X145288000Y-100435001D02*
X147722999Y-100435001D01*
D21*
X145436999Y-100435001D02*
X144780000Y-100435001D01*
X146304000Y-99568000D02*
X145436999Y-100435001D01*
D20*
X142571999Y-100435001D02*
X144780000Y-100435001D01*
X144780000Y-100435001D02*
X145288000Y-100435001D01*
X147828000Y-83614000D02*
X149050000Y-84836000D01*
X149050000Y-84836000D02*
X149050000Y-86225000D01*
X147828000Y-81704000D02*
X148082000Y-81450000D01*
X147828000Y-81788000D02*
X147828000Y-81704000D01*
X148082000Y-81450000D02*
X148900000Y-81450000D01*
X147828000Y-81450000D02*
X148082000Y-81450000D01*
X147828000Y-81788000D02*
X147828000Y-83614000D01*
X147828000Y-81450000D02*
X147828000Y-81788000D01*
X147828000Y-81704000D02*
X147574000Y-81450000D01*
X146800000Y-81450000D02*
X147574000Y-81450000D01*
X147574000Y-81450000D02*
X147828000Y-81450000D01*
X143256000Y-94202395D02*
X143224395Y-94202395D01*
X143002000Y-93980000D02*
X143478395Y-93980000D01*
X143478395Y-93980000D02*
X144588395Y-92870000D01*
X143256000Y-94202395D02*
X143478395Y-93980000D01*
X143002000Y-93980000D02*
X142494000Y-93472000D01*
X143224395Y-94202395D02*
X143002000Y-93980000D01*
X143002000Y-93980000D02*
X143002000Y-94456395D01*
X141810000Y-95648395D02*
X143002000Y-94456395D01*
X143002000Y-94456395D02*
X143256000Y-94202395D01*
D22*
X141075000Y-74625000D02*
X141075000Y-72285000D01*
X141075000Y-72285000D02*
X142748000Y-70612000D01*
X148448120Y-74625000D02*
X149233120Y-75410000D01*
X141075000Y-74625000D02*
X148448120Y-74625000D01*
X150480000Y-75410000D02*
X150997500Y-75927500D01*
X149233120Y-75410000D02*
X150480000Y-75410000D01*
X150997500Y-75927500D02*
X150997500Y-77482379D01*
X149233120Y-75410000D02*
X149233120Y-76572880D01*
X149233120Y-76572880D02*
X148844000Y-76962000D01*
X153416000Y-73660000D02*
X153416000Y-68326000D01*
D20*
X159102408Y-96475000D02*
X159950000Y-96475000D01*
X159092407Y-96464999D02*
X159102408Y-96475000D01*
X159082406Y-96475000D02*
X159092407Y-96464999D01*
X156225000Y-96475000D02*
X159082406Y-96475000D01*
X155200000Y-97500000D02*
X156225000Y-96475000D01*
X149330000Y-97500000D02*
X155200000Y-97500000D01*
G04 #@! TO.N,/DisplayBoard/SDA1*
X191188000Y-88823800D02*
X190362999Y-89648801D01*
X192263000Y-88823800D02*
X191188000Y-88823800D01*
X190362999Y-89648801D02*
X190362999Y-92123801D01*
X190362999Y-92123801D02*
X189408001Y-93078799D01*
X170403209Y-88278514D02*
X175203494Y-93078799D01*
X189408001Y-93078799D02*
X184450000Y-93078799D01*
X184450000Y-93078799D02*
X184096201Y-93078799D01*
X175203494Y-93078799D02*
X179375000Y-93078799D01*
X179375000Y-93078799D02*
X184450000Y-93078799D01*
G04 #@! TO.N,/DisplayBoard/SCL1*
X190438000Y-86283800D02*
X189675000Y-87046800D01*
X192263000Y-86283800D02*
X190438000Y-86283800D01*
X189675000Y-87046800D02*
X189675000Y-89021802D01*
X189675000Y-89021802D02*
X189675000Y-91200000D01*
X189048001Y-92188801D02*
X185313801Y-92188801D01*
X189675000Y-91200000D02*
X189675000Y-91561802D01*
X189675000Y-91561802D02*
X189048001Y-92188801D01*
X185313801Y-92188801D02*
X175338801Y-92188801D01*
X175338801Y-92188801D02*
X172200000Y-89050000D01*
G04 #@! TO.N,/DisplayBoard/SDA2*
X171261201Y-77838799D02*
X169900000Y-79200000D01*
X169900000Y-79200000D02*
X164950000Y-79200000D01*
X173550000Y-77838799D02*
X171261201Y-77838799D01*
X190438000Y-78663800D02*
X192263000Y-78663800D01*
X189612999Y-77838799D02*
X190438000Y-78663800D01*
X173550000Y-77838799D02*
X189612999Y-77838799D01*
G04 #@! TO.N,/DisplayBoard/SCL2*
X189612999Y-76948801D02*
X184923801Y-76948801D01*
X192263000Y-76123800D02*
X190438000Y-76123800D01*
X190438000Y-76123800D02*
X189612999Y-76948801D01*
X170053973Y-78409617D02*
X170575000Y-77888590D01*
X164340383Y-78409617D02*
X170053973Y-78409617D01*
X163550000Y-79200000D02*
X164340383Y-78409617D01*
X171514789Y-76948801D02*
X170575000Y-77888590D01*
X184923801Y-76948801D02*
X177225000Y-76948801D01*
X177225000Y-76948801D02*
X171514789Y-76948801D01*
G04 #@! TO.N,/DisplayBoard/SDA3*
X189612999Y-82918799D02*
X184531201Y-82918799D01*
X192263000Y-83743800D02*
X190438000Y-83743800D01*
X190438000Y-83743800D02*
X189612999Y-82918799D01*
X184531201Y-82918799D02*
X155931201Y-82918799D01*
X155931201Y-82918799D02*
X155375000Y-83475000D01*
G04 #@! TO.N,/DisplayBoard/SCL3*
X190438000Y-81203800D02*
X189612999Y-82028801D01*
X192263000Y-81203800D02*
X190438000Y-81203800D01*
X154552806Y-83224192D02*
X155751998Y-82025000D01*
X154552806Y-84200000D02*
X154552806Y-83224192D01*
X184346199Y-82025000D02*
X184350000Y-82028801D01*
X189612999Y-82028801D02*
X184350000Y-82028801D01*
X184350000Y-82028801D02*
X184103801Y-82028801D01*
X155751998Y-82025000D02*
X178050000Y-82025000D01*
X178050000Y-82025000D02*
X184346199Y-82025000D01*
G04 #@! TO.N,/DisplayBoard/SDA4*
X191737989Y-95178811D02*
X189234401Y-95178811D01*
X192263000Y-93903800D02*
X192263000Y-94653800D01*
X192263000Y-94653800D02*
X191737989Y-95178811D01*
X171300000Y-95434315D02*
X171300000Y-95178811D01*
X171300000Y-96000000D02*
X171300000Y-95434315D01*
X171300000Y-95428811D02*
X171550000Y-95178811D01*
X171300000Y-95434315D02*
X171300000Y-95428811D01*
X189234401Y-95178811D02*
X171550000Y-95178811D01*
X171550000Y-95178811D02*
X171300000Y-95178811D01*
X171280504Y-95434315D02*
X171025000Y-95178811D01*
X171300000Y-95434315D02*
X171280504Y-95434315D01*
X171300000Y-95178811D02*
X171025000Y-95178811D01*
X169203811Y-95178811D02*
X164750010Y-90725010D01*
X170025000Y-95178811D02*
X169203811Y-95178811D01*
X171025000Y-95178811D02*
X170025000Y-95178811D01*
X157365685Y-90726115D02*
X157366790Y-90725010D01*
X164750010Y-90725010D02*
X164425010Y-90400010D01*
X157365685Y-90726115D02*
X156800000Y-90726115D01*
X157821887Y-90726115D02*
X157365685Y-90726115D01*
X158147992Y-90400010D02*
X157821887Y-90726115D01*
X164425010Y-90400010D02*
X158147992Y-90400010D01*
G04 #@! TO.N,GND*
X146552500Y-78067000D02*
X147973000Y-78067000D01*
X147973000Y-78067000D02*
X148490000Y-78584000D01*
X148490000Y-78584000D02*
X148490000Y-80480000D01*
X148270000Y-80700000D02*
X147650000Y-80700000D01*
X148490000Y-80480000D02*
X148270000Y-80700000D01*
X147973000Y-78067000D02*
X149490000Y-78067000D01*
X149007000Y-78067000D02*
X149490000Y-78067000D01*
X149490000Y-78067000D02*
X150997500Y-78067000D01*
X146552500Y-78067000D02*
X144447000Y-78067000D01*
X144447000Y-78067000D02*
X144210000Y-77830000D01*
X152250000Y-76600000D02*
X152750000Y-76600000D01*
X152020000Y-76830000D02*
X152250000Y-76600000D01*
X152020000Y-77794880D02*
X152020000Y-76830000D01*
X151747880Y-78067000D02*
X152020000Y-77794880D01*
X150997500Y-78067000D02*
X151747880Y-78067000D01*
D22*
X190500000Y-107442000D02*
X190500000Y-105410000D01*
X147530000Y-96400000D02*
X148430000Y-96400000D01*
X149330000Y-96400000D02*
X148430000Y-96400000D01*
D20*
G04 #@! TO.N,/DisplayBoard/SCL4*
X192263000Y-92113800D02*
X191726800Y-92650000D01*
X192263000Y-91363800D02*
X192263000Y-92113800D01*
X190473210Y-92650000D02*
X189650000Y-93473210D01*
X191726800Y-92650000D02*
X190473210Y-92650000D01*
X189048001Y-94728801D02*
X179028801Y-94728801D01*
X189594402Y-94182400D02*
X189048001Y-94728801D01*
X189650000Y-93473210D02*
X189594402Y-93528808D01*
X189594402Y-93528808D02*
X189594402Y-94182400D01*
X173524990Y-94728801D02*
X173675000Y-94728801D01*
X173250000Y-94453811D02*
X173524990Y-94728801D01*
X179028801Y-94728801D02*
X173675000Y-94728801D01*
X172975010Y-94728801D02*
X172850000Y-94728801D01*
X173250000Y-94453811D02*
X172975010Y-94728801D01*
X173675000Y-94728801D02*
X172850000Y-94728801D01*
X169475000Y-94728801D02*
X172850000Y-94728801D01*
X165300000Y-90553801D02*
X169475000Y-94728801D01*
X165300000Y-90550000D02*
X165300000Y-90553801D01*
X164700000Y-89950000D02*
X165300000Y-90550000D01*
X157525000Y-89950000D02*
X164700000Y-89950000D01*
G04 #@! TO.N,NRST*
X161724999Y-100725001D02*
X161050000Y-101400000D01*
X161719999Y-92235000D02*
X161724999Y-92240000D01*
X161719999Y-91669999D02*
X161719999Y-92235000D01*
X161724999Y-91850009D02*
X161724999Y-92240000D01*
X161724999Y-92240000D02*
X161724999Y-100725001D01*
X155070000Y-108194000D02*
X155070000Y-104380000D01*
X158050000Y-101400000D02*
X160175000Y-101400000D01*
X155070000Y-104380000D02*
X158050000Y-101400000D01*
X161050000Y-101400000D02*
X160175000Y-101400000D01*
X160175000Y-101400000D02*
X160000000Y-101400000D01*
X161719999Y-91669999D02*
X161719999Y-91155011D01*
X161719999Y-91155011D02*
X161750000Y-91125010D01*
G04 #@! TO.N,/MainBoard/SPI1_SCK*
X153325000Y-92159315D02*
X153325000Y-81848002D01*
X154125000Y-81040685D02*
X154125000Y-81048002D01*
X155525000Y-79640685D02*
X154125000Y-81040685D01*
X155525000Y-79075000D02*
X155525000Y-79640685D01*
X153325000Y-81848002D02*
X154125000Y-81048002D01*
X154125000Y-81048002D02*
X154198002Y-80975000D01*
D21*
X151210000Y-93600000D02*
X151884315Y-93600000D01*
D20*
X152650000Y-92834315D02*
X153325000Y-92159315D01*
D21*
X144544301Y-93600000D02*
X151210000Y-93600000D01*
D23*
X144501876Y-93600000D02*
X144544301Y-93600000D01*
X142920000Y-95181876D02*
X144501876Y-93600000D01*
X142920000Y-99710000D02*
X142920000Y-95181876D01*
X151884315Y-93600000D02*
X152650000Y-92834315D01*
X144501876Y-93600000D02*
X151884315Y-93600000D01*
D20*
G04 #@! TO.N,/MainBoard/IO3*
X154550000Y-61720000D02*
X154505000Y-61675000D01*
X154550000Y-73200000D02*
X154550000Y-61720000D01*
G04 #@! TO.N,/MainBoard/IO2*
X157477347Y-74009315D02*
X158526662Y-72960000D01*
X157477347Y-74575000D02*
X157477347Y-74009315D01*
X162572460Y-72960000D02*
X163392460Y-72140000D01*
X158526662Y-72960000D02*
X162572460Y-72960000D01*
X163392460Y-72140000D02*
X163392460Y-70974740D01*
G04 #@! TO.N,/MainBoard/IO1*
X157358826Y-75718826D02*
X156752346Y-75112346D01*
X156752346Y-75112346D02*
X156752346Y-66997654D01*
X156752346Y-66997654D02*
X158774740Y-64975260D01*
X158774740Y-64975260D02*
X163392460Y-64975260D01*
G04 #@! TO.N,/MainBoard/OE*
X187184200Y-81175000D02*
X187213000Y-81203800D01*
X171125000Y-81175000D02*
X187184200Y-81175000D01*
G04 #@! TO.N,/MainBoard/RESET*
X174473800Y-88823800D02*
X187213000Y-88823800D01*
X172575000Y-86925000D02*
X174473800Y-88823800D01*
G04 #@! TO.N,/MainBoard/RST*
X175588800Y-91363800D02*
X187213000Y-91363800D01*
X172175000Y-87950000D02*
X175588800Y-91363800D01*
G04 #@! TO.N,/DisplayBoard/DATA_IN*
X187213000Y-78663800D02*
X171736200Y-78663800D01*
X171736200Y-78663800D02*
X170675000Y-79725000D01*
G04 #@! TO.N,/MainBoard/CLOCK*
X187213000Y-86283800D02*
X173233800Y-86283800D01*
X173233800Y-86283800D02*
X172425000Y-85475000D01*
G04 #@! TO.N,/DisplayBoard/LATCH*
X187194200Y-83725000D02*
X187213000Y-83743800D01*
X172425000Y-83725000D02*
X187194200Y-83725000D01*
G04 #@! TO.N,/MainBoard/SPI1_CS3*
X143660000Y-95085356D02*
X143660000Y-97380000D01*
X146700010Y-94369990D02*
X144375366Y-94369990D01*
X144375366Y-94369990D02*
X143660000Y-95085356D01*
G04 #@! TO.N,/MainBoard/SPI1_MISO*
X164959315Y-88249997D02*
X165525000Y-88249997D01*
X155998949Y-88249997D02*
X164959315Y-88249997D01*
X153950000Y-90298946D02*
X155998949Y-88249997D01*
X153950000Y-94770000D02*
X153950000Y-90298946D01*
X153625010Y-95094990D02*
X153810000Y-94910000D01*
X145370000Y-95094990D02*
X153625010Y-95094990D01*
X153810000Y-94910000D02*
X153950000Y-94770000D01*
G04 #@! TO.N,/MainBoard/SPI1_MOSI*
X154500000Y-90385356D02*
X154517678Y-90367678D01*
X145940000Y-97160000D02*
X145940000Y-96205000D01*
X145940000Y-96205000D02*
X146600000Y-95545000D01*
X146600000Y-95545000D02*
X153811411Y-95544999D01*
X153811411Y-95544999D02*
X154500000Y-94856410D01*
D21*
X154517678Y-90367678D02*
X154500000Y-90350000D01*
D20*
X154500000Y-94856410D02*
X154500000Y-90385356D01*
X154500000Y-90385356D02*
X155617678Y-89267678D01*
X155660357Y-89224999D02*
X155617678Y-89267678D01*
X157873001Y-89224999D02*
X155660357Y-89224999D01*
X155660357Y-89224999D02*
X155472336Y-89413020D01*
D21*
X155617678Y-89267678D02*
X155472336Y-89413020D01*
X155472336Y-89413020D02*
X154500000Y-90350000D01*
D20*
X165499999Y-89224999D02*
X165525000Y-89250000D01*
X155660357Y-89224999D02*
X165499999Y-89224999D01*
G04 #@! TO.N,/MainBoard/TDO*
X160150000Y-104200000D02*
X160150000Y-108194000D01*
G04 #@! TO.N,Net-(JP1-Pad2)*
X159950000Y-97775000D02*
X157125000Y-97775000D01*
X156525000Y-97775000D02*
X157125000Y-97775000D01*
G04 #@! TO.N,Net-(C12-Pad1)*
X153192000Y-79083000D02*
X153200000Y-79075000D01*
X150997500Y-79083000D02*
X153192000Y-79083000D01*
G04 #@! TO.N,Net-(C13-Pad2)*
X152750000Y-78250000D02*
X152750000Y-77700000D01*
X152425000Y-78575000D02*
X152750000Y-78250000D01*
X150997500Y-78575000D02*
X152425000Y-78575000D01*
G04 #@! TO.N,Net-(LS1-Pad1)*
X136200000Y-78575000D02*
X121375000Y-63750000D01*
X146552500Y-78575000D02*
X136200000Y-78575000D01*
G04 #@! TO.N,Net-(LS1-Pad2)*
X121708000Y-79083000D02*
X121375000Y-78750000D01*
X146552500Y-79083000D02*
X121708000Y-79083000D01*
G04 #@! TO.N,ESP_RX*
X164075000Y-95250000D02*
X163400000Y-95925000D01*
X163400000Y-95925000D02*
X163400000Y-101500000D01*
G04 #@! TO.N,ESP_TX*
X162550000Y-95361056D02*
X162550000Y-95575000D01*
X163381890Y-94529166D02*
X162550000Y-95361056D01*
X162550000Y-95575000D02*
X162550000Y-102275000D01*
G04 #@! TO.N,Net-(P9-Pad2)*
X160650000Y-74320000D02*
X160650000Y-74885685D01*
X160650000Y-80490000D02*
X160650000Y-79990000D01*
X160650000Y-74885685D02*
X160650000Y-79990000D01*
X160650000Y-79990000D02*
X160650000Y-80290000D01*
G04 #@! TO.N,Net-(P9-Pad3)*
X159580000Y-74320000D02*
X159580000Y-79780000D01*
G04 #@! TO.N,BUTTON1*
X163899999Y-91689999D02*
X163919999Y-91689999D01*
X163500000Y-91290000D02*
X163899999Y-91689999D01*
X163919999Y-91689999D02*
X169607250Y-97377250D01*
X169607250Y-97377250D02*
X179175000Y-97377250D01*
G04 #@! TO.N,BUTTON2*
X148431250Y-128050000D02*
X148431250Y-108849990D01*
D21*
G04 #@! TO.N,BUTTON3*
X156225001Y-80499315D02*
X156225001Y-75225001D01*
X156225001Y-75225001D02*
X155680000Y-74680000D01*
X149870000Y-74680000D02*
X148460000Y-73270000D01*
X155680000Y-74680000D02*
X149870000Y-74680000D01*
X147425000Y-72235000D02*
X149870000Y-74680000D01*
X147425000Y-66725000D02*
X147425000Y-72235000D01*
X156225001Y-80499315D02*
X156225001Y-81225002D01*
X156225001Y-81225002D02*
X156230000Y-81230001D01*
D20*
G04 #@! TO.N,BUTTON4*
X151050000Y-92080000D02*
X139390000Y-92080000D01*
X139390000Y-92080000D02*
X138710000Y-92760000D01*
X138710000Y-92760000D02*
X138710000Y-96250000D01*
X138710000Y-96250000D02*
X137582750Y-97377250D01*
X137582750Y-97377250D02*
X117675000Y-97377250D01*
G04 #@! TO.N,AUX_1*
X167817950Y-96224360D02*
X164300000Y-96224360D01*
X173100000Y-132175000D02*
X173100000Y-101506410D01*
X173100000Y-101506410D02*
X167817950Y-96224360D01*
G04 #@! TO.N,AUX_2*
X164300000Y-97224363D02*
X168149363Y-97224363D01*
X168149363Y-97224363D02*
X171850000Y-100925000D01*
X171850000Y-100925000D02*
X171850000Y-132175000D01*
G04 #@! TO.N,AUX_3*
X164300000Y-98224366D02*
X168499366Y-98224366D01*
X168499366Y-98224366D02*
X170600000Y-100325000D01*
X170600000Y-100325000D02*
X170600000Y-132175000D01*
G04 #@! TD*
D22*
G04 #@! TO.N,GND*
G36*
X193775000Y-107367824D02*
X193775000Y-142650000D01*
X177369845Y-142650000D01*
X177368958Y-139439121D01*
X188931000Y-139439121D01*
X188931000Y-140214879D01*
X189227870Y-140931586D01*
X189776414Y-141480130D01*
X190493121Y-141777000D01*
X191268879Y-141777000D01*
X191985586Y-141480130D01*
X192534130Y-140931586D01*
X192831000Y-140214879D01*
X192831000Y-139439121D01*
X192534130Y-138722414D01*
X191985586Y-138173870D01*
X191268879Y-137877000D01*
X190493121Y-137877000D01*
X189776414Y-138173870D01*
X189227870Y-138722414D01*
X188931000Y-139439121D01*
X177368958Y-139439121D01*
X177361225Y-111480000D01*
X180610000Y-111480000D01*
X180610000Y-115440000D01*
X180628319Y-115533936D01*
X180681902Y-115615446D01*
X180762600Y-115670246D01*
X180858125Y-115689993D01*
X184858125Y-115719993D01*
X184956822Y-115700490D01*
X185037656Y-115645893D01*
X185091444Y-115564518D01*
X185109997Y-115468753D01*
X185089997Y-111458753D01*
X185070486Y-111363170D01*
X185015886Y-111282337D01*
X184934509Y-111228552D01*
X184838744Y-111210003D01*
X180858744Y-111230003D01*
X180764329Y-111249030D01*
X180683223Y-111303223D01*
X180629030Y-111384329D01*
X180610000Y-111480000D01*
X177361225Y-111480000D01*
X177360069Y-107301020D01*
X193775000Y-107367824D01*
X193775000Y-107367824D01*
G37*
X193775000Y-107367824D02*
X193775000Y-142650000D01*
X177369845Y-142650000D01*
X177368958Y-139439121D01*
X188931000Y-139439121D01*
X188931000Y-140214879D01*
X189227870Y-140931586D01*
X189776414Y-141480130D01*
X190493121Y-141777000D01*
X191268879Y-141777000D01*
X191985586Y-141480130D01*
X192534130Y-140931586D01*
X192831000Y-140214879D01*
X192831000Y-139439121D01*
X192534130Y-138722414D01*
X191985586Y-138173870D01*
X191268879Y-137877000D01*
X190493121Y-137877000D01*
X189776414Y-138173870D01*
X189227870Y-138722414D01*
X188931000Y-139439121D01*
X177368958Y-139439121D01*
X177361225Y-111480000D01*
X180610000Y-111480000D01*
X180610000Y-115440000D01*
X180628319Y-115533936D01*
X180681902Y-115615446D01*
X180762600Y-115670246D01*
X180858125Y-115689993D01*
X184858125Y-115719993D01*
X184956822Y-115700490D01*
X185037656Y-115645893D01*
X185091444Y-115564518D01*
X185109997Y-115468753D01*
X185089997Y-111458753D01*
X185070486Y-111363170D01*
X185015886Y-111282337D01*
X184934509Y-111228552D01*
X184838744Y-111210003D01*
X180858744Y-111230003D01*
X180764329Y-111249030D01*
X180683223Y-111303223D01*
X180629030Y-111384329D01*
X180610000Y-111480000D01*
X177361225Y-111480000D01*
X177360069Y-107301020D01*
X193775000Y-107367824D01*
G36*
X193775001Y-75164984D02*
X190688000Y-75164984D01*
X190512419Y-75199909D01*
X190363568Y-75299368D01*
X190264109Y-75448219D01*
X190238447Y-75577230D01*
X190213646Y-75582163D01*
X190023449Y-75709249D01*
X189991373Y-75757254D01*
X189374827Y-76373801D01*
X189138000Y-76373801D01*
X189138000Y-76215300D01*
X189050500Y-76127800D01*
X187217000Y-76127800D01*
X187217000Y-76147800D01*
X187209000Y-76147800D01*
X187209000Y-76127800D01*
X185375500Y-76127800D01*
X185288000Y-76215300D01*
X185288000Y-76373801D01*
X177852081Y-76373801D01*
X177706486Y-76228206D01*
X177394075Y-76098801D01*
X177055925Y-76098801D01*
X176743514Y-76228206D01*
X176597919Y-76373801D01*
X171571412Y-76373801D01*
X171514788Y-76362538D01*
X171458164Y-76373801D01*
X171458161Y-76373801D01*
X171290435Y-76407164D01*
X171253010Y-76432171D01*
X171100238Y-76534250D01*
X171068162Y-76582255D01*
X170208458Y-77441960D01*
X170208455Y-77441962D01*
X169815801Y-77834617D01*
X164397006Y-77834617D01*
X164340382Y-77823354D01*
X164283758Y-77834617D01*
X164283755Y-77834617D01*
X164142267Y-77862761D01*
X164116029Y-77867980D01*
X164025244Y-77928641D01*
X163925832Y-77995066D01*
X163893756Y-78043071D01*
X163586827Y-78350000D01*
X163380925Y-78350000D01*
X163068514Y-78479405D01*
X162829405Y-78718514D01*
X162700000Y-79030925D01*
X162700000Y-79369075D01*
X162829405Y-79681486D01*
X163068514Y-79920595D01*
X163380925Y-80050000D01*
X163719075Y-80050000D01*
X164031486Y-79920595D01*
X164250000Y-79702081D01*
X164468514Y-79920595D01*
X164780925Y-80050000D01*
X165119075Y-80050000D01*
X165431486Y-79920595D01*
X165577081Y-79775000D01*
X169825000Y-79775000D01*
X169825000Y-79894075D01*
X169954405Y-80206486D01*
X170193514Y-80445595D01*
X170505925Y-80575000D01*
X170522919Y-80575000D01*
X170404405Y-80693514D01*
X170275000Y-81005925D01*
X170275000Y-81344075D01*
X170318876Y-81450000D01*
X157058907Y-81450000D01*
X157080000Y-81399076D01*
X157080000Y-81060926D01*
X156950595Y-80748515D01*
X156775001Y-80572921D01*
X156775001Y-76337082D01*
X156877340Y-76439421D01*
X157189751Y-76568826D01*
X157527901Y-76568826D01*
X157840312Y-76439421D01*
X158079421Y-76200312D01*
X158208826Y-75887901D01*
X158208826Y-75549751D01*
X158079421Y-75237340D01*
X158048255Y-75206174D01*
X158197942Y-75056486D01*
X158327347Y-74744075D01*
X158327347Y-74405925D01*
X158200396Y-74099438D01*
X158764835Y-73535000D01*
X159254001Y-73535000D01*
X159098514Y-73599405D01*
X158859405Y-73838514D01*
X158730000Y-74150925D01*
X158730000Y-74489075D01*
X158859405Y-74801486D01*
X159005000Y-74947081D01*
X159005001Y-79152918D01*
X158859405Y-79298514D01*
X158730000Y-79610925D01*
X158730000Y-79949075D01*
X158859405Y-80261486D01*
X159098514Y-80500595D01*
X159410925Y-80630000D01*
X159749075Y-80630000D01*
X159800000Y-80608906D01*
X159800000Y-80659075D01*
X159929405Y-80971486D01*
X160168514Y-81210595D01*
X160480925Y-81340000D01*
X160819075Y-81340000D01*
X161131486Y-81210595D01*
X161370595Y-80971486D01*
X161500000Y-80659075D01*
X161500000Y-80320925D01*
X161370595Y-80008514D01*
X161225000Y-79862919D01*
X161225000Y-75554180D01*
X185288000Y-75554180D01*
X185288000Y-76032300D01*
X185375500Y-76119800D01*
X187209000Y-76119800D01*
X187209000Y-75361300D01*
X187217000Y-75361300D01*
X187217000Y-76119800D01*
X189050500Y-76119800D01*
X189138000Y-76032300D01*
X189138000Y-75554180D01*
X189084715Y-75425541D01*
X188986259Y-75327084D01*
X188857619Y-75273800D01*
X187304500Y-75273800D01*
X187217000Y-75361300D01*
X187209000Y-75361300D01*
X187121500Y-75273800D01*
X185568381Y-75273800D01*
X185439741Y-75327084D01*
X185341285Y-75425541D01*
X185288000Y-75554180D01*
X161225000Y-75554180D01*
X161225000Y-74947081D01*
X161370595Y-74801486D01*
X161500000Y-74489075D01*
X161500000Y-74150925D01*
X161370595Y-73838514D01*
X161131486Y-73599405D01*
X160975999Y-73535000D01*
X162515837Y-73535000D01*
X162572460Y-73546263D01*
X162629083Y-73535000D01*
X162629088Y-73535000D01*
X162796814Y-73501637D01*
X162987011Y-73374551D01*
X163019089Y-73326543D01*
X163759006Y-72586627D01*
X163807011Y-72554551D01*
X163934097Y-72364354D01*
X163967460Y-72196628D01*
X163967460Y-72196625D01*
X163978723Y-72140001D01*
X163967460Y-72083377D01*
X163967460Y-71601821D01*
X164113055Y-71456226D01*
X164242460Y-71143815D01*
X164242460Y-70805665D01*
X164113055Y-70493254D01*
X163873946Y-70254145D01*
X163561535Y-70124740D01*
X163223385Y-70124740D01*
X162910974Y-70254145D01*
X162671865Y-70493254D01*
X162542460Y-70805665D01*
X162542460Y-71143815D01*
X162671865Y-71456226D01*
X162817460Y-71601821D01*
X162817460Y-71901827D01*
X162334288Y-72385000D01*
X158583286Y-72385000D01*
X158526662Y-72373737D01*
X158470038Y-72385000D01*
X158470034Y-72385000D01*
X158302308Y-72418363D01*
X158205019Y-72483370D01*
X158170335Y-72506545D01*
X158112111Y-72545449D01*
X158080035Y-72593454D01*
X157327346Y-73346144D01*
X157327346Y-67235826D01*
X159012913Y-65550260D01*
X162765379Y-65550260D01*
X162910974Y-65695855D01*
X163223385Y-65825260D01*
X163561535Y-65825260D01*
X163873946Y-65695855D01*
X164113055Y-65456746D01*
X164242460Y-65144335D01*
X164242460Y-64806185D01*
X164113055Y-64493774D01*
X163873946Y-64254665D01*
X163561535Y-64125260D01*
X163223385Y-64125260D01*
X162910974Y-64254665D01*
X162765379Y-64400260D01*
X158831363Y-64400260D01*
X158774739Y-64388997D01*
X158718116Y-64400260D01*
X158718112Y-64400260D01*
X158550386Y-64433623D01*
X158360189Y-64560709D01*
X158328113Y-64608714D01*
X156385801Y-66551027D01*
X156337796Y-66583103D01*
X156305720Y-66631108D01*
X156305718Y-66631110D01*
X156210709Y-66773302D01*
X156166083Y-66997654D01*
X156177347Y-67054282D01*
X156177346Y-74399530D01*
X156107216Y-74329400D01*
X156076528Y-74283472D01*
X155894599Y-74161911D01*
X155734170Y-74130000D01*
X155734169Y-74130000D01*
X155680000Y-74119225D01*
X155625831Y-74130000D01*
X154141353Y-74130000D01*
X154204722Y-73977014D01*
X154380925Y-74050000D01*
X154719075Y-74050000D01*
X155031486Y-73920595D01*
X155270595Y-73681486D01*
X155400000Y-73369075D01*
X155400000Y-73030925D01*
X155270595Y-72718514D01*
X155125000Y-72572919D01*
X155125000Y-62257081D01*
X155225595Y-62156486D01*
X155355000Y-61844075D01*
X155355000Y-61505925D01*
X162545000Y-61505925D01*
X162545000Y-61844075D01*
X162674405Y-62156486D01*
X162913514Y-62395595D01*
X163225925Y-62525000D01*
X163564075Y-62525000D01*
X163876486Y-62395595D01*
X164115595Y-62156486D01*
X164245000Y-61844075D01*
X164245000Y-61505925D01*
X164115595Y-61193514D01*
X163876486Y-60954405D01*
X163564075Y-60825000D01*
X163225925Y-60825000D01*
X162913514Y-60954405D01*
X162674405Y-61193514D01*
X162545000Y-61505925D01*
X155355000Y-61505925D01*
X155225595Y-61193514D01*
X154986486Y-60954405D01*
X154674075Y-60825000D01*
X154335925Y-60825000D01*
X154023514Y-60954405D01*
X153784405Y-61193514D01*
X153655000Y-61505925D01*
X153655000Y-61844075D01*
X153784405Y-62156486D01*
X153975001Y-62347082D01*
X153975000Y-67682919D01*
X153897486Y-67605405D01*
X153585075Y-67476000D01*
X153246925Y-67476000D01*
X152934514Y-67605405D01*
X152695405Y-67844514D01*
X152566000Y-68156925D01*
X152566000Y-68495075D01*
X152695405Y-68807486D01*
X152716001Y-68828082D01*
X152716000Y-73157919D01*
X152695405Y-73178514D01*
X152566000Y-73490925D01*
X152566000Y-73829075D01*
X152690647Y-74130000D01*
X150097817Y-74130000D01*
X149562581Y-73594764D01*
X147975000Y-72007184D01*
X147975000Y-67377081D01*
X148145595Y-67206486D01*
X148275000Y-66894075D01*
X148275000Y-66555925D01*
X148145595Y-66243514D01*
X147906486Y-66004405D01*
X147594075Y-65875000D01*
X147255925Y-65875000D01*
X146943514Y-66004405D01*
X146704405Y-66243514D01*
X146575000Y-66555925D01*
X146575000Y-66894075D01*
X146704405Y-67206486D01*
X146875000Y-67377081D01*
X146875001Y-72180826D01*
X146864225Y-72235000D01*
X146900699Y-72418363D01*
X146906912Y-72449599D01*
X147028473Y-72631528D01*
X147074398Y-72662214D01*
X148337183Y-73925000D01*
X142059088Y-73925000D01*
X142054861Y-73903747D01*
X141901209Y-73673791D01*
X141775000Y-73589461D01*
X141775000Y-72574948D01*
X142887950Y-71462000D01*
X142917075Y-71462000D01*
X143229486Y-71332595D01*
X143468595Y-71093486D01*
X143598000Y-70781075D01*
X143598000Y-70442925D01*
X143468595Y-70130514D01*
X143229486Y-69891405D01*
X142917075Y-69762000D01*
X142578925Y-69762000D01*
X142266514Y-69891405D01*
X142027405Y-70130514D01*
X141898000Y-70442925D01*
X141898000Y-70472050D01*
X140628774Y-71741278D01*
X140570330Y-71780329D01*
X140531278Y-71838774D01*
X140415616Y-72011874D01*
X140361288Y-72285000D01*
X140375001Y-72353940D01*
X140375000Y-73589460D01*
X140248791Y-73673791D01*
X140095139Y-73903747D01*
X140050000Y-74130678D01*
X140004861Y-73903747D01*
X139851209Y-73673791D01*
X139621253Y-73520139D01*
X139350001Y-73466184D01*
X138699999Y-73466184D01*
X138428747Y-73520139D01*
X138198791Y-73673791D01*
X138045139Y-73903747D01*
X137991184Y-74174999D01*
X137991184Y-75075001D01*
X138045139Y-75346253D01*
X138198791Y-75576209D01*
X138428747Y-75729861D01*
X138699999Y-75783816D01*
X139350001Y-75783816D01*
X139621253Y-75729861D01*
X139851209Y-75576209D01*
X140004861Y-75346253D01*
X140050000Y-75119322D01*
X140095139Y-75346253D01*
X140248791Y-75576209D01*
X140478747Y-75729861D01*
X140749999Y-75783816D01*
X141400001Y-75783816D01*
X141671253Y-75729861D01*
X141901209Y-75576209D01*
X142054861Y-75346253D01*
X142059088Y-75325000D01*
X148158172Y-75325000D01*
X148386533Y-75553362D01*
X145680311Y-75550000D01*
X145584329Y-75569030D01*
X145503223Y-75623223D01*
X145449030Y-75704329D01*
X145430000Y-75800000D01*
X145430000Y-78000000D01*
X136438173Y-78000000D01*
X122722954Y-64284782D01*
X122825000Y-64038423D01*
X122825000Y-63461577D01*
X122604250Y-62928641D01*
X122196359Y-62520750D01*
X121663423Y-62300000D01*
X121086577Y-62300000D01*
X120553641Y-62520750D01*
X120145750Y-62928641D01*
X119925000Y-63461577D01*
X119925000Y-64038423D01*
X120145750Y-64571359D01*
X120553641Y-64979250D01*
X121086577Y-65200000D01*
X121663423Y-65200000D01*
X121909782Y-65097954D01*
X135319827Y-78508000D01*
X122825000Y-78508000D01*
X122825000Y-78461577D01*
X122604250Y-77928641D01*
X122196359Y-77520750D01*
X121663423Y-77300000D01*
X121086577Y-77300000D01*
X120553641Y-77520750D01*
X120145750Y-77928641D01*
X119925000Y-78461577D01*
X119925000Y-79038423D01*
X120145750Y-79571359D01*
X120553641Y-79979250D01*
X121086577Y-80200000D01*
X121663423Y-80200000D01*
X122196359Y-79979250D01*
X122517609Y-79658000D01*
X145430000Y-79658000D01*
X145430000Y-81260000D01*
X145449030Y-81355671D01*
X145503223Y-81436777D01*
X145584329Y-81490970D01*
X145680000Y-81510000D01*
X145969679Y-81510000D01*
X146065673Y-81510123D01*
X146082003Y-81534563D01*
X146101437Y-81563647D01*
X146135450Y-81614551D01*
X146183455Y-81646627D01*
X146353371Y-81816543D01*
X146385449Y-81864551D01*
X146575646Y-81991637D01*
X146743372Y-82025000D01*
X146743375Y-82025000D01*
X146799999Y-82036263D01*
X146856623Y-82025000D01*
X147253000Y-82025000D01*
X147253001Y-83557372D01*
X147241737Y-83614000D01*
X147286363Y-83838352D01*
X147381372Y-83980544D01*
X147381374Y-83980546D01*
X147413450Y-84028551D01*
X147461455Y-84060627D01*
X148475000Y-85074173D01*
X148475001Y-85597918D01*
X148329405Y-85743514D01*
X148200000Y-86055925D01*
X148200000Y-86394075D01*
X148329405Y-86706486D01*
X148475000Y-86852081D01*
X148475001Y-88185212D01*
X148425000Y-88305925D01*
X148425000Y-88644075D01*
X148554405Y-88956486D01*
X148793514Y-89195595D01*
X149105925Y-89325000D01*
X149444075Y-89325000D01*
X149756486Y-89195595D01*
X149902081Y-89050000D01*
X151228828Y-89050000D01*
X151571001Y-89392174D01*
X151571000Y-91398919D01*
X151531486Y-91359405D01*
X151219075Y-91230000D01*
X150880925Y-91230000D01*
X150568514Y-91359405D01*
X150422919Y-91505000D01*
X139446623Y-91505000D01*
X139389999Y-91493737D01*
X139333375Y-91505000D01*
X139333372Y-91505000D01*
X139169794Y-91537538D01*
X139165646Y-91538363D01*
X139035005Y-91625655D01*
X138975449Y-91665449D01*
X138943373Y-91713454D01*
X138343457Y-92313371D01*
X138295449Y-92345449D01*
X138168363Y-92535647D01*
X138135000Y-92703373D01*
X138135000Y-92703377D01*
X138123737Y-92760000D01*
X138135000Y-92816624D01*
X138135001Y-96011826D01*
X137344578Y-96802250D01*
X118302081Y-96802250D01*
X118156486Y-96656655D01*
X117844075Y-96527250D01*
X117505925Y-96527250D01*
X117193514Y-96656655D01*
X116954405Y-96895764D01*
X116825000Y-97208175D01*
X116825000Y-97546325D01*
X116954405Y-97858736D01*
X117193514Y-98097845D01*
X117505925Y-98227250D01*
X117844075Y-98227250D01*
X118156486Y-98097845D01*
X118302081Y-97952250D01*
X137526127Y-97952250D01*
X137582750Y-97963513D01*
X137639373Y-97952250D01*
X137639378Y-97952250D01*
X137807104Y-97918887D01*
X137997301Y-97791801D01*
X138029379Y-97743793D01*
X139076546Y-96696627D01*
X139124551Y-96664551D01*
X139214456Y-96530000D01*
X139251637Y-96474354D01*
X139256737Y-96448714D01*
X139285000Y-96306628D01*
X139285000Y-96306625D01*
X139296263Y-96250001D01*
X139285000Y-96193377D01*
X139285000Y-92998172D01*
X139628173Y-92655000D01*
X142245256Y-92655000D01*
X142012514Y-92751405D01*
X141773405Y-92990514D01*
X141644000Y-93302925D01*
X141644000Y-93641075D01*
X141773405Y-93953486D01*
X142012514Y-94192595D01*
X142323721Y-94321501D01*
X141443455Y-95201768D01*
X141395450Y-95233844D01*
X141268363Y-95424041D01*
X141235000Y-95591767D01*
X141235000Y-95591772D01*
X141223737Y-95648395D01*
X141235000Y-95705018D01*
X141235000Y-95722919D01*
X141089405Y-95868514D01*
X140960000Y-96180925D01*
X140960000Y-96519075D01*
X141089405Y-96831486D01*
X141235000Y-96977081D01*
X141235001Y-99616374D01*
X141223737Y-99673002D01*
X141268363Y-99897354D01*
X141268364Y-99897355D01*
X141268364Y-99897356D01*
X141281431Y-99916912D01*
X141363372Y-100039546D01*
X141363374Y-100039548D01*
X141395450Y-100087553D01*
X141443455Y-100119629D01*
X142125372Y-100801547D01*
X142157448Y-100849552D01*
X142205453Y-100881628D01*
X142205454Y-100881629D01*
X142312403Y-100953090D01*
X142347645Y-100976638D01*
X142515371Y-101010001D01*
X142515374Y-101010001D01*
X142571998Y-101021264D01*
X142628622Y-101010001D01*
X147666376Y-101010001D01*
X147722999Y-101021264D01*
X147779622Y-101010001D01*
X147779627Y-101010001D01*
X147947353Y-100976638D01*
X148137550Y-100849552D01*
X148169628Y-100801544D01*
X148796546Y-100174627D01*
X148844551Y-100142551D01*
X148883409Y-100084397D01*
X148971637Y-99952354D01*
X148990007Y-99860001D01*
X149005000Y-99784628D01*
X149005000Y-99784625D01*
X149016263Y-99728001D01*
X149005000Y-99671377D01*
X149005000Y-98243898D01*
X149080000Y-98258816D01*
X149580000Y-98258816D01*
X149755581Y-98223891D01*
X149904432Y-98124432D01*
X149937461Y-98075000D01*
X155143377Y-98075000D01*
X155200000Y-98086263D01*
X155256623Y-98075000D01*
X155256628Y-98075000D01*
X155424354Y-98041637D01*
X155614551Y-97914551D01*
X155646629Y-97866543D01*
X155675000Y-97838172D01*
X155675000Y-97944075D01*
X155804405Y-98256486D01*
X156043514Y-98495595D01*
X156355925Y-98625000D01*
X156694075Y-98625000D01*
X157006486Y-98495595D01*
X157152081Y-98350000D01*
X158756102Y-98350000D01*
X158766048Y-98400000D01*
X158741184Y-98525000D01*
X158741184Y-99075000D01*
X158743592Y-99087106D01*
X158743592Y-99124009D01*
X158752408Y-99213519D01*
X158771530Y-99309652D01*
X158797638Y-99395721D01*
X158835147Y-99486277D01*
X158877548Y-99565603D01*
X158932004Y-99647102D01*
X158989063Y-99716629D01*
X159058371Y-99785937D01*
X159127898Y-99842996D01*
X159209397Y-99897452D01*
X159288723Y-99939853D01*
X159379279Y-99977362D01*
X159465348Y-100003470D01*
X159561481Y-100022592D01*
X159650991Y-100031408D01*
X159687894Y-100031408D01*
X159700000Y-100033816D01*
X160200000Y-100033816D01*
X160212106Y-100031408D01*
X160249009Y-100031408D01*
X160338519Y-100022592D01*
X160434652Y-100003470D01*
X160520721Y-99977362D01*
X160611277Y-99939853D01*
X160690603Y-99897452D01*
X160772102Y-99842996D01*
X160841629Y-99785937D01*
X160910937Y-99716629D01*
X160967996Y-99647102D01*
X161022452Y-99565603D01*
X161064853Y-99486277D01*
X161102362Y-99395721D01*
X161128470Y-99309652D01*
X161147592Y-99213519D01*
X161150000Y-99189072D01*
X161150000Y-100486827D01*
X160811828Y-100825000D01*
X158106623Y-100825000D01*
X158049999Y-100813737D01*
X157993375Y-100825000D01*
X157993372Y-100825000D01*
X157869942Y-100849552D01*
X157825646Y-100858363D01*
X157683878Y-100953090D01*
X157635449Y-100985449D01*
X157603373Y-101033454D01*
X154703455Y-103933373D01*
X154655450Y-103965449D01*
X154623374Y-104013454D01*
X154623372Y-104013456D01*
X154611700Y-104030925D01*
X154536566Y-104143372D01*
X154528363Y-104155648D01*
X154483737Y-104380000D01*
X154495001Y-104436628D01*
X154495000Y-107566919D01*
X154349405Y-107712514D01*
X154220000Y-108024925D01*
X154220000Y-108363075D01*
X154349405Y-108675486D01*
X154588514Y-108914595D01*
X154900925Y-109044000D01*
X155239075Y-109044000D01*
X155551486Y-108914595D01*
X155790595Y-108675486D01*
X155920000Y-108363075D01*
X155920000Y-108024925D01*
X155790595Y-107712514D01*
X155645000Y-107566919D01*
X155645000Y-104618172D01*
X156232247Y-104030925D01*
X159300000Y-104030925D01*
X159300000Y-104369075D01*
X159429405Y-104681486D01*
X159575000Y-104827081D01*
X159575001Y-107566918D01*
X159429405Y-107712514D01*
X159300000Y-108024925D01*
X159300000Y-108363075D01*
X159429405Y-108675486D01*
X159668514Y-108914595D01*
X159980925Y-109044000D01*
X160319075Y-109044000D01*
X160631486Y-108914595D01*
X160870595Y-108675486D01*
X161000000Y-108363075D01*
X161000000Y-108024925D01*
X160870595Y-107712514D01*
X160725000Y-107566919D01*
X160725000Y-104827081D01*
X160870595Y-104681486D01*
X161000000Y-104369075D01*
X161000000Y-104030925D01*
X160870595Y-103718514D01*
X160631486Y-103479405D01*
X160319075Y-103350000D01*
X159980925Y-103350000D01*
X159668514Y-103479405D01*
X159429405Y-103718514D01*
X159300000Y-104030925D01*
X156232247Y-104030925D01*
X158288173Y-101975000D01*
X160993377Y-101975000D01*
X161050000Y-101986263D01*
X161106623Y-101975000D01*
X161106628Y-101975000D01*
X161274354Y-101941637D01*
X161464551Y-101814551D01*
X161496629Y-101766543D01*
X161975001Y-101288172D01*
X161975001Y-101647918D01*
X161829405Y-101793514D01*
X161700000Y-102105925D01*
X161700000Y-102444075D01*
X161829405Y-102756486D01*
X162068514Y-102995595D01*
X162380925Y-103125000D01*
X162719075Y-103125000D01*
X163031486Y-102995595D01*
X163270595Y-102756486D01*
X163400000Y-102444075D01*
X163400000Y-102350000D01*
X163569075Y-102350000D01*
X163881486Y-102220595D01*
X164120595Y-101981486D01*
X164250000Y-101669075D01*
X164250000Y-101330925D01*
X164120595Y-101018514D01*
X163975000Y-100872919D01*
X163975000Y-99009780D01*
X164130925Y-99074366D01*
X164469075Y-99074366D01*
X164781486Y-98944961D01*
X164927081Y-98799366D01*
X168261194Y-98799366D01*
X170025000Y-100563173D01*
X170025001Y-131547918D01*
X169879405Y-131693514D01*
X169750000Y-132005925D01*
X169750000Y-132344075D01*
X169879405Y-132656486D01*
X170118514Y-132895595D01*
X170430925Y-133025000D01*
X170769075Y-133025000D01*
X171081486Y-132895595D01*
X171225000Y-132752081D01*
X171368514Y-132895595D01*
X171680925Y-133025000D01*
X172019075Y-133025000D01*
X172331486Y-132895595D01*
X172475000Y-132752081D01*
X172618514Y-132895595D01*
X172930925Y-133025000D01*
X173269075Y-133025000D01*
X173581486Y-132895595D01*
X173820595Y-132656486D01*
X173950000Y-132344075D01*
X173950000Y-132005925D01*
X173820595Y-131693514D01*
X173675000Y-131547919D01*
X173675000Y-101563034D01*
X173686263Y-101506410D01*
X173675000Y-101449786D01*
X173675000Y-101449782D01*
X173641637Y-101282056D01*
X173514551Y-101091859D01*
X173466546Y-101059783D01*
X170359012Y-97952250D01*
X178547919Y-97952250D01*
X178693514Y-98097845D01*
X179005925Y-98227250D01*
X179344075Y-98227250D01*
X179656486Y-98097845D01*
X179895595Y-97858736D01*
X180025000Y-97546325D01*
X180025000Y-97208175D01*
X179895595Y-96895764D01*
X179656486Y-96656655D01*
X179344075Y-96527250D01*
X179005925Y-96527250D01*
X178693514Y-96656655D01*
X178547919Y-96802250D01*
X171584354Y-96802250D01*
X171781486Y-96720595D01*
X172020595Y-96481486D01*
X172150000Y-96169075D01*
X172150000Y-95830925D01*
X172118058Y-95753811D01*
X191681366Y-95753811D01*
X191737989Y-95765074D01*
X191794612Y-95753811D01*
X191794617Y-95753811D01*
X191962343Y-95720448D01*
X192152540Y-95593362D01*
X192184618Y-95545354D01*
X192629546Y-95100427D01*
X192677551Y-95068351D01*
X192716105Y-95010652D01*
X192781328Y-94913038D01*
X192804637Y-94878154D01*
X192807728Y-94862616D01*
X193775001Y-94862616D01*
X193775001Y-106734769D01*
X176855429Y-106550015D01*
X176759556Y-106567999D01*
X176677863Y-106621304D01*
X176622788Y-106701813D01*
X176602700Y-106800824D01*
X176720852Y-142650000D01*
X103100000Y-142650000D01*
X103100000Y-139439121D01*
X103968000Y-139439121D01*
X103968000Y-140214879D01*
X104264870Y-140931586D01*
X104813414Y-141480130D01*
X105530121Y-141777000D01*
X106305879Y-141777000D01*
X107022586Y-141480130D01*
X107571130Y-140931586D01*
X107868000Y-140214879D01*
X107868000Y-139439121D01*
X107571130Y-138722414D01*
X107022586Y-138173870D01*
X106305879Y-137877000D01*
X105530121Y-137877000D01*
X104813414Y-138173870D01*
X104264870Y-138722414D01*
X103968000Y-139439121D01*
X103100000Y-139439121D01*
X103100000Y-112350000D01*
X113610000Y-112350000D01*
X113610000Y-128350000D01*
X113629030Y-128445671D01*
X113683223Y-128526777D01*
X113764329Y-128580970D01*
X113860000Y-128600000D01*
X137850000Y-128600000D01*
X137945526Y-128581030D01*
X138026666Y-128526887D01*
X138080910Y-128445815D01*
X138100000Y-128350156D01*
X138110000Y-112350156D01*
X138090970Y-112254329D01*
X138036777Y-112173223D01*
X137955671Y-112119030D01*
X137860000Y-112100000D01*
X113860000Y-112100000D01*
X113764329Y-112119030D01*
X113683223Y-112173223D01*
X113629030Y-112254329D01*
X113610000Y-112350000D01*
X103100000Y-112350000D01*
X103100000Y-108680915D01*
X147581250Y-108680915D01*
X147581250Y-109019065D01*
X147710655Y-109331476D01*
X147856251Y-109477072D01*
X147856250Y-127422919D01*
X147710655Y-127568514D01*
X147581250Y-127880925D01*
X147581250Y-128219075D01*
X147710655Y-128531486D01*
X147949764Y-128770595D01*
X148262175Y-128900000D01*
X148600325Y-128900000D01*
X148912736Y-128770595D01*
X149151845Y-128531486D01*
X149281250Y-128219075D01*
X149281250Y-127880925D01*
X149151845Y-127568514D01*
X149006250Y-127422919D01*
X149006250Y-109477071D01*
X149151845Y-109331476D01*
X149281250Y-109019065D01*
X149281250Y-108680915D01*
X149151845Y-108368504D01*
X148912736Y-108129395D01*
X148600325Y-107999990D01*
X148262175Y-107999990D01*
X147949764Y-108129395D01*
X147710655Y-108368504D01*
X147581250Y-108680915D01*
X103100000Y-108680915D01*
X103100000Y-54476121D01*
X103968000Y-54476121D01*
X103968000Y-55251879D01*
X104264870Y-55968586D01*
X104813414Y-56517130D01*
X105530121Y-56814000D01*
X106305879Y-56814000D01*
X107022586Y-56517130D01*
X107571130Y-55968586D01*
X107868000Y-55251879D01*
X107868000Y-54476121D01*
X188994500Y-54476121D01*
X188994500Y-55251879D01*
X189291370Y-55968586D01*
X189839914Y-56517130D01*
X190556621Y-56814000D01*
X191332379Y-56814000D01*
X192049086Y-56517130D01*
X192597630Y-55968586D01*
X192894500Y-55251879D01*
X192894500Y-54476121D01*
X192597630Y-53759414D01*
X192049086Y-53210870D01*
X191332379Y-52914000D01*
X190556621Y-52914000D01*
X189839914Y-53210870D01*
X189291370Y-53759414D01*
X188994500Y-54476121D01*
X107868000Y-54476121D01*
X107571130Y-53759414D01*
X107022586Y-53210870D01*
X106305879Y-52914000D01*
X105530121Y-52914000D01*
X104813414Y-53210870D01*
X104264870Y-53759414D01*
X103968000Y-54476121D01*
X103100000Y-54476121D01*
X103100000Y-52100000D01*
X193775001Y-52100000D01*
X193775001Y-75164984D01*
X193775001Y-75164984D01*
G37*
X193775001Y-75164984D02*
X190688000Y-75164984D01*
X190512419Y-75199909D01*
X190363568Y-75299368D01*
X190264109Y-75448219D01*
X190238447Y-75577230D01*
X190213646Y-75582163D01*
X190023449Y-75709249D01*
X189991373Y-75757254D01*
X189374827Y-76373801D01*
X189138000Y-76373801D01*
X189138000Y-76215300D01*
X189050500Y-76127800D01*
X187217000Y-76127800D01*
X187217000Y-76147800D01*
X187209000Y-76147800D01*
X187209000Y-76127800D01*
X185375500Y-76127800D01*
X185288000Y-76215300D01*
X185288000Y-76373801D01*
X177852081Y-76373801D01*
X177706486Y-76228206D01*
X177394075Y-76098801D01*
X177055925Y-76098801D01*
X176743514Y-76228206D01*
X176597919Y-76373801D01*
X171571412Y-76373801D01*
X171514788Y-76362538D01*
X171458164Y-76373801D01*
X171458161Y-76373801D01*
X171290435Y-76407164D01*
X171253010Y-76432171D01*
X171100238Y-76534250D01*
X171068162Y-76582255D01*
X170208458Y-77441960D01*
X170208455Y-77441962D01*
X169815801Y-77834617D01*
X164397006Y-77834617D01*
X164340382Y-77823354D01*
X164283758Y-77834617D01*
X164283755Y-77834617D01*
X164142267Y-77862761D01*
X164116029Y-77867980D01*
X164025244Y-77928641D01*
X163925832Y-77995066D01*
X163893756Y-78043071D01*
X163586827Y-78350000D01*
X163380925Y-78350000D01*
X163068514Y-78479405D01*
X162829405Y-78718514D01*
X162700000Y-79030925D01*
X162700000Y-79369075D01*
X162829405Y-79681486D01*
X163068514Y-79920595D01*
X163380925Y-80050000D01*
X163719075Y-80050000D01*
X164031486Y-79920595D01*
X164250000Y-79702081D01*
X164468514Y-79920595D01*
X164780925Y-80050000D01*
X165119075Y-80050000D01*
X165431486Y-79920595D01*
X165577081Y-79775000D01*
X169825000Y-79775000D01*
X169825000Y-79894075D01*
X169954405Y-80206486D01*
X170193514Y-80445595D01*
X170505925Y-80575000D01*
X170522919Y-80575000D01*
X170404405Y-80693514D01*
X170275000Y-81005925D01*
X170275000Y-81344075D01*
X170318876Y-81450000D01*
X157058907Y-81450000D01*
X157080000Y-81399076D01*
X157080000Y-81060926D01*
X156950595Y-80748515D01*
X156775001Y-80572921D01*
X156775001Y-76337082D01*
X156877340Y-76439421D01*
X157189751Y-76568826D01*
X157527901Y-76568826D01*
X157840312Y-76439421D01*
X158079421Y-76200312D01*
X158208826Y-75887901D01*
X158208826Y-75549751D01*
X158079421Y-75237340D01*
X158048255Y-75206174D01*
X158197942Y-75056486D01*
X158327347Y-74744075D01*
X158327347Y-74405925D01*
X158200396Y-74099438D01*
X158764835Y-73535000D01*
X159254001Y-73535000D01*
X159098514Y-73599405D01*
X158859405Y-73838514D01*
X158730000Y-74150925D01*
X158730000Y-74489075D01*
X158859405Y-74801486D01*
X159005000Y-74947081D01*
X159005001Y-79152918D01*
X158859405Y-79298514D01*
X158730000Y-79610925D01*
X158730000Y-79949075D01*
X158859405Y-80261486D01*
X159098514Y-80500595D01*
X159410925Y-80630000D01*
X159749075Y-80630000D01*
X159800000Y-80608906D01*
X159800000Y-80659075D01*
X159929405Y-80971486D01*
X160168514Y-81210595D01*
X160480925Y-81340000D01*
X160819075Y-81340000D01*
X161131486Y-81210595D01*
X161370595Y-80971486D01*
X161500000Y-80659075D01*
X161500000Y-80320925D01*
X161370595Y-80008514D01*
X161225000Y-79862919D01*
X161225000Y-75554180D01*
X185288000Y-75554180D01*
X185288000Y-76032300D01*
X185375500Y-76119800D01*
X187209000Y-76119800D01*
X187209000Y-75361300D01*
X187217000Y-75361300D01*
X187217000Y-76119800D01*
X189050500Y-76119800D01*
X189138000Y-76032300D01*
X189138000Y-75554180D01*
X189084715Y-75425541D01*
X188986259Y-75327084D01*
X188857619Y-75273800D01*
X187304500Y-75273800D01*
X187217000Y-75361300D01*
X187209000Y-75361300D01*
X187121500Y-75273800D01*
X185568381Y-75273800D01*
X185439741Y-75327084D01*
X185341285Y-75425541D01*
X185288000Y-75554180D01*
X161225000Y-75554180D01*
X161225000Y-74947081D01*
X161370595Y-74801486D01*
X161500000Y-74489075D01*
X161500000Y-74150925D01*
X161370595Y-73838514D01*
X161131486Y-73599405D01*
X160975999Y-73535000D01*
X162515837Y-73535000D01*
X162572460Y-73546263D01*
X162629083Y-73535000D01*
X162629088Y-73535000D01*
X162796814Y-73501637D01*
X162987011Y-73374551D01*
X163019089Y-73326543D01*
X163759006Y-72586627D01*
X163807011Y-72554551D01*
X163934097Y-72364354D01*
X163967460Y-72196628D01*
X163967460Y-72196625D01*
X163978723Y-72140001D01*
X163967460Y-72083377D01*
X163967460Y-71601821D01*
X164113055Y-71456226D01*
X164242460Y-71143815D01*
X164242460Y-70805665D01*
X164113055Y-70493254D01*
X163873946Y-70254145D01*
X163561535Y-70124740D01*
X163223385Y-70124740D01*
X162910974Y-70254145D01*
X162671865Y-70493254D01*
X162542460Y-70805665D01*
X162542460Y-71143815D01*
X162671865Y-71456226D01*
X162817460Y-71601821D01*
X162817460Y-71901827D01*
X162334288Y-72385000D01*
X158583286Y-72385000D01*
X158526662Y-72373737D01*
X158470038Y-72385000D01*
X158470034Y-72385000D01*
X158302308Y-72418363D01*
X158205019Y-72483370D01*
X158170335Y-72506545D01*
X158112111Y-72545449D01*
X158080035Y-72593454D01*
X157327346Y-73346144D01*
X157327346Y-67235826D01*
X159012913Y-65550260D01*
X162765379Y-65550260D01*
X162910974Y-65695855D01*
X163223385Y-65825260D01*
X163561535Y-65825260D01*
X163873946Y-65695855D01*
X164113055Y-65456746D01*
X164242460Y-65144335D01*
X164242460Y-64806185D01*
X164113055Y-64493774D01*
X163873946Y-64254665D01*
X163561535Y-64125260D01*
X163223385Y-64125260D01*
X162910974Y-64254665D01*
X162765379Y-64400260D01*
X158831363Y-64400260D01*
X158774739Y-64388997D01*
X158718116Y-64400260D01*
X158718112Y-64400260D01*
X158550386Y-64433623D01*
X158360189Y-64560709D01*
X158328113Y-64608714D01*
X156385801Y-66551027D01*
X156337796Y-66583103D01*
X156305720Y-66631108D01*
X156305718Y-66631110D01*
X156210709Y-66773302D01*
X156166083Y-66997654D01*
X156177347Y-67054282D01*
X156177346Y-74399530D01*
X156107216Y-74329400D01*
X156076528Y-74283472D01*
X155894599Y-74161911D01*
X155734170Y-74130000D01*
X155734169Y-74130000D01*
X155680000Y-74119225D01*
X155625831Y-74130000D01*
X154141353Y-74130000D01*
X154204722Y-73977014D01*
X154380925Y-74050000D01*
X154719075Y-74050000D01*
X155031486Y-73920595D01*
X155270595Y-73681486D01*
X155400000Y-73369075D01*
X155400000Y-73030925D01*
X155270595Y-72718514D01*
X155125000Y-72572919D01*
X155125000Y-62257081D01*
X155225595Y-62156486D01*
X155355000Y-61844075D01*
X155355000Y-61505925D01*
X162545000Y-61505925D01*
X162545000Y-61844075D01*
X162674405Y-62156486D01*
X162913514Y-62395595D01*
X163225925Y-62525000D01*
X163564075Y-62525000D01*
X163876486Y-62395595D01*
X164115595Y-62156486D01*
X164245000Y-61844075D01*
X164245000Y-61505925D01*
X164115595Y-61193514D01*
X163876486Y-60954405D01*
X163564075Y-60825000D01*
X163225925Y-60825000D01*
X162913514Y-60954405D01*
X162674405Y-61193514D01*
X162545000Y-61505925D01*
X155355000Y-61505925D01*
X155225595Y-61193514D01*
X154986486Y-60954405D01*
X154674075Y-60825000D01*
X154335925Y-60825000D01*
X154023514Y-60954405D01*
X153784405Y-61193514D01*
X153655000Y-61505925D01*
X153655000Y-61844075D01*
X153784405Y-62156486D01*
X153975001Y-62347082D01*
X153975000Y-67682919D01*
X153897486Y-67605405D01*
X153585075Y-67476000D01*
X153246925Y-67476000D01*
X152934514Y-67605405D01*
X152695405Y-67844514D01*
X152566000Y-68156925D01*
X152566000Y-68495075D01*
X152695405Y-68807486D01*
X152716001Y-68828082D01*
X152716000Y-73157919D01*
X152695405Y-73178514D01*
X152566000Y-73490925D01*
X152566000Y-73829075D01*
X152690647Y-74130000D01*
X150097817Y-74130000D01*
X149562581Y-73594764D01*
X147975000Y-72007184D01*
X147975000Y-67377081D01*
X148145595Y-67206486D01*
X148275000Y-66894075D01*
X148275000Y-66555925D01*
X148145595Y-66243514D01*
X147906486Y-66004405D01*
X147594075Y-65875000D01*
X147255925Y-65875000D01*
X146943514Y-66004405D01*
X146704405Y-66243514D01*
X146575000Y-66555925D01*
X146575000Y-66894075D01*
X146704405Y-67206486D01*
X146875000Y-67377081D01*
X146875001Y-72180826D01*
X146864225Y-72235000D01*
X146900699Y-72418363D01*
X146906912Y-72449599D01*
X147028473Y-72631528D01*
X147074398Y-72662214D01*
X148337183Y-73925000D01*
X142059088Y-73925000D01*
X142054861Y-73903747D01*
X141901209Y-73673791D01*
X141775000Y-73589461D01*
X141775000Y-72574948D01*
X142887950Y-71462000D01*
X142917075Y-71462000D01*
X143229486Y-71332595D01*
X143468595Y-71093486D01*
X143598000Y-70781075D01*
X143598000Y-70442925D01*
X143468595Y-70130514D01*
X143229486Y-69891405D01*
X142917075Y-69762000D01*
X142578925Y-69762000D01*
X142266514Y-69891405D01*
X142027405Y-70130514D01*
X141898000Y-70442925D01*
X141898000Y-70472050D01*
X140628774Y-71741278D01*
X140570330Y-71780329D01*
X140531278Y-71838774D01*
X140415616Y-72011874D01*
X140361288Y-72285000D01*
X140375001Y-72353940D01*
X140375000Y-73589460D01*
X140248791Y-73673791D01*
X140095139Y-73903747D01*
X140050000Y-74130678D01*
X140004861Y-73903747D01*
X139851209Y-73673791D01*
X139621253Y-73520139D01*
X139350001Y-73466184D01*
X138699999Y-73466184D01*
X138428747Y-73520139D01*
X138198791Y-73673791D01*
X138045139Y-73903747D01*
X137991184Y-74174999D01*
X137991184Y-75075001D01*
X138045139Y-75346253D01*
X138198791Y-75576209D01*
X138428747Y-75729861D01*
X138699999Y-75783816D01*
X139350001Y-75783816D01*
X139621253Y-75729861D01*
X139851209Y-75576209D01*
X140004861Y-75346253D01*
X140050000Y-75119322D01*
X140095139Y-75346253D01*
X140248791Y-75576209D01*
X140478747Y-75729861D01*
X140749999Y-75783816D01*
X141400001Y-75783816D01*
X141671253Y-75729861D01*
X141901209Y-75576209D01*
X142054861Y-75346253D01*
X142059088Y-75325000D01*
X148158172Y-75325000D01*
X148386533Y-75553362D01*
X145680311Y-75550000D01*
X145584329Y-75569030D01*
X145503223Y-75623223D01*
X145449030Y-75704329D01*
X145430000Y-75800000D01*
X145430000Y-78000000D01*
X136438173Y-78000000D01*
X122722954Y-64284782D01*
X122825000Y-64038423D01*
X122825000Y-63461577D01*
X122604250Y-62928641D01*
X122196359Y-62520750D01*
X121663423Y-62300000D01*
X121086577Y-62300000D01*
X120553641Y-62520750D01*
X120145750Y-62928641D01*
X119925000Y-63461577D01*
X119925000Y-64038423D01*
X120145750Y-64571359D01*
X120553641Y-64979250D01*
X121086577Y-65200000D01*
X121663423Y-65200000D01*
X121909782Y-65097954D01*
X135319827Y-78508000D01*
X122825000Y-78508000D01*
X122825000Y-78461577D01*
X122604250Y-77928641D01*
X122196359Y-77520750D01*
X121663423Y-77300000D01*
X121086577Y-77300000D01*
X120553641Y-77520750D01*
X120145750Y-77928641D01*
X119925000Y-78461577D01*
X119925000Y-79038423D01*
X120145750Y-79571359D01*
X120553641Y-79979250D01*
X121086577Y-80200000D01*
X121663423Y-80200000D01*
X122196359Y-79979250D01*
X122517609Y-79658000D01*
X145430000Y-79658000D01*
X145430000Y-81260000D01*
X145449030Y-81355671D01*
X145503223Y-81436777D01*
X145584329Y-81490970D01*
X145680000Y-81510000D01*
X145969679Y-81510000D01*
X146065673Y-81510123D01*
X146082003Y-81534563D01*
X146101437Y-81563647D01*
X146135450Y-81614551D01*
X146183455Y-81646627D01*
X146353371Y-81816543D01*
X146385449Y-81864551D01*
X146575646Y-81991637D01*
X146743372Y-82025000D01*
X146743375Y-82025000D01*
X146799999Y-82036263D01*
X146856623Y-82025000D01*
X147253000Y-82025000D01*
X147253001Y-83557372D01*
X147241737Y-83614000D01*
X147286363Y-83838352D01*
X147381372Y-83980544D01*
X147381374Y-83980546D01*
X147413450Y-84028551D01*
X147461455Y-84060627D01*
X148475000Y-85074173D01*
X148475001Y-85597918D01*
X148329405Y-85743514D01*
X148200000Y-86055925D01*
X148200000Y-86394075D01*
X148329405Y-86706486D01*
X148475000Y-86852081D01*
X148475001Y-88185212D01*
X148425000Y-88305925D01*
X148425000Y-88644075D01*
X148554405Y-88956486D01*
X148793514Y-89195595D01*
X149105925Y-89325000D01*
X149444075Y-89325000D01*
X149756486Y-89195595D01*
X149902081Y-89050000D01*
X151228828Y-89050000D01*
X151571001Y-89392174D01*
X151571000Y-91398919D01*
X151531486Y-91359405D01*
X151219075Y-91230000D01*
X150880925Y-91230000D01*
X150568514Y-91359405D01*
X150422919Y-91505000D01*
X139446623Y-91505000D01*
X139389999Y-91493737D01*
X139333375Y-91505000D01*
X139333372Y-91505000D01*
X139169794Y-91537538D01*
X139165646Y-91538363D01*
X139035005Y-91625655D01*
X138975449Y-91665449D01*
X138943373Y-91713454D01*
X138343457Y-92313371D01*
X138295449Y-92345449D01*
X138168363Y-92535647D01*
X138135000Y-92703373D01*
X138135000Y-92703377D01*
X138123737Y-92760000D01*
X138135000Y-92816624D01*
X138135001Y-96011826D01*
X137344578Y-96802250D01*
X118302081Y-96802250D01*
X118156486Y-96656655D01*
X117844075Y-96527250D01*
X117505925Y-96527250D01*
X117193514Y-96656655D01*
X116954405Y-96895764D01*
X116825000Y-97208175D01*
X116825000Y-97546325D01*
X116954405Y-97858736D01*
X117193514Y-98097845D01*
X117505925Y-98227250D01*
X117844075Y-98227250D01*
X118156486Y-98097845D01*
X118302081Y-97952250D01*
X137526127Y-97952250D01*
X137582750Y-97963513D01*
X137639373Y-97952250D01*
X137639378Y-97952250D01*
X137807104Y-97918887D01*
X137997301Y-97791801D01*
X138029379Y-97743793D01*
X139076546Y-96696627D01*
X139124551Y-96664551D01*
X139214456Y-96530000D01*
X139251637Y-96474354D01*
X139256737Y-96448714D01*
X139285000Y-96306628D01*
X139285000Y-96306625D01*
X139296263Y-96250001D01*
X139285000Y-96193377D01*
X139285000Y-92998172D01*
X139628173Y-92655000D01*
X142245256Y-92655000D01*
X142012514Y-92751405D01*
X141773405Y-92990514D01*
X141644000Y-93302925D01*
X141644000Y-93641075D01*
X141773405Y-93953486D01*
X142012514Y-94192595D01*
X142323721Y-94321501D01*
X141443455Y-95201768D01*
X141395450Y-95233844D01*
X141268363Y-95424041D01*
X141235000Y-95591767D01*
X141235000Y-95591772D01*
X141223737Y-95648395D01*
X141235000Y-95705018D01*
X141235000Y-95722919D01*
X141089405Y-95868514D01*
X140960000Y-96180925D01*
X140960000Y-96519075D01*
X141089405Y-96831486D01*
X141235000Y-96977081D01*
X141235001Y-99616374D01*
X141223737Y-99673002D01*
X141268363Y-99897354D01*
X141268364Y-99897355D01*
X141268364Y-99897356D01*
X141281431Y-99916912D01*
X141363372Y-100039546D01*
X141363374Y-100039548D01*
X141395450Y-100087553D01*
X141443455Y-100119629D01*
X142125372Y-100801547D01*
X142157448Y-100849552D01*
X142205453Y-100881628D01*
X142205454Y-100881629D01*
X142312403Y-100953090D01*
X142347645Y-100976638D01*
X142515371Y-101010001D01*
X142515374Y-101010001D01*
X142571998Y-101021264D01*
X142628622Y-101010001D01*
X147666376Y-101010001D01*
X147722999Y-101021264D01*
X147779622Y-101010001D01*
X147779627Y-101010001D01*
X147947353Y-100976638D01*
X148137550Y-100849552D01*
X148169628Y-100801544D01*
X148796546Y-100174627D01*
X148844551Y-100142551D01*
X148883409Y-100084397D01*
X148971637Y-99952354D01*
X148990007Y-99860001D01*
X149005000Y-99784628D01*
X149005000Y-99784625D01*
X149016263Y-99728001D01*
X149005000Y-99671377D01*
X149005000Y-98243898D01*
X149080000Y-98258816D01*
X149580000Y-98258816D01*
X149755581Y-98223891D01*
X149904432Y-98124432D01*
X149937461Y-98075000D01*
X155143377Y-98075000D01*
X155200000Y-98086263D01*
X155256623Y-98075000D01*
X155256628Y-98075000D01*
X155424354Y-98041637D01*
X155614551Y-97914551D01*
X155646629Y-97866543D01*
X155675000Y-97838172D01*
X155675000Y-97944075D01*
X155804405Y-98256486D01*
X156043514Y-98495595D01*
X156355925Y-98625000D01*
X156694075Y-98625000D01*
X157006486Y-98495595D01*
X157152081Y-98350000D01*
X158756102Y-98350000D01*
X158766048Y-98400000D01*
X158741184Y-98525000D01*
X158741184Y-99075000D01*
X158743592Y-99087106D01*
X158743592Y-99124009D01*
X158752408Y-99213519D01*
X158771530Y-99309652D01*
X158797638Y-99395721D01*
X158835147Y-99486277D01*
X158877548Y-99565603D01*
X158932004Y-99647102D01*
X158989063Y-99716629D01*
X159058371Y-99785937D01*
X159127898Y-99842996D01*
X159209397Y-99897452D01*
X159288723Y-99939853D01*
X159379279Y-99977362D01*
X159465348Y-100003470D01*
X159561481Y-100022592D01*
X159650991Y-100031408D01*
X159687894Y-100031408D01*
X159700000Y-100033816D01*
X160200000Y-100033816D01*
X160212106Y-100031408D01*
X160249009Y-100031408D01*
X160338519Y-100022592D01*
X160434652Y-100003470D01*
X160520721Y-99977362D01*
X160611277Y-99939853D01*
X160690603Y-99897452D01*
X160772102Y-99842996D01*
X160841629Y-99785937D01*
X160910937Y-99716629D01*
X160967996Y-99647102D01*
X161022452Y-99565603D01*
X161064853Y-99486277D01*
X161102362Y-99395721D01*
X161128470Y-99309652D01*
X161147592Y-99213519D01*
X161150000Y-99189072D01*
X161150000Y-100486827D01*
X160811828Y-100825000D01*
X158106623Y-100825000D01*
X158049999Y-100813737D01*
X157993375Y-100825000D01*
X157993372Y-100825000D01*
X157869942Y-100849552D01*
X157825646Y-100858363D01*
X157683878Y-100953090D01*
X157635449Y-100985449D01*
X157603373Y-101033454D01*
X154703455Y-103933373D01*
X154655450Y-103965449D01*
X154623374Y-104013454D01*
X154623372Y-104013456D01*
X154611700Y-104030925D01*
X154536566Y-104143372D01*
X154528363Y-104155648D01*
X154483737Y-104380000D01*
X154495001Y-104436628D01*
X154495000Y-107566919D01*
X154349405Y-107712514D01*
X154220000Y-108024925D01*
X154220000Y-108363075D01*
X154349405Y-108675486D01*
X154588514Y-108914595D01*
X154900925Y-109044000D01*
X155239075Y-109044000D01*
X155551486Y-108914595D01*
X155790595Y-108675486D01*
X155920000Y-108363075D01*
X155920000Y-108024925D01*
X155790595Y-107712514D01*
X155645000Y-107566919D01*
X155645000Y-104618172D01*
X156232247Y-104030925D01*
X159300000Y-104030925D01*
X159300000Y-104369075D01*
X159429405Y-104681486D01*
X159575000Y-104827081D01*
X159575001Y-107566918D01*
X159429405Y-107712514D01*
X159300000Y-108024925D01*
X159300000Y-108363075D01*
X159429405Y-108675486D01*
X159668514Y-108914595D01*
X159980925Y-109044000D01*
X160319075Y-109044000D01*
X160631486Y-108914595D01*
X160870595Y-108675486D01*
X161000000Y-108363075D01*
X161000000Y-108024925D01*
X160870595Y-107712514D01*
X160725000Y-107566919D01*
X160725000Y-104827081D01*
X160870595Y-104681486D01*
X161000000Y-104369075D01*
X161000000Y-104030925D01*
X160870595Y-103718514D01*
X160631486Y-103479405D01*
X160319075Y-103350000D01*
X159980925Y-103350000D01*
X159668514Y-103479405D01*
X159429405Y-103718514D01*
X159300000Y-104030925D01*
X156232247Y-104030925D01*
X158288173Y-101975000D01*
X160993377Y-101975000D01*
X161050000Y-101986263D01*
X161106623Y-101975000D01*
X161106628Y-101975000D01*
X161274354Y-101941637D01*
X161464551Y-101814551D01*
X161496629Y-101766543D01*
X161975001Y-101288172D01*
X161975001Y-101647918D01*
X161829405Y-101793514D01*
X161700000Y-102105925D01*
X161700000Y-102444075D01*
X161829405Y-102756486D01*
X162068514Y-102995595D01*
X162380925Y-103125000D01*
X162719075Y-103125000D01*
X163031486Y-102995595D01*
X163270595Y-102756486D01*
X163400000Y-102444075D01*
X163400000Y-102350000D01*
X163569075Y-102350000D01*
X163881486Y-102220595D01*
X164120595Y-101981486D01*
X164250000Y-101669075D01*
X164250000Y-101330925D01*
X164120595Y-101018514D01*
X163975000Y-100872919D01*
X163975000Y-99009780D01*
X164130925Y-99074366D01*
X164469075Y-99074366D01*
X164781486Y-98944961D01*
X164927081Y-98799366D01*
X168261194Y-98799366D01*
X170025000Y-100563173D01*
X170025001Y-131547918D01*
X169879405Y-131693514D01*
X169750000Y-132005925D01*
X169750000Y-132344075D01*
X169879405Y-132656486D01*
X170118514Y-132895595D01*
X170430925Y-133025000D01*
X170769075Y-133025000D01*
X171081486Y-132895595D01*
X171225000Y-132752081D01*
X171368514Y-132895595D01*
X171680925Y-133025000D01*
X172019075Y-133025000D01*
X172331486Y-132895595D01*
X172475000Y-132752081D01*
X172618514Y-132895595D01*
X172930925Y-133025000D01*
X173269075Y-133025000D01*
X173581486Y-132895595D01*
X173820595Y-132656486D01*
X173950000Y-132344075D01*
X173950000Y-132005925D01*
X173820595Y-131693514D01*
X173675000Y-131547919D01*
X173675000Y-101563034D01*
X173686263Y-101506410D01*
X173675000Y-101449786D01*
X173675000Y-101449782D01*
X173641637Y-101282056D01*
X173514551Y-101091859D01*
X173466546Y-101059783D01*
X170359012Y-97952250D01*
X178547919Y-97952250D01*
X178693514Y-98097845D01*
X179005925Y-98227250D01*
X179344075Y-98227250D01*
X179656486Y-98097845D01*
X179895595Y-97858736D01*
X180025000Y-97546325D01*
X180025000Y-97208175D01*
X179895595Y-96895764D01*
X179656486Y-96656655D01*
X179344075Y-96527250D01*
X179005925Y-96527250D01*
X178693514Y-96656655D01*
X178547919Y-96802250D01*
X171584354Y-96802250D01*
X171781486Y-96720595D01*
X172020595Y-96481486D01*
X172150000Y-96169075D01*
X172150000Y-95830925D01*
X172118058Y-95753811D01*
X191681366Y-95753811D01*
X191737989Y-95765074D01*
X191794612Y-95753811D01*
X191794617Y-95753811D01*
X191962343Y-95720448D01*
X192152540Y-95593362D01*
X192184618Y-95545354D01*
X192629546Y-95100427D01*
X192677551Y-95068351D01*
X192716105Y-95010652D01*
X192781328Y-94913038D01*
X192804637Y-94878154D01*
X192807728Y-94862616D01*
X193775001Y-94862616D01*
X193775001Y-106734769D01*
X176855429Y-106550015D01*
X176759556Y-106567999D01*
X176677863Y-106621304D01*
X176622788Y-106701813D01*
X176602700Y-106800824D01*
X176720852Y-142650000D01*
X103100000Y-142650000D01*
X103100000Y-139439121D01*
X103968000Y-139439121D01*
X103968000Y-140214879D01*
X104264870Y-140931586D01*
X104813414Y-141480130D01*
X105530121Y-141777000D01*
X106305879Y-141777000D01*
X107022586Y-141480130D01*
X107571130Y-140931586D01*
X107868000Y-140214879D01*
X107868000Y-139439121D01*
X107571130Y-138722414D01*
X107022586Y-138173870D01*
X106305879Y-137877000D01*
X105530121Y-137877000D01*
X104813414Y-138173870D01*
X104264870Y-138722414D01*
X103968000Y-139439121D01*
X103100000Y-139439121D01*
X103100000Y-112350000D01*
X113610000Y-112350000D01*
X113610000Y-128350000D01*
X113629030Y-128445671D01*
X113683223Y-128526777D01*
X113764329Y-128580970D01*
X113860000Y-128600000D01*
X137850000Y-128600000D01*
X137945526Y-128581030D01*
X138026666Y-128526887D01*
X138080910Y-128445815D01*
X138100000Y-128350156D01*
X138110000Y-112350156D01*
X138090970Y-112254329D01*
X138036777Y-112173223D01*
X137955671Y-112119030D01*
X137860000Y-112100000D01*
X113860000Y-112100000D01*
X113764329Y-112119030D01*
X113683223Y-112173223D01*
X113629030Y-112254329D01*
X113610000Y-112350000D01*
X103100000Y-112350000D01*
X103100000Y-108680915D01*
X147581250Y-108680915D01*
X147581250Y-109019065D01*
X147710655Y-109331476D01*
X147856251Y-109477072D01*
X147856250Y-127422919D01*
X147710655Y-127568514D01*
X147581250Y-127880925D01*
X147581250Y-128219075D01*
X147710655Y-128531486D01*
X147949764Y-128770595D01*
X148262175Y-128900000D01*
X148600325Y-128900000D01*
X148912736Y-128770595D01*
X149151845Y-128531486D01*
X149281250Y-128219075D01*
X149281250Y-127880925D01*
X149151845Y-127568514D01*
X149006250Y-127422919D01*
X149006250Y-109477071D01*
X149151845Y-109331476D01*
X149281250Y-109019065D01*
X149281250Y-108680915D01*
X149151845Y-108368504D01*
X148912736Y-108129395D01*
X148600325Y-107999990D01*
X148262175Y-107999990D01*
X147949764Y-108129395D01*
X147710655Y-108368504D01*
X147581250Y-108680915D01*
X103100000Y-108680915D01*
X103100000Y-54476121D01*
X103968000Y-54476121D01*
X103968000Y-55251879D01*
X104264870Y-55968586D01*
X104813414Y-56517130D01*
X105530121Y-56814000D01*
X106305879Y-56814000D01*
X107022586Y-56517130D01*
X107571130Y-55968586D01*
X107868000Y-55251879D01*
X107868000Y-54476121D01*
X188994500Y-54476121D01*
X188994500Y-55251879D01*
X189291370Y-55968586D01*
X189839914Y-56517130D01*
X190556621Y-56814000D01*
X191332379Y-56814000D01*
X192049086Y-56517130D01*
X192597630Y-55968586D01*
X192894500Y-55251879D01*
X192894500Y-54476121D01*
X192597630Y-53759414D01*
X192049086Y-53210870D01*
X191332379Y-52914000D01*
X190556621Y-52914000D01*
X189839914Y-53210870D01*
X189291370Y-53759414D01*
X188994500Y-54476121D01*
X107868000Y-54476121D01*
X107571130Y-53759414D01*
X107022586Y-53210870D01*
X106305879Y-52914000D01*
X105530121Y-52914000D01*
X104813414Y-53210870D01*
X104264870Y-53759414D01*
X103968000Y-54476121D01*
X103100000Y-54476121D01*
X103100000Y-52100000D01*
X193775001Y-52100000D01*
X193775001Y-75164984D01*
G36*
X156675000Y-89876115D02*
X156630925Y-89876115D01*
X156318514Y-90005520D01*
X156079405Y-90244629D01*
X155950000Y-90557040D01*
X155950000Y-90895190D01*
X156079405Y-91207601D01*
X156318514Y-91446710D01*
X156630925Y-91576115D01*
X156969075Y-91576115D01*
X157281486Y-91446710D01*
X157427081Y-91301115D01*
X157765264Y-91301115D01*
X157821887Y-91312378D01*
X157878510Y-91301115D01*
X157878515Y-91301115D01*
X158046241Y-91267752D01*
X158236438Y-91140666D01*
X158268516Y-91092658D01*
X158386164Y-90975010D01*
X160900000Y-90975010D01*
X160900000Y-91294085D01*
X161029405Y-91606496D01*
X161144999Y-91722090D01*
X161144999Y-92178377D01*
X161133736Y-92235000D01*
X161144999Y-92291623D01*
X161144999Y-92291628D01*
X161149999Y-92316765D01*
X161149999Y-96360925D01*
X161147592Y-96336481D01*
X161128470Y-96240348D01*
X161102362Y-96154279D01*
X161064853Y-96063723D01*
X161022452Y-95984397D01*
X160967996Y-95902898D01*
X160910937Y-95833371D01*
X160841629Y-95764063D01*
X160772102Y-95707004D01*
X160690603Y-95652548D01*
X160611277Y-95610147D01*
X160520721Y-95572638D01*
X160434652Y-95546530D01*
X160338519Y-95527408D01*
X160249009Y-95518592D01*
X160212106Y-95518592D01*
X160200000Y-95516184D01*
X159700000Y-95516184D01*
X159687894Y-95518592D01*
X159650991Y-95518592D01*
X159561481Y-95527408D01*
X159465348Y-95546530D01*
X159379279Y-95572638D01*
X159288723Y-95610147D01*
X159209397Y-95652548D01*
X159127898Y-95707004D01*
X159058371Y-95764063D01*
X158989063Y-95833371D01*
X158934382Y-95900000D01*
X156281624Y-95900000D01*
X156225000Y-95888737D01*
X156168376Y-95900000D01*
X156168372Y-95900000D01*
X156000646Y-95933363D01*
X155810449Y-96060449D01*
X155778373Y-96108454D01*
X154961828Y-96925000D01*
X149937461Y-96925000D01*
X149904432Y-96875568D01*
X149890085Y-96865982D01*
X149930000Y-96769619D01*
X149930000Y-96491500D01*
X149842500Y-96404000D01*
X149334000Y-96404000D01*
X149334000Y-96424000D01*
X149326000Y-96424000D01*
X149326000Y-96404000D01*
X148434000Y-96404000D01*
X148434000Y-96424000D01*
X148426000Y-96424000D01*
X148426000Y-96404000D01*
X147534000Y-96404000D01*
X147534000Y-96424000D01*
X147526000Y-96424000D01*
X147526000Y-96404000D01*
X147017500Y-96404000D01*
X146930000Y-96491500D01*
X146930000Y-96769619D01*
X146969915Y-96865982D01*
X146955568Y-96875568D01*
X146856109Y-97024419D01*
X146821184Y-97200000D01*
X146821184Y-97800000D01*
X146856109Y-97975581D01*
X146955568Y-98124432D01*
X147104419Y-98223891D01*
X147280000Y-98258816D01*
X147780000Y-98258816D01*
X147855001Y-98243898D01*
X147855000Y-99489827D01*
X147484827Y-99860001D01*
X147103082Y-99860001D01*
X147154000Y-99737075D01*
X147154000Y-99398925D01*
X147024595Y-99086514D01*
X146785486Y-98847405D01*
X146473075Y-98718000D01*
X146134925Y-98718000D01*
X145822514Y-98847405D01*
X145583405Y-99086514D01*
X145454000Y-99398925D01*
X145454000Y-99640183D01*
X145234183Y-99860001D01*
X143770000Y-99860001D01*
X143770000Y-99540925D01*
X143640595Y-99228514D01*
X143500000Y-99087919D01*
X143500000Y-98230000D01*
X143829075Y-98230000D01*
X144141486Y-98100595D01*
X144380595Y-97861486D01*
X144510000Y-97549075D01*
X144510000Y-97210925D01*
X144380595Y-96898514D01*
X144235000Y-96752919D01*
X144235000Y-95323528D01*
X144520000Y-95038529D01*
X144520000Y-95264065D01*
X144649405Y-95576476D01*
X144888514Y-95815585D01*
X145200925Y-95944990D01*
X145422189Y-95944990D01*
X145401501Y-95975952D01*
X145398363Y-95980648D01*
X145353737Y-96205000D01*
X145365001Y-96261628D01*
X145365001Y-96532918D01*
X145219405Y-96678514D01*
X145090000Y-96990925D01*
X145090000Y-97329075D01*
X145219405Y-97641486D01*
X145458514Y-97880595D01*
X145770925Y-98010000D01*
X146109075Y-98010000D01*
X146421486Y-97880595D01*
X146660595Y-97641486D01*
X146790000Y-97329075D01*
X146790000Y-96990925D01*
X146660595Y-96678514D01*
X146515000Y-96532919D01*
X146515000Y-96443172D01*
X146838173Y-96120000D01*
X146930000Y-96120000D01*
X146930000Y-96308500D01*
X147017500Y-96396000D01*
X147526000Y-96396000D01*
X147526000Y-96376000D01*
X147534000Y-96376000D01*
X147534000Y-96396000D01*
X148426000Y-96396000D01*
X148426000Y-96376000D01*
X148434000Y-96376000D01*
X148434000Y-96396000D01*
X149326000Y-96396000D01*
X149326000Y-96376000D01*
X149334000Y-96376000D01*
X149334000Y-96396000D01*
X149842500Y-96396000D01*
X149930000Y-96308500D01*
X149930000Y-96119999D01*
X153754783Y-96119998D01*
X153811411Y-96131262D01*
X154035763Y-96086636D01*
X154035764Y-96086635D01*
X154035765Y-96086635D01*
X154084739Y-96053912D01*
X154177955Y-95991627D01*
X154177957Y-95991625D01*
X154225962Y-95959549D01*
X154258038Y-95911544D01*
X154866546Y-95303037D01*
X154914551Y-95270961D01*
X154958987Y-95204459D01*
X155004259Y-95136704D01*
X155041637Y-95080764D01*
X155075000Y-94913038D01*
X155075000Y-94913034D01*
X155086263Y-94856410D01*
X155075000Y-94799786D01*
X155075000Y-90623528D01*
X155898530Y-89799999D01*
X156675000Y-89799999D01*
X156675000Y-89876115D01*
X156675000Y-89876115D01*
G37*
X156675000Y-89876115D02*
X156630925Y-89876115D01*
X156318514Y-90005520D01*
X156079405Y-90244629D01*
X155950000Y-90557040D01*
X155950000Y-90895190D01*
X156079405Y-91207601D01*
X156318514Y-91446710D01*
X156630925Y-91576115D01*
X156969075Y-91576115D01*
X157281486Y-91446710D01*
X157427081Y-91301115D01*
X157765264Y-91301115D01*
X157821887Y-91312378D01*
X157878510Y-91301115D01*
X157878515Y-91301115D01*
X158046241Y-91267752D01*
X158236438Y-91140666D01*
X158268516Y-91092658D01*
X158386164Y-90975010D01*
X160900000Y-90975010D01*
X160900000Y-91294085D01*
X161029405Y-91606496D01*
X161144999Y-91722090D01*
X161144999Y-92178377D01*
X161133736Y-92235000D01*
X161144999Y-92291623D01*
X161144999Y-92291628D01*
X161149999Y-92316765D01*
X161149999Y-96360925D01*
X161147592Y-96336481D01*
X161128470Y-96240348D01*
X161102362Y-96154279D01*
X161064853Y-96063723D01*
X161022452Y-95984397D01*
X160967996Y-95902898D01*
X160910937Y-95833371D01*
X160841629Y-95764063D01*
X160772102Y-95707004D01*
X160690603Y-95652548D01*
X160611277Y-95610147D01*
X160520721Y-95572638D01*
X160434652Y-95546530D01*
X160338519Y-95527408D01*
X160249009Y-95518592D01*
X160212106Y-95518592D01*
X160200000Y-95516184D01*
X159700000Y-95516184D01*
X159687894Y-95518592D01*
X159650991Y-95518592D01*
X159561481Y-95527408D01*
X159465348Y-95546530D01*
X159379279Y-95572638D01*
X159288723Y-95610147D01*
X159209397Y-95652548D01*
X159127898Y-95707004D01*
X159058371Y-95764063D01*
X158989063Y-95833371D01*
X158934382Y-95900000D01*
X156281624Y-95900000D01*
X156225000Y-95888737D01*
X156168376Y-95900000D01*
X156168372Y-95900000D01*
X156000646Y-95933363D01*
X155810449Y-96060449D01*
X155778373Y-96108454D01*
X154961828Y-96925000D01*
X149937461Y-96925000D01*
X149904432Y-96875568D01*
X149890085Y-96865982D01*
X149930000Y-96769619D01*
X149930000Y-96491500D01*
X149842500Y-96404000D01*
X149334000Y-96404000D01*
X149334000Y-96424000D01*
X149326000Y-96424000D01*
X149326000Y-96404000D01*
X148434000Y-96404000D01*
X148434000Y-96424000D01*
X148426000Y-96424000D01*
X148426000Y-96404000D01*
X147534000Y-96404000D01*
X147534000Y-96424000D01*
X147526000Y-96424000D01*
X147526000Y-96404000D01*
X147017500Y-96404000D01*
X146930000Y-96491500D01*
X146930000Y-96769619D01*
X146969915Y-96865982D01*
X146955568Y-96875568D01*
X146856109Y-97024419D01*
X146821184Y-97200000D01*
X146821184Y-97800000D01*
X146856109Y-97975581D01*
X146955568Y-98124432D01*
X147104419Y-98223891D01*
X147280000Y-98258816D01*
X147780000Y-98258816D01*
X147855001Y-98243898D01*
X147855000Y-99489827D01*
X147484827Y-99860001D01*
X147103082Y-99860001D01*
X147154000Y-99737075D01*
X147154000Y-99398925D01*
X147024595Y-99086514D01*
X146785486Y-98847405D01*
X146473075Y-98718000D01*
X146134925Y-98718000D01*
X145822514Y-98847405D01*
X145583405Y-99086514D01*
X145454000Y-99398925D01*
X145454000Y-99640183D01*
X145234183Y-99860001D01*
X143770000Y-99860001D01*
X143770000Y-99540925D01*
X143640595Y-99228514D01*
X143500000Y-99087919D01*
X143500000Y-98230000D01*
X143829075Y-98230000D01*
X144141486Y-98100595D01*
X144380595Y-97861486D01*
X144510000Y-97549075D01*
X144510000Y-97210925D01*
X144380595Y-96898514D01*
X144235000Y-96752919D01*
X144235000Y-95323528D01*
X144520000Y-95038529D01*
X144520000Y-95264065D01*
X144649405Y-95576476D01*
X144888514Y-95815585D01*
X145200925Y-95944990D01*
X145422189Y-95944990D01*
X145401501Y-95975952D01*
X145398363Y-95980648D01*
X145353737Y-96205000D01*
X145365001Y-96261628D01*
X145365001Y-96532918D01*
X145219405Y-96678514D01*
X145090000Y-96990925D01*
X145090000Y-97329075D01*
X145219405Y-97641486D01*
X145458514Y-97880595D01*
X145770925Y-98010000D01*
X146109075Y-98010000D01*
X146421486Y-97880595D01*
X146660595Y-97641486D01*
X146790000Y-97329075D01*
X146790000Y-96990925D01*
X146660595Y-96678514D01*
X146515000Y-96532919D01*
X146515000Y-96443172D01*
X146838173Y-96120000D01*
X146930000Y-96120000D01*
X146930000Y-96308500D01*
X147017500Y-96396000D01*
X147526000Y-96396000D01*
X147526000Y-96376000D01*
X147534000Y-96376000D01*
X147534000Y-96396000D01*
X148426000Y-96396000D01*
X148426000Y-96376000D01*
X148434000Y-96376000D01*
X148434000Y-96396000D01*
X149326000Y-96396000D01*
X149326000Y-96376000D01*
X149334000Y-96376000D01*
X149334000Y-96396000D01*
X149842500Y-96396000D01*
X149930000Y-96308500D01*
X149930000Y-96119999D01*
X153754783Y-96119998D01*
X153811411Y-96131262D01*
X154035763Y-96086636D01*
X154035764Y-96086635D01*
X154035765Y-96086635D01*
X154084739Y-96053912D01*
X154177955Y-95991627D01*
X154177957Y-95991625D01*
X154225962Y-95959549D01*
X154258038Y-95911544D01*
X154866546Y-95303037D01*
X154914551Y-95270961D01*
X154958987Y-95204459D01*
X155004259Y-95136704D01*
X155041637Y-95080764D01*
X155075000Y-94913038D01*
X155075000Y-94913034D01*
X155086263Y-94856410D01*
X155075000Y-94799786D01*
X155075000Y-90623528D01*
X155898530Y-89799999D01*
X156675000Y-89799999D01*
X156675000Y-89876115D01*
G36*
X168757184Y-95545357D02*
X168789260Y-95593362D01*
X168837265Y-95625438D01*
X168837266Y-95625439D01*
X168854010Y-95636627D01*
X168979457Y-95720448D01*
X169147183Y-95753811D01*
X169147187Y-95753811D01*
X169203811Y-95765074D01*
X169260435Y-95753811D01*
X170481942Y-95753811D01*
X170450000Y-95830925D01*
X170450000Y-96169075D01*
X170579405Y-96481486D01*
X170818514Y-96720595D01*
X171015646Y-96802250D01*
X169845423Y-96802250D01*
X164366628Y-91323456D01*
X164350000Y-91298570D01*
X164350000Y-91138172D01*
X168757184Y-95545357D01*
X168757184Y-95545357D01*
G37*
X168757184Y-95545357D02*
X168789260Y-95593362D01*
X168837265Y-95625438D01*
X168837266Y-95625439D01*
X168854010Y-95636627D01*
X168979457Y-95720448D01*
X169147183Y-95753811D01*
X169147187Y-95753811D01*
X169203811Y-95765074D01*
X169260435Y-95753811D01*
X170481942Y-95753811D01*
X170450000Y-95830925D01*
X170450000Y-96169075D01*
X170579405Y-96481486D01*
X170818514Y-96720595D01*
X171015646Y-96802250D01*
X169845423Y-96802250D01*
X164366628Y-91323456D01*
X164350000Y-91298570D01*
X164350000Y-91138172D01*
X168757184Y-95545357D01*
G36*
X171575000Y-83555925D02*
X171575000Y-83894075D01*
X171704405Y-84206486D01*
X171943514Y-84445595D01*
X172255925Y-84575000D01*
X172594075Y-84575000D01*
X172906486Y-84445595D01*
X173052081Y-84300000D01*
X185190363Y-84300000D01*
X185214109Y-84419381D01*
X185313568Y-84568232D01*
X185462419Y-84667691D01*
X185638000Y-84702616D01*
X188788000Y-84702616D01*
X188963581Y-84667691D01*
X189112432Y-84568232D01*
X189211891Y-84419381D01*
X189246816Y-84243800D01*
X189246816Y-83493799D01*
X189374827Y-83493799D01*
X189991373Y-84110346D01*
X190023449Y-84158351D01*
X190213646Y-84285437D01*
X190238447Y-84290370D01*
X190264109Y-84419381D01*
X190363568Y-84568232D01*
X190512419Y-84667691D01*
X190688000Y-84702616D01*
X193775001Y-84702616D01*
X193775001Y-85324984D01*
X190688000Y-85324984D01*
X190512419Y-85359909D01*
X190363568Y-85459368D01*
X190264109Y-85608219D01*
X190238447Y-85737230D01*
X190213646Y-85742163D01*
X190023449Y-85869249D01*
X189991373Y-85917254D01*
X189308457Y-86600171D01*
X189260449Y-86632249D01*
X189246816Y-86652652D01*
X189246816Y-85783800D01*
X189211891Y-85608219D01*
X189112432Y-85459368D01*
X188963581Y-85359909D01*
X188788000Y-85324984D01*
X185638000Y-85324984D01*
X185462419Y-85359909D01*
X185313568Y-85459368D01*
X185214109Y-85608219D01*
X185194102Y-85708800D01*
X173471973Y-85708800D01*
X173275000Y-85511827D01*
X173275000Y-85305925D01*
X173145595Y-84993514D01*
X172906486Y-84754405D01*
X172594075Y-84625000D01*
X172255925Y-84625000D01*
X171943514Y-84754405D01*
X171704405Y-84993514D01*
X171575000Y-85305925D01*
X171575000Y-85644075D01*
X171704405Y-85956486D01*
X171943514Y-86195595D01*
X172055810Y-86242109D01*
X171854405Y-86443514D01*
X171725000Y-86755925D01*
X171725000Y-87094075D01*
X171768235Y-87198454D01*
X171693514Y-87229405D01*
X171454405Y-87468514D01*
X171325000Y-87780925D01*
X171325000Y-88119075D01*
X171454405Y-88431486D01*
X171535419Y-88512500D01*
X171492893Y-88555026D01*
X171253209Y-88315342D01*
X171253209Y-88109439D01*
X171123804Y-87797028D01*
X170884695Y-87557919D01*
X170572284Y-87428514D01*
X170234134Y-87428514D01*
X169921723Y-87557919D01*
X169682614Y-87797028D01*
X169553209Y-88109439D01*
X169553209Y-88447589D01*
X169682614Y-88760000D01*
X169921723Y-88999109D01*
X170234134Y-89128514D01*
X170440037Y-89128514D01*
X174756867Y-93445345D01*
X174788943Y-93493350D01*
X174979140Y-93620436D01*
X175146866Y-93653799D01*
X175146869Y-93653799D01*
X175203493Y-93665062D01*
X175260117Y-93653799D01*
X178747919Y-93653799D01*
X178893514Y-93799394D01*
X179205925Y-93928799D01*
X179544075Y-93928799D01*
X179856486Y-93799394D01*
X180002081Y-93653799D01*
X185179184Y-93653799D01*
X185179184Y-94153801D01*
X174045765Y-94153801D01*
X173970595Y-93972325D01*
X173731486Y-93733216D01*
X173419075Y-93603811D01*
X173080925Y-93603811D01*
X172768514Y-93733216D01*
X172529405Y-93972325D01*
X172454235Y-94153801D01*
X169713173Y-94153801D01*
X165754283Y-90194912D01*
X165751294Y-90190438D01*
X165746628Y-90183455D01*
X165746627Y-90183454D01*
X165714551Y-90135449D01*
X165666546Y-90103373D01*
X165663173Y-90100000D01*
X165694075Y-90100000D01*
X166006486Y-89970595D01*
X166245595Y-89731486D01*
X166375000Y-89419075D01*
X166375000Y-89080925D01*
X166245595Y-88768514D01*
X166227080Y-88749999D01*
X166245595Y-88731483D01*
X166375000Y-88419072D01*
X166375000Y-88080922D01*
X166245595Y-87768511D01*
X166006486Y-87529402D01*
X165694075Y-87399997D01*
X165355925Y-87399997D01*
X165043514Y-87529402D01*
X164897919Y-87674997D01*
X156055572Y-87674997D01*
X155998948Y-87663734D01*
X155942324Y-87674997D01*
X155942321Y-87674997D01*
X155774595Y-87708360D01*
X155674862Y-87775000D01*
X155584398Y-87835446D01*
X155552322Y-87883451D01*
X153900000Y-89535774D01*
X153900000Y-84749275D01*
X154071320Y-84920595D01*
X154383731Y-85050000D01*
X154721881Y-85050000D01*
X155034292Y-84920595D01*
X155273401Y-84681486D01*
X155402806Y-84369075D01*
X155402806Y-84325000D01*
X155544075Y-84325000D01*
X155856486Y-84195595D01*
X156095595Y-83956486D01*
X156225000Y-83644075D01*
X156225000Y-83493799D01*
X171600733Y-83493799D01*
X171575000Y-83555925D01*
X171575000Y-83555925D01*
G37*
X171575000Y-83555925D02*
X171575000Y-83894075D01*
X171704405Y-84206486D01*
X171943514Y-84445595D01*
X172255925Y-84575000D01*
X172594075Y-84575000D01*
X172906486Y-84445595D01*
X173052081Y-84300000D01*
X185190363Y-84300000D01*
X185214109Y-84419381D01*
X185313568Y-84568232D01*
X185462419Y-84667691D01*
X185638000Y-84702616D01*
X188788000Y-84702616D01*
X188963581Y-84667691D01*
X189112432Y-84568232D01*
X189211891Y-84419381D01*
X189246816Y-84243800D01*
X189246816Y-83493799D01*
X189374827Y-83493799D01*
X189991373Y-84110346D01*
X190023449Y-84158351D01*
X190213646Y-84285437D01*
X190238447Y-84290370D01*
X190264109Y-84419381D01*
X190363568Y-84568232D01*
X190512419Y-84667691D01*
X190688000Y-84702616D01*
X193775001Y-84702616D01*
X193775001Y-85324984D01*
X190688000Y-85324984D01*
X190512419Y-85359909D01*
X190363568Y-85459368D01*
X190264109Y-85608219D01*
X190238447Y-85737230D01*
X190213646Y-85742163D01*
X190023449Y-85869249D01*
X189991373Y-85917254D01*
X189308457Y-86600171D01*
X189260449Y-86632249D01*
X189246816Y-86652652D01*
X189246816Y-85783800D01*
X189211891Y-85608219D01*
X189112432Y-85459368D01*
X188963581Y-85359909D01*
X188788000Y-85324984D01*
X185638000Y-85324984D01*
X185462419Y-85359909D01*
X185313568Y-85459368D01*
X185214109Y-85608219D01*
X185194102Y-85708800D01*
X173471973Y-85708800D01*
X173275000Y-85511827D01*
X173275000Y-85305925D01*
X173145595Y-84993514D01*
X172906486Y-84754405D01*
X172594075Y-84625000D01*
X172255925Y-84625000D01*
X171943514Y-84754405D01*
X171704405Y-84993514D01*
X171575000Y-85305925D01*
X171575000Y-85644075D01*
X171704405Y-85956486D01*
X171943514Y-86195595D01*
X172055810Y-86242109D01*
X171854405Y-86443514D01*
X171725000Y-86755925D01*
X171725000Y-87094075D01*
X171768235Y-87198454D01*
X171693514Y-87229405D01*
X171454405Y-87468514D01*
X171325000Y-87780925D01*
X171325000Y-88119075D01*
X171454405Y-88431486D01*
X171535419Y-88512500D01*
X171492893Y-88555026D01*
X171253209Y-88315342D01*
X171253209Y-88109439D01*
X171123804Y-87797028D01*
X170884695Y-87557919D01*
X170572284Y-87428514D01*
X170234134Y-87428514D01*
X169921723Y-87557919D01*
X169682614Y-87797028D01*
X169553209Y-88109439D01*
X169553209Y-88447589D01*
X169682614Y-88760000D01*
X169921723Y-88999109D01*
X170234134Y-89128514D01*
X170440037Y-89128514D01*
X174756867Y-93445345D01*
X174788943Y-93493350D01*
X174979140Y-93620436D01*
X175146866Y-93653799D01*
X175146869Y-93653799D01*
X175203493Y-93665062D01*
X175260117Y-93653799D01*
X178747919Y-93653799D01*
X178893514Y-93799394D01*
X179205925Y-93928799D01*
X179544075Y-93928799D01*
X179856486Y-93799394D01*
X180002081Y-93653799D01*
X185179184Y-93653799D01*
X185179184Y-94153801D01*
X174045765Y-94153801D01*
X173970595Y-93972325D01*
X173731486Y-93733216D01*
X173419075Y-93603811D01*
X173080925Y-93603811D01*
X172768514Y-93733216D01*
X172529405Y-93972325D01*
X172454235Y-94153801D01*
X169713173Y-94153801D01*
X165754283Y-90194912D01*
X165751294Y-90190438D01*
X165746628Y-90183455D01*
X165746627Y-90183454D01*
X165714551Y-90135449D01*
X165666546Y-90103373D01*
X165663173Y-90100000D01*
X165694075Y-90100000D01*
X166006486Y-89970595D01*
X166245595Y-89731486D01*
X166375000Y-89419075D01*
X166375000Y-89080925D01*
X166245595Y-88768514D01*
X166227080Y-88749999D01*
X166245595Y-88731483D01*
X166375000Y-88419072D01*
X166375000Y-88080922D01*
X166245595Y-87768511D01*
X166006486Y-87529402D01*
X165694075Y-87399997D01*
X165355925Y-87399997D01*
X165043514Y-87529402D01*
X164897919Y-87674997D01*
X156055572Y-87674997D01*
X155998948Y-87663734D01*
X155942324Y-87674997D01*
X155942321Y-87674997D01*
X155774595Y-87708360D01*
X155674862Y-87775000D01*
X155584398Y-87835446D01*
X155552322Y-87883451D01*
X153900000Y-89535774D01*
X153900000Y-84749275D01*
X154071320Y-84920595D01*
X154383731Y-85050000D01*
X154721881Y-85050000D01*
X155034292Y-84920595D01*
X155273401Y-84681486D01*
X155402806Y-84369075D01*
X155402806Y-84325000D01*
X155544075Y-84325000D01*
X155856486Y-84195595D01*
X156095595Y-83956486D01*
X156225000Y-83644075D01*
X156225000Y-83493799D01*
X171600733Y-83493799D01*
X171575000Y-83555925D01*
G36*
X152853389Y-81518848D02*
X152821520Y-81566544D01*
X152784780Y-81621530D01*
X152783363Y-81623650D01*
X152738737Y-81848002D01*
X152750001Y-81904630D01*
X152750000Y-91921142D01*
X152721000Y-91950142D01*
X152721000Y-89210623D01*
X152732263Y-89153999D01*
X152721000Y-89097376D01*
X152721000Y-89097372D01*
X152687637Y-88929646D01*
X152601010Y-88800000D01*
X152592628Y-88787455D01*
X152592627Y-88787454D01*
X152560551Y-88739449D01*
X152512546Y-88707373D01*
X151913628Y-88108456D01*
X151881551Y-88060449D01*
X151691354Y-87933363D01*
X151523628Y-87900000D01*
X151523623Y-87900000D01*
X151467000Y-87888737D01*
X151410377Y-87900000D01*
X149902081Y-87900000D01*
X149756486Y-87754405D01*
X149625000Y-87699942D01*
X149625000Y-86852081D01*
X149770595Y-86706486D01*
X149900000Y-86394075D01*
X149900000Y-86055925D01*
X149770595Y-85743514D01*
X149625000Y-85597919D01*
X149625000Y-84892623D01*
X149636263Y-84836000D01*
X149625000Y-84779376D01*
X149625000Y-84779372D01*
X149591637Y-84611646D01*
X149464551Y-84421449D01*
X149416546Y-84389373D01*
X148403000Y-83375828D01*
X148403000Y-82025000D01*
X148843377Y-82025000D01*
X148900000Y-82036263D01*
X148956623Y-82025000D01*
X148956628Y-82025000D01*
X149124354Y-81991637D01*
X149314551Y-81864551D01*
X149346629Y-81816543D01*
X149648444Y-81514728D01*
X152853389Y-81518848D01*
X152853389Y-81518848D01*
G37*
X152853389Y-81518848D02*
X152821520Y-81566544D01*
X152784780Y-81621530D01*
X152783363Y-81623650D01*
X152738737Y-81848002D01*
X152750001Y-81904630D01*
X152750000Y-91921142D01*
X152721000Y-91950142D01*
X152721000Y-89210623D01*
X152732263Y-89153999D01*
X152721000Y-89097376D01*
X152721000Y-89097372D01*
X152687637Y-88929646D01*
X152601010Y-88800000D01*
X152592628Y-88787455D01*
X152592627Y-88787454D01*
X152560551Y-88739449D01*
X152512546Y-88707373D01*
X151913628Y-88108456D01*
X151881551Y-88060449D01*
X151691354Y-87933363D01*
X151523628Y-87900000D01*
X151523623Y-87900000D01*
X151467000Y-87888737D01*
X151410377Y-87900000D01*
X149902081Y-87900000D01*
X149756486Y-87754405D01*
X149625000Y-87699942D01*
X149625000Y-86852081D01*
X149770595Y-86706486D01*
X149900000Y-86394075D01*
X149900000Y-86055925D01*
X149770595Y-85743514D01*
X149625000Y-85597919D01*
X149625000Y-84892623D01*
X149636263Y-84836000D01*
X149625000Y-84779376D01*
X149625000Y-84779372D01*
X149591637Y-84611646D01*
X149464551Y-84421449D01*
X149416546Y-84389373D01*
X148403000Y-83375828D01*
X148403000Y-82025000D01*
X148843377Y-82025000D01*
X148900000Y-82036263D01*
X148956623Y-82025000D01*
X148956628Y-82025000D01*
X149124354Y-81991637D01*
X149314551Y-81864551D01*
X149346629Y-81816543D01*
X149648444Y-81514728D01*
X152853389Y-81518848D01*
G36*
X189991372Y-79030345D02*
X190023449Y-79078351D01*
X190071454Y-79110427D01*
X190071455Y-79110428D01*
X190103662Y-79131948D01*
X190213646Y-79205437D01*
X190238447Y-79210370D01*
X190264109Y-79339381D01*
X190363568Y-79488232D01*
X190512419Y-79587691D01*
X190688000Y-79622616D01*
X193775001Y-79622616D01*
X193775001Y-80244984D01*
X190688000Y-80244984D01*
X190512419Y-80279909D01*
X190363568Y-80379368D01*
X190264109Y-80528219D01*
X190238447Y-80657230D01*
X190213646Y-80662163D01*
X190135537Y-80714354D01*
X190072270Y-80756628D01*
X190023449Y-80789249D01*
X189991373Y-80837254D01*
X189374827Y-81453801D01*
X189246816Y-81453801D01*
X189246816Y-80703800D01*
X189211891Y-80528219D01*
X189112432Y-80379368D01*
X188963581Y-80279909D01*
X188788000Y-80244984D01*
X185638000Y-80244984D01*
X185462419Y-80279909D01*
X185313568Y-80379368D01*
X185214109Y-80528219D01*
X185199831Y-80600000D01*
X171752081Y-80600000D01*
X171606486Y-80454405D01*
X171294075Y-80325000D01*
X171277081Y-80325000D01*
X171395595Y-80206486D01*
X171525000Y-79894075D01*
X171525000Y-79688172D01*
X171974373Y-79238800D01*
X185194102Y-79238800D01*
X185214109Y-79339381D01*
X185313568Y-79488232D01*
X185462419Y-79587691D01*
X185638000Y-79622616D01*
X188788000Y-79622616D01*
X188963581Y-79587691D01*
X189112432Y-79488232D01*
X189211891Y-79339381D01*
X189246816Y-79163800D01*
X189246816Y-78413799D01*
X189374827Y-78413799D01*
X189991372Y-79030345D01*
X189991372Y-79030345D01*
G37*
X189991372Y-79030345D02*
X190023449Y-79078351D01*
X190071454Y-79110427D01*
X190071455Y-79110428D01*
X190103662Y-79131948D01*
X190213646Y-79205437D01*
X190238447Y-79210370D01*
X190264109Y-79339381D01*
X190363568Y-79488232D01*
X190512419Y-79587691D01*
X190688000Y-79622616D01*
X193775001Y-79622616D01*
X193775001Y-80244984D01*
X190688000Y-80244984D01*
X190512419Y-80279909D01*
X190363568Y-80379368D01*
X190264109Y-80528219D01*
X190238447Y-80657230D01*
X190213646Y-80662163D01*
X190135537Y-80714354D01*
X190072270Y-80756628D01*
X190023449Y-80789249D01*
X189991373Y-80837254D01*
X189374827Y-81453801D01*
X189246816Y-81453801D01*
X189246816Y-80703800D01*
X189211891Y-80528219D01*
X189112432Y-80379368D01*
X188963581Y-80279909D01*
X188788000Y-80244984D01*
X185638000Y-80244984D01*
X185462419Y-80279909D01*
X185313568Y-80379368D01*
X185214109Y-80528219D01*
X185199831Y-80600000D01*
X171752081Y-80600000D01*
X171606486Y-80454405D01*
X171294075Y-80325000D01*
X171277081Y-80325000D01*
X171395595Y-80206486D01*
X171525000Y-79894075D01*
X171525000Y-79688172D01*
X171974373Y-79238800D01*
X185194102Y-79238800D01*
X185214109Y-79339381D01*
X185313568Y-79488232D01*
X185462419Y-79587691D01*
X185638000Y-79622616D01*
X188788000Y-79622616D01*
X188963581Y-79587691D01*
X189112432Y-79488232D01*
X189211891Y-79339381D01*
X189246816Y-79163800D01*
X189246816Y-78413799D01*
X189374827Y-78413799D01*
X189991372Y-79030345D01*
G36*
X155675002Y-75452819D02*
X155675001Y-78225000D01*
X155355925Y-78225000D01*
X155043514Y-78354405D01*
X154912500Y-78485419D01*
X154781486Y-78354405D01*
X154469075Y-78225000D01*
X154130925Y-78225000D01*
X153989063Y-78283761D01*
X153979998Y-75809084D01*
X153961089Y-75714616D01*
X153906996Y-75633443D01*
X153825958Y-75579149D01*
X153730311Y-75560000D01*
X151592052Y-75557344D01*
X151541223Y-75481273D01*
X151541218Y-75481268D01*
X151502170Y-75422829D01*
X151443731Y-75383781D01*
X151289949Y-75230000D01*
X155452184Y-75230000D01*
X155675002Y-75452819D01*
X155675002Y-75452819D01*
G37*
X155675002Y-75452819D02*
X155675001Y-78225000D01*
X155355925Y-78225000D01*
X155043514Y-78354405D01*
X154912500Y-78485419D01*
X154781486Y-78354405D01*
X154469075Y-78225000D01*
X154130925Y-78225000D01*
X153989063Y-78283761D01*
X153979998Y-75809084D01*
X153961089Y-75714616D01*
X153906996Y-75633443D01*
X153825958Y-75579149D01*
X153730311Y-75560000D01*
X151592052Y-75557344D01*
X151541223Y-75481273D01*
X151541218Y-75481268D01*
X151502170Y-75422829D01*
X151443731Y-75383781D01*
X151289949Y-75230000D01*
X155452184Y-75230000D01*
X155675002Y-75452819D01*
G04 #@! TD*
M02*
