M48
;DRILL file {KiCad (5.0.0)} date 04/06/20 18:28:10
;FORMAT={-:-/ absolute / inch / decimal}
FMAT,2
INCH,TZ
T1C0.0157
T2C0.0433
%
G90
G05
M72
T1
X4.6329Y-3.8337
X4.6329Y-3.883
X5.02Y-5.15
X5.47Y-2.76
X5.4734Y-2.938
X5.5831Y-3.7933
X5.61Y-3.68
X5.62Y-2.78
X5.6268Y-3.9256
X5.6559Y-3.8339
X5.7087Y-2.7579
X5.7087Y-2.8209
X5.7185Y-3.9193
X5.7232Y-3.7439
X5.7457Y-3.8252
X5.7549Y-2.627
X5.76Y-3.92
X5.7638Y-2.7589
X5.7638Y-2.8209
X5.7697Y-3.1772
X5.77Y-3.24
X5.7756Y-3.7154
X5.8041Y-2.627
X5.8327Y-2.7608
X5.8327Y-2.8219
X5.8437Y-3.8386
X5.8438Y-4.2854
X5.8438Y-5.0413
X5.86Y-3.03
X5.8681Y-3.3947
X5.877Y-3.4833
X5.877Y-3.6563
X5.893Y-5.0413
X5.8945Y-3.2209
X5.8996Y-2.7608
X5.8996Y-2.8219
X5.9469Y-3.6252
X5.9724Y-2.9685
X6.Y-2.78
X6.0069Y-3.7972
X6.0069Y-3.8809
X6.04Y-2.69
X6.04Y-2.9
X6.0404Y-2.9766
X6.061Y-3.7972
X6.061Y-3.8809
X6.0748Y-3.1132
X6.0829Y-2.4281
X6.0846Y-2.8819
X6.0848Y-3.315
X6.1051Y-4.2596
X6.1171Y-3.2864
X6.12Y-3.57
X6.123Y-3.1132
X6.13Y-2.69
X6.1508Y-3.198
X6.1624Y-3.8494
X6.1732Y-3.5719
X6.18Y-4.1
X6.1823Y-3.9362
X6.1854Y-3.4193
X6.1952Y-2.9811
X6.1999Y-2.936
X6.2018Y-3.5413
X6.21Y-3.74
X6.26Y-2.66
X6.27Y-3.5915
X6.2827Y-2.926
X6.2827Y-3.1409
X6.2972Y-3.9006
X6.3051Y-4.1024
X6.3051Y-4.2596
X6.3248Y-2.926
X6.3248Y-3.1689
X6.3681Y-3.5876
X6.3828Y-2.7943
X6.3969Y-2.9386
X6.3972Y-3.3091
X6.3988Y-3.1697
X6.3996Y-4.0266
X6.4324Y-3.7216
X6.4328Y-2.5581
X6.4328Y-2.7943
X6.4329Y-2.4281
X6.4331Y-3.9961
X6.437Y-3.5941
X6.439Y-3.1181
X6.4596Y-3.75
X6.4685Y-3.7884
X6.4685Y-3.8277
X6.4685Y-3.8671
X6.4941Y-3.1181
X6.5167Y-3.4744
X6.5167Y-3.5138
X6.61Y-3.02
X6.65Y-3.61
X6.6506Y-3.5709
X6.68Y-3.78
X6.686Y-3.6801
X6.687Y-3.6093
X6.7088Y-3.4755
X6.7165Y-5.2037
X6.7195Y-3.1388
X6.7372Y-3.1959
X6.7441Y-3.7795
X6.7657Y-5.2037
X6.7785Y-3.4626
X6.7795Y-3.5059
X6.7884Y-3.2963
X6.7884Y-3.3652
X6.7943Y-3.4222
X6.8Y-3.14
X6.815Y-5.2037
X6.8205Y-2.7746
X6.8209Y-3.7187
X6.8327Y-3.0645
X6.8563Y-3.2638
X6.9774Y-3.0295
X6.9852Y-3.6289
X7.0098Y-3.2293
X7.0541Y-3.7845
X7.0541Y-3.8337
X7.062Y-3.6645
X7.0754Y-4.2867
X7.1189Y-4.8933
X7.1193Y-4.735
X7.1596Y-5.0909
X7.1725Y-4.8398
X7.1727Y-4.789
X7.1763Y-5.2001
X7.2012Y-5.3307
X7.2236Y-4.8402
X7.224Y-4.7886
X7.2768Y-4.7358
X7.33Y-3.697
X7.3706Y-2.997
X7.3706Y-3.697
X7.41Y-3.697
T2
X4.7785Y-2.5098
X4.7785Y-3.1004
T0
M30
