G04 #@! TF.GenerationSoftware,KiCad,Pcbnew,(5.0.0)*
G04 #@! TF.CreationDate,2020-04-06T18:27:32+02:00*
G04 #@! TF.ProjectId,MainBoard,4D61696E426F6172642E6B696361645F,rev?*
G04 #@! TF.SameCoordinates,Original*
G04 #@! TF.FileFunction,Legend,Bot*
G04 #@! TF.FilePolarity,Positive*
%FSLAX46Y46*%
G04 Gerber Fmt 4.6, Leading zero omitted, Abs format (unit mm)*
G04 Created by KiCad (PCBNEW (5.0.0)) date 04/06/20 18:27:32*
%MOMM*%
%LPD*%
G01*
G04 APERTURE LIST*
%ADD10C,0.300000*%
%ADD11C,0.200000*%
%ADD12C,0.120000*%
%ADD13C,0.100000*%
%ADD14C,0.150000*%
%ADD15C,0.152400*%
G04 APERTURE END LIST*
D10*
X165332142Y-121482142D02*
X165117857Y-121553571D01*
X164760714Y-121553571D01*
X164617857Y-121482142D01*
X164546428Y-121410714D01*
X164475000Y-121267857D01*
X164475000Y-121125000D01*
X164546428Y-120982142D01*
X164617857Y-120910714D01*
X164760714Y-120839285D01*
X165046428Y-120767857D01*
X165189285Y-120696428D01*
X165260714Y-120625000D01*
X165332142Y-120482142D01*
X165332142Y-120339285D01*
X165260714Y-120196428D01*
X165189285Y-120125000D01*
X165046428Y-120053571D01*
X164689285Y-120053571D01*
X164475000Y-120125000D01*
X163975000Y-120053571D02*
X163617857Y-121553571D01*
X163332142Y-120482142D01*
X163046428Y-121553571D01*
X162689285Y-120053571D01*
X162117857Y-121553571D02*
X162117857Y-120053571D01*
X161760714Y-120053571D01*
X161546428Y-120125000D01*
X161403571Y-120267857D01*
X161332142Y-120410714D01*
X161260714Y-120696428D01*
X161260714Y-120910714D01*
X161332142Y-121196428D01*
X161403571Y-121339285D01*
X161546428Y-121482142D01*
X161760714Y-121553571D01*
X162117857Y-121553571D01*
X159546428Y-119982142D02*
X160832142Y-121910714D01*
X158617857Y-120053571D02*
X158617857Y-121125000D01*
X158689285Y-121339285D01*
X158832142Y-121482142D01*
X159046428Y-121553571D01*
X159189285Y-121553571D01*
X158117857Y-120053571D02*
X157260714Y-120053571D01*
X157689285Y-121553571D02*
X157689285Y-120053571D01*
X156832142Y-121125000D02*
X156117857Y-121125000D01*
X156975000Y-121553571D02*
X156475000Y-120053571D01*
X155975000Y-121553571D01*
X154689285Y-120125000D02*
X154832142Y-120053571D01*
X155046428Y-120053571D01*
X155260714Y-120125000D01*
X155403571Y-120267857D01*
X155475000Y-120410714D01*
X155546428Y-120696428D01*
X155546428Y-120910714D01*
X155475000Y-121196428D01*
X155403571Y-121339285D01*
X155260714Y-121482142D01*
X155046428Y-121553571D01*
X154903571Y-121553571D01*
X154689285Y-121482142D01*
X154617857Y-121410714D01*
X154617857Y-120910714D01*
X154903571Y-120910714D01*
D11*
X174582142Y-72700000D02*
X174677380Y-72652380D01*
X174820238Y-72652380D01*
X174963095Y-72700000D01*
X175058333Y-72795238D01*
X175105952Y-72890476D01*
X175153571Y-73080952D01*
X175153571Y-73223809D01*
X175105952Y-73414285D01*
X175058333Y-73509523D01*
X174963095Y-73604761D01*
X174820238Y-73652380D01*
X174725000Y-73652380D01*
X174582142Y-73604761D01*
X174534523Y-73557142D01*
X174534523Y-73223809D01*
X174725000Y-73223809D01*
X174105952Y-73652380D02*
X174105952Y-72652380D01*
X173534523Y-73652380D01*
X173534523Y-72652380D01*
X173058333Y-73652380D02*
X173058333Y-72652380D01*
X172820238Y-72652380D01*
X172677380Y-72700000D01*
X172582142Y-72795238D01*
X172534523Y-72890476D01*
X172486904Y-73080952D01*
X172486904Y-73223809D01*
X172534523Y-73414285D01*
X172582142Y-73509523D01*
X172677380Y-73604761D01*
X172820238Y-73652380D01*
X173058333Y-73652380D01*
X171439285Y-72652380D02*
X170867857Y-72652380D01*
X171153571Y-73652380D02*
X171153571Y-72652380D01*
X170629761Y-72652380D02*
X169963095Y-73652380D01*
X169963095Y-72652380D02*
X170629761Y-73652380D01*
X168248809Y-73652380D02*
X168582142Y-73176190D01*
X168820238Y-73652380D02*
X168820238Y-72652380D01*
X168439285Y-72652380D01*
X168344047Y-72700000D01*
X168296428Y-72747619D01*
X168248809Y-72842857D01*
X168248809Y-72985714D01*
X168296428Y-73080952D01*
X168344047Y-73128571D01*
X168439285Y-73176190D01*
X168820238Y-73176190D01*
X167915476Y-72652380D02*
X167248809Y-73652380D01*
X167248809Y-72652380D02*
X167915476Y-73652380D01*
D12*
G04 #@! TO.C,U13*
X146541250Y-99077250D02*
G75*
G03X146541250Y-99077250I-60000J0D01*
G01*
X146631250Y-99077250D02*
G75*
G03X146631250Y-99077250I-150000J0D01*
G01*
X146481250Y-95677250D02*
X146481250Y-96377250D01*
X150381250Y-95677250D02*
X149631250Y-95677250D01*
X150381250Y-99077250D02*
X150381250Y-98377250D01*
X149631250Y-99077250D02*
X150381250Y-99077250D01*
X150381250Y-96377250D02*
X150381250Y-95677250D01*
X147231250Y-95677250D02*
X146481250Y-95677250D01*
D13*
G04 #@! TO.C,U14*
X142640000Y-96015000D02*
X142790000Y-96015000D01*
X142640000Y-96025000D02*
X142640000Y-96175000D01*
X145340000Y-96025000D02*
X145340000Y-96175000D01*
X145340000Y-96025000D02*
X145190000Y-96025000D01*
X145190000Y-98725000D02*
X145340000Y-98725000D01*
X145340000Y-98725000D02*
X145340000Y-98575000D01*
X142640000Y-98575000D02*
X142640000Y-98825000D01*
D14*
G04 #@! TO.C,U12*
X152400000Y-92100000D02*
X152400000Y-91450000D01*
X166650000Y-92100000D02*
X166650000Y-91340000D01*
X166650000Y-77850000D02*
X166650000Y-78610000D01*
X152400000Y-77850000D02*
X152400000Y-78610000D01*
X152400000Y-92100000D02*
X153160000Y-92100000D01*
X152400000Y-77850000D02*
X153160000Y-77850000D01*
X166650000Y-77850000D02*
X165890000Y-77850000D01*
X166650000Y-92100000D02*
X165890000Y-92100000D01*
X152400000Y-91450000D02*
X150875000Y-91450000D01*
D15*
G04 #@! TO.C,U9*
X114598744Y-128362852D02*
X113836744Y-128362852D01*
X113836744Y-128362852D02*
X113836744Y-112360852D01*
X113836744Y-112360852D02*
X114598744Y-112360852D01*
D13*
G04 #@! TO.C,LS1*
X136375000Y-71250000D02*
G75*
G03X136375000Y-71250000I-15000000J0D01*
G01*
D12*
G04 #@! TO.C,R97*
X174840000Y-76563748D02*
X174840000Y-77086252D01*
X176260000Y-76563748D02*
X176260000Y-77086252D01*
G04 #@! TO.C,R98*
X172890000Y-76563748D02*
X172890000Y-77086252D01*
X174310000Y-76563748D02*
X174310000Y-77086252D01*
G04 #@! TO.C,R99*
X175390000Y-81613748D02*
X175390000Y-82136252D01*
X176810000Y-81613748D02*
X176810000Y-82136252D01*
G04 #@! TO.C,R100*
X173440000Y-81613748D02*
X173440000Y-82136252D01*
X174860000Y-81613748D02*
X174860000Y-82136252D01*
G04 #@! TO.C,R101*
X178135000Y-90888748D02*
X178135000Y-91411252D01*
X176715000Y-90888748D02*
X176715000Y-91411252D01*
G04 #@! TO.C,R102*
X178665000Y-90888748D02*
X178665000Y-91411252D01*
X180085000Y-90888748D02*
X180085000Y-91411252D01*
G04 #@! TO.C,R103*
X173960000Y-93388748D02*
X173960000Y-93911252D01*
X172540000Y-93388748D02*
X172540000Y-93911252D01*
G04 #@! TO.C,R104*
X170590000Y-93388748D02*
X170590000Y-93911252D01*
X172010000Y-93388748D02*
X172010000Y-93911252D01*
G04 #@! TO.C,R106*
X116221492Y-132261852D02*
X116743996Y-132261852D01*
X116221492Y-133681852D02*
X116743996Y-133681852D01*
G04 #@! TO.C,R107*
X124171492Y-130261852D02*
X124693996Y-130261852D01*
X124171492Y-131681852D02*
X124693996Y-131681852D01*
G04 #@! TO.C,R108*
X116747744Y-106633104D02*
X116747744Y-106110600D01*
X118167744Y-106633104D02*
X118167744Y-106110600D01*
G04 #@! TO.C,P4*
X183735000Y-95037250D02*
X183735000Y-99717250D01*
X179115000Y-101037250D02*
X179115000Y-99187250D01*
X180765000Y-101037250D02*
X179115000Y-101037250D01*
X179115000Y-95567250D02*
X178325000Y-95567250D01*
X179115000Y-93717250D02*
X179115000Y-95567250D01*
X180765000Y-93717250D02*
X179115000Y-93717250D01*
G04 #@! TO.C,P5*
X152091250Y-129640000D02*
X152091250Y-127990000D01*
X152091250Y-127990000D02*
X150241250Y-127990000D01*
X150241250Y-127990000D02*
X150241250Y-127200000D01*
X144771250Y-129640000D02*
X144771250Y-127990000D01*
X144771250Y-127990000D02*
X146621250Y-127990000D01*
X150771250Y-132610000D02*
X146091250Y-132610000D01*
G04 #@! TO.C,P6*
X145085000Y-62165000D02*
X149765000Y-62165000D01*
X151085000Y-66785000D02*
X149235000Y-66785000D01*
X151085000Y-65135000D02*
X151085000Y-66785000D01*
X145615000Y-66785000D02*
X145615000Y-67575000D01*
X143765000Y-66785000D02*
X145615000Y-66785000D01*
X143765000Y-65135000D02*
X143765000Y-66785000D01*
G04 #@! TO.C,P7*
X116085000Y-101037250D02*
X117735000Y-101037250D01*
X117735000Y-101037250D02*
X117735000Y-99187250D01*
X117735000Y-99187250D02*
X118525000Y-99187250D01*
X116085000Y-93717250D02*
X117735000Y-93717250D01*
X117735000Y-93717250D02*
X117735000Y-95567250D01*
X113115000Y-99717250D02*
X113115000Y-95037250D01*
G04 #@! TO.C,Y1*
X143650000Y-85500000D02*
X136325000Y-85500000D01*
X136325000Y-85500000D02*
X136325000Y-81900000D01*
X136325000Y-81900000D02*
X143650000Y-81900000D01*
G04 #@! TO.C,Y2*
X145825000Y-87725000D02*
X144725000Y-87725000D01*
X145825000Y-89625000D02*
X144725000Y-89625000D01*
X147975000Y-87775000D02*
X147975000Y-89575000D01*
D11*
G04 #@! TO.C,P3*
X166950000Y-106153000D02*
X166950000Y-124062000D01*
X166950000Y-124062000D02*
X153350000Y-124062000D01*
X153350000Y-124062000D02*
X153350000Y-106153000D01*
X153350000Y-106153000D02*
X166950000Y-106153000D01*
D12*
G04 #@! TO.C,C36*
X183140134Y-130017704D02*
X182617630Y-130017704D01*
X183140134Y-128597704D02*
X182617630Y-128597704D01*
G04 #@! TO.C,C37*
X181805946Y-107972704D02*
X180601818Y-107972704D01*
X181805946Y-109792704D02*
X180601818Y-109792704D01*
G04 #@! TO.C,L1*
X180699882Y-111318704D02*
X180699882Y-115626704D01*
X185007882Y-115626704D02*
X185007882Y-111318704D01*
G04 #@! TO.C,P8*
X179868882Y-133772704D02*
X179868882Y-131972704D01*
X179868882Y-131972704D02*
X181718882Y-131972704D01*
X181718882Y-131972704D02*
X181718882Y-131232704D01*
X185938882Y-133772704D02*
X185938882Y-131972704D01*
X185938882Y-131972704D02*
X184088882Y-131972704D01*
X179868882Y-137092704D02*
X179868882Y-137642704D01*
X179868882Y-137642704D02*
X185938882Y-137642704D01*
X185938882Y-137642704D02*
X185938882Y-137092704D01*
G04 #@! TO.C,R109*
X179992630Y-118467704D02*
X180515134Y-118467704D01*
X179992630Y-117047704D02*
X180515134Y-117047704D01*
G04 #@! TO.C,U15*
X180768882Y-120222704D02*
X180768882Y-120872704D01*
X184888882Y-124342704D02*
X184888882Y-123692704D01*
X180768882Y-124342704D02*
X180768882Y-123692704D01*
X184888882Y-124342704D02*
X184238882Y-124342704D01*
X180768882Y-124342704D02*
X181418882Y-124342704D01*
X180768882Y-120222704D02*
X181418882Y-120222704D01*
X184888882Y-120222704D02*
X184238882Y-120222704D01*
G04 #@! TO.C,P9*
X174630000Y-66795000D02*
X174630000Y-64055000D01*
X174630000Y-64055000D02*
X166770000Y-64055000D01*
X166770000Y-64055000D02*
X166770000Y-66795000D01*
X166770000Y-66795000D02*
X174630000Y-66795000D01*
X173680000Y-68905000D02*
X173680000Y-66795000D01*
X172800000Y-68905000D02*
X172800000Y-66795000D01*
X173680000Y-64055000D02*
X173680000Y-58055000D01*
X173680000Y-58055000D02*
X172800000Y-58055000D01*
X172800000Y-58055000D02*
X172800000Y-64055000D01*
X171140000Y-68905000D02*
X171140000Y-66795000D01*
X170260000Y-68905000D02*
X170260000Y-66795000D01*
X171140000Y-64055000D02*
X171140000Y-58055000D01*
X171140000Y-58055000D02*
X170260000Y-58055000D01*
X170260000Y-58055000D02*
X170260000Y-64055000D01*
X168600000Y-68905000D02*
X168600000Y-66795000D01*
X167720000Y-68905000D02*
X167720000Y-66795000D01*
X168600000Y-64055000D02*
X168600000Y-58055000D01*
X168600000Y-58055000D02*
X167720000Y-58055000D01*
X167720000Y-58055000D02*
X167720000Y-64055000D01*
X173240000Y-72045000D02*
X174060000Y-72045000D01*
X174060000Y-72045000D02*
X174060000Y-70475000D01*
G04 #@! TO.C,P10*
X175510000Y-133765000D02*
X175510000Y-132115000D01*
X175510000Y-132115000D02*
X173660000Y-132115000D01*
X173660000Y-132115000D02*
X173660000Y-131325000D01*
X168190000Y-133765000D02*
X168190000Y-132115000D01*
X168190000Y-132115000D02*
X170040000Y-132115000D01*
X174190000Y-136735000D02*
X169510000Y-136735000D01*
D14*
G04 #@! TO.C,U10*
X153900000Y-62450000D02*
X153900000Y-60925000D01*
X164275000Y-62450000D02*
X164275000Y-70200000D01*
X153625000Y-62450000D02*
X153625000Y-70200000D01*
X164275000Y-62450000D02*
X163920000Y-62450000D01*
X164275000Y-70200000D02*
X163920000Y-70200000D01*
X153625000Y-70200000D02*
X153980000Y-70200000D01*
X153625000Y-62450000D02*
X153900000Y-62450000D01*
G04 #@! TD*
D13*
G04 #@! TO.C,P9*
X172910000Y-58105000D02*
X172910000Y-64005000D01*
X173570000Y-64005000D01*
X173570000Y-58105000D01*
X172910000Y-58105000D01*
G04 #@! TD*
G04 #@! TO.C,C25*
D14*
X149925142Y-79032142D02*
X149972761Y-78984523D01*
X150020380Y-78841666D01*
X150020380Y-78746428D01*
X149972761Y-78603571D01*
X149877523Y-78508333D01*
X149782285Y-78460714D01*
X149591809Y-78413095D01*
X149448952Y-78413095D01*
X149258476Y-78460714D01*
X149163238Y-78508333D01*
X149068000Y-78603571D01*
X149020380Y-78746428D01*
X149020380Y-78841666D01*
X149068000Y-78984523D01*
X149115619Y-79032142D01*
X149115619Y-79413095D02*
X149068000Y-79460714D01*
X149020380Y-79555952D01*
X149020380Y-79794047D01*
X149068000Y-79889285D01*
X149115619Y-79936904D01*
X149210857Y-79984523D01*
X149306095Y-79984523D01*
X149448952Y-79936904D01*
X150020380Y-79365476D01*
X150020380Y-79984523D01*
X149020380Y-80889285D02*
X149020380Y-80413095D01*
X149496571Y-80365476D01*
X149448952Y-80413095D01*
X149401333Y-80508333D01*
X149401333Y-80746428D01*
X149448952Y-80841666D01*
X149496571Y-80889285D01*
X149591809Y-80936904D01*
X149829904Y-80936904D01*
X149925142Y-80889285D01*
X149972761Y-80841666D01*
X150020380Y-80746428D01*
X150020380Y-80508333D01*
X149972761Y-80413095D01*
X149925142Y-80365476D01*
G04 #@! TO.C,C9*
X136666666Y-77382142D02*
X136714285Y-77429761D01*
X136857142Y-77477380D01*
X136952380Y-77477380D01*
X137095238Y-77429761D01*
X137190476Y-77334523D01*
X137238095Y-77239285D01*
X137285714Y-77048809D01*
X137285714Y-76905952D01*
X137238095Y-76715476D01*
X137190476Y-76620238D01*
X137095238Y-76525000D01*
X136952380Y-76477380D01*
X136857142Y-76477380D01*
X136714285Y-76525000D01*
X136666666Y-76572619D01*
X136190476Y-77477380D02*
X136000000Y-77477380D01*
X135904761Y-77429761D01*
X135857142Y-77382142D01*
X135761904Y-77239285D01*
X135714285Y-77048809D01*
X135714285Y-76667857D01*
X135761904Y-76572619D01*
X135809523Y-76525000D01*
X135904761Y-76477380D01*
X136095238Y-76477380D01*
X136190476Y-76525000D01*
X136238095Y-76572619D01*
X136285714Y-76667857D01*
X136285714Y-76905952D01*
X136238095Y-77001190D01*
X136190476Y-77048809D01*
X136095238Y-77096428D01*
X135904761Y-77096428D01*
X135809523Y-77048809D01*
X135761904Y-77001190D01*
X135714285Y-76905952D01*
G04 #@! TO.C,U13*
X151888095Y-99327380D02*
X151888095Y-100136904D01*
X151840476Y-100232142D01*
X151792857Y-100279761D01*
X151697619Y-100327380D01*
X151507142Y-100327380D01*
X151411904Y-100279761D01*
X151364285Y-100232142D01*
X151316666Y-100136904D01*
X151316666Y-99327380D01*
X150316666Y-100327380D02*
X150888095Y-100327380D01*
X150602380Y-100327380D02*
X150602380Y-99327380D01*
X150697619Y-99470238D01*
X150792857Y-99565476D01*
X150888095Y-99613095D01*
X149983333Y-99327380D02*
X149364285Y-99327380D01*
X149697619Y-99708333D01*
X149554761Y-99708333D01*
X149459523Y-99755952D01*
X149411904Y-99803571D01*
X149364285Y-99898809D01*
X149364285Y-100136904D01*
X149411904Y-100232142D01*
X149459523Y-100279761D01*
X149554761Y-100327380D01*
X149840476Y-100327380D01*
X149935714Y-100279761D01*
X149983333Y-100232142D01*
G04 #@! TO.C,U14*
X145243095Y-99292380D02*
X145243095Y-100101904D01*
X145195476Y-100197142D01*
X145147857Y-100244761D01*
X145052619Y-100292380D01*
X144862142Y-100292380D01*
X144766904Y-100244761D01*
X144719285Y-100197142D01*
X144671666Y-100101904D01*
X144671666Y-99292380D01*
X143671666Y-100292380D02*
X144243095Y-100292380D01*
X143957380Y-100292380D02*
X143957380Y-99292380D01*
X144052619Y-99435238D01*
X144147857Y-99530476D01*
X144243095Y-99578095D01*
X142814523Y-99625714D02*
X142814523Y-100292380D01*
X143052619Y-99244761D02*
X143290714Y-99959047D01*
X142671666Y-99959047D01*
G04 #@! TO.C,U12*
X160763095Y-94077380D02*
X160763095Y-94886904D01*
X160715476Y-94982142D01*
X160667857Y-95029761D01*
X160572619Y-95077380D01*
X160382142Y-95077380D01*
X160286904Y-95029761D01*
X160239285Y-94982142D01*
X160191666Y-94886904D01*
X160191666Y-94077380D01*
X159191666Y-95077380D02*
X159763095Y-95077380D01*
X159477380Y-95077380D02*
X159477380Y-94077380D01*
X159572619Y-94220238D01*
X159667857Y-94315476D01*
X159763095Y-94363095D01*
X158810714Y-94172619D02*
X158763095Y-94125000D01*
X158667857Y-94077380D01*
X158429761Y-94077380D01*
X158334523Y-94125000D01*
X158286904Y-94172619D01*
X158239285Y-94267857D01*
X158239285Y-94363095D01*
X158286904Y-94505952D01*
X158858333Y-95077380D01*
X158239285Y-95077380D01*
G04 #@! TO.C,U9*
X132336904Y-129252380D02*
X132336904Y-130061904D01*
X132289285Y-130157142D01*
X132241666Y-130204761D01*
X132146428Y-130252380D01*
X131955952Y-130252380D01*
X131860714Y-130204761D01*
X131813095Y-130157142D01*
X131765476Y-130061904D01*
X131765476Y-129252380D01*
X131241666Y-130252380D02*
X131051190Y-130252380D01*
X130955952Y-130204761D01*
X130908333Y-130157142D01*
X130813095Y-130014285D01*
X130765476Y-129823809D01*
X130765476Y-129442857D01*
X130813095Y-129347619D01*
X130860714Y-129300000D01*
X130955952Y-129252380D01*
X131146428Y-129252380D01*
X131241666Y-129300000D01*
X131289285Y-129347619D01*
X131336904Y-129442857D01*
X131336904Y-129680952D01*
X131289285Y-129776190D01*
X131241666Y-129823809D01*
X131146428Y-129871428D01*
X130955952Y-129871428D01*
X130860714Y-129823809D01*
X130813095Y-129776190D01*
X130765476Y-129680952D01*
G04 #@! TO.C,LS1*
X135127380Y-60207142D02*
X135127380Y-59730952D01*
X134127380Y-59730952D01*
X135079761Y-60492857D02*
X135127380Y-60635714D01*
X135127380Y-60873809D01*
X135079761Y-60969047D01*
X135032142Y-61016666D01*
X134936904Y-61064285D01*
X134841666Y-61064285D01*
X134746428Y-61016666D01*
X134698809Y-60969047D01*
X134651190Y-60873809D01*
X134603571Y-60683333D01*
X134555952Y-60588095D01*
X134508333Y-60540476D01*
X134413095Y-60492857D01*
X134317857Y-60492857D01*
X134222619Y-60540476D01*
X134175000Y-60588095D01*
X134127380Y-60683333D01*
X134127380Y-60921428D01*
X134175000Y-61064285D01*
X135127380Y-62016666D02*
X135127380Y-61445238D01*
X135127380Y-61730952D02*
X134127380Y-61730952D01*
X134270238Y-61635714D01*
X134365476Y-61540476D01*
X134413095Y-61445238D01*
G04 #@! TO.C,C10*
X137414142Y-79282142D02*
X137461761Y-79234523D01*
X137509380Y-79091666D01*
X137509380Y-78996428D01*
X137461761Y-78853571D01*
X137366523Y-78758333D01*
X137271285Y-78710714D01*
X137080809Y-78663095D01*
X136937952Y-78663095D01*
X136747476Y-78710714D01*
X136652238Y-78758333D01*
X136557000Y-78853571D01*
X136509380Y-78996428D01*
X136509380Y-79091666D01*
X136557000Y-79234523D01*
X136604619Y-79282142D01*
X137509380Y-80234523D02*
X137509380Y-79663095D01*
X137509380Y-79948809D02*
X136509380Y-79948809D01*
X136652238Y-79853571D01*
X136747476Y-79758333D01*
X136795095Y-79663095D01*
X136509380Y-80853571D02*
X136509380Y-80948809D01*
X136557000Y-81044047D01*
X136604619Y-81091666D01*
X136699857Y-81139285D01*
X136890333Y-81186904D01*
X137128428Y-81186904D01*
X137318904Y-81139285D01*
X137414142Y-81091666D01*
X137461761Y-81044047D01*
X137509380Y-80948809D01*
X137509380Y-80853571D01*
X137461761Y-80758333D01*
X137414142Y-80710714D01*
X137318904Y-80663095D01*
X137128428Y-80615476D01*
X136890333Y-80615476D01*
X136699857Y-80663095D01*
X136604619Y-80710714D01*
X136557000Y-80758333D01*
X136509380Y-80853571D01*
G04 #@! TO.C,C11*
X142939142Y-79282142D02*
X142986761Y-79234523D01*
X143034380Y-79091666D01*
X143034380Y-78996428D01*
X142986761Y-78853571D01*
X142891523Y-78758333D01*
X142796285Y-78710714D01*
X142605809Y-78663095D01*
X142462952Y-78663095D01*
X142272476Y-78710714D01*
X142177238Y-78758333D01*
X142082000Y-78853571D01*
X142034380Y-78996428D01*
X142034380Y-79091666D01*
X142082000Y-79234523D01*
X142129619Y-79282142D01*
X143034380Y-80234523D02*
X143034380Y-79663095D01*
X143034380Y-79948809D02*
X142034380Y-79948809D01*
X142177238Y-79853571D01*
X142272476Y-79758333D01*
X142320095Y-79663095D01*
X143034380Y-81186904D02*
X143034380Y-80615476D01*
X143034380Y-80901190D02*
X142034380Y-80901190D01*
X142177238Y-80805952D01*
X142272476Y-80710714D01*
X142320095Y-80615476D01*
G04 #@! TO.C,C14*
X148982142Y-102932142D02*
X149029761Y-102884523D01*
X149077380Y-102741666D01*
X149077380Y-102646428D01*
X149029761Y-102503571D01*
X148934523Y-102408333D01*
X148839285Y-102360714D01*
X148648809Y-102313095D01*
X148505952Y-102313095D01*
X148315476Y-102360714D01*
X148220238Y-102408333D01*
X148125000Y-102503571D01*
X148077380Y-102646428D01*
X148077380Y-102741666D01*
X148125000Y-102884523D01*
X148172619Y-102932142D01*
X149077380Y-103884523D02*
X149077380Y-103313095D01*
X149077380Y-103598809D02*
X148077380Y-103598809D01*
X148220238Y-103503571D01*
X148315476Y-103408333D01*
X148363095Y-103313095D01*
X148410714Y-104741666D02*
X149077380Y-104741666D01*
X148029761Y-104503571D02*
X148744047Y-104265476D01*
X148744047Y-104884523D01*
G04 #@! TO.C,C15*
X147707142Y-102882142D02*
X147754761Y-102834523D01*
X147802380Y-102691666D01*
X147802380Y-102596428D01*
X147754761Y-102453571D01*
X147659523Y-102358333D01*
X147564285Y-102310714D01*
X147373809Y-102263095D01*
X147230952Y-102263095D01*
X147040476Y-102310714D01*
X146945238Y-102358333D01*
X146850000Y-102453571D01*
X146802380Y-102596428D01*
X146802380Y-102691666D01*
X146850000Y-102834523D01*
X146897619Y-102882142D01*
X147802380Y-103834523D02*
X147802380Y-103263095D01*
X147802380Y-103548809D02*
X146802380Y-103548809D01*
X146945238Y-103453571D01*
X147040476Y-103358333D01*
X147088095Y-103263095D01*
X146802380Y-104739285D02*
X146802380Y-104263095D01*
X147278571Y-104215476D01*
X147230952Y-104263095D01*
X147183333Y-104358333D01*
X147183333Y-104596428D01*
X147230952Y-104691666D01*
X147278571Y-104739285D01*
X147373809Y-104786904D01*
X147611904Y-104786904D01*
X147707142Y-104739285D01*
X147754761Y-104691666D01*
X147802380Y-104596428D01*
X147802380Y-104358333D01*
X147754761Y-104263095D01*
X147707142Y-104215476D01*
G04 #@! TO.C,C16*
X142864142Y-90632142D02*
X142911761Y-90584523D01*
X142959380Y-90441666D01*
X142959380Y-90346428D01*
X142911761Y-90203571D01*
X142816523Y-90108333D01*
X142721285Y-90060714D01*
X142530809Y-90013095D01*
X142387952Y-90013095D01*
X142197476Y-90060714D01*
X142102238Y-90108333D01*
X142007000Y-90203571D01*
X141959380Y-90346428D01*
X141959380Y-90441666D01*
X142007000Y-90584523D01*
X142054619Y-90632142D01*
X142959380Y-91584523D02*
X142959380Y-91013095D01*
X142959380Y-91298809D02*
X141959380Y-91298809D01*
X142102238Y-91203571D01*
X142197476Y-91108333D01*
X142245095Y-91013095D01*
X141959380Y-92441666D02*
X141959380Y-92251190D01*
X142007000Y-92155952D01*
X142054619Y-92108333D01*
X142197476Y-92013095D01*
X142387952Y-91965476D01*
X142768904Y-91965476D01*
X142864142Y-92013095D01*
X142911761Y-92060714D01*
X142959380Y-92155952D01*
X142959380Y-92346428D01*
X142911761Y-92441666D01*
X142864142Y-92489285D01*
X142768904Y-92536904D01*
X142530809Y-92536904D01*
X142435571Y-92489285D01*
X142387952Y-92441666D01*
X142340333Y-92346428D01*
X142340333Y-92155952D01*
X142387952Y-92060714D01*
X142435571Y-92013095D01*
X142530809Y-91965476D01*
G04 #@! TO.C,C17*
X146114142Y-90632142D02*
X146161761Y-90584523D01*
X146209380Y-90441666D01*
X146209380Y-90346428D01*
X146161761Y-90203571D01*
X146066523Y-90108333D01*
X145971285Y-90060714D01*
X145780809Y-90013095D01*
X145637952Y-90013095D01*
X145447476Y-90060714D01*
X145352238Y-90108333D01*
X145257000Y-90203571D01*
X145209380Y-90346428D01*
X145209380Y-90441666D01*
X145257000Y-90584523D01*
X145304619Y-90632142D01*
X146209380Y-91584523D02*
X146209380Y-91013095D01*
X146209380Y-91298809D02*
X145209380Y-91298809D01*
X145352238Y-91203571D01*
X145447476Y-91108333D01*
X145495095Y-91013095D01*
X145209380Y-91917857D02*
X145209380Y-92584523D01*
X146209380Y-92155952D01*
G04 #@! TO.C,C18*
X133857886Y-134553994D02*
X133905505Y-134506375D01*
X133953124Y-134363518D01*
X133953124Y-134268280D01*
X133905505Y-134125423D01*
X133810267Y-134030185D01*
X133715029Y-133982566D01*
X133524553Y-133934947D01*
X133381696Y-133934947D01*
X133191220Y-133982566D01*
X133095982Y-134030185D01*
X133000744Y-134125423D01*
X132953124Y-134268280D01*
X132953124Y-134363518D01*
X133000744Y-134506375D01*
X133048363Y-134553994D01*
X133953124Y-135506375D02*
X133953124Y-134934947D01*
X133953124Y-135220661D02*
X132953124Y-135220661D01*
X133095982Y-135125423D01*
X133191220Y-135030185D01*
X133238839Y-134934947D01*
X133381696Y-136077804D02*
X133334077Y-135982566D01*
X133286458Y-135934947D01*
X133191220Y-135887328D01*
X133143601Y-135887328D01*
X133048363Y-135934947D01*
X133000744Y-135982566D01*
X132953124Y-136077804D01*
X132953124Y-136268280D01*
X133000744Y-136363518D01*
X133048363Y-136411137D01*
X133143601Y-136458756D01*
X133191220Y-136458756D01*
X133286458Y-136411137D01*
X133334077Y-136363518D01*
X133381696Y-136268280D01*
X133381696Y-136077804D01*
X133429315Y-135982566D01*
X133476934Y-135934947D01*
X133572172Y-135887328D01*
X133762648Y-135887328D01*
X133857886Y-135934947D01*
X133905505Y-135982566D01*
X133953124Y-136077804D01*
X133953124Y-136268280D01*
X133905505Y-136363518D01*
X133857886Y-136411137D01*
X133762648Y-136458756D01*
X133572172Y-136458756D01*
X133476934Y-136411137D01*
X133429315Y-136363518D01*
X133381696Y-136268280D01*
G04 #@! TO.C,C19*
X112817857Y-130907142D02*
X112865476Y-130954761D01*
X113008333Y-131002380D01*
X113103571Y-131002380D01*
X113246428Y-130954761D01*
X113341666Y-130859523D01*
X113389285Y-130764285D01*
X113436904Y-130573809D01*
X113436904Y-130430952D01*
X113389285Y-130240476D01*
X113341666Y-130145238D01*
X113246428Y-130050000D01*
X113103571Y-130002380D01*
X113008333Y-130002380D01*
X112865476Y-130050000D01*
X112817857Y-130097619D01*
X111865476Y-131002380D02*
X112436904Y-131002380D01*
X112151190Y-131002380D02*
X112151190Y-130002380D01*
X112246428Y-130145238D01*
X112341666Y-130240476D01*
X112436904Y-130288095D01*
X111389285Y-131002380D02*
X111198809Y-131002380D01*
X111103571Y-130954761D01*
X111055952Y-130907142D01*
X110960714Y-130764285D01*
X110913095Y-130573809D01*
X110913095Y-130192857D01*
X110960714Y-130097619D01*
X111008333Y-130050000D01*
X111103571Y-130002380D01*
X111294047Y-130002380D01*
X111389285Y-130050000D01*
X111436904Y-130097619D01*
X111484523Y-130192857D01*
X111484523Y-130430952D01*
X111436904Y-130526190D01*
X111389285Y-130573809D01*
X111294047Y-130621428D01*
X111103571Y-130621428D01*
X111008333Y-130573809D01*
X110960714Y-130526190D01*
X110913095Y-130430952D01*
G04 #@! TO.C,C20*
X154267857Y-59164142D02*
X154315476Y-59211761D01*
X154458333Y-59259380D01*
X154553571Y-59259380D01*
X154696428Y-59211761D01*
X154791666Y-59116523D01*
X154839285Y-59021285D01*
X154886904Y-58830809D01*
X154886904Y-58687952D01*
X154839285Y-58497476D01*
X154791666Y-58402238D01*
X154696428Y-58307000D01*
X154553571Y-58259380D01*
X154458333Y-58259380D01*
X154315476Y-58307000D01*
X154267857Y-58354619D01*
X153886904Y-58354619D02*
X153839285Y-58307000D01*
X153744047Y-58259380D01*
X153505952Y-58259380D01*
X153410714Y-58307000D01*
X153363095Y-58354619D01*
X153315476Y-58449857D01*
X153315476Y-58545095D01*
X153363095Y-58687952D01*
X153934523Y-59259380D01*
X153315476Y-59259380D01*
X152696428Y-58259380D02*
X152601190Y-58259380D01*
X152505952Y-58307000D01*
X152458333Y-58354619D01*
X152410714Y-58449857D01*
X152363095Y-58640333D01*
X152363095Y-58878428D01*
X152410714Y-59068904D01*
X152458333Y-59164142D01*
X152505952Y-59211761D01*
X152601190Y-59259380D01*
X152696428Y-59259380D01*
X152791666Y-59211761D01*
X152839285Y-59164142D01*
X152886904Y-59068904D01*
X152934523Y-58878428D01*
X152934523Y-58640333D01*
X152886904Y-58449857D01*
X152839285Y-58354619D01*
X152791666Y-58307000D01*
X152696428Y-58259380D01*
G04 #@! TO.C,C22*
X149142857Y-85439142D02*
X149190476Y-85486761D01*
X149333333Y-85534380D01*
X149428571Y-85534380D01*
X149571428Y-85486761D01*
X149666666Y-85391523D01*
X149714285Y-85296285D01*
X149761904Y-85105809D01*
X149761904Y-84962952D01*
X149714285Y-84772476D01*
X149666666Y-84677238D01*
X149571428Y-84582000D01*
X149428571Y-84534380D01*
X149333333Y-84534380D01*
X149190476Y-84582000D01*
X149142857Y-84629619D01*
X148761904Y-84629619D02*
X148714285Y-84582000D01*
X148619047Y-84534380D01*
X148380952Y-84534380D01*
X148285714Y-84582000D01*
X148238095Y-84629619D01*
X148190476Y-84724857D01*
X148190476Y-84820095D01*
X148238095Y-84962952D01*
X148809523Y-85534380D01*
X148190476Y-85534380D01*
X147809523Y-84629619D02*
X147761904Y-84582000D01*
X147666666Y-84534380D01*
X147428571Y-84534380D01*
X147333333Y-84582000D01*
X147285714Y-84629619D01*
X147238095Y-84724857D01*
X147238095Y-84820095D01*
X147285714Y-84962952D01*
X147857142Y-85534380D01*
X147238095Y-85534380D01*
G04 #@! TO.C,C23*
X148532142Y-88407142D02*
X148579761Y-88359523D01*
X148627380Y-88216666D01*
X148627380Y-88121428D01*
X148579761Y-87978571D01*
X148484523Y-87883333D01*
X148389285Y-87835714D01*
X148198809Y-87788095D01*
X148055952Y-87788095D01*
X147865476Y-87835714D01*
X147770238Y-87883333D01*
X147675000Y-87978571D01*
X147627380Y-88121428D01*
X147627380Y-88216666D01*
X147675000Y-88359523D01*
X147722619Y-88407142D01*
X147722619Y-88788095D02*
X147675000Y-88835714D01*
X147627380Y-88930952D01*
X147627380Y-89169047D01*
X147675000Y-89264285D01*
X147722619Y-89311904D01*
X147817857Y-89359523D01*
X147913095Y-89359523D01*
X148055952Y-89311904D01*
X148627380Y-88740476D01*
X148627380Y-89359523D01*
X147627380Y-89692857D02*
X147627380Y-90311904D01*
X148008333Y-89978571D01*
X148008333Y-90121428D01*
X148055952Y-90216666D01*
X148103571Y-90264285D01*
X148198809Y-90311904D01*
X148436904Y-90311904D01*
X148532142Y-90264285D01*
X148579761Y-90216666D01*
X148627380Y-90121428D01*
X148627380Y-89835714D01*
X148579761Y-89740476D01*
X148532142Y-89692857D01*
G04 #@! TO.C,C24*
X168617857Y-96100142D02*
X168665476Y-96147761D01*
X168808333Y-96195380D01*
X168903571Y-96195380D01*
X169046428Y-96147761D01*
X169141666Y-96052523D01*
X169189285Y-95957285D01*
X169236904Y-95766809D01*
X169236904Y-95623952D01*
X169189285Y-95433476D01*
X169141666Y-95338238D01*
X169046428Y-95243000D01*
X168903571Y-95195380D01*
X168808333Y-95195380D01*
X168665476Y-95243000D01*
X168617857Y-95290619D01*
X168236904Y-95290619D02*
X168189285Y-95243000D01*
X168094047Y-95195380D01*
X167855952Y-95195380D01*
X167760714Y-95243000D01*
X167713095Y-95290619D01*
X167665476Y-95385857D01*
X167665476Y-95481095D01*
X167713095Y-95623952D01*
X168284523Y-96195380D01*
X167665476Y-96195380D01*
X166808333Y-95528714D02*
X166808333Y-96195380D01*
X167046428Y-95147761D02*
X167284523Y-95862047D01*
X166665476Y-95862047D01*
G04 #@! TO.C,C26*
X170207142Y-87307142D02*
X170254761Y-87259523D01*
X170302380Y-87116666D01*
X170302380Y-87021428D01*
X170254761Y-86878571D01*
X170159523Y-86783333D01*
X170064285Y-86735714D01*
X169873809Y-86688095D01*
X169730952Y-86688095D01*
X169540476Y-86735714D01*
X169445238Y-86783333D01*
X169350000Y-86878571D01*
X169302380Y-87021428D01*
X169302380Y-87116666D01*
X169350000Y-87259523D01*
X169397619Y-87307142D01*
X169397619Y-87688095D02*
X169350000Y-87735714D01*
X169302380Y-87830952D01*
X169302380Y-88069047D01*
X169350000Y-88164285D01*
X169397619Y-88211904D01*
X169492857Y-88259523D01*
X169588095Y-88259523D01*
X169730952Y-88211904D01*
X170302380Y-87640476D01*
X170302380Y-88259523D01*
X169302380Y-89116666D02*
X169302380Y-88926190D01*
X169350000Y-88830952D01*
X169397619Y-88783333D01*
X169540476Y-88688095D01*
X169730952Y-88640476D01*
X170111904Y-88640476D01*
X170207142Y-88688095D01*
X170254761Y-88735714D01*
X170302380Y-88830952D01*
X170302380Y-89021428D01*
X170254761Y-89116666D01*
X170207142Y-89164285D01*
X170111904Y-89211904D01*
X169873809Y-89211904D01*
X169778571Y-89164285D01*
X169730952Y-89116666D01*
X169683333Y-89021428D01*
X169683333Y-88830952D01*
X169730952Y-88735714D01*
X169778571Y-88688095D01*
X169873809Y-88640476D01*
G04 #@! TO.C,C27*
X165617857Y-73839142D02*
X165665476Y-73886761D01*
X165808333Y-73934380D01*
X165903571Y-73934380D01*
X166046428Y-73886761D01*
X166141666Y-73791523D01*
X166189285Y-73696285D01*
X166236904Y-73505809D01*
X166236904Y-73362952D01*
X166189285Y-73172476D01*
X166141666Y-73077238D01*
X166046428Y-72982000D01*
X165903571Y-72934380D01*
X165808333Y-72934380D01*
X165665476Y-72982000D01*
X165617857Y-73029619D01*
X165236904Y-73029619D02*
X165189285Y-72982000D01*
X165094047Y-72934380D01*
X164855952Y-72934380D01*
X164760714Y-72982000D01*
X164713095Y-73029619D01*
X164665476Y-73124857D01*
X164665476Y-73220095D01*
X164713095Y-73362952D01*
X165284523Y-73934380D01*
X164665476Y-73934380D01*
X164332142Y-72934380D02*
X163665476Y-72934380D01*
X164094047Y-73934380D01*
G04 #@! TO.C,C28*
X147639142Y-81132142D02*
X147686761Y-81084523D01*
X147734380Y-80941666D01*
X147734380Y-80846428D01*
X147686761Y-80703571D01*
X147591523Y-80608333D01*
X147496285Y-80560714D01*
X147305809Y-80513095D01*
X147162952Y-80513095D01*
X146972476Y-80560714D01*
X146877238Y-80608333D01*
X146782000Y-80703571D01*
X146734380Y-80846428D01*
X146734380Y-80941666D01*
X146782000Y-81084523D01*
X146829619Y-81132142D01*
X146829619Y-81513095D02*
X146782000Y-81560714D01*
X146734380Y-81655952D01*
X146734380Y-81894047D01*
X146782000Y-81989285D01*
X146829619Y-82036904D01*
X146924857Y-82084523D01*
X147020095Y-82084523D01*
X147162952Y-82036904D01*
X147734380Y-81465476D01*
X147734380Y-82084523D01*
X147162952Y-82655952D02*
X147115333Y-82560714D01*
X147067714Y-82513095D01*
X146972476Y-82465476D01*
X146924857Y-82465476D01*
X146829619Y-82513095D01*
X146782000Y-82560714D01*
X146734380Y-82655952D01*
X146734380Y-82846428D01*
X146782000Y-82941666D01*
X146829619Y-82989285D01*
X146924857Y-83036904D01*
X146972476Y-83036904D01*
X147067714Y-82989285D01*
X147115333Y-82941666D01*
X147162952Y-82846428D01*
X147162952Y-82655952D01*
X147210571Y-82560714D01*
X147258190Y-82513095D01*
X147353428Y-82465476D01*
X147543904Y-82465476D01*
X147639142Y-82513095D01*
X147686761Y-82560714D01*
X147734380Y-82655952D01*
X147734380Y-82846428D01*
X147686761Y-82941666D01*
X147639142Y-82989285D01*
X147543904Y-83036904D01*
X147353428Y-83036904D01*
X147258190Y-82989285D01*
X147210571Y-82941666D01*
X147162952Y-82846428D01*
G04 #@! TO.C,C32*
X145820142Y-93717142D02*
X145867761Y-93669523D01*
X145915380Y-93526666D01*
X145915380Y-93431428D01*
X145867761Y-93288571D01*
X145772523Y-93193333D01*
X145677285Y-93145714D01*
X145486809Y-93098095D01*
X145343952Y-93098095D01*
X145153476Y-93145714D01*
X145058238Y-93193333D01*
X144963000Y-93288571D01*
X144915380Y-93431428D01*
X144915380Y-93526666D01*
X144963000Y-93669523D01*
X145010619Y-93717142D01*
X144915380Y-94050476D02*
X144915380Y-94669523D01*
X145296333Y-94336190D01*
X145296333Y-94479047D01*
X145343952Y-94574285D01*
X145391571Y-94621904D01*
X145486809Y-94669523D01*
X145724904Y-94669523D01*
X145820142Y-94621904D01*
X145867761Y-94574285D01*
X145915380Y-94479047D01*
X145915380Y-94193333D01*
X145867761Y-94098095D01*
X145820142Y-94050476D01*
X145010619Y-95050476D02*
X144963000Y-95098095D01*
X144915380Y-95193333D01*
X144915380Y-95431428D01*
X144963000Y-95526666D01*
X145010619Y-95574285D01*
X145105857Y-95621904D01*
X145201095Y-95621904D01*
X145343952Y-95574285D01*
X145915380Y-95002857D01*
X145915380Y-95621904D01*
G04 #@! TO.C,C33*
X141057142Y-95157142D02*
X141104761Y-95109523D01*
X141152380Y-94966666D01*
X141152380Y-94871428D01*
X141104761Y-94728571D01*
X141009523Y-94633333D01*
X140914285Y-94585714D01*
X140723809Y-94538095D01*
X140580952Y-94538095D01*
X140390476Y-94585714D01*
X140295238Y-94633333D01*
X140200000Y-94728571D01*
X140152380Y-94871428D01*
X140152380Y-94966666D01*
X140200000Y-95109523D01*
X140247619Y-95157142D01*
X140152380Y-95490476D02*
X140152380Y-96109523D01*
X140533333Y-95776190D01*
X140533333Y-95919047D01*
X140580952Y-96014285D01*
X140628571Y-96061904D01*
X140723809Y-96109523D01*
X140961904Y-96109523D01*
X141057142Y-96061904D01*
X141104761Y-96014285D01*
X141152380Y-95919047D01*
X141152380Y-95633333D01*
X141104761Y-95538095D01*
X141057142Y-95490476D01*
X140152380Y-96442857D02*
X140152380Y-97061904D01*
X140533333Y-96728571D01*
X140533333Y-96871428D01*
X140580952Y-96966666D01*
X140628571Y-97014285D01*
X140723809Y-97061904D01*
X140961904Y-97061904D01*
X141057142Y-97014285D01*
X141104761Y-96966666D01*
X141152380Y-96871428D01*
X141152380Y-96585714D01*
X141104761Y-96490476D01*
X141057142Y-96442857D01*
G04 #@! TO.C,R97*
X177852380Y-76182142D02*
X177376190Y-75848809D01*
X177852380Y-75610714D02*
X176852380Y-75610714D01*
X176852380Y-75991666D01*
X176900000Y-76086904D01*
X176947619Y-76134523D01*
X177042857Y-76182142D01*
X177185714Y-76182142D01*
X177280952Y-76134523D01*
X177328571Y-76086904D01*
X177376190Y-75991666D01*
X177376190Y-75610714D01*
X177852380Y-76658333D02*
X177852380Y-76848809D01*
X177804761Y-76944047D01*
X177757142Y-76991666D01*
X177614285Y-77086904D01*
X177423809Y-77134523D01*
X177042857Y-77134523D01*
X176947619Y-77086904D01*
X176900000Y-77039285D01*
X176852380Y-76944047D01*
X176852380Y-76753571D01*
X176900000Y-76658333D01*
X176947619Y-76610714D01*
X177042857Y-76563095D01*
X177280952Y-76563095D01*
X177376190Y-76610714D01*
X177423809Y-76658333D01*
X177471428Y-76753571D01*
X177471428Y-76944047D01*
X177423809Y-77039285D01*
X177376190Y-77086904D01*
X177280952Y-77134523D01*
X176852380Y-77467857D02*
X176852380Y-78134523D01*
X177852380Y-77705952D01*
G04 #@! TO.C,R98*
X172402380Y-76182142D02*
X171926190Y-75848809D01*
X172402380Y-75610714D02*
X171402380Y-75610714D01*
X171402380Y-75991666D01*
X171450000Y-76086904D01*
X171497619Y-76134523D01*
X171592857Y-76182142D01*
X171735714Y-76182142D01*
X171830952Y-76134523D01*
X171878571Y-76086904D01*
X171926190Y-75991666D01*
X171926190Y-75610714D01*
X172402380Y-76658333D02*
X172402380Y-76848809D01*
X172354761Y-76944047D01*
X172307142Y-76991666D01*
X172164285Y-77086904D01*
X171973809Y-77134523D01*
X171592857Y-77134523D01*
X171497619Y-77086904D01*
X171450000Y-77039285D01*
X171402380Y-76944047D01*
X171402380Y-76753571D01*
X171450000Y-76658333D01*
X171497619Y-76610714D01*
X171592857Y-76563095D01*
X171830952Y-76563095D01*
X171926190Y-76610714D01*
X171973809Y-76658333D01*
X172021428Y-76753571D01*
X172021428Y-76944047D01*
X171973809Y-77039285D01*
X171926190Y-77086904D01*
X171830952Y-77134523D01*
X171830952Y-77705952D02*
X171783333Y-77610714D01*
X171735714Y-77563095D01*
X171640476Y-77515476D01*
X171592857Y-77515476D01*
X171497619Y-77563095D01*
X171450000Y-77610714D01*
X171402380Y-77705952D01*
X171402380Y-77896428D01*
X171450000Y-77991666D01*
X171497619Y-78039285D01*
X171592857Y-78086904D01*
X171640476Y-78086904D01*
X171735714Y-78039285D01*
X171783333Y-77991666D01*
X171830952Y-77896428D01*
X171830952Y-77705952D01*
X171878571Y-77610714D01*
X171926190Y-77563095D01*
X172021428Y-77515476D01*
X172211904Y-77515476D01*
X172307142Y-77563095D01*
X172354761Y-77610714D01*
X172402380Y-77705952D01*
X172402380Y-77896428D01*
X172354761Y-77991666D01*
X172307142Y-78039285D01*
X172211904Y-78086904D01*
X172021428Y-78086904D01*
X171926190Y-78039285D01*
X171878571Y-77991666D01*
X171830952Y-77896428D01*
G04 #@! TO.C,R99*
X178502380Y-81232142D02*
X178026190Y-80898809D01*
X178502380Y-80660714D02*
X177502380Y-80660714D01*
X177502380Y-81041666D01*
X177550000Y-81136904D01*
X177597619Y-81184523D01*
X177692857Y-81232142D01*
X177835714Y-81232142D01*
X177930952Y-81184523D01*
X177978571Y-81136904D01*
X178026190Y-81041666D01*
X178026190Y-80660714D01*
X178502380Y-81708333D02*
X178502380Y-81898809D01*
X178454761Y-81994047D01*
X178407142Y-82041666D01*
X178264285Y-82136904D01*
X178073809Y-82184523D01*
X177692857Y-82184523D01*
X177597619Y-82136904D01*
X177550000Y-82089285D01*
X177502380Y-81994047D01*
X177502380Y-81803571D01*
X177550000Y-81708333D01*
X177597619Y-81660714D01*
X177692857Y-81613095D01*
X177930952Y-81613095D01*
X178026190Y-81660714D01*
X178073809Y-81708333D01*
X178121428Y-81803571D01*
X178121428Y-81994047D01*
X178073809Y-82089285D01*
X178026190Y-82136904D01*
X177930952Y-82184523D01*
X178502380Y-82660714D02*
X178502380Y-82851190D01*
X178454761Y-82946428D01*
X178407142Y-82994047D01*
X178264285Y-83089285D01*
X178073809Y-83136904D01*
X177692857Y-83136904D01*
X177597619Y-83089285D01*
X177550000Y-83041666D01*
X177502380Y-82946428D01*
X177502380Y-82755952D01*
X177550000Y-82660714D01*
X177597619Y-82613095D01*
X177692857Y-82565476D01*
X177930952Y-82565476D01*
X178026190Y-82613095D01*
X178073809Y-82660714D01*
X178121428Y-82755952D01*
X178121428Y-82946428D01*
X178073809Y-83041666D01*
X178026190Y-83089285D01*
X177930952Y-83136904D01*
G04 #@! TO.C,R100*
X172952380Y-80755952D02*
X172476190Y-80422619D01*
X172952380Y-80184523D02*
X171952380Y-80184523D01*
X171952380Y-80565476D01*
X172000000Y-80660714D01*
X172047619Y-80708333D01*
X172142857Y-80755952D01*
X172285714Y-80755952D01*
X172380952Y-80708333D01*
X172428571Y-80660714D01*
X172476190Y-80565476D01*
X172476190Y-80184523D01*
X172952380Y-81708333D02*
X172952380Y-81136904D01*
X172952380Y-81422619D02*
X171952380Y-81422619D01*
X172095238Y-81327380D01*
X172190476Y-81232142D01*
X172238095Y-81136904D01*
X171952380Y-82327380D02*
X171952380Y-82422619D01*
X172000000Y-82517857D01*
X172047619Y-82565476D01*
X172142857Y-82613095D01*
X172333333Y-82660714D01*
X172571428Y-82660714D01*
X172761904Y-82613095D01*
X172857142Y-82565476D01*
X172904761Y-82517857D01*
X172952380Y-82422619D01*
X172952380Y-82327380D01*
X172904761Y-82232142D01*
X172857142Y-82184523D01*
X172761904Y-82136904D01*
X172571428Y-82089285D01*
X172333333Y-82089285D01*
X172142857Y-82136904D01*
X172047619Y-82184523D01*
X172000000Y-82232142D01*
X171952380Y-82327380D01*
X171952380Y-83279761D02*
X171952380Y-83375000D01*
X172000000Y-83470238D01*
X172047619Y-83517857D01*
X172142857Y-83565476D01*
X172333333Y-83613095D01*
X172571428Y-83613095D01*
X172761904Y-83565476D01*
X172857142Y-83517857D01*
X172904761Y-83470238D01*
X172952380Y-83375000D01*
X172952380Y-83279761D01*
X172904761Y-83184523D01*
X172857142Y-83136904D01*
X172761904Y-83089285D01*
X172571428Y-83041666D01*
X172333333Y-83041666D01*
X172142857Y-83089285D01*
X172047619Y-83136904D01*
X172000000Y-83184523D01*
X171952380Y-83279761D01*
G04 #@! TO.C,R101*
X176227380Y-90030952D02*
X175751190Y-89697619D01*
X176227380Y-89459523D02*
X175227380Y-89459523D01*
X175227380Y-89840476D01*
X175275000Y-89935714D01*
X175322619Y-89983333D01*
X175417857Y-90030952D01*
X175560714Y-90030952D01*
X175655952Y-89983333D01*
X175703571Y-89935714D01*
X175751190Y-89840476D01*
X175751190Y-89459523D01*
X176227380Y-90983333D02*
X176227380Y-90411904D01*
X176227380Y-90697619D02*
X175227380Y-90697619D01*
X175370238Y-90602380D01*
X175465476Y-90507142D01*
X175513095Y-90411904D01*
X175227380Y-91602380D02*
X175227380Y-91697619D01*
X175275000Y-91792857D01*
X175322619Y-91840476D01*
X175417857Y-91888095D01*
X175608333Y-91935714D01*
X175846428Y-91935714D01*
X176036904Y-91888095D01*
X176132142Y-91840476D01*
X176179761Y-91792857D01*
X176227380Y-91697619D01*
X176227380Y-91602380D01*
X176179761Y-91507142D01*
X176132142Y-91459523D01*
X176036904Y-91411904D01*
X175846428Y-91364285D01*
X175608333Y-91364285D01*
X175417857Y-91411904D01*
X175322619Y-91459523D01*
X175275000Y-91507142D01*
X175227380Y-91602380D01*
X176227380Y-92888095D02*
X176227380Y-92316666D01*
X176227380Y-92602380D02*
X175227380Y-92602380D01*
X175370238Y-92507142D01*
X175465476Y-92411904D01*
X175513095Y-92316666D01*
G04 #@! TO.C,R102*
X181477380Y-90030952D02*
X181001190Y-89697619D01*
X181477380Y-89459523D02*
X180477380Y-89459523D01*
X180477380Y-89840476D01*
X180525000Y-89935714D01*
X180572619Y-89983333D01*
X180667857Y-90030952D01*
X180810714Y-90030952D01*
X180905952Y-89983333D01*
X180953571Y-89935714D01*
X181001190Y-89840476D01*
X181001190Y-89459523D01*
X181477380Y-90983333D02*
X181477380Y-90411904D01*
X181477380Y-90697619D02*
X180477380Y-90697619D01*
X180620238Y-90602380D01*
X180715476Y-90507142D01*
X180763095Y-90411904D01*
X180477380Y-91602380D02*
X180477380Y-91697619D01*
X180525000Y-91792857D01*
X180572619Y-91840476D01*
X180667857Y-91888095D01*
X180858333Y-91935714D01*
X181096428Y-91935714D01*
X181286904Y-91888095D01*
X181382142Y-91840476D01*
X181429761Y-91792857D01*
X181477380Y-91697619D01*
X181477380Y-91602380D01*
X181429761Y-91507142D01*
X181382142Y-91459523D01*
X181286904Y-91411904D01*
X181096428Y-91364285D01*
X180858333Y-91364285D01*
X180667857Y-91411904D01*
X180572619Y-91459523D01*
X180525000Y-91507142D01*
X180477380Y-91602380D01*
X180572619Y-92316666D02*
X180525000Y-92364285D01*
X180477380Y-92459523D01*
X180477380Y-92697619D01*
X180525000Y-92792857D01*
X180572619Y-92840476D01*
X180667857Y-92888095D01*
X180763095Y-92888095D01*
X180905952Y-92840476D01*
X181477380Y-92269047D01*
X181477380Y-92888095D01*
G04 #@! TO.C,R103*
X173677380Y-96280952D02*
X173201190Y-95947619D01*
X173677380Y-95709523D02*
X172677380Y-95709523D01*
X172677380Y-96090476D01*
X172725000Y-96185714D01*
X172772619Y-96233333D01*
X172867857Y-96280952D01*
X173010714Y-96280952D01*
X173105952Y-96233333D01*
X173153571Y-96185714D01*
X173201190Y-96090476D01*
X173201190Y-95709523D01*
X173677380Y-97233333D02*
X173677380Y-96661904D01*
X173677380Y-96947619D02*
X172677380Y-96947619D01*
X172820238Y-96852380D01*
X172915476Y-96757142D01*
X172963095Y-96661904D01*
X172677380Y-97852380D02*
X172677380Y-97947619D01*
X172725000Y-98042857D01*
X172772619Y-98090476D01*
X172867857Y-98138095D01*
X173058333Y-98185714D01*
X173296428Y-98185714D01*
X173486904Y-98138095D01*
X173582142Y-98090476D01*
X173629761Y-98042857D01*
X173677380Y-97947619D01*
X173677380Y-97852380D01*
X173629761Y-97757142D01*
X173582142Y-97709523D01*
X173486904Y-97661904D01*
X173296428Y-97614285D01*
X173058333Y-97614285D01*
X172867857Y-97661904D01*
X172772619Y-97709523D01*
X172725000Y-97757142D01*
X172677380Y-97852380D01*
X172677380Y-98519047D02*
X172677380Y-99138095D01*
X173058333Y-98804761D01*
X173058333Y-98947619D01*
X173105952Y-99042857D01*
X173153571Y-99090476D01*
X173248809Y-99138095D01*
X173486904Y-99138095D01*
X173582142Y-99090476D01*
X173629761Y-99042857D01*
X173677380Y-98947619D01*
X173677380Y-98661904D01*
X173629761Y-98566666D01*
X173582142Y-98519047D01*
G04 #@! TO.C,R104*
X171752380Y-96280952D02*
X171276190Y-95947619D01*
X171752380Y-95709523D02*
X170752380Y-95709523D01*
X170752380Y-96090476D01*
X170800000Y-96185714D01*
X170847619Y-96233333D01*
X170942857Y-96280952D01*
X171085714Y-96280952D01*
X171180952Y-96233333D01*
X171228571Y-96185714D01*
X171276190Y-96090476D01*
X171276190Y-95709523D01*
X171752380Y-97233333D02*
X171752380Y-96661904D01*
X171752380Y-96947619D02*
X170752380Y-96947619D01*
X170895238Y-96852380D01*
X170990476Y-96757142D01*
X171038095Y-96661904D01*
X170752380Y-97852380D02*
X170752380Y-97947619D01*
X170800000Y-98042857D01*
X170847619Y-98090476D01*
X170942857Y-98138095D01*
X171133333Y-98185714D01*
X171371428Y-98185714D01*
X171561904Y-98138095D01*
X171657142Y-98090476D01*
X171704761Y-98042857D01*
X171752380Y-97947619D01*
X171752380Y-97852380D01*
X171704761Y-97757142D01*
X171657142Y-97709523D01*
X171561904Y-97661904D01*
X171371428Y-97614285D01*
X171133333Y-97614285D01*
X170942857Y-97661904D01*
X170847619Y-97709523D01*
X170800000Y-97757142D01*
X170752380Y-97852380D01*
X171085714Y-99042857D02*
X171752380Y-99042857D01*
X170704761Y-98804761D02*
X171419047Y-98566666D01*
X171419047Y-99185714D01*
G04 #@! TO.C,R106*
X113869047Y-133427380D02*
X114202380Y-132951190D01*
X114440476Y-133427380D02*
X114440476Y-132427380D01*
X114059523Y-132427380D01*
X113964285Y-132475000D01*
X113916666Y-132522619D01*
X113869047Y-132617857D01*
X113869047Y-132760714D01*
X113916666Y-132855952D01*
X113964285Y-132903571D01*
X114059523Y-132951190D01*
X114440476Y-132951190D01*
X112916666Y-133427380D02*
X113488095Y-133427380D01*
X113202380Y-133427380D02*
X113202380Y-132427380D01*
X113297619Y-132570238D01*
X113392857Y-132665476D01*
X113488095Y-132713095D01*
X112297619Y-132427380D02*
X112202380Y-132427380D01*
X112107142Y-132475000D01*
X112059523Y-132522619D01*
X112011904Y-132617857D01*
X111964285Y-132808333D01*
X111964285Y-133046428D01*
X112011904Y-133236904D01*
X112059523Y-133332142D01*
X112107142Y-133379761D01*
X112202380Y-133427380D01*
X112297619Y-133427380D01*
X112392857Y-133379761D01*
X112440476Y-133332142D01*
X112488095Y-133236904D01*
X112535714Y-133046428D01*
X112535714Y-132808333D01*
X112488095Y-132617857D01*
X112440476Y-132522619D01*
X112392857Y-132475000D01*
X112297619Y-132427380D01*
X111107142Y-132427380D02*
X111297619Y-132427380D01*
X111392857Y-132475000D01*
X111440476Y-132522619D01*
X111535714Y-132665476D01*
X111583333Y-132855952D01*
X111583333Y-133236904D01*
X111535714Y-133332142D01*
X111488095Y-133379761D01*
X111392857Y-133427380D01*
X111202380Y-133427380D01*
X111107142Y-133379761D01*
X111059523Y-133332142D01*
X111011904Y-133236904D01*
X111011904Y-132998809D01*
X111059523Y-132903571D01*
X111107142Y-132855952D01*
X111202380Y-132808333D01*
X111392857Y-132808333D01*
X111488095Y-132855952D01*
X111535714Y-132903571D01*
X111583333Y-132998809D01*
G04 #@! TO.C,R107*
X130019047Y-131402380D02*
X130352380Y-130926190D01*
X130590476Y-131402380D02*
X130590476Y-130402380D01*
X130209523Y-130402380D01*
X130114285Y-130450000D01*
X130066666Y-130497619D01*
X130019047Y-130592857D01*
X130019047Y-130735714D01*
X130066666Y-130830952D01*
X130114285Y-130878571D01*
X130209523Y-130926190D01*
X130590476Y-130926190D01*
X129066666Y-131402380D02*
X129638095Y-131402380D01*
X129352380Y-131402380D02*
X129352380Y-130402380D01*
X129447619Y-130545238D01*
X129542857Y-130640476D01*
X129638095Y-130688095D01*
X128447619Y-130402380D02*
X128352380Y-130402380D01*
X128257142Y-130450000D01*
X128209523Y-130497619D01*
X128161904Y-130592857D01*
X128114285Y-130783333D01*
X128114285Y-131021428D01*
X128161904Y-131211904D01*
X128209523Y-131307142D01*
X128257142Y-131354761D01*
X128352380Y-131402380D01*
X128447619Y-131402380D01*
X128542857Y-131354761D01*
X128590476Y-131307142D01*
X128638095Y-131211904D01*
X128685714Y-131021428D01*
X128685714Y-130783333D01*
X128638095Y-130592857D01*
X128590476Y-130497619D01*
X128542857Y-130450000D01*
X128447619Y-130402380D01*
X127780952Y-130402380D02*
X127114285Y-130402380D01*
X127542857Y-131402380D01*
G04 #@! TO.C,R108*
X116327380Y-105205952D02*
X115851190Y-104872619D01*
X116327380Y-104634523D02*
X115327380Y-104634523D01*
X115327380Y-105015476D01*
X115375000Y-105110714D01*
X115422619Y-105158333D01*
X115517857Y-105205952D01*
X115660714Y-105205952D01*
X115755952Y-105158333D01*
X115803571Y-105110714D01*
X115851190Y-105015476D01*
X115851190Y-104634523D01*
X116327380Y-106158333D02*
X116327380Y-105586904D01*
X116327380Y-105872619D02*
X115327380Y-105872619D01*
X115470238Y-105777380D01*
X115565476Y-105682142D01*
X115613095Y-105586904D01*
X115327380Y-106777380D02*
X115327380Y-106872619D01*
X115375000Y-106967857D01*
X115422619Y-107015476D01*
X115517857Y-107063095D01*
X115708333Y-107110714D01*
X115946428Y-107110714D01*
X116136904Y-107063095D01*
X116232142Y-107015476D01*
X116279761Y-106967857D01*
X116327380Y-106872619D01*
X116327380Y-106777380D01*
X116279761Y-106682142D01*
X116232142Y-106634523D01*
X116136904Y-106586904D01*
X115946428Y-106539285D01*
X115708333Y-106539285D01*
X115517857Y-106586904D01*
X115422619Y-106634523D01*
X115375000Y-106682142D01*
X115327380Y-106777380D01*
X115755952Y-107682142D02*
X115708333Y-107586904D01*
X115660714Y-107539285D01*
X115565476Y-107491666D01*
X115517857Y-107491666D01*
X115422619Y-107539285D01*
X115375000Y-107586904D01*
X115327380Y-107682142D01*
X115327380Y-107872619D01*
X115375000Y-107967857D01*
X115422619Y-108015476D01*
X115517857Y-108063095D01*
X115565476Y-108063095D01*
X115660714Y-108015476D01*
X115708333Y-107967857D01*
X115755952Y-107872619D01*
X115755952Y-107682142D01*
X115803571Y-107586904D01*
X115851190Y-107539285D01*
X115946428Y-107491666D01*
X116136904Y-107491666D01*
X116232142Y-107539285D01*
X116279761Y-107586904D01*
X116327380Y-107682142D01*
X116327380Y-107872619D01*
X116279761Y-107967857D01*
X116232142Y-108015476D01*
X116136904Y-108063095D01*
X115946428Y-108063095D01*
X115851190Y-108015476D01*
X115803571Y-107967857D01*
X115755952Y-107872619D01*
G04 #@! TO.C,C34*
X148582142Y-91682142D02*
X148629761Y-91634523D01*
X148677380Y-91491666D01*
X148677380Y-91396428D01*
X148629761Y-91253571D01*
X148534523Y-91158333D01*
X148439285Y-91110714D01*
X148248809Y-91063095D01*
X148105952Y-91063095D01*
X147915476Y-91110714D01*
X147820238Y-91158333D01*
X147725000Y-91253571D01*
X147677380Y-91396428D01*
X147677380Y-91491666D01*
X147725000Y-91634523D01*
X147772619Y-91682142D01*
X147677380Y-92015476D02*
X147677380Y-92634523D01*
X148058333Y-92301190D01*
X148058333Y-92444047D01*
X148105952Y-92539285D01*
X148153571Y-92586904D01*
X148248809Y-92634523D01*
X148486904Y-92634523D01*
X148582142Y-92586904D01*
X148629761Y-92539285D01*
X148677380Y-92444047D01*
X148677380Y-92158333D01*
X148629761Y-92063095D01*
X148582142Y-92015476D01*
X148010714Y-93491666D02*
X148677380Y-93491666D01*
X147629761Y-93253571D02*
X148344047Y-93015476D01*
X148344047Y-93634523D01*
G04 #@! TO.C,C35*
X154617857Y-74064142D02*
X154665476Y-74111761D01*
X154808333Y-74159380D01*
X154903571Y-74159380D01*
X155046428Y-74111761D01*
X155141666Y-74016523D01*
X155189285Y-73921285D01*
X155236904Y-73730809D01*
X155236904Y-73587952D01*
X155189285Y-73397476D01*
X155141666Y-73302238D01*
X155046428Y-73207000D01*
X154903571Y-73159380D01*
X154808333Y-73159380D01*
X154665476Y-73207000D01*
X154617857Y-73254619D01*
X154284523Y-73159380D02*
X153665476Y-73159380D01*
X153998809Y-73540333D01*
X153855952Y-73540333D01*
X153760714Y-73587952D01*
X153713095Y-73635571D01*
X153665476Y-73730809D01*
X153665476Y-73968904D01*
X153713095Y-74064142D01*
X153760714Y-74111761D01*
X153855952Y-74159380D01*
X154141666Y-74159380D01*
X154236904Y-74111761D01*
X154284523Y-74064142D01*
X152760714Y-73159380D02*
X153236904Y-73159380D01*
X153284523Y-73635571D01*
X153236904Y-73587952D01*
X153141666Y-73540333D01*
X152903571Y-73540333D01*
X152808333Y-73587952D01*
X152760714Y-73635571D01*
X152713095Y-73730809D01*
X152713095Y-73968904D01*
X152760714Y-74064142D01*
X152808333Y-74111761D01*
X152903571Y-74159380D01*
X153141666Y-74159380D01*
X153236904Y-74111761D01*
X153284523Y-74064142D01*
G04 #@! TO.C,P4*
X184853571Y-94639154D02*
X184901190Y-94782011D01*
X184948809Y-94829630D01*
X185044047Y-94877250D01*
X185186904Y-94877250D01*
X185282142Y-94829630D01*
X185329761Y-94782011D01*
X185377380Y-94686773D01*
X185377380Y-94305821D01*
X184377380Y-94305821D01*
X184377380Y-94639154D01*
X184425000Y-94734392D01*
X184472619Y-94782011D01*
X184567857Y-94829630D01*
X184663095Y-94829630D01*
X184758333Y-94782011D01*
X184805952Y-94734392D01*
X184853571Y-94639154D01*
X184853571Y-94305821D01*
X184377380Y-95305821D02*
X185186904Y-95305821D01*
X185282142Y-95353440D01*
X185329761Y-95401059D01*
X185377380Y-95496297D01*
X185377380Y-95686773D01*
X185329761Y-95782011D01*
X185282142Y-95829630D01*
X185186904Y-95877250D01*
X184377380Y-95877250D01*
X184377380Y-96210583D02*
X184377380Y-96782011D01*
X185377380Y-96496297D02*
X184377380Y-96496297D01*
X184377380Y-96972488D02*
X184377380Y-97543916D01*
X185377380Y-97258202D02*
X184377380Y-97258202D01*
X184377380Y-98067726D02*
X184377380Y-98258202D01*
X184425000Y-98353440D01*
X184520238Y-98448678D01*
X184710714Y-98496297D01*
X185044047Y-98496297D01*
X185234523Y-98448678D01*
X185329761Y-98353440D01*
X185377380Y-98258202D01*
X185377380Y-98067726D01*
X185329761Y-97972488D01*
X185234523Y-97877250D01*
X185044047Y-97829630D01*
X184710714Y-97829630D01*
X184520238Y-97877250D01*
X184425000Y-97972488D01*
X184377380Y-98067726D01*
X185377380Y-98924869D02*
X184377380Y-98924869D01*
X185377380Y-99496297D01*
X184377380Y-99496297D01*
X185377380Y-100496297D02*
X185377380Y-99924869D01*
X185377380Y-100210583D02*
X184377380Y-100210583D01*
X184520238Y-100115345D01*
X184615476Y-100020107D01*
X184663095Y-99924869D01*
G04 #@! TO.C,P5*
X151169345Y-133728571D02*
X151026488Y-133776190D01*
X150978869Y-133823809D01*
X150931250Y-133919047D01*
X150931250Y-134061904D01*
X150978869Y-134157142D01*
X151026488Y-134204761D01*
X151121726Y-134252380D01*
X151502678Y-134252380D01*
X151502678Y-133252380D01*
X151169345Y-133252380D01*
X151074107Y-133300000D01*
X151026488Y-133347619D01*
X150978869Y-133442857D01*
X150978869Y-133538095D01*
X151026488Y-133633333D01*
X151074107Y-133680952D01*
X151169345Y-133728571D01*
X151502678Y-133728571D01*
X150502678Y-133252380D02*
X150502678Y-134061904D01*
X150455059Y-134157142D01*
X150407440Y-134204761D01*
X150312202Y-134252380D01*
X150121726Y-134252380D01*
X150026488Y-134204761D01*
X149978869Y-134157142D01*
X149931250Y-134061904D01*
X149931250Y-133252380D01*
X149597916Y-133252380D02*
X149026488Y-133252380D01*
X149312202Y-134252380D02*
X149312202Y-133252380D01*
X148836011Y-133252380D02*
X148264583Y-133252380D01*
X148550297Y-134252380D02*
X148550297Y-133252380D01*
X147740773Y-133252380D02*
X147550297Y-133252380D01*
X147455059Y-133300000D01*
X147359821Y-133395238D01*
X147312202Y-133585714D01*
X147312202Y-133919047D01*
X147359821Y-134109523D01*
X147455059Y-134204761D01*
X147550297Y-134252380D01*
X147740773Y-134252380D01*
X147836011Y-134204761D01*
X147931250Y-134109523D01*
X147978869Y-133919047D01*
X147978869Y-133585714D01*
X147931250Y-133395238D01*
X147836011Y-133300000D01*
X147740773Y-133252380D01*
X146883630Y-134252380D02*
X146883630Y-133252380D01*
X146312202Y-134252380D01*
X146312202Y-133252380D01*
X145883630Y-133347619D02*
X145836011Y-133300000D01*
X145740773Y-133252380D01*
X145502678Y-133252380D01*
X145407440Y-133300000D01*
X145359821Y-133347619D01*
X145312202Y-133442857D01*
X145312202Y-133538095D01*
X145359821Y-133680952D01*
X145931250Y-134252380D01*
X145312202Y-134252380D01*
G04 #@! TO.C,P6*
X150163095Y-60903571D02*
X150020238Y-60951190D01*
X149972619Y-60998809D01*
X149925000Y-61094047D01*
X149925000Y-61236904D01*
X149972619Y-61332142D01*
X150020238Y-61379761D01*
X150115476Y-61427380D01*
X150496428Y-61427380D01*
X150496428Y-60427380D01*
X150163095Y-60427380D01*
X150067857Y-60475000D01*
X150020238Y-60522619D01*
X149972619Y-60617857D01*
X149972619Y-60713095D01*
X150020238Y-60808333D01*
X150067857Y-60855952D01*
X150163095Y-60903571D01*
X150496428Y-60903571D01*
X149496428Y-60427380D02*
X149496428Y-61236904D01*
X149448809Y-61332142D01*
X149401190Y-61379761D01*
X149305952Y-61427380D01*
X149115476Y-61427380D01*
X149020238Y-61379761D01*
X148972619Y-61332142D01*
X148925000Y-61236904D01*
X148925000Y-60427380D01*
X148591666Y-60427380D02*
X148020238Y-60427380D01*
X148305952Y-61427380D02*
X148305952Y-60427380D01*
X147829761Y-60427380D02*
X147258333Y-60427380D01*
X147544047Y-61427380D02*
X147544047Y-60427380D01*
X146734523Y-60427380D02*
X146544047Y-60427380D01*
X146448809Y-60475000D01*
X146353571Y-60570238D01*
X146305952Y-60760714D01*
X146305952Y-61094047D01*
X146353571Y-61284523D01*
X146448809Y-61379761D01*
X146544047Y-61427380D01*
X146734523Y-61427380D01*
X146829761Y-61379761D01*
X146925000Y-61284523D01*
X146972619Y-61094047D01*
X146972619Y-60760714D01*
X146925000Y-60570238D01*
X146829761Y-60475000D01*
X146734523Y-60427380D01*
X145877380Y-61427380D02*
X145877380Y-60427380D01*
X145305952Y-61427380D01*
X145305952Y-60427380D01*
X144925000Y-60427380D02*
X144305952Y-60427380D01*
X144639285Y-60808333D01*
X144496428Y-60808333D01*
X144401190Y-60855952D01*
X144353571Y-60903571D01*
X144305952Y-60998809D01*
X144305952Y-61236904D01*
X144353571Y-61332142D01*
X144401190Y-61379761D01*
X144496428Y-61427380D01*
X144782142Y-61427380D01*
X144877380Y-61379761D01*
X144925000Y-61332142D01*
G04 #@! TO.C,P7*
X111853571Y-94639154D02*
X111901190Y-94782011D01*
X111948809Y-94829630D01*
X112044047Y-94877250D01*
X112186904Y-94877250D01*
X112282142Y-94829630D01*
X112329761Y-94782011D01*
X112377380Y-94686773D01*
X112377380Y-94305821D01*
X111377380Y-94305821D01*
X111377380Y-94639154D01*
X111425000Y-94734392D01*
X111472619Y-94782011D01*
X111567857Y-94829630D01*
X111663095Y-94829630D01*
X111758333Y-94782011D01*
X111805952Y-94734392D01*
X111853571Y-94639154D01*
X111853571Y-94305821D01*
X111377380Y-95305821D02*
X112186904Y-95305821D01*
X112282142Y-95353440D01*
X112329761Y-95401059D01*
X112377380Y-95496297D01*
X112377380Y-95686773D01*
X112329761Y-95782011D01*
X112282142Y-95829630D01*
X112186904Y-95877250D01*
X111377380Y-95877250D01*
X111377380Y-96210583D02*
X111377380Y-96782011D01*
X112377380Y-96496297D02*
X111377380Y-96496297D01*
X111377380Y-96972488D02*
X111377380Y-97543916D01*
X112377380Y-97258202D02*
X111377380Y-97258202D01*
X111377380Y-98067726D02*
X111377380Y-98258202D01*
X111425000Y-98353440D01*
X111520238Y-98448678D01*
X111710714Y-98496297D01*
X112044047Y-98496297D01*
X112234523Y-98448678D01*
X112329761Y-98353440D01*
X112377380Y-98258202D01*
X112377380Y-98067726D01*
X112329761Y-97972488D01*
X112234523Y-97877250D01*
X112044047Y-97829630D01*
X111710714Y-97829630D01*
X111520238Y-97877250D01*
X111425000Y-97972488D01*
X111377380Y-98067726D01*
X112377380Y-98924869D02*
X111377380Y-98924869D01*
X112377380Y-99496297D01*
X111377380Y-99496297D01*
X111710714Y-100401059D02*
X112377380Y-100401059D01*
X111329761Y-100162964D02*
X112044047Y-99924869D01*
X112044047Y-100543916D01*
G04 #@! TO.C,Y1*
X141426190Y-86476190D02*
X141426190Y-86952380D01*
X141759523Y-85952380D02*
X141426190Y-86476190D01*
X141092857Y-85952380D01*
X140235714Y-86952380D02*
X140807142Y-86952380D01*
X140521428Y-86952380D02*
X140521428Y-85952380D01*
X140616666Y-86095238D01*
X140711904Y-86190476D01*
X140807142Y-86238095D01*
G04 #@! TO.C,Y2*
X145751190Y-86701190D02*
X145751190Y-87177380D01*
X146084523Y-86177380D02*
X145751190Y-86701190D01*
X145417857Y-86177380D01*
X145132142Y-86272619D02*
X145084523Y-86225000D01*
X144989285Y-86177380D01*
X144751190Y-86177380D01*
X144655952Y-86225000D01*
X144608333Y-86272619D01*
X144560714Y-86367857D01*
X144560714Y-86463095D01*
X144608333Y-86605952D01*
X145179761Y-87177380D01*
X144560714Y-87177380D01*
G04 #@! TO.C,C36*
X187367857Y-129657142D02*
X187415476Y-129704761D01*
X187558333Y-129752380D01*
X187653571Y-129752380D01*
X187796428Y-129704761D01*
X187891666Y-129609523D01*
X187939285Y-129514285D01*
X187986904Y-129323809D01*
X187986904Y-129180952D01*
X187939285Y-128990476D01*
X187891666Y-128895238D01*
X187796428Y-128800000D01*
X187653571Y-128752380D01*
X187558333Y-128752380D01*
X187415476Y-128800000D01*
X187367857Y-128847619D01*
X187034523Y-128752380D02*
X186415476Y-128752380D01*
X186748809Y-129133333D01*
X186605952Y-129133333D01*
X186510714Y-129180952D01*
X186463095Y-129228571D01*
X186415476Y-129323809D01*
X186415476Y-129561904D01*
X186463095Y-129657142D01*
X186510714Y-129704761D01*
X186605952Y-129752380D01*
X186891666Y-129752380D01*
X186986904Y-129704761D01*
X187034523Y-129657142D01*
X185558333Y-128752380D02*
X185748809Y-128752380D01*
X185844047Y-128800000D01*
X185891666Y-128847619D01*
X185986904Y-128990476D01*
X186034523Y-129180952D01*
X186034523Y-129561904D01*
X185986904Y-129657142D01*
X185939285Y-129704761D01*
X185844047Y-129752380D01*
X185653571Y-129752380D01*
X185558333Y-129704761D01*
X185510714Y-129657142D01*
X185463095Y-129561904D01*
X185463095Y-129323809D01*
X185510714Y-129228571D01*
X185558333Y-129180952D01*
X185653571Y-129133333D01*
X185844047Y-129133333D01*
X185939285Y-129180952D01*
X185986904Y-129228571D01*
X186034523Y-129323809D01*
G04 #@! TO.C,C37*
X186117857Y-109257142D02*
X186165476Y-109304761D01*
X186308333Y-109352380D01*
X186403571Y-109352380D01*
X186546428Y-109304761D01*
X186641666Y-109209523D01*
X186689285Y-109114285D01*
X186736904Y-108923809D01*
X186736904Y-108780952D01*
X186689285Y-108590476D01*
X186641666Y-108495238D01*
X186546428Y-108400000D01*
X186403571Y-108352380D01*
X186308333Y-108352380D01*
X186165476Y-108400000D01*
X186117857Y-108447619D01*
X185784523Y-108352380D02*
X185165476Y-108352380D01*
X185498809Y-108733333D01*
X185355952Y-108733333D01*
X185260714Y-108780952D01*
X185213095Y-108828571D01*
X185165476Y-108923809D01*
X185165476Y-109161904D01*
X185213095Y-109257142D01*
X185260714Y-109304761D01*
X185355952Y-109352380D01*
X185641666Y-109352380D01*
X185736904Y-109304761D01*
X185784523Y-109257142D01*
X184832142Y-108352380D02*
X184165476Y-108352380D01*
X184594047Y-109352380D01*
G04 #@! TO.C,C38*
X185717857Y-125982142D02*
X185765476Y-126029761D01*
X185908333Y-126077380D01*
X186003571Y-126077380D01*
X186146428Y-126029761D01*
X186241666Y-125934523D01*
X186289285Y-125839285D01*
X186336904Y-125648809D01*
X186336904Y-125505952D01*
X186289285Y-125315476D01*
X186241666Y-125220238D01*
X186146428Y-125125000D01*
X186003571Y-125077380D01*
X185908333Y-125077380D01*
X185765476Y-125125000D01*
X185717857Y-125172619D01*
X185384523Y-125077380D02*
X184765476Y-125077380D01*
X185098809Y-125458333D01*
X184955952Y-125458333D01*
X184860714Y-125505952D01*
X184813095Y-125553571D01*
X184765476Y-125648809D01*
X184765476Y-125886904D01*
X184813095Y-125982142D01*
X184860714Y-126029761D01*
X184955952Y-126077380D01*
X185241666Y-126077380D01*
X185336904Y-126029761D01*
X185384523Y-125982142D01*
X184194047Y-125505952D02*
X184289285Y-125458333D01*
X184336904Y-125410714D01*
X184384523Y-125315476D01*
X184384523Y-125267857D01*
X184336904Y-125172619D01*
X184289285Y-125125000D01*
X184194047Y-125077380D01*
X184003571Y-125077380D01*
X183908333Y-125125000D01*
X183860714Y-125172619D01*
X183813095Y-125267857D01*
X183813095Y-125315476D01*
X183860714Y-125410714D01*
X183908333Y-125458333D01*
X184003571Y-125505952D01*
X184194047Y-125505952D01*
X184289285Y-125553571D01*
X184336904Y-125601190D01*
X184384523Y-125696428D01*
X184384523Y-125886904D01*
X184336904Y-125982142D01*
X184289285Y-126029761D01*
X184194047Y-126077380D01*
X184003571Y-126077380D01*
X183908333Y-126029761D01*
X183860714Y-125982142D01*
X183813095Y-125886904D01*
X183813095Y-125696428D01*
X183860714Y-125601190D01*
X183908333Y-125553571D01*
X184003571Y-125505952D01*
G04 #@! TO.C,L1*
X186306262Y-113306037D02*
X186306262Y-112829846D01*
X185306262Y-112829846D01*
X186306262Y-114163180D02*
X186306262Y-113591751D01*
X186306262Y-113877465D02*
X185306262Y-113877465D01*
X185449120Y-113782227D01*
X185544358Y-113686989D01*
X185591977Y-113591751D01*
G04 #@! TO.C,P8*
X186352380Y-138952380D02*
X186352380Y-137952380D01*
X185971428Y-137952380D01*
X185876190Y-138000000D01*
X185828571Y-138047619D01*
X185780952Y-138142857D01*
X185780952Y-138285714D01*
X185828571Y-138380952D01*
X185876190Y-138428571D01*
X185971428Y-138476190D01*
X186352380Y-138476190D01*
X185161904Y-137952380D02*
X184971428Y-137952380D01*
X184876190Y-138000000D01*
X184780952Y-138095238D01*
X184733333Y-138285714D01*
X184733333Y-138619047D01*
X184780952Y-138809523D01*
X184876190Y-138904761D01*
X184971428Y-138952380D01*
X185161904Y-138952380D01*
X185257142Y-138904761D01*
X185352380Y-138809523D01*
X185400000Y-138619047D01*
X185400000Y-138285714D01*
X185352380Y-138095238D01*
X185257142Y-138000000D01*
X185161904Y-137952380D01*
X184400000Y-137952380D02*
X184161904Y-138952380D01*
X183971428Y-138238095D01*
X183780952Y-138952380D01*
X183542857Y-137952380D01*
X183161904Y-138428571D02*
X182828571Y-138428571D01*
X182685714Y-138952380D02*
X183161904Y-138952380D01*
X183161904Y-137952380D01*
X182685714Y-137952380D01*
X181685714Y-138952380D02*
X182019047Y-138476190D01*
X182257142Y-138952380D02*
X182257142Y-137952380D01*
X181876190Y-137952380D01*
X181780952Y-138000000D01*
X181733333Y-138047619D01*
X181685714Y-138142857D01*
X181685714Y-138285714D01*
X181733333Y-138380952D01*
X181780952Y-138428571D01*
X181876190Y-138476190D01*
X182257142Y-138476190D01*
X181495238Y-139047619D02*
X180733333Y-139047619D01*
X180495238Y-138952380D02*
X180495238Y-137952380D01*
X180019047Y-138952380D02*
X180019047Y-137952380D01*
X179447619Y-138952380D01*
X179447619Y-137952380D01*
G04 #@! TO.C,R109*
X185719047Y-118202380D02*
X186052380Y-117726190D01*
X186290476Y-118202380D02*
X186290476Y-117202380D01*
X185909523Y-117202380D01*
X185814285Y-117250000D01*
X185766666Y-117297619D01*
X185719047Y-117392857D01*
X185719047Y-117535714D01*
X185766666Y-117630952D01*
X185814285Y-117678571D01*
X185909523Y-117726190D01*
X186290476Y-117726190D01*
X184766666Y-118202380D02*
X185338095Y-118202380D01*
X185052380Y-118202380D02*
X185052380Y-117202380D01*
X185147619Y-117345238D01*
X185242857Y-117440476D01*
X185338095Y-117488095D01*
X184147619Y-117202380D02*
X184052380Y-117202380D01*
X183957142Y-117250000D01*
X183909523Y-117297619D01*
X183861904Y-117392857D01*
X183814285Y-117583333D01*
X183814285Y-117821428D01*
X183861904Y-118011904D01*
X183909523Y-118107142D01*
X183957142Y-118154761D01*
X184052380Y-118202380D01*
X184147619Y-118202380D01*
X184242857Y-118154761D01*
X184290476Y-118107142D01*
X184338095Y-118011904D01*
X184385714Y-117821428D01*
X184385714Y-117583333D01*
X184338095Y-117392857D01*
X184290476Y-117297619D01*
X184242857Y-117250000D01*
X184147619Y-117202380D01*
X183338095Y-118202380D02*
X183147619Y-118202380D01*
X183052380Y-118154761D01*
X183004761Y-118107142D01*
X182909523Y-117964285D01*
X182861904Y-117773809D01*
X182861904Y-117392857D01*
X182909523Y-117297619D01*
X182957142Y-117250000D01*
X183052380Y-117202380D01*
X183242857Y-117202380D01*
X183338095Y-117250000D01*
X183385714Y-117297619D01*
X183433333Y-117392857D01*
X183433333Y-117630952D01*
X183385714Y-117726190D01*
X183338095Y-117773809D01*
X183242857Y-117821428D01*
X183052380Y-117821428D01*
X182957142Y-117773809D01*
X182909523Y-117726190D01*
X182861904Y-117630952D01*
G04 #@! TO.C,U15*
X188288095Y-121752380D02*
X188288095Y-122561904D01*
X188240476Y-122657142D01*
X188192857Y-122704761D01*
X188097619Y-122752380D01*
X187907142Y-122752380D01*
X187811904Y-122704761D01*
X187764285Y-122657142D01*
X187716666Y-122561904D01*
X187716666Y-121752380D01*
X186716666Y-122752380D02*
X187288095Y-122752380D01*
X187002380Y-122752380D02*
X187002380Y-121752380D01*
X187097619Y-121895238D01*
X187192857Y-121990476D01*
X187288095Y-122038095D01*
X185811904Y-121752380D02*
X186288095Y-121752380D01*
X186335714Y-122228571D01*
X186288095Y-122180952D01*
X186192857Y-122133333D01*
X185954761Y-122133333D01*
X185859523Y-122180952D01*
X185811904Y-122228571D01*
X185764285Y-122323809D01*
X185764285Y-122561904D01*
X185811904Y-122657142D01*
X185859523Y-122704761D01*
X185954761Y-122752380D01*
X186192857Y-122752380D01*
X186288095Y-122704761D01*
X186335714Y-122657142D01*
G04 #@! TO.C,SW1*
X148205952Y-77104761D02*
X148063095Y-77152380D01*
X147825000Y-77152380D01*
X147729761Y-77104761D01*
X147682142Y-77057142D01*
X147634523Y-76961904D01*
X147634523Y-76866666D01*
X147682142Y-76771428D01*
X147729761Y-76723809D01*
X147825000Y-76676190D01*
X148015476Y-76628571D01*
X148110714Y-76580952D01*
X148158333Y-76533333D01*
X148205952Y-76438095D01*
X148205952Y-76342857D01*
X148158333Y-76247619D01*
X148110714Y-76200000D01*
X148015476Y-76152380D01*
X147777380Y-76152380D01*
X147634523Y-76200000D01*
X147348809Y-76152380D02*
X146777380Y-76152380D01*
X147063095Y-77152380D02*
X147063095Y-76152380D01*
X146444047Y-77152380D02*
X146444047Y-76152380D01*
X146110714Y-76866666D01*
X145777380Y-76152380D01*
X145777380Y-77152380D01*
X145539285Y-77247619D02*
X144777380Y-77247619D01*
X143967857Y-77152380D02*
X144301190Y-76676190D01*
X144539285Y-77152380D02*
X144539285Y-76152380D01*
X144158333Y-76152380D01*
X144063095Y-76200000D01*
X144015476Y-76247619D01*
X143967857Y-76342857D01*
X143967857Y-76485714D01*
X144015476Y-76580952D01*
X144063095Y-76628571D01*
X144158333Y-76676190D01*
X144539285Y-76676190D01*
X143539285Y-76628571D02*
X143205952Y-76628571D01*
X143063095Y-77152380D02*
X143539285Y-77152380D01*
X143539285Y-76152380D01*
X143063095Y-76152380D01*
X142682142Y-77104761D02*
X142539285Y-77152380D01*
X142301190Y-77152380D01*
X142205952Y-77104761D01*
X142158333Y-77057142D01*
X142110714Y-76961904D01*
X142110714Y-76866666D01*
X142158333Y-76771428D01*
X142205952Y-76723809D01*
X142301190Y-76676190D01*
X142491666Y-76628571D01*
X142586904Y-76580952D01*
X142634523Y-76533333D01*
X142682142Y-76438095D01*
X142682142Y-76342857D01*
X142634523Y-76247619D01*
X142586904Y-76200000D01*
X142491666Y-76152380D01*
X142253571Y-76152380D01*
X142110714Y-76200000D01*
X141682142Y-76628571D02*
X141348809Y-76628571D01*
X141205952Y-77152380D02*
X141682142Y-77152380D01*
X141682142Y-76152380D01*
X141205952Y-76152380D01*
X140920238Y-76152380D02*
X140348809Y-76152380D01*
X140634523Y-77152380D02*
X140634523Y-76152380D01*
G04 #@! TO.C,SW2*
X128753377Y-140281223D02*
X128420044Y-140281223D01*
X128277186Y-140805032D02*
X128753377Y-140805032D01*
X128753377Y-139805032D01*
X128277186Y-139805032D01*
X127896234Y-140757413D02*
X127753377Y-140805032D01*
X127515282Y-140805032D01*
X127420044Y-140757413D01*
X127372424Y-140709794D01*
X127324805Y-140614556D01*
X127324805Y-140519318D01*
X127372424Y-140424080D01*
X127420044Y-140376461D01*
X127515282Y-140328842D01*
X127705758Y-140281223D01*
X127800996Y-140233604D01*
X127848615Y-140185985D01*
X127896234Y-140090747D01*
X127896234Y-139995509D01*
X127848615Y-139900271D01*
X127800996Y-139852652D01*
X127705758Y-139805032D01*
X127467663Y-139805032D01*
X127324805Y-139852652D01*
X126896234Y-140805032D02*
X126896234Y-139805032D01*
X126515282Y-139805032D01*
X126420044Y-139852652D01*
X126372424Y-139900271D01*
X126324805Y-139995509D01*
X126324805Y-140138366D01*
X126372424Y-140233604D01*
X126420044Y-140281223D01*
X126515282Y-140328842D01*
X126896234Y-140328842D01*
X126134329Y-140900271D02*
X125372424Y-140900271D01*
X124562901Y-140805032D02*
X124896234Y-140328842D01*
X125134329Y-140805032D02*
X125134329Y-139805032D01*
X124753377Y-139805032D01*
X124658139Y-139852652D01*
X124610520Y-139900271D01*
X124562901Y-139995509D01*
X124562901Y-140138366D01*
X124610520Y-140233604D01*
X124658139Y-140281223D01*
X124753377Y-140328842D01*
X125134329Y-140328842D01*
X124134329Y-140281223D02*
X123800996Y-140281223D01*
X123658139Y-140805032D02*
X124134329Y-140805032D01*
X124134329Y-139805032D01*
X123658139Y-139805032D01*
X123277186Y-140757413D02*
X123134329Y-140805032D01*
X122896234Y-140805032D01*
X122800996Y-140757413D01*
X122753377Y-140709794D01*
X122705758Y-140614556D01*
X122705758Y-140519318D01*
X122753377Y-140424080D01*
X122800996Y-140376461D01*
X122896234Y-140328842D01*
X123086710Y-140281223D01*
X123181948Y-140233604D01*
X123229567Y-140185985D01*
X123277186Y-140090747D01*
X123277186Y-139995509D01*
X123229567Y-139900271D01*
X123181948Y-139852652D01*
X123086710Y-139805032D01*
X122848615Y-139805032D01*
X122705758Y-139852652D01*
X122277186Y-140281223D02*
X121943853Y-140281223D01*
X121800996Y-140805032D02*
X122277186Y-140805032D01*
X122277186Y-139805032D01*
X121800996Y-139805032D01*
X121515282Y-139805032D02*
X120943853Y-139805032D01*
X121229567Y-140805032D02*
X121229567Y-139805032D01*
G04 #@! TO.C,SW3*
X128495238Y-100728571D02*
X128161904Y-100728571D01*
X128019047Y-101252380D02*
X128495238Y-101252380D01*
X128495238Y-100252380D01*
X128019047Y-100252380D01*
X127638095Y-101204761D02*
X127495238Y-101252380D01*
X127257142Y-101252380D01*
X127161904Y-101204761D01*
X127114285Y-101157142D01*
X127066666Y-101061904D01*
X127066666Y-100966666D01*
X127114285Y-100871428D01*
X127161904Y-100823809D01*
X127257142Y-100776190D01*
X127447619Y-100728571D01*
X127542857Y-100680952D01*
X127590476Y-100633333D01*
X127638095Y-100538095D01*
X127638095Y-100442857D01*
X127590476Y-100347619D01*
X127542857Y-100300000D01*
X127447619Y-100252380D01*
X127209523Y-100252380D01*
X127066666Y-100300000D01*
X126638095Y-101252380D02*
X126638095Y-100252380D01*
X126257142Y-100252380D01*
X126161904Y-100300000D01*
X126114285Y-100347619D01*
X126066666Y-100442857D01*
X126066666Y-100585714D01*
X126114285Y-100680952D01*
X126161904Y-100728571D01*
X126257142Y-100776190D01*
X126638095Y-100776190D01*
X125876190Y-101347619D02*
X125114285Y-101347619D01*
X124876190Y-101252380D02*
X124876190Y-100252380D01*
X124495238Y-100252380D01*
X124400000Y-100300000D01*
X124352380Y-100347619D01*
X124304761Y-100442857D01*
X124304761Y-100585714D01*
X124352380Y-100680952D01*
X124400000Y-100728571D01*
X124495238Y-100776190D01*
X124876190Y-100776190D01*
X123304761Y-101252380D02*
X123638095Y-100776190D01*
X123876190Y-101252380D02*
X123876190Y-100252380D01*
X123495238Y-100252380D01*
X123400000Y-100300000D01*
X123352380Y-100347619D01*
X123304761Y-100442857D01*
X123304761Y-100585714D01*
X123352380Y-100680952D01*
X123400000Y-100728571D01*
X123495238Y-100776190D01*
X123876190Y-100776190D01*
X122685714Y-100252380D02*
X122495238Y-100252380D01*
X122400000Y-100300000D01*
X122304761Y-100395238D01*
X122257142Y-100585714D01*
X122257142Y-100919047D01*
X122304761Y-101109523D01*
X122400000Y-101204761D01*
X122495238Y-101252380D01*
X122685714Y-101252380D01*
X122780952Y-101204761D01*
X122876190Y-101109523D01*
X122923809Y-100919047D01*
X122923809Y-100585714D01*
X122876190Y-100395238D01*
X122780952Y-100300000D01*
X122685714Y-100252380D01*
X121304761Y-100300000D02*
X121400000Y-100252380D01*
X121542857Y-100252380D01*
X121685714Y-100300000D01*
X121780952Y-100395238D01*
X121828571Y-100490476D01*
X121876190Y-100680952D01*
X121876190Y-100823809D01*
X121828571Y-101014285D01*
X121780952Y-101109523D01*
X121685714Y-101204761D01*
X121542857Y-101252380D01*
X121447619Y-101252380D01*
X121304761Y-101204761D01*
X121257142Y-101157142D01*
X121257142Y-100823809D01*
X121447619Y-100823809D01*
G04 #@! TO.C,P9*
X176027380Y-60497619D02*
X175027380Y-60497619D01*
X175027380Y-60735714D01*
X175075000Y-60878571D01*
X175170238Y-60973809D01*
X175265476Y-61021428D01*
X175455952Y-61069047D01*
X175598809Y-61069047D01*
X175789285Y-61021428D01*
X175884523Y-60973809D01*
X175979761Y-60878571D01*
X176027380Y-60735714D01*
X176027380Y-60497619D01*
X175503571Y-61497619D02*
X175503571Y-61830952D01*
X176027380Y-61973809D02*
X176027380Y-61497619D01*
X175027380Y-61497619D01*
X175027380Y-61973809D01*
X175503571Y-62735714D02*
X175551190Y-62878571D01*
X175598809Y-62926190D01*
X175694047Y-62973809D01*
X175836904Y-62973809D01*
X175932142Y-62926190D01*
X175979761Y-62878571D01*
X176027380Y-62783333D01*
X176027380Y-62402380D01*
X175027380Y-62402380D01*
X175027380Y-62735714D01*
X175075000Y-62830952D01*
X175122619Y-62878571D01*
X175217857Y-62926190D01*
X175313095Y-62926190D01*
X175408333Y-62878571D01*
X175455952Y-62830952D01*
X175503571Y-62735714D01*
X175503571Y-62402380D01*
X175027380Y-63402380D02*
X175836904Y-63402380D01*
X175932142Y-63450000D01*
X175979761Y-63497619D01*
X176027380Y-63592857D01*
X176027380Y-63783333D01*
X175979761Y-63878571D01*
X175932142Y-63926190D01*
X175836904Y-63973809D01*
X175027380Y-63973809D01*
X175075000Y-64973809D02*
X175027380Y-64878571D01*
X175027380Y-64735714D01*
X175075000Y-64592857D01*
X175170238Y-64497619D01*
X175265476Y-64450000D01*
X175455952Y-64402380D01*
X175598809Y-64402380D01*
X175789285Y-64450000D01*
X175884523Y-64497619D01*
X175979761Y-64592857D01*
X176027380Y-64735714D01*
X176027380Y-64830952D01*
X175979761Y-64973809D01*
X175932142Y-65021428D01*
X175598809Y-65021428D01*
X175598809Y-64830952D01*
X176122619Y-65211904D02*
X176122619Y-65973809D01*
X175027380Y-66211904D02*
X175836904Y-66211904D01*
X175932142Y-66259523D01*
X175979761Y-66307142D01*
X176027380Y-66402380D01*
X176027380Y-66592857D01*
X175979761Y-66688095D01*
X175932142Y-66735714D01*
X175836904Y-66783333D01*
X175027380Y-66783333D01*
X175741666Y-67211904D02*
X175741666Y-67688095D01*
X176027380Y-67116666D02*
X175027380Y-67450000D01*
X176027380Y-67783333D01*
X176027380Y-68688095D02*
X175551190Y-68354761D01*
X176027380Y-68116666D02*
X175027380Y-68116666D01*
X175027380Y-68497619D01*
X175075000Y-68592857D01*
X175122619Y-68640476D01*
X175217857Y-68688095D01*
X175360714Y-68688095D01*
X175455952Y-68640476D01*
X175503571Y-68592857D01*
X175551190Y-68497619D01*
X175551190Y-68116666D01*
X175027380Y-68973809D02*
X175027380Y-69545238D01*
X176027380Y-69259523D02*
X175027380Y-69259523D01*
G04 #@! TO.C,P10*
X173088095Y-138091666D02*
X172611904Y-138091666D01*
X173183333Y-138377380D02*
X172850000Y-137377380D01*
X172516666Y-138377380D01*
X172183333Y-137377380D02*
X172183333Y-138186904D01*
X172135714Y-138282142D01*
X172088095Y-138329761D01*
X171992857Y-138377380D01*
X171802380Y-138377380D01*
X171707142Y-138329761D01*
X171659523Y-138282142D01*
X171611904Y-138186904D01*
X171611904Y-137377380D01*
X171230952Y-137377380D02*
X170564285Y-138377380D01*
X170564285Y-137377380D02*
X171230952Y-138377380D01*
G04 #@! TO.C,U10*
X152277380Y-65086904D02*
X153086904Y-65086904D01*
X153182142Y-65134523D01*
X153229761Y-65182142D01*
X153277380Y-65277380D01*
X153277380Y-65467857D01*
X153229761Y-65563095D01*
X153182142Y-65610714D01*
X153086904Y-65658333D01*
X152277380Y-65658333D01*
X153277380Y-66658333D02*
X153277380Y-66086904D01*
X153277380Y-66372619D02*
X152277380Y-66372619D01*
X152420238Y-66277380D01*
X152515476Y-66182142D01*
X152563095Y-66086904D01*
X152277380Y-67277380D02*
X152277380Y-67372619D01*
X152325000Y-67467857D01*
X152372619Y-67515476D01*
X152467857Y-67563095D01*
X152658333Y-67610714D01*
X152896428Y-67610714D01*
X153086904Y-67563095D01*
X153182142Y-67515476D01*
X153229761Y-67467857D01*
X153277380Y-67372619D01*
X153277380Y-67277380D01*
X153229761Y-67182142D01*
X153182142Y-67134523D01*
X153086904Y-67086904D01*
X152896428Y-67039285D01*
X152658333Y-67039285D01*
X152467857Y-67086904D01*
X152372619Y-67134523D01*
X152325000Y-67182142D01*
X152277380Y-67277380D01*
G04 #@! TD*
M02*
