G04 #@! TF.GenerationSoftware,KiCad,Pcbnew,(5.0.0)*
G04 #@! TF.CreationDate,2020-04-25T19:52:07+02:00*
G04 #@! TF.ProjectId,ButtonBoard,427574746F6E426F6172642E6B696361,rev?*
G04 #@! TF.SameCoordinates,Original*
G04 #@! TF.FileFunction,Legend,Bot*
G04 #@! TF.FilePolarity,Positive*
%FSLAX46Y46*%
G04 Gerber Fmt 4.6, Leading zero omitted, Abs format (unit mm)*
G04 Created by KiCad (PCBNEW (5.0.0)) date 04/25/20 19:52:07*
%MOMM*%
%LPD*%
G01*
G04 APERTURE LIST*
%ADD10C,0.120000*%
%ADD11C,0.150000*%
G04 APERTURE END LIST*
D10*
G04 #@! TO.C,TOG*
X65716300Y-116300100D02*
X65416300Y-116000100D01*
X65416300Y-116600100D02*
X65416300Y-116000100D01*
X65716300Y-116300100D02*
X65416300Y-116600100D01*
X66616300Y-117150100D02*
X67216300Y-117150100D01*
X65916300Y-113700100D02*
X65916300Y-116500100D01*
X67216300Y-113050100D02*
X66616300Y-113050100D01*
X67916300Y-116500100D02*
X67916300Y-113700100D01*
X67916300Y-113750100D02*
G75*
G03X67216300Y-113050100I-700000J0D01*
G01*
X66616300Y-113050100D02*
G75*
G03X65916300Y-113750100I0J-700000D01*
G01*
X65916300Y-116450100D02*
G75*
G03X66616300Y-117150100I700000J0D01*
G01*
X67216300Y-117150100D02*
G75*
G03X67916300Y-116450100I0J700000D01*
G01*
G04 #@! TO.C,AHLB*
X67216300Y-121811000D02*
G75*
G03X67916300Y-121111000I0J700000D01*
G01*
X65916300Y-121111000D02*
G75*
G03X66616300Y-121811000I700000J0D01*
G01*
X66616300Y-117711000D02*
G75*
G03X65916300Y-118411000I0J-700000D01*
G01*
X67916300Y-118411000D02*
G75*
G03X67216300Y-117711000I-700000J0D01*
G01*
X67916300Y-121161000D02*
X67916300Y-118361000D01*
X67216300Y-117711000D02*
X66616300Y-117711000D01*
X65916300Y-118361000D02*
X65916300Y-121161000D01*
X66616300Y-121811000D02*
X67216300Y-121811000D01*
X65716300Y-120961000D02*
X65416300Y-121261000D01*
X65416300Y-121261000D02*
X65416300Y-120661000D01*
X65716300Y-120961000D02*
X65416300Y-120661000D01*
G04 #@! TO.C,P11*
X73535000Y-95340000D02*
X75335000Y-95340000D01*
X75335000Y-95340000D02*
X75335000Y-97190000D01*
X75335000Y-97190000D02*
X76075000Y-97190000D01*
X73535000Y-102660000D02*
X75335000Y-102660000D01*
X75335000Y-102660000D02*
X75335000Y-100810000D01*
X70215000Y-95340000D02*
X69665000Y-95340000D01*
X69665000Y-95340000D02*
X69665000Y-102660000D01*
X69665000Y-102660000D02*
X70215000Y-102660000D01*
G04 #@! TO.C,U16*
X74914400Y-107646900D02*
X74914400Y-109446900D01*
X71694400Y-109446900D02*
X71694400Y-106996900D01*
G04 #@! TD*
G04 #@! TO.C,TOG*
D11*
X69318119Y-116409623D02*
X69318119Y-115838195D01*
X68318119Y-116123909D02*
X69318119Y-116123909D01*
X69318119Y-115314385D02*
X69318119Y-115123909D01*
X69270500Y-115028671D01*
X69175261Y-114933433D01*
X68984785Y-114885814D01*
X68651452Y-114885814D01*
X68460976Y-114933433D01*
X68365738Y-115028671D01*
X68318119Y-115123909D01*
X68318119Y-115314385D01*
X68365738Y-115409623D01*
X68460976Y-115504861D01*
X68651452Y-115552480D01*
X68984785Y-115552480D01*
X69175261Y-115504861D01*
X69270500Y-115409623D01*
X69318119Y-115314385D01*
X69270500Y-113933433D02*
X69318119Y-114028671D01*
X69318119Y-114171528D01*
X69270500Y-114314385D01*
X69175261Y-114409623D01*
X69080023Y-114457242D01*
X68889547Y-114504861D01*
X68746690Y-114504861D01*
X68556214Y-114457242D01*
X68460976Y-114409623D01*
X68365738Y-114314385D01*
X68318119Y-114171528D01*
X68318119Y-114076290D01*
X68365738Y-113933433D01*
X68413357Y-113885814D01*
X68746690Y-113885814D01*
X68746690Y-114076290D01*
G04 #@! TO.C,AHLB*
X68616533Y-121427666D02*
X68616533Y-120951476D01*
X68330819Y-121522904D02*
X69330819Y-121189571D01*
X68330819Y-120856238D01*
X68330819Y-120522904D02*
X69330819Y-120522904D01*
X68854628Y-120522904D02*
X68854628Y-119951476D01*
X68330819Y-119951476D02*
X69330819Y-119951476D01*
X68330819Y-118999095D02*
X68330819Y-119475285D01*
X69330819Y-119475285D01*
X68854628Y-118332428D02*
X68807009Y-118189571D01*
X68759390Y-118141952D01*
X68664152Y-118094333D01*
X68521295Y-118094333D01*
X68426057Y-118141952D01*
X68378438Y-118189571D01*
X68330819Y-118284809D01*
X68330819Y-118665761D01*
X69330819Y-118665761D01*
X69330819Y-118332428D01*
X69283200Y-118237190D01*
X69235580Y-118189571D01*
X69140342Y-118141952D01*
X69045104Y-118141952D01*
X68949866Y-118189571D01*
X68902247Y-118237190D01*
X68854628Y-118332428D01*
X68854628Y-118665761D01*
G04 #@! TO.C,C39*
X72491542Y-111625142D02*
X72539161Y-111577523D01*
X72586780Y-111434666D01*
X72586780Y-111339428D01*
X72539161Y-111196571D01*
X72443923Y-111101333D01*
X72348685Y-111053714D01*
X72158209Y-111006095D01*
X72015352Y-111006095D01*
X71824876Y-111053714D01*
X71729638Y-111101333D01*
X71634400Y-111196571D01*
X71586780Y-111339428D01*
X71586780Y-111434666D01*
X71634400Y-111577523D01*
X71682019Y-111625142D01*
X71586780Y-111958476D02*
X71586780Y-112577523D01*
X71967733Y-112244190D01*
X71967733Y-112387047D01*
X72015352Y-112482285D01*
X72062971Y-112529904D01*
X72158209Y-112577523D01*
X72396304Y-112577523D01*
X72491542Y-112529904D01*
X72539161Y-112482285D01*
X72586780Y-112387047D01*
X72586780Y-112101333D01*
X72539161Y-112006095D01*
X72491542Y-111958476D01*
X72586780Y-113053714D02*
X72586780Y-113244190D01*
X72539161Y-113339428D01*
X72491542Y-113387047D01*
X72348685Y-113482285D01*
X72158209Y-113529904D01*
X71777257Y-113529904D01*
X71682019Y-113482285D01*
X71634400Y-113434666D01*
X71586780Y-113339428D01*
X71586780Y-113148952D01*
X71634400Y-113053714D01*
X71682019Y-113006095D01*
X71777257Y-112958476D01*
X72015352Y-112958476D01*
X72110590Y-113006095D01*
X72158209Y-113053714D01*
X72205828Y-113148952D01*
X72205828Y-113339428D01*
X72158209Y-113434666D01*
X72110590Y-113482285D01*
X72015352Y-113529904D01*
G04 #@! TO.C,C40*
X74429857Y-104393942D02*
X74477476Y-104441561D01*
X74620333Y-104489180D01*
X74715571Y-104489180D01*
X74858428Y-104441561D01*
X74953666Y-104346323D01*
X75001285Y-104251085D01*
X75048904Y-104060609D01*
X75048904Y-103917752D01*
X75001285Y-103727276D01*
X74953666Y-103632038D01*
X74858428Y-103536800D01*
X74715571Y-103489180D01*
X74620333Y-103489180D01*
X74477476Y-103536800D01*
X74429857Y-103584419D01*
X73572714Y-103822514D02*
X73572714Y-104489180D01*
X73810809Y-103441561D02*
X74048904Y-104155847D01*
X73429857Y-104155847D01*
X72858428Y-103489180D02*
X72763190Y-103489180D01*
X72667952Y-103536800D01*
X72620333Y-103584419D01*
X72572714Y-103679657D01*
X72525095Y-103870133D01*
X72525095Y-104108228D01*
X72572714Y-104298704D01*
X72620333Y-104393942D01*
X72667952Y-104441561D01*
X72763190Y-104489180D01*
X72858428Y-104489180D01*
X72953666Y-104441561D01*
X73001285Y-104393942D01*
X73048904Y-104298704D01*
X73096523Y-104108228D01*
X73096523Y-103870133D01*
X73048904Y-103679657D01*
X73001285Y-103584419D01*
X72953666Y-103536800D01*
X72858428Y-103489180D01*
G04 #@! TO.C,P11*
X69027380Y-97785714D02*
X68027380Y-97785714D01*
X68027380Y-98166666D01*
X68075000Y-98261904D01*
X68122619Y-98309523D01*
X68217857Y-98357142D01*
X68360714Y-98357142D01*
X68455952Y-98309523D01*
X68503571Y-98261904D01*
X68551190Y-98166666D01*
X68551190Y-97785714D01*
X69027380Y-99309523D02*
X69027380Y-98738095D01*
X69027380Y-99023809D02*
X68027380Y-99023809D01*
X68170238Y-98928571D01*
X68265476Y-98833333D01*
X68313095Y-98738095D01*
X69027380Y-100261904D02*
X69027380Y-99690476D01*
X69027380Y-99976190D02*
X68027380Y-99976190D01*
X68170238Y-99880952D01*
X68265476Y-99785714D01*
X68313095Y-99690476D01*
G04 #@! TO.C,U16*
X69856780Y-107308804D02*
X70666304Y-107308804D01*
X70761542Y-107356423D01*
X70809161Y-107404042D01*
X70856780Y-107499280D01*
X70856780Y-107689757D01*
X70809161Y-107784995D01*
X70761542Y-107832614D01*
X70666304Y-107880233D01*
X69856780Y-107880233D01*
X70856780Y-108880233D02*
X70856780Y-108308804D01*
X70856780Y-108594519D02*
X69856780Y-108594519D01*
X69999638Y-108499280D01*
X70094876Y-108404042D01*
X70142495Y-108308804D01*
X69856780Y-109737376D02*
X69856780Y-109546900D01*
X69904400Y-109451661D01*
X69952019Y-109404042D01*
X70094876Y-109308804D01*
X70285352Y-109261185D01*
X70666304Y-109261185D01*
X70761542Y-109308804D01*
X70809161Y-109356423D01*
X70856780Y-109451661D01*
X70856780Y-109642138D01*
X70809161Y-109737376D01*
X70761542Y-109784995D01*
X70666304Y-109832614D01*
X70428209Y-109832614D01*
X70332971Y-109784995D01*
X70285352Y-109737376D01*
X70237733Y-109642138D01*
X70237733Y-109451661D01*
X70285352Y-109356423D01*
X70332971Y-109308804D01*
X70428209Y-109261185D01*
G04 #@! TD*
M02*
