G04 #@! TF.GenerationSoftware,KiCad,Pcbnew,(5.0.0)*
G04 #@! TF.CreationDate,2020-04-25T19:52:07+02:00*
G04 #@! TF.ProjectId,ButtonBoard,427574746F6E426F6172642E6B696361,rev?*
G04 #@! TF.SameCoordinates,Original*
G04 #@! TF.FileFunction,Soldermask,Bot*
G04 #@! TF.FilePolarity,Negative*
%FSLAX46Y46*%
G04 Gerber Fmt 4.6, Leading zero omitted, Abs format (unit mm)*
G04 Created by KiCad (PCBNEW (5.0.0)) date 04/25/20 19:52:07*
%MOMM*%
%LPD*%
G01*
G04 APERTURE LIST*
%ADD10C,0.500000*%
%ADD11C,0.100000*%
%ADD12R,1.500000X1.000000*%
%ADD13C,3.200000*%
%ADD14C,0.590000*%
%ADD15R,1.700000X0.600000*%
%ADD16R,2.800000X1.000000*%
%ADD17R,0.650000X1.060000*%
G04 APERTURE END LIST*
D10*
G04 #@! TO.C,TOG*
X66916300Y-116400100D03*
D11*
G36*
X67666300Y-115850100D02*
X67666300Y-116400100D01*
X67665698Y-116400100D01*
X67665698Y-116424634D01*
X67660888Y-116473465D01*
X67651316Y-116521590D01*
X67637072Y-116568545D01*
X67618295Y-116613878D01*
X67595164Y-116657151D01*
X67567904Y-116697950D01*
X67536776Y-116735879D01*
X67502079Y-116770576D01*
X67464150Y-116801704D01*
X67423351Y-116828964D01*
X67380078Y-116852095D01*
X67334745Y-116870872D01*
X67287790Y-116885116D01*
X67239665Y-116894688D01*
X67190834Y-116899498D01*
X67166300Y-116899498D01*
X67166300Y-116900100D01*
X66666300Y-116900100D01*
X66666300Y-116899498D01*
X66641766Y-116899498D01*
X66592935Y-116894688D01*
X66544810Y-116885116D01*
X66497855Y-116870872D01*
X66452522Y-116852095D01*
X66409249Y-116828964D01*
X66368450Y-116801704D01*
X66330521Y-116770576D01*
X66295824Y-116735879D01*
X66264696Y-116697950D01*
X66237436Y-116657151D01*
X66214305Y-116613878D01*
X66195528Y-116568545D01*
X66181284Y-116521590D01*
X66171712Y-116473465D01*
X66166902Y-116424634D01*
X66166902Y-116400100D01*
X66166300Y-116400100D01*
X66166300Y-115850100D01*
X67666300Y-115850100D01*
X67666300Y-115850100D01*
G37*
D10*
X66916300Y-113800100D03*
D11*
G36*
X66166902Y-113800100D02*
X66166902Y-113775566D01*
X66171712Y-113726735D01*
X66181284Y-113678610D01*
X66195528Y-113631655D01*
X66214305Y-113586322D01*
X66237436Y-113543049D01*
X66264696Y-113502250D01*
X66295824Y-113464321D01*
X66330521Y-113429624D01*
X66368450Y-113398496D01*
X66409249Y-113371236D01*
X66452522Y-113348105D01*
X66497855Y-113329328D01*
X66544810Y-113315084D01*
X66592935Y-113305512D01*
X66641766Y-113300702D01*
X66666300Y-113300702D01*
X66666300Y-113300100D01*
X67166300Y-113300100D01*
X67166300Y-113300702D01*
X67190834Y-113300702D01*
X67239665Y-113305512D01*
X67287790Y-113315084D01*
X67334745Y-113329328D01*
X67380078Y-113348105D01*
X67423351Y-113371236D01*
X67464150Y-113398496D01*
X67502079Y-113429624D01*
X67536776Y-113464321D01*
X67567904Y-113502250D01*
X67595164Y-113543049D01*
X67618295Y-113586322D01*
X67637072Y-113631655D01*
X67651316Y-113678610D01*
X67660888Y-113726735D01*
X67665698Y-113775566D01*
X67665698Y-113800100D01*
X67666300Y-113800100D01*
X67666300Y-114350100D01*
X66166300Y-114350100D01*
X66166300Y-113800100D01*
X66166902Y-113800100D01*
X66166902Y-113800100D01*
G37*
D12*
X66916300Y-115100100D03*
G04 #@! TD*
G04 #@! TO.C,AHLB*
X66916300Y-119761000D03*
D10*
X66916300Y-118461000D03*
D11*
G36*
X66166902Y-118461000D02*
X66166902Y-118436466D01*
X66171712Y-118387635D01*
X66181284Y-118339510D01*
X66195528Y-118292555D01*
X66214305Y-118247222D01*
X66237436Y-118203949D01*
X66264696Y-118163150D01*
X66295824Y-118125221D01*
X66330521Y-118090524D01*
X66368450Y-118059396D01*
X66409249Y-118032136D01*
X66452522Y-118009005D01*
X66497855Y-117990228D01*
X66544810Y-117975984D01*
X66592935Y-117966412D01*
X66641766Y-117961602D01*
X66666300Y-117961602D01*
X66666300Y-117961000D01*
X67166300Y-117961000D01*
X67166300Y-117961602D01*
X67190834Y-117961602D01*
X67239665Y-117966412D01*
X67287790Y-117975984D01*
X67334745Y-117990228D01*
X67380078Y-118009005D01*
X67423351Y-118032136D01*
X67464150Y-118059396D01*
X67502079Y-118090524D01*
X67536776Y-118125221D01*
X67567904Y-118163150D01*
X67595164Y-118203949D01*
X67618295Y-118247222D01*
X67637072Y-118292555D01*
X67651316Y-118339510D01*
X67660888Y-118387635D01*
X67665698Y-118436466D01*
X67665698Y-118461000D01*
X67666300Y-118461000D01*
X67666300Y-119011000D01*
X66166300Y-119011000D01*
X66166300Y-118461000D01*
X66166902Y-118461000D01*
X66166902Y-118461000D01*
G37*
D10*
X66916300Y-121061000D03*
D11*
G36*
X67666300Y-120511000D02*
X67666300Y-121061000D01*
X67665698Y-121061000D01*
X67665698Y-121085534D01*
X67660888Y-121134365D01*
X67651316Y-121182490D01*
X67637072Y-121229445D01*
X67618295Y-121274778D01*
X67595164Y-121318051D01*
X67567904Y-121358850D01*
X67536776Y-121396779D01*
X67502079Y-121431476D01*
X67464150Y-121462604D01*
X67423351Y-121489864D01*
X67380078Y-121512995D01*
X67334745Y-121531772D01*
X67287790Y-121546016D01*
X67239665Y-121555588D01*
X67190834Y-121560398D01*
X67166300Y-121560398D01*
X67166300Y-121561000D01*
X66666300Y-121561000D01*
X66666300Y-121560398D01*
X66641766Y-121560398D01*
X66592935Y-121555588D01*
X66544810Y-121546016D01*
X66497855Y-121531772D01*
X66452522Y-121512995D01*
X66409249Y-121489864D01*
X66368450Y-121462604D01*
X66330521Y-121431476D01*
X66295824Y-121396779D01*
X66264696Y-121358850D01*
X66237436Y-121318051D01*
X66214305Y-121274778D01*
X66195528Y-121229445D01*
X66181284Y-121182490D01*
X66171712Y-121134365D01*
X66166902Y-121085534D01*
X66166902Y-121061000D01*
X66166300Y-121061000D01*
X66166300Y-120511000D01*
X67666300Y-120511000D01*
X67666300Y-120511000D01*
G37*
G04 #@! TD*
D13*
G04 #@! TO.C,REF\002A\002A*
X123500000Y-139500000D03*
G04 #@! TD*
G04 #@! TO.C,REF\002A\002A*
X123500000Y-58500000D03*
G04 #@! TD*
G04 #@! TO.C,REF\002A\002A*
X63500000Y-139500000D03*
G04 #@! TD*
D11*
G04 #@! TO.C,C39*
G36*
X73491358Y-112458710D02*
X73505676Y-112460834D01*
X73519717Y-112464351D01*
X73533346Y-112469228D01*
X73546431Y-112475417D01*
X73558847Y-112482858D01*
X73570473Y-112491481D01*
X73581198Y-112501202D01*
X73590919Y-112511927D01*
X73599542Y-112523553D01*
X73606983Y-112535969D01*
X73613172Y-112549054D01*
X73618049Y-112562683D01*
X73621566Y-112576724D01*
X73623690Y-112591042D01*
X73624400Y-112605500D01*
X73624400Y-112900500D01*
X73623690Y-112914958D01*
X73621566Y-112929276D01*
X73618049Y-112943317D01*
X73613172Y-112956946D01*
X73606983Y-112970031D01*
X73599542Y-112982447D01*
X73590919Y-112994073D01*
X73581198Y-113004798D01*
X73570473Y-113014519D01*
X73558847Y-113023142D01*
X73546431Y-113030583D01*
X73533346Y-113036772D01*
X73519717Y-113041649D01*
X73505676Y-113045166D01*
X73491358Y-113047290D01*
X73476900Y-113048000D01*
X73131900Y-113048000D01*
X73117442Y-113047290D01*
X73103124Y-113045166D01*
X73089083Y-113041649D01*
X73075454Y-113036772D01*
X73062369Y-113030583D01*
X73049953Y-113023142D01*
X73038327Y-113014519D01*
X73027602Y-113004798D01*
X73017881Y-112994073D01*
X73009258Y-112982447D01*
X73001817Y-112970031D01*
X72995628Y-112956946D01*
X72990751Y-112943317D01*
X72987234Y-112929276D01*
X72985110Y-112914958D01*
X72984400Y-112900500D01*
X72984400Y-112605500D01*
X72985110Y-112591042D01*
X72987234Y-112576724D01*
X72990751Y-112562683D01*
X72995628Y-112549054D01*
X73001817Y-112535969D01*
X73009258Y-112523553D01*
X73017881Y-112511927D01*
X73027602Y-112501202D01*
X73038327Y-112491481D01*
X73049953Y-112482858D01*
X73062369Y-112475417D01*
X73075454Y-112469228D01*
X73089083Y-112464351D01*
X73103124Y-112460834D01*
X73117442Y-112458710D01*
X73131900Y-112458000D01*
X73476900Y-112458000D01*
X73491358Y-112458710D01*
X73491358Y-112458710D01*
G37*
D14*
X73304400Y-112753000D03*
D11*
G36*
X73491358Y-111488710D02*
X73505676Y-111490834D01*
X73519717Y-111494351D01*
X73533346Y-111499228D01*
X73546431Y-111505417D01*
X73558847Y-111512858D01*
X73570473Y-111521481D01*
X73581198Y-111531202D01*
X73590919Y-111541927D01*
X73599542Y-111553553D01*
X73606983Y-111565969D01*
X73613172Y-111579054D01*
X73618049Y-111592683D01*
X73621566Y-111606724D01*
X73623690Y-111621042D01*
X73624400Y-111635500D01*
X73624400Y-111930500D01*
X73623690Y-111944958D01*
X73621566Y-111959276D01*
X73618049Y-111973317D01*
X73613172Y-111986946D01*
X73606983Y-112000031D01*
X73599542Y-112012447D01*
X73590919Y-112024073D01*
X73581198Y-112034798D01*
X73570473Y-112044519D01*
X73558847Y-112053142D01*
X73546431Y-112060583D01*
X73533346Y-112066772D01*
X73519717Y-112071649D01*
X73505676Y-112075166D01*
X73491358Y-112077290D01*
X73476900Y-112078000D01*
X73131900Y-112078000D01*
X73117442Y-112077290D01*
X73103124Y-112075166D01*
X73089083Y-112071649D01*
X73075454Y-112066772D01*
X73062369Y-112060583D01*
X73049953Y-112053142D01*
X73038327Y-112044519D01*
X73027602Y-112034798D01*
X73017881Y-112024073D01*
X73009258Y-112012447D01*
X73001817Y-112000031D01*
X72995628Y-111986946D01*
X72990751Y-111973317D01*
X72987234Y-111959276D01*
X72985110Y-111944958D01*
X72984400Y-111930500D01*
X72984400Y-111635500D01*
X72985110Y-111621042D01*
X72987234Y-111606724D01*
X72990751Y-111592683D01*
X72995628Y-111579054D01*
X73001817Y-111565969D01*
X73009258Y-111553553D01*
X73017881Y-111541927D01*
X73027602Y-111531202D01*
X73038327Y-111521481D01*
X73049953Y-111512858D01*
X73062369Y-111505417D01*
X73075454Y-111499228D01*
X73089083Y-111494351D01*
X73103124Y-111490834D01*
X73117442Y-111488710D01*
X73131900Y-111488000D01*
X73476900Y-111488000D01*
X73491358Y-111488710D01*
X73491358Y-111488710D01*
G37*
D14*
X73304400Y-111783000D03*
G04 #@! TD*
D11*
G04 #@! TO.C,C40*
G36*
X74433958Y-104887510D02*
X74448276Y-104889634D01*
X74462317Y-104893151D01*
X74475946Y-104898028D01*
X74489031Y-104904217D01*
X74501447Y-104911658D01*
X74513073Y-104920281D01*
X74523798Y-104930002D01*
X74533519Y-104940727D01*
X74542142Y-104952353D01*
X74549583Y-104964769D01*
X74555772Y-104977854D01*
X74560649Y-104991483D01*
X74564166Y-105005524D01*
X74566290Y-105019842D01*
X74567000Y-105034300D01*
X74567000Y-105379300D01*
X74566290Y-105393758D01*
X74564166Y-105408076D01*
X74560649Y-105422117D01*
X74555772Y-105435746D01*
X74549583Y-105448831D01*
X74542142Y-105461247D01*
X74533519Y-105472873D01*
X74523798Y-105483598D01*
X74513073Y-105493319D01*
X74501447Y-105501942D01*
X74489031Y-105509383D01*
X74475946Y-105515572D01*
X74462317Y-105520449D01*
X74448276Y-105523966D01*
X74433958Y-105526090D01*
X74419500Y-105526800D01*
X74124500Y-105526800D01*
X74110042Y-105526090D01*
X74095724Y-105523966D01*
X74081683Y-105520449D01*
X74068054Y-105515572D01*
X74054969Y-105509383D01*
X74042553Y-105501942D01*
X74030927Y-105493319D01*
X74020202Y-105483598D01*
X74010481Y-105472873D01*
X74001858Y-105461247D01*
X73994417Y-105448831D01*
X73988228Y-105435746D01*
X73983351Y-105422117D01*
X73979834Y-105408076D01*
X73977710Y-105393758D01*
X73977000Y-105379300D01*
X73977000Y-105034300D01*
X73977710Y-105019842D01*
X73979834Y-105005524D01*
X73983351Y-104991483D01*
X73988228Y-104977854D01*
X73994417Y-104964769D01*
X74001858Y-104952353D01*
X74010481Y-104940727D01*
X74020202Y-104930002D01*
X74030927Y-104920281D01*
X74042553Y-104911658D01*
X74054969Y-104904217D01*
X74068054Y-104898028D01*
X74081683Y-104893151D01*
X74095724Y-104889634D01*
X74110042Y-104887510D01*
X74124500Y-104886800D01*
X74419500Y-104886800D01*
X74433958Y-104887510D01*
X74433958Y-104887510D01*
G37*
D14*
X74272000Y-105206800D03*
D11*
G36*
X73463958Y-104887510D02*
X73478276Y-104889634D01*
X73492317Y-104893151D01*
X73505946Y-104898028D01*
X73519031Y-104904217D01*
X73531447Y-104911658D01*
X73543073Y-104920281D01*
X73553798Y-104930002D01*
X73563519Y-104940727D01*
X73572142Y-104952353D01*
X73579583Y-104964769D01*
X73585772Y-104977854D01*
X73590649Y-104991483D01*
X73594166Y-105005524D01*
X73596290Y-105019842D01*
X73597000Y-105034300D01*
X73597000Y-105379300D01*
X73596290Y-105393758D01*
X73594166Y-105408076D01*
X73590649Y-105422117D01*
X73585772Y-105435746D01*
X73579583Y-105448831D01*
X73572142Y-105461247D01*
X73563519Y-105472873D01*
X73553798Y-105483598D01*
X73543073Y-105493319D01*
X73531447Y-105501942D01*
X73519031Y-105509383D01*
X73505946Y-105515572D01*
X73492317Y-105520449D01*
X73478276Y-105523966D01*
X73463958Y-105526090D01*
X73449500Y-105526800D01*
X73154500Y-105526800D01*
X73140042Y-105526090D01*
X73125724Y-105523966D01*
X73111683Y-105520449D01*
X73098054Y-105515572D01*
X73084969Y-105509383D01*
X73072553Y-105501942D01*
X73060927Y-105493319D01*
X73050202Y-105483598D01*
X73040481Y-105472873D01*
X73031858Y-105461247D01*
X73024417Y-105448831D01*
X73018228Y-105435746D01*
X73013351Y-105422117D01*
X73009834Y-105408076D01*
X73007710Y-105393758D01*
X73007000Y-105379300D01*
X73007000Y-105034300D01*
X73007710Y-105019842D01*
X73009834Y-105005524D01*
X73013351Y-104991483D01*
X73018228Y-104977854D01*
X73024417Y-104964769D01*
X73031858Y-104952353D01*
X73040481Y-104940727D01*
X73050202Y-104930002D01*
X73060927Y-104920281D01*
X73072553Y-104911658D01*
X73084969Y-104904217D01*
X73098054Y-104898028D01*
X73111683Y-104893151D01*
X73125724Y-104889634D01*
X73140042Y-104887510D01*
X73154500Y-104886800D01*
X73449500Y-104886800D01*
X73463958Y-104887510D01*
X73463958Y-104887510D01*
G37*
D14*
X73302000Y-105206800D03*
G04 #@! TD*
D15*
G04 #@! TO.C,P11*
X75225000Y-97750000D03*
X75225000Y-99000000D03*
X75225000Y-100250000D03*
D16*
X71875000Y-95900000D03*
X71875000Y-102100000D03*
G04 #@! TD*
D17*
G04 #@! TO.C,U16*
X72354400Y-107446900D03*
X73304400Y-107446900D03*
X74254400Y-107446900D03*
X74254400Y-109646900D03*
X72354400Y-109646900D03*
X73304400Y-109646900D03*
G04 #@! TD*
D13*
G04 #@! TO.C,REF\002A\002A*
X63500000Y-58500000D03*
G04 #@! TD*
M02*
